M48
METRIC,TZ
T1C0.300
T2C0.500
T3C0.600
T4C0.750
T5C0.800
T6C1.000
T7C1.200
T8C2.100
T9C2.700
T10C0.650
T11C0.991
%
G90
G05
T1
X51100Y-89200
X51350Y-60750
X52200Y-68900
X53000Y-58000
X55840Y-56760
X56400Y-66000
X56500Y-71200
X56500Y-74100
X56741Y-60659
X57600Y-72700
X59480Y-98000
X61500Y-67900
X62100Y-58100
X63015Y-96839
X63200Y-57100
X63600Y-75500
X63600Y-85400
X63865Y-96839
X66000Y-57800
X66600Y-70100
X67470Y-97780
X67800Y-84900
X67900Y-67500
X68000Y-60000
X68000Y-62500
X68000Y-65000
X68500Y-96800
X68600Y-85900
X68700Y-70500
X69186Y-90386
X69787Y-90987
X71020Y-67820
X71200Y-61200
X71250Y-57820
X71500Y-84000
X72000Y-87100
X72000Y-92400
X72400Y-99500
X72600Y-93200
X73600Y-93300
X74300Y-70700
X74500Y-96300
X75100Y-64550
X75131Y-82561
X75400Y-93600
X75460Y-81060
X75950Y-66510
X76760Y-70420
X76878Y-96407
X77000Y-89300
X77100Y-95082
X77900Y-62500
X78000Y-95000
X78000Y-95900
X78600Y-91000
X79450Y-92200
X79900Y-58390
X80690Y-69330
X81190Y-58536
X81330Y-70400
X81900Y-60120
X82490Y-68700
X82900Y-81200
X83240Y-71570
X84110Y-68680
X84140Y-62290
X84500Y-96800
X85080Y-70470
X85530Y-66900
X85710Y-62440
X85747Y-96123
X85807Y-72143
X86250Y-58460
X86290Y-69760
X86701Y-59209
X86770Y-60060
X86800Y-96000
X88030Y-72330
X88250Y-59240
X88250Y-60120
X88330Y-58320
X89800Y-97400
X90500Y-74100
X90500Y-76200
X90710Y-94390
X90800Y-90600
X90871Y-86610
X91280Y-75040
X91560Y-70080
X91840Y-65490
X92090Y-57767
X92240Y-67020
X92400Y-84850
X92700Y-76700
X93053Y-86230
X93446Y-73834
X93480Y-80970
X94120Y-74670
X94500Y-82200
X94500Y-83400
X94920Y-85010
X94930Y-76490
X95100Y-80000
X96540Y-75740
X96810Y-57930
X96909Y-86791
X97000Y-82800
X97450Y-87400
X97894Y-60914
X98100Y-85200
X98290Y-61560
X98420Y-75590
X98471Y-76810
X98570Y-60379
X98700Y-85850
X98795Y-62119
X98890Y-100390
X99055Y-72633
X99300Y-98500
X99900Y-71500
X100200Y-98500
X100581Y-81000
X100600Y-89100
X101134Y-74966
X101140Y-58830
X101200Y-93850
X101220Y-98590
X101750Y-75650
X102730Y-69970
X102740Y-58470
X103200Y-72900
X103600Y-65100
X103900Y-73500
X104400Y-66194
X104400Y-68253
X104650Y-93850
X104800Y-63180
X105150Y-66747
X105152Y-68300
X105490Y-74010
X105600Y-76800
X105869Y-68671
X105930Y-66570
X106100Y-95950
X106300Y-73440
X106400Y-91300
X107150Y-92950
X108000Y-92950
X108140Y-62490
X109800Y-91300
X110600Y-80300
X110600Y-81600
X57750Y-59750
X58750Y-59750
X58975Y-70500
X59725Y-69725
X59725Y-70500
X59725Y-71275
X60775Y-69725
X60775Y-70500
X60775Y-71275
X61525Y-70500
X72800Y-89200
X72800Y-90300
X72800Y-91400
X73900Y-89200
X73900Y-90300
X73900Y-91400
X75000Y-89200
X75000Y-90300
X75000Y-91400
T2
X87100Y-93000
T4
X84600Y-100100
X86600Y-100100
T5
X91000Y-102000
X91000Y-104000
T6
X110500Y-60000
X110500Y-62540
X110500Y-65080
X110500Y-67620
X110500Y-70160
X113040Y-60000
X113040Y-62540
X113040Y-65080
X113040Y-67620
X113040Y-70160
X113000Y-87380
X113000Y-89920
X113000Y-92460
X113000Y-95000
X99950Y-76660
X99950Y-79200
X81200Y-64360
X81200Y-66900
X113000Y-76000
X113000Y-78540
X113000Y-81080
X108000Y-77000
X108000Y-79540
X108000Y-82080
X108000Y-84620
X108000Y-87160
X108000Y-89700
T7
X53250Y-93000
X53250Y-96500
X58370Y-52730
X58370Y-55270
X60910Y-52730
X60910Y-55270
X63450Y-52730
X63450Y-55270
X65990Y-52730
X65990Y-55270
X68530Y-52730
X68530Y-55270
X71070Y-52730
X71070Y-55270
X73610Y-52730
X73610Y-55270
X76150Y-52730
X76150Y-55270
X78690Y-52730
X78690Y-55270
X81230Y-52730
X81230Y-55270
X83770Y-52730
X83770Y-55270
X86310Y-52730
X86310Y-55270
X88850Y-52730
X88850Y-55270
X91390Y-52730
X91390Y-55270
X93930Y-52730
X93930Y-55270
X96470Y-52730
X96470Y-55270
X99010Y-52730
X99010Y-55270
X101550Y-52730
X101550Y-55270
X104090Y-52730
X104090Y-55270
X106630Y-52730
X106630Y-55270
T8
X78200Y-103000
X72000Y-103000
T9
X53500Y-54000
X111500Y-54000
X53500Y-103000
X111500Y-103000
T10
X60550Y-100300
X66330Y-100300
T11
X77360Y-60100
X82440Y-59084
X82440Y-61116
T3
G00X59120Y-99220
M15
G01X59120Y-100320
M16
G05
G00X59120Y-103650
M15
G01X59120Y-104250
M16
G05
G00X67760Y-99220
M15
G01X67760Y-100320
M16
G05
G00X67760Y-103650
M15
G01X67760Y-104250
M16
G05
T0
M30
