G04 #@! TF.GenerationSoftware,KiCad,Pcbnew,(5.1.8)-1*
G04 #@! TF.CreationDate,2021-01-11T10:11:39-08:00*
G04 #@! TF.ProjectId,SuperPower-RPi-KiCAD,53757065-7250-46f7-9765-722d5250692d,rev?*
G04 #@! TF.SameCoordinates,Original*
G04 #@! TF.FileFunction,Paste,Top*
G04 #@! TF.FilePolarity,Positive*
%FSLAX46Y46*%
G04 Gerber Fmt 4.6, Leading zero omitted, Abs format (unit mm)*
G04 Created by KiCad (PCBNEW (5.1.8)-1) date 2021-01-11 10:11:39*
%MOMM*%
%LPD*%
G01*
G04 APERTURE LIST*
%ADD10C,0.010000*%
%ADD11R,1.700000X0.550000*%
%ADD12R,0.900000X1.000000*%
%ADD13R,0.600000X0.700000*%
%ADD14R,0.900000X0.800000*%
%ADD15R,0.630000X0.820000*%
%ADD16R,0.400000X0.650000*%
%ADD17R,0.700000X0.600000*%
%ADD18R,0.800000X0.900000*%
%ADD19R,2.750000X4.000000*%
%ADD20R,0.800000X0.500000*%
%ADD21R,0.800000X0.300000*%
%ADD22R,0.500000X1.000000*%
%ADD23R,0.500000X1.480000*%
%ADD24R,0.240000X0.600000*%
%ADD25R,0.600000X0.240000*%
%ADD26R,3.429000X2.413000*%
%ADD27R,0.600000X1.450000*%
%ADD28R,0.300000X1.450000*%
G04 APERTURE END LIST*
D10*
G36*
X61925000Y-70125000D02*
G01*
X62650000Y-70125000D01*
X62652617Y-70125069D01*
X62655226Y-70125274D01*
X62657822Y-70125616D01*
X62660396Y-70126093D01*
X62662941Y-70126704D01*
X62665451Y-70127447D01*
X62667918Y-70128321D01*
X62670337Y-70129323D01*
X62672700Y-70130450D01*
X62675000Y-70131699D01*
X62677232Y-70133066D01*
X62679389Y-70134549D01*
X62681466Y-70136143D01*
X62683457Y-70137843D01*
X62685355Y-70139645D01*
X62687157Y-70141543D01*
X62688857Y-70143534D01*
X62690451Y-70145611D01*
X62691934Y-70147768D01*
X62693301Y-70150000D01*
X62694550Y-70152300D01*
X62695677Y-70154663D01*
X62696679Y-70157082D01*
X62697553Y-70159549D01*
X62698296Y-70162059D01*
X62698907Y-70164604D01*
X62699384Y-70167178D01*
X62699726Y-70169774D01*
X62699931Y-70172383D01*
X62700000Y-70175000D01*
X62700000Y-70275000D01*
X62699931Y-70277617D01*
X62699726Y-70280226D01*
X62699384Y-70282822D01*
X62698907Y-70285396D01*
X62698296Y-70287941D01*
X62697553Y-70290451D01*
X62696679Y-70292918D01*
X62695677Y-70295337D01*
X62694550Y-70297700D01*
X62693301Y-70300000D01*
X62691934Y-70302232D01*
X62690451Y-70304389D01*
X62688857Y-70306466D01*
X62687157Y-70308457D01*
X62685355Y-70310355D01*
X62683457Y-70312157D01*
X62681466Y-70313857D01*
X62679389Y-70315451D01*
X62677232Y-70316934D01*
X62675000Y-70318301D01*
X62672700Y-70319550D01*
X62670337Y-70320677D01*
X62667918Y-70321679D01*
X62665451Y-70322553D01*
X62662941Y-70323296D01*
X62660396Y-70323907D01*
X62657822Y-70324384D01*
X62655226Y-70324726D01*
X62652617Y-70324931D01*
X62650000Y-70325000D01*
X62175000Y-70325000D01*
X62175000Y-70675000D01*
X62650000Y-70675000D01*
X62652617Y-70675069D01*
X62655226Y-70675274D01*
X62657822Y-70675616D01*
X62660396Y-70676093D01*
X62662941Y-70676704D01*
X62665451Y-70677447D01*
X62667918Y-70678321D01*
X62670337Y-70679323D01*
X62672700Y-70680450D01*
X62675000Y-70681699D01*
X62677232Y-70683066D01*
X62679389Y-70684549D01*
X62681466Y-70686143D01*
X62683457Y-70687843D01*
X62685355Y-70689645D01*
X62687157Y-70691543D01*
X62688857Y-70693534D01*
X62690451Y-70695611D01*
X62691934Y-70697768D01*
X62693301Y-70700000D01*
X62694550Y-70702300D01*
X62695677Y-70704663D01*
X62696679Y-70707082D01*
X62697553Y-70709549D01*
X62698296Y-70712059D01*
X62698907Y-70714604D01*
X62699384Y-70717178D01*
X62699726Y-70719774D01*
X62699931Y-70722383D01*
X62700000Y-70725000D01*
X62700000Y-70825000D01*
X62699931Y-70827617D01*
X62699726Y-70830226D01*
X62699384Y-70832822D01*
X62698907Y-70835396D01*
X62698296Y-70837941D01*
X62697553Y-70840451D01*
X62696679Y-70842918D01*
X62695677Y-70845337D01*
X62694550Y-70847700D01*
X62693301Y-70850000D01*
X62691934Y-70852232D01*
X62690451Y-70854389D01*
X62688857Y-70856466D01*
X62687157Y-70858457D01*
X62685355Y-70860355D01*
X62683457Y-70862157D01*
X62681466Y-70863857D01*
X62679389Y-70865451D01*
X62677232Y-70866934D01*
X62675000Y-70868301D01*
X62672700Y-70869550D01*
X62670337Y-70870677D01*
X62667918Y-70871679D01*
X62665451Y-70872553D01*
X62662941Y-70873296D01*
X62660396Y-70873907D01*
X62657822Y-70874384D01*
X62655226Y-70874726D01*
X62652617Y-70874931D01*
X62650000Y-70875000D01*
X61925000Y-70875000D01*
X61925000Y-70125000D01*
G37*
X61925000Y-70125000D02*
X62650000Y-70125000D01*
X62652617Y-70125069D01*
X62655226Y-70125274D01*
X62657822Y-70125616D01*
X62660396Y-70126093D01*
X62662941Y-70126704D01*
X62665451Y-70127447D01*
X62667918Y-70128321D01*
X62670337Y-70129323D01*
X62672700Y-70130450D01*
X62675000Y-70131699D01*
X62677232Y-70133066D01*
X62679389Y-70134549D01*
X62681466Y-70136143D01*
X62683457Y-70137843D01*
X62685355Y-70139645D01*
X62687157Y-70141543D01*
X62688857Y-70143534D01*
X62690451Y-70145611D01*
X62691934Y-70147768D01*
X62693301Y-70150000D01*
X62694550Y-70152300D01*
X62695677Y-70154663D01*
X62696679Y-70157082D01*
X62697553Y-70159549D01*
X62698296Y-70162059D01*
X62698907Y-70164604D01*
X62699384Y-70167178D01*
X62699726Y-70169774D01*
X62699931Y-70172383D01*
X62700000Y-70175000D01*
X62700000Y-70275000D01*
X62699931Y-70277617D01*
X62699726Y-70280226D01*
X62699384Y-70282822D01*
X62698907Y-70285396D01*
X62698296Y-70287941D01*
X62697553Y-70290451D01*
X62696679Y-70292918D01*
X62695677Y-70295337D01*
X62694550Y-70297700D01*
X62693301Y-70300000D01*
X62691934Y-70302232D01*
X62690451Y-70304389D01*
X62688857Y-70306466D01*
X62687157Y-70308457D01*
X62685355Y-70310355D01*
X62683457Y-70312157D01*
X62681466Y-70313857D01*
X62679389Y-70315451D01*
X62677232Y-70316934D01*
X62675000Y-70318301D01*
X62672700Y-70319550D01*
X62670337Y-70320677D01*
X62667918Y-70321679D01*
X62665451Y-70322553D01*
X62662941Y-70323296D01*
X62660396Y-70323907D01*
X62657822Y-70324384D01*
X62655226Y-70324726D01*
X62652617Y-70324931D01*
X62650000Y-70325000D01*
X62175000Y-70325000D01*
X62175000Y-70675000D01*
X62650000Y-70675000D01*
X62652617Y-70675069D01*
X62655226Y-70675274D01*
X62657822Y-70675616D01*
X62660396Y-70676093D01*
X62662941Y-70676704D01*
X62665451Y-70677447D01*
X62667918Y-70678321D01*
X62670337Y-70679323D01*
X62672700Y-70680450D01*
X62675000Y-70681699D01*
X62677232Y-70683066D01*
X62679389Y-70684549D01*
X62681466Y-70686143D01*
X62683457Y-70687843D01*
X62685355Y-70689645D01*
X62687157Y-70691543D01*
X62688857Y-70693534D01*
X62690451Y-70695611D01*
X62691934Y-70697768D01*
X62693301Y-70700000D01*
X62694550Y-70702300D01*
X62695677Y-70704663D01*
X62696679Y-70707082D01*
X62697553Y-70709549D01*
X62698296Y-70712059D01*
X62698907Y-70714604D01*
X62699384Y-70717178D01*
X62699726Y-70719774D01*
X62699931Y-70722383D01*
X62700000Y-70725000D01*
X62700000Y-70825000D01*
X62699931Y-70827617D01*
X62699726Y-70830226D01*
X62699384Y-70832822D01*
X62698907Y-70835396D01*
X62698296Y-70837941D01*
X62697553Y-70840451D01*
X62696679Y-70842918D01*
X62695677Y-70845337D01*
X62694550Y-70847700D01*
X62693301Y-70850000D01*
X62691934Y-70852232D01*
X62690451Y-70854389D01*
X62688857Y-70856466D01*
X62687157Y-70858457D01*
X62685355Y-70860355D01*
X62683457Y-70862157D01*
X62681466Y-70863857D01*
X62679389Y-70865451D01*
X62677232Y-70866934D01*
X62675000Y-70868301D01*
X62672700Y-70869550D01*
X62670337Y-70870677D01*
X62667918Y-70871679D01*
X62665451Y-70872553D01*
X62662941Y-70873296D01*
X62660396Y-70873907D01*
X62657822Y-70874384D01*
X62655226Y-70874726D01*
X62652617Y-70874931D01*
X62650000Y-70875000D01*
X61925000Y-70875000D01*
X61925000Y-70125000D01*
G36*
X58575000Y-70875000D02*
G01*
X57850000Y-70875000D01*
X57847383Y-70874931D01*
X57844774Y-70874726D01*
X57842178Y-70874384D01*
X57839604Y-70873907D01*
X57837059Y-70873296D01*
X57834549Y-70872553D01*
X57832082Y-70871679D01*
X57829663Y-70870677D01*
X57827300Y-70869550D01*
X57825000Y-70868301D01*
X57822768Y-70866934D01*
X57820611Y-70865451D01*
X57818534Y-70863857D01*
X57816543Y-70862157D01*
X57814645Y-70860355D01*
X57812843Y-70858457D01*
X57811143Y-70856466D01*
X57809549Y-70854389D01*
X57808066Y-70852232D01*
X57806699Y-70850000D01*
X57805450Y-70847700D01*
X57804323Y-70845337D01*
X57803321Y-70842918D01*
X57802447Y-70840451D01*
X57801704Y-70837941D01*
X57801093Y-70835396D01*
X57800616Y-70832822D01*
X57800274Y-70830226D01*
X57800069Y-70827617D01*
X57800000Y-70825000D01*
X57800000Y-70725000D01*
X57800069Y-70722383D01*
X57800274Y-70719774D01*
X57800616Y-70717178D01*
X57801093Y-70714604D01*
X57801704Y-70712059D01*
X57802447Y-70709549D01*
X57803321Y-70707082D01*
X57804323Y-70704663D01*
X57805450Y-70702300D01*
X57806699Y-70700000D01*
X57808066Y-70697768D01*
X57809549Y-70695611D01*
X57811143Y-70693534D01*
X57812843Y-70691543D01*
X57814645Y-70689645D01*
X57816543Y-70687843D01*
X57818534Y-70686143D01*
X57820611Y-70684549D01*
X57822768Y-70683066D01*
X57825000Y-70681699D01*
X57827300Y-70680450D01*
X57829663Y-70679323D01*
X57832082Y-70678321D01*
X57834549Y-70677447D01*
X57837059Y-70676704D01*
X57839604Y-70676093D01*
X57842178Y-70675616D01*
X57844774Y-70675274D01*
X57847383Y-70675069D01*
X57850000Y-70675000D01*
X58325000Y-70675000D01*
X58325000Y-70325000D01*
X57850000Y-70325000D01*
X57847383Y-70324931D01*
X57844774Y-70324726D01*
X57842178Y-70324384D01*
X57839604Y-70323907D01*
X57837059Y-70323296D01*
X57834549Y-70322553D01*
X57832082Y-70321679D01*
X57829663Y-70320677D01*
X57827300Y-70319550D01*
X57825000Y-70318301D01*
X57822768Y-70316934D01*
X57820611Y-70315451D01*
X57818534Y-70313857D01*
X57816543Y-70312157D01*
X57814645Y-70310355D01*
X57812843Y-70308457D01*
X57811143Y-70306466D01*
X57809549Y-70304389D01*
X57808066Y-70302232D01*
X57806699Y-70300000D01*
X57805450Y-70297700D01*
X57804323Y-70295337D01*
X57803321Y-70292918D01*
X57802447Y-70290451D01*
X57801704Y-70287941D01*
X57801093Y-70285396D01*
X57800616Y-70282822D01*
X57800274Y-70280226D01*
X57800069Y-70277617D01*
X57800000Y-70275000D01*
X57800000Y-70175000D01*
X57800069Y-70172383D01*
X57800274Y-70169774D01*
X57800616Y-70167178D01*
X57801093Y-70164604D01*
X57801704Y-70162059D01*
X57802447Y-70159549D01*
X57803321Y-70157082D01*
X57804323Y-70154663D01*
X57805450Y-70152300D01*
X57806699Y-70150000D01*
X57808066Y-70147768D01*
X57809549Y-70145611D01*
X57811143Y-70143534D01*
X57812843Y-70141543D01*
X57814645Y-70139645D01*
X57816543Y-70137843D01*
X57818534Y-70136143D01*
X57820611Y-70134549D01*
X57822768Y-70133066D01*
X57825000Y-70131699D01*
X57827300Y-70130450D01*
X57829663Y-70129323D01*
X57832082Y-70128321D01*
X57834549Y-70127447D01*
X57837059Y-70126704D01*
X57839604Y-70126093D01*
X57842178Y-70125616D01*
X57844774Y-70125274D01*
X57847383Y-70125069D01*
X57850000Y-70125000D01*
X58575000Y-70125000D01*
X58575000Y-70875000D01*
G37*
X58575000Y-70875000D02*
X57850000Y-70875000D01*
X57847383Y-70874931D01*
X57844774Y-70874726D01*
X57842178Y-70874384D01*
X57839604Y-70873907D01*
X57837059Y-70873296D01*
X57834549Y-70872553D01*
X57832082Y-70871679D01*
X57829663Y-70870677D01*
X57827300Y-70869550D01*
X57825000Y-70868301D01*
X57822768Y-70866934D01*
X57820611Y-70865451D01*
X57818534Y-70863857D01*
X57816543Y-70862157D01*
X57814645Y-70860355D01*
X57812843Y-70858457D01*
X57811143Y-70856466D01*
X57809549Y-70854389D01*
X57808066Y-70852232D01*
X57806699Y-70850000D01*
X57805450Y-70847700D01*
X57804323Y-70845337D01*
X57803321Y-70842918D01*
X57802447Y-70840451D01*
X57801704Y-70837941D01*
X57801093Y-70835396D01*
X57800616Y-70832822D01*
X57800274Y-70830226D01*
X57800069Y-70827617D01*
X57800000Y-70825000D01*
X57800000Y-70725000D01*
X57800069Y-70722383D01*
X57800274Y-70719774D01*
X57800616Y-70717178D01*
X57801093Y-70714604D01*
X57801704Y-70712059D01*
X57802447Y-70709549D01*
X57803321Y-70707082D01*
X57804323Y-70704663D01*
X57805450Y-70702300D01*
X57806699Y-70700000D01*
X57808066Y-70697768D01*
X57809549Y-70695611D01*
X57811143Y-70693534D01*
X57812843Y-70691543D01*
X57814645Y-70689645D01*
X57816543Y-70687843D01*
X57818534Y-70686143D01*
X57820611Y-70684549D01*
X57822768Y-70683066D01*
X57825000Y-70681699D01*
X57827300Y-70680450D01*
X57829663Y-70679323D01*
X57832082Y-70678321D01*
X57834549Y-70677447D01*
X57837059Y-70676704D01*
X57839604Y-70676093D01*
X57842178Y-70675616D01*
X57844774Y-70675274D01*
X57847383Y-70675069D01*
X57850000Y-70675000D01*
X58325000Y-70675000D01*
X58325000Y-70325000D01*
X57850000Y-70325000D01*
X57847383Y-70324931D01*
X57844774Y-70324726D01*
X57842178Y-70324384D01*
X57839604Y-70323907D01*
X57837059Y-70323296D01*
X57834549Y-70322553D01*
X57832082Y-70321679D01*
X57829663Y-70320677D01*
X57827300Y-70319550D01*
X57825000Y-70318301D01*
X57822768Y-70316934D01*
X57820611Y-70315451D01*
X57818534Y-70313857D01*
X57816543Y-70312157D01*
X57814645Y-70310355D01*
X57812843Y-70308457D01*
X57811143Y-70306466D01*
X57809549Y-70304389D01*
X57808066Y-70302232D01*
X57806699Y-70300000D01*
X57805450Y-70297700D01*
X57804323Y-70295337D01*
X57803321Y-70292918D01*
X57802447Y-70290451D01*
X57801704Y-70287941D01*
X57801093Y-70285396D01*
X57800616Y-70282822D01*
X57800274Y-70280226D01*
X57800069Y-70277617D01*
X57800000Y-70275000D01*
X57800000Y-70175000D01*
X57800069Y-70172383D01*
X57800274Y-70169774D01*
X57800616Y-70167178D01*
X57801093Y-70164604D01*
X57801704Y-70162059D01*
X57802447Y-70159549D01*
X57803321Y-70157082D01*
X57804323Y-70154663D01*
X57805450Y-70152300D01*
X57806699Y-70150000D01*
X57808066Y-70147768D01*
X57809549Y-70145611D01*
X57811143Y-70143534D01*
X57812843Y-70141543D01*
X57814645Y-70139645D01*
X57816543Y-70137843D01*
X57818534Y-70136143D01*
X57820611Y-70134549D01*
X57822768Y-70133066D01*
X57825000Y-70131699D01*
X57827300Y-70130450D01*
X57829663Y-70129323D01*
X57832082Y-70128321D01*
X57834549Y-70127447D01*
X57837059Y-70126704D01*
X57839604Y-70126093D01*
X57842178Y-70125616D01*
X57844774Y-70125274D01*
X57847383Y-70125069D01*
X57850000Y-70125000D01*
X58575000Y-70125000D01*
X58575000Y-70875000D01*
G36*
X59625000Y-71520000D02*
G01*
X59625000Y-70600000D01*
X58775000Y-70600000D01*
X58775000Y-71520000D01*
X59625000Y-71520000D01*
G37*
X59625000Y-71520000D02*
X59625000Y-70600000D01*
X58775000Y-70600000D01*
X58775000Y-71520000D01*
X59625000Y-71520000D01*
G36*
X59625000Y-70400000D02*
G01*
X59625000Y-69480000D01*
X58775000Y-69480000D01*
X58775000Y-70400000D01*
X59625000Y-70400000D01*
G37*
X59625000Y-70400000D02*
X59625000Y-69480000D01*
X58775000Y-69480000D01*
X58775000Y-70400000D01*
X59625000Y-70400000D01*
G36*
X61725000Y-71520000D02*
G01*
X61725000Y-70600000D01*
X60875000Y-70600000D01*
X60875000Y-71520000D01*
X61725000Y-71520000D01*
G37*
X61725000Y-71520000D02*
X61725000Y-70600000D01*
X60875000Y-70600000D01*
X60875000Y-71520000D01*
X61725000Y-71520000D01*
G36*
X61725000Y-70400000D02*
G01*
X61725000Y-69480000D01*
X60875000Y-69480000D01*
X60875000Y-70400000D01*
X61725000Y-70400000D01*
G37*
X61725000Y-70400000D02*
X61725000Y-69480000D01*
X60875000Y-69480000D01*
X60875000Y-70400000D01*
X61725000Y-70400000D01*
G36*
X60675000Y-71520000D02*
G01*
X60675000Y-70600000D01*
X59825000Y-70600000D01*
X59825000Y-71520000D01*
X60675000Y-71520000D01*
G37*
X60675000Y-71520000D02*
X60675000Y-70600000D01*
X59825000Y-70600000D01*
X59825000Y-71520000D01*
X60675000Y-71520000D01*
G36*
X60675000Y-70400000D02*
G01*
X60675000Y-69480000D01*
X59825000Y-69480000D01*
X59825000Y-70400000D01*
X60675000Y-70400000D01*
G37*
X60675000Y-70400000D02*
X60675000Y-69480000D01*
X59825000Y-69480000D01*
X59825000Y-70400000D01*
X60675000Y-70400000D01*
D11*
X102700000Y-87725000D03*
D12*
X104750000Y-87100000D03*
X104750000Y-85500000D03*
X100650000Y-87100000D03*
X100650000Y-85500000D03*
G36*
G01*
X104440000Y-91585000D02*
X104440000Y-91215000D01*
G75*
G02*
X104575000Y-91080000I135000J0D01*
G01*
X104845000Y-91080000D01*
G75*
G02*
X104980000Y-91215000I0J-135000D01*
G01*
X104980000Y-91585000D01*
G75*
G02*
X104845000Y-91720000I-135000J0D01*
G01*
X104575000Y-91720000D01*
G75*
G02*
X104440000Y-91585000I0J135000D01*
G01*
G37*
G36*
G01*
X103420000Y-91585000D02*
X103420000Y-91215000D01*
G75*
G02*
X103555000Y-91080000I135000J0D01*
G01*
X103825000Y-91080000D01*
G75*
G02*
X103960000Y-91215000I0J-135000D01*
G01*
X103960000Y-91585000D01*
G75*
G02*
X103825000Y-91720000I-135000J0D01*
G01*
X103555000Y-91720000D01*
G75*
G02*
X103420000Y-91585000I0J135000D01*
G01*
G37*
G36*
G01*
X101400000Y-91570000D02*
X101400000Y-91230000D01*
G75*
G02*
X101540000Y-91090000I140000J0D01*
G01*
X101820000Y-91090000D01*
G75*
G02*
X101960000Y-91230000I0J-140000D01*
G01*
X101960000Y-91570000D01*
G75*
G02*
X101820000Y-91710000I-140000J0D01*
G01*
X101540000Y-91710000D01*
G75*
G02*
X101400000Y-91570000I0J140000D01*
G01*
G37*
G36*
G01*
X100440000Y-91570000D02*
X100440000Y-91230000D01*
G75*
G02*
X100580000Y-91090000I140000J0D01*
G01*
X100860000Y-91090000D01*
G75*
G02*
X101000000Y-91230000I0J-140000D01*
G01*
X101000000Y-91570000D01*
G75*
G02*
X100860000Y-91710000I-140000J0D01*
G01*
X100580000Y-91710000D01*
G75*
G02*
X100440000Y-91570000I0J140000D01*
G01*
G37*
G36*
G01*
X72610000Y-68030000D02*
X72610000Y-67690000D01*
G75*
G02*
X72750000Y-67550000I140000J0D01*
G01*
X73030000Y-67550000D01*
G75*
G02*
X73170000Y-67690000I0J-140000D01*
G01*
X73170000Y-68030000D01*
G75*
G02*
X73030000Y-68170000I-140000J0D01*
G01*
X72750000Y-68170000D01*
G75*
G02*
X72610000Y-68030000I0J140000D01*
G01*
G37*
G36*
G01*
X71650000Y-68030000D02*
X71650000Y-67690000D01*
G75*
G02*
X71790000Y-67550000I140000J0D01*
G01*
X72070000Y-67550000D01*
G75*
G02*
X72210000Y-67690000I0J-140000D01*
G01*
X72210000Y-68030000D01*
G75*
G02*
X72070000Y-68170000I-140000J0D01*
G01*
X71790000Y-68170000D01*
G75*
G02*
X71650000Y-68030000I0J140000D01*
G01*
G37*
D13*
X79590000Y-70830000D03*
X78190000Y-70830000D03*
G36*
G01*
X75525000Y-67860000D02*
X75155000Y-67860000D01*
G75*
G02*
X75020000Y-67725000I0J135000D01*
G01*
X75020000Y-67455000D01*
G75*
G02*
X75155000Y-67320000I135000J0D01*
G01*
X75525000Y-67320000D01*
G75*
G02*
X75660000Y-67455000I0J-135000D01*
G01*
X75660000Y-67725000D01*
G75*
G02*
X75525000Y-67860000I-135000J0D01*
G01*
G37*
G36*
G01*
X75525000Y-68880000D02*
X75155000Y-68880000D01*
G75*
G02*
X75020000Y-68745000I0J135000D01*
G01*
X75020000Y-68475000D01*
G75*
G02*
X75155000Y-68340000I135000J0D01*
G01*
X75525000Y-68340000D01*
G75*
G02*
X75660000Y-68475000I0J-135000D01*
G01*
X75660000Y-68745000D01*
G75*
G02*
X75525000Y-68880000I-135000J0D01*
G01*
G37*
G36*
G01*
X71525000Y-89112500D02*
X71525000Y-88987500D01*
G75*
G02*
X71587500Y-88925000I62500J0D01*
G01*
X72287500Y-88925000D01*
G75*
G02*
X72350000Y-88987500I0J-62500D01*
G01*
X72350000Y-89112500D01*
G75*
G02*
X72287500Y-89175000I-62500J0D01*
G01*
X71587500Y-89175000D01*
G75*
G02*
X71525000Y-89112500I0J62500D01*
G01*
G37*
G36*
G01*
X71525000Y-89612500D02*
X71525000Y-89487500D01*
G75*
G02*
X71587500Y-89425000I62500J0D01*
G01*
X72287500Y-89425000D01*
G75*
G02*
X72350000Y-89487500I0J-62500D01*
G01*
X72350000Y-89612500D01*
G75*
G02*
X72287500Y-89675000I-62500J0D01*
G01*
X71587500Y-89675000D01*
G75*
G02*
X71525000Y-89612500I0J62500D01*
G01*
G37*
G36*
G01*
X71525000Y-90112500D02*
X71525000Y-89987500D01*
G75*
G02*
X71587500Y-89925000I62500J0D01*
G01*
X72287500Y-89925000D01*
G75*
G02*
X72350000Y-89987500I0J-62500D01*
G01*
X72350000Y-90112500D01*
G75*
G02*
X72287500Y-90175000I-62500J0D01*
G01*
X71587500Y-90175000D01*
G75*
G02*
X71525000Y-90112500I0J62500D01*
G01*
G37*
G36*
G01*
X71525000Y-90612500D02*
X71525000Y-90487500D01*
G75*
G02*
X71587500Y-90425000I62500J0D01*
G01*
X72287500Y-90425000D01*
G75*
G02*
X72350000Y-90487500I0J-62500D01*
G01*
X72350000Y-90612500D01*
G75*
G02*
X72287500Y-90675000I-62500J0D01*
G01*
X71587500Y-90675000D01*
G75*
G02*
X71525000Y-90612500I0J62500D01*
G01*
G37*
G36*
G01*
X71525000Y-91112500D02*
X71525000Y-90987500D01*
G75*
G02*
X71587500Y-90925000I62500J0D01*
G01*
X72287500Y-90925000D01*
G75*
G02*
X72350000Y-90987500I0J-62500D01*
G01*
X72350000Y-91112500D01*
G75*
G02*
X72287500Y-91175000I-62500J0D01*
G01*
X71587500Y-91175000D01*
G75*
G02*
X71525000Y-91112500I0J62500D01*
G01*
G37*
G36*
G01*
X71525000Y-91612500D02*
X71525000Y-91487500D01*
G75*
G02*
X71587500Y-91425000I62500J0D01*
G01*
X72287500Y-91425000D01*
G75*
G02*
X72350000Y-91487500I0J-62500D01*
G01*
X72350000Y-91612500D01*
G75*
G02*
X72287500Y-91675000I-62500J0D01*
G01*
X71587500Y-91675000D01*
G75*
G02*
X71525000Y-91612500I0J62500D01*
G01*
G37*
G36*
G01*
X72525000Y-92612500D02*
X72525000Y-91912500D01*
G75*
G02*
X72587500Y-91850000I62500J0D01*
G01*
X72712500Y-91850000D01*
G75*
G02*
X72775000Y-91912500I0J-62500D01*
G01*
X72775000Y-92612500D01*
G75*
G02*
X72712500Y-92675000I-62500J0D01*
G01*
X72587500Y-92675000D01*
G75*
G02*
X72525000Y-92612500I0J62500D01*
G01*
G37*
G36*
G01*
X73025000Y-92612500D02*
X73025000Y-91912500D01*
G75*
G02*
X73087500Y-91850000I62500J0D01*
G01*
X73212500Y-91850000D01*
G75*
G02*
X73275000Y-91912500I0J-62500D01*
G01*
X73275000Y-92612500D01*
G75*
G02*
X73212500Y-92675000I-62500J0D01*
G01*
X73087500Y-92675000D01*
G75*
G02*
X73025000Y-92612500I0J62500D01*
G01*
G37*
G36*
G01*
X73525000Y-92612500D02*
X73525000Y-91912500D01*
G75*
G02*
X73587500Y-91850000I62500J0D01*
G01*
X73712500Y-91850000D01*
G75*
G02*
X73775000Y-91912500I0J-62500D01*
G01*
X73775000Y-92612500D01*
G75*
G02*
X73712500Y-92675000I-62500J0D01*
G01*
X73587500Y-92675000D01*
G75*
G02*
X73525000Y-92612500I0J62500D01*
G01*
G37*
G36*
G01*
X74025000Y-92612500D02*
X74025000Y-91912500D01*
G75*
G02*
X74087500Y-91850000I62500J0D01*
G01*
X74212500Y-91850000D01*
G75*
G02*
X74275000Y-91912500I0J-62500D01*
G01*
X74275000Y-92612500D01*
G75*
G02*
X74212500Y-92675000I-62500J0D01*
G01*
X74087500Y-92675000D01*
G75*
G02*
X74025000Y-92612500I0J62500D01*
G01*
G37*
G36*
G01*
X74525000Y-92612500D02*
X74525000Y-91912500D01*
G75*
G02*
X74587500Y-91850000I62500J0D01*
G01*
X74712500Y-91850000D01*
G75*
G02*
X74775000Y-91912500I0J-62500D01*
G01*
X74775000Y-92612500D01*
G75*
G02*
X74712500Y-92675000I-62500J0D01*
G01*
X74587500Y-92675000D01*
G75*
G02*
X74525000Y-92612500I0J62500D01*
G01*
G37*
G36*
G01*
X75025000Y-92612500D02*
X75025000Y-91912500D01*
G75*
G02*
X75087500Y-91850000I62500J0D01*
G01*
X75212500Y-91850000D01*
G75*
G02*
X75275000Y-91912500I0J-62500D01*
G01*
X75275000Y-92612500D01*
G75*
G02*
X75212500Y-92675000I-62500J0D01*
G01*
X75087500Y-92675000D01*
G75*
G02*
X75025000Y-92612500I0J62500D01*
G01*
G37*
G36*
G01*
X75450000Y-91612500D02*
X75450000Y-91487500D01*
G75*
G02*
X75512500Y-91425000I62500J0D01*
G01*
X76212500Y-91425000D01*
G75*
G02*
X76275000Y-91487500I0J-62500D01*
G01*
X76275000Y-91612500D01*
G75*
G02*
X76212500Y-91675000I-62500J0D01*
G01*
X75512500Y-91675000D01*
G75*
G02*
X75450000Y-91612500I0J62500D01*
G01*
G37*
G36*
G01*
X75450000Y-91112500D02*
X75450000Y-90987500D01*
G75*
G02*
X75512500Y-90925000I62500J0D01*
G01*
X76212500Y-90925000D01*
G75*
G02*
X76275000Y-90987500I0J-62500D01*
G01*
X76275000Y-91112500D01*
G75*
G02*
X76212500Y-91175000I-62500J0D01*
G01*
X75512500Y-91175000D01*
G75*
G02*
X75450000Y-91112500I0J62500D01*
G01*
G37*
G36*
G01*
X75450000Y-90612500D02*
X75450000Y-90487500D01*
G75*
G02*
X75512500Y-90425000I62500J0D01*
G01*
X76212500Y-90425000D01*
G75*
G02*
X76275000Y-90487500I0J-62500D01*
G01*
X76275000Y-90612500D01*
G75*
G02*
X76212500Y-90675000I-62500J0D01*
G01*
X75512500Y-90675000D01*
G75*
G02*
X75450000Y-90612500I0J62500D01*
G01*
G37*
G36*
G01*
X75450000Y-90112500D02*
X75450000Y-89987500D01*
G75*
G02*
X75512500Y-89925000I62500J0D01*
G01*
X76212500Y-89925000D01*
G75*
G02*
X76275000Y-89987500I0J-62500D01*
G01*
X76275000Y-90112500D01*
G75*
G02*
X76212500Y-90175000I-62500J0D01*
G01*
X75512500Y-90175000D01*
G75*
G02*
X75450000Y-90112500I0J62500D01*
G01*
G37*
G36*
G01*
X75450000Y-89612500D02*
X75450000Y-89487500D01*
G75*
G02*
X75512500Y-89425000I62500J0D01*
G01*
X76212500Y-89425000D01*
G75*
G02*
X76275000Y-89487500I0J-62500D01*
G01*
X76275000Y-89612500D01*
G75*
G02*
X76212500Y-89675000I-62500J0D01*
G01*
X75512500Y-89675000D01*
G75*
G02*
X75450000Y-89612500I0J62500D01*
G01*
G37*
G36*
G01*
X75450000Y-89112500D02*
X75450000Y-88987500D01*
G75*
G02*
X75512500Y-88925000I62500J0D01*
G01*
X76212500Y-88925000D01*
G75*
G02*
X76275000Y-88987500I0J-62500D01*
G01*
X76275000Y-89112500D01*
G75*
G02*
X76212500Y-89175000I-62500J0D01*
G01*
X75512500Y-89175000D01*
G75*
G02*
X75450000Y-89112500I0J62500D01*
G01*
G37*
G36*
G01*
X75025000Y-88687500D02*
X75025000Y-87987500D01*
G75*
G02*
X75087500Y-87925000I62500J0D01*
G01*
X75212500Y-87925000D01*
G75*
G02*
X75275000Y-87987500I0J-62500D01*
G01*
X75275000Y-88687500D01*
G75*
G02*
X75212500Y-88750000I-62500J0D01*
G01*
X75087500Y-88750000D01*
G75*
G02*
X75025000Y-88687500I0J62500D01*
G01*
G37*
G36*
G01*
X74525000Y-88687500D02*
X74525000Y-87987500D01*
G75*
G02*
X74587500Y-87925000I62500J0D01*
G01*
X74712500Y-87925000D01*
G75*
G02*
X74775000Y-87987500I0J-62500D01*
G01*
X74775000Y-88687500D01*
G75*
G02*
X74712500Y-88750000I-62500J0D01*
G01*
X74587500Y-88750000D01*
G75*
G02*
X74525000Y-88687500I0J62500D01*
G01*
G37*
G36*
G01*
X74025000Y-88687500D02*
X74025000Y-87987500D01*
G75*
G02*
X74087500Y-87925000I62500J0D01*
G01*
X74212500Y-87925000D01*
G75*
G02*
X74275000Y-87987500I0J-62500D01*
G01*
X74275000Y-88687500D01*
G75*
G02*
X74212500Y-88750000I-62500J0D01*
G01*
X74087500Y-88750000D01*
G75*
G02*
X74025000Y-88687500I0J62500D01*
G01*
G37*
G36*
G01*
X73525000Y-88687500D02*
X73525000Y-87987500D01*
G75*
G02*
X73587500Y-87925000I62500J0D01*
G01*
X73712500Y-87925000D01*
G75*
G02*
X73775000Y-87987500I0J-62500D01*
G01*
X73775000Y-88687500D01*
G75*
G02*
X73712500Y-88750000I-62500J0D01*
G01*
X73587500Y-88750000D01*
G75*
G02*
X73525000Y-88687500I0J62500D01*
G01*
G37*
G36*
G01*
X73025000Y-88687500D02*
X73025000Y-87987500D01*
G75*
G02*
X73087500Y-87925000I62500J0D01*
G01*
X73212500Y-87925000D01*
G75*
G02*
X73275000Y-87987500I0J-62500D01*
G01*
X73275000Y-88687500D01*
G75*
G02*
X73212500Y-88750000I-62500J0D01*
G01*
X73087500Y-88750000D01*
G75*
G02*
X73025000Y-88687500I0J62500D01*
G01*
G37*
G36*
G01*
X72525000Y-88687500D02*
X72525000Y-87987500D01*
G75*
G02*
X72587500Y-87925000I62500J0D01*
G01*
X72712500Y-87925000D01*
G75*
G02*
X72775000Y-87987500I0J-62500D01*
G01*
X72775000Y-88687500D01*
G75*
G02*
X72712500Y-88750000I-62500J0D01*
G01*
X72587500Y-88750000D01*
G75*
G02*
X72525000Y-88687500I0J62500D01*
G01*
G37*
G36*
G01*
X72660000Y-89940000D02*
X72660000Y-89310000D01*
G75*
G02*
X72910000Y-89060000I250000J0D01*
G01*
X73540000Y-89060000D01*
G75*
G02*
X73790000Y-89310000I0J-250000D01*
G01*
X73790000Y-89940000D01*
G75*
G02*
X73540000Y-90190000I-250000J0D01*
G01*
X72910000Y-90190000D01*
G75*
G02*
X72660000Y-89940000I0J250000D01*
G01*
G37*
G36*
G01*
X72660000Y-91290000D02*
X72660000Y-90660000D01*
G75*
G02*
X72910000Y-90410000I250000J0D01*
G01*
X73540000Y-90410000D01*
G75*
G02*
X73790000Y-90660000I0J-250000D01*
G01*
X73790000Y-91290000D01*
G75*
G02*
X73540000Y-91540000I-250000J0D01*
G01*
X72910000Y-91540000D01*
G75*
G02*
X72660000Y-91290000I0J250000D01*
G01*
G37*
G36*
G01*
X74010000Y-89940000D02*
X74010000Y-89310000D01*
G75*
G02*
X74260000Y-89060000I250000J0D01*
G01*
X74890000Y-89060000D01*
G75*
G02*
X75140000Y-89310000I0J-250000D01*
G01*
X75140000Y-89940000D01*
G75*
G02*
X74890000Y-90190000I-250000J0D01*
G01*
X74260000Y-90190000D01*
G75*
G02*
X74010000Y-89940000I0J250000D01*
G01*
G37*
G36*
G01*
X74010000Y-91290000D02*
X74010000Y-90660000D01*
G75*
G02*
X74260000Y-90410000I250000J0D01*
G01*
X74890000Y-90410000D01*
G75*
G02*
X75140000Y-90660000I0J-250000D01*
G01*
X75140000Y-91290000D01*
G75*
G02*
X74890000Y-91540000I-250000J0D01*
G01*
X74260000Y-91540000D01*
G75*
G02*
X74010000Y-91290000I0J250000D01*
G01*
G37*
G36*
G01*
X85150000Y-93475000D02*
X85150000Y-92525000D01*
G75*
G02*
X85400000Y-92275000I250000J0D01*
G01*
X85900000Y-92275000D01*
G75*
G02*
X86150000Y-92525000I0J-250000D01*
G01*
X86150000Y-93475000D01*
G75*
G02*
X85900000Y-93725000I-250000J0D01*
G01*
X85400000Y-93725000D01*
G75*
G02*
X85150000Y-93475000I0J250000D01*
G01*
G37*
G36*
G01*
X83250000Y-93475000D02*
X83250000Y-92525000D01*
G75*
G02*
X83500000Y-92275000I250000J0D01*
G01*
X84000000Y-92275000D01*
G75*
G02*
X84250000Y-92525000I0J-250000D01*
G01*
X84250000Y-93475000D01*
G75*
G02*
X84000000Y-93725000I-250000J0D01*
G01*
X83500000Y-93725000D01*
G75*
G02*
X83250000Y-93475000I0J250000D01*
G01*
G37*
D14*
X76300000Y-98600000D03*
X74300000Y-99550000D03*
X74300000Y-97650000D03*
G36*
G01*
X70385000Y-97360000D02*
X70015000Y-97360000D01*
G75*
G02*
X69880000Y-97225000I0J135000D01*
G01*
X69880000Y-96955000D01*
G75*
G02*
X70015000Y-96820000I135000J0D01*
G01*
X70385000Y-96820000D01*
G75*
G02*
X70520000Y-96955000I0J-135000D01*
G01*
X70520000Y-97225000D01*
G75*
G02*
X70385000Y-97360000I-135000J0D01*
G01*
G37*
G36*
G01*
X70385000Y-98380000D02*
X70015000Y-98380000D01*
G75*
G02*
X69880000Y-98245000I0J135000D01*
G01*
X69880000Y-97975000D01*
G75*
G02*
X70015000Y-97840000I135000J0D01*
G01*
X70385000Y-97840000D01*
G75*
G02*
X70520000Y-97975000I0J-135000D01*
G01*
X70520000Y-98245000D01*
G75*
G02*
X70385000Y-98380000I-135000J0D01*
G01*
G37*
D15*
X57850000Y-59750000D03*
X58650000Y-59750000D03*
D16*
X58900000Y-60800000D03*
X58250000Y-60800000D03*
X57600000Y-60800000D03*
X57600000Y-58700000D03*
X58250000Y-58700000D03*
X58900000Y-58700000D03*
G36*
G01*
X54575000Y-57725000D02*
X54575000Y-58275000D01*
G75*
G02*
X54375000Y-58475000I-200000J0D01*
G01*
X53975000Y-58475000D01*
G75*
G02*
X53775000Y-58275000I0J200000D01*
G01*
X53775000Y-57725000D01*
G75*
G02*
X53975000Y-57525000I200000J0D01*
G01*
X54375000Y-57525000D01*
G75*
G02*
X54575000Y-57725000I0J-200000D01*
G01*
G37*
G36*
G01*
X56225000Y-57725000D02*
X56225000Y-58275000D01*
G75*
G02*
X56025000Y-58475000I-200000J0D01*
G01*
X55625000Y-58475000D01*
G75*
G02*
X55425000Y-58275000I0J200000D01*
G01*
X55425000Y-57725000D01*
G75*
G02*
X55625000Y-57525000I200000J0D01*
G01*
X56025000Y-57525000D01*
G75*
G02*
X56225000Y-57725000I0J-200000D01*
G01*
G37*
D14*
X94800000Y-78770000D03*
X92800000Y-79720000D03*
X92800000Y-77820000D03*
G36*
G01*
X97475000Y-79850000D02*
X96525000Y-79850000D01*
G75*
G02*
X96275000Y-79600000I0J250000D01*
G01*
X96275000Y-79100000D01*
G75*
G02*
X96525000Y-78850000I250000J0D01*
G01*
X97475000Y-78850000D01*
G75*
G02*
X97725000Y-79100000I0J-250000D01*
G01*
X97725000Y-79600000D01*
G75*
G02*
X97475000Y-79850000I-250000J0D01*
G01*
G37*
G36*
G01*
X97475000Y-81750000D02*
X96525000Y-81750000D01*
G75*
G02*
X96275000Y-81500000I0J250000D01*
G01*
X96275000Y-81000000D01*
G75*
G02*
X96525000Y-80750000I250000J0D01*
G01*
X97475000Y-80750000D01*
G75*
G02*
X97725000Y-81000000I0J-250000D01*
G01*
X97725000Y-81500000D01*
G75*
G02*
X97475000Y-81750000I-250000J0D01*
G01*
G37*
G36*
G01*
X90025000Y-79250000D02*
X90975000Y-79250000D01*
G75*
G02*
X91225000Y-79500000I0J-250000D01*
G01*
X91225000Y-80000000D01*
G75*
G02*
X90975000Y-80250000I-250000J0D01*
G01*
X90025000Y-80250000D01*
G75*
G02*
X89775000Y-80000000I0J250000D01*
G01*
X89775000Y-79500000D01*
G75*
G02*
X90025000Y-79250000I250000J0D01*
G01*
G37*
G36*
G01*
X90025000Y-77350000D02*
X90975000Y-77350000D01*
G75*
G02*
X91225000Y-77600000I0J-250000D01*
G01*
X91225000Y-78100000D01*
G75*
G02*
X90975000Y-78350000I-250000J0D01*
G01*
X90025000Y-78350000D01*
G75*
G02*
X89775000Y-78100000I0J250000D01*
G01*
X89775000Y-77600000D01*
G75*
G02*
X90025000Y-77350000I250000J0D01*
G01*
G37*
G36*
G01*
X89360000Y-73360000D02*
X89020000Y-73360000D01*
G75*
G02*
X88880000Y-73220000I0J140000D01*
G01*
X88880000Y-72940000D01*
G75*
G02*
X89020000Y-72800000I140000J0D01*
G01*
X89360000Y-72800000D01*
G75*
G02*
X89500000Y-72940000I0J-140000D01*
G01*
X89500000Y-73220000D01*
G75*
G02*
X89360000Y-73360000I-140000J0D01*
G01*
G37*
G36*
G01*
X89360000Y-74320000D02*
X89020000Y-74320000D01*
G75*
G02*
X88880000Y-74180000I0J140000D01*
G01*
X88880000Y-73900000D01*
G75*
G02*
X89020000Y-73760000I140000J0D01*
G01*
X89360000Y-73760000D01*
G75*
G02*
X89500000Y-73900000I0J-140000D01*
G01*
X89500000Y-74180000D01*
G75*
G02*
X89360000Y-74320000I-140000J0D01*
G01*
G37*
G36*
G01*
X88200000Y-73360000D02*
X87860000Y-73360000D01*
G75*
G02*
X87720000Y-73220000I0J140000D01*
G01*
X87720000Y-72940000D01*
G75*
G02*
X87860000Y-72800000I140000J0D01*
G01*
X88200000Y-72800000D01*
G75*
G02*
X88340000Y-72940000I0J-140000D01*
G01*
X88340000Y-73220000D01*
G75*
G02*
X88200000Y-73360000I-140000J0D01*
G01*
G37*
G36*
G01*
X88200000Y-74320000D02*
X87860000Y-74320000D01*
G75*
G02*
X87720000Y-74180000I0J140000D01*
G01*
X87720000Y-73900000D01*
G75*
G02*
X87860000Y-73760000I140000J0D01*
G01*
X88200000Y-73760000D01*
G75*
G02*
X88340000Y-73900000I0J-140000D01*
G01*
X88340000Y-74180000D01*
G75*
G02*
X88200000Y-74320000I-140000J0D01*
G01*
G37*
G36*
G01*
X87930000Y-91900000D02*
X88270000Y-91900000D01*
G75*
G02*
X88410000Y-92040000I0J-140000D01*
G01*
X88410000Y-92320000D01*
G75*
G02*
X88270000Y-92460000I-140000J0D01*
G01*
X87930000Y-92460000D01*
G75*
G02*
X87790000Y-92320000I0J140000D01*
G01*
X87790000Y-92040000D01*
G75*
G02*
X87930000Y-91900000I140000J0D01*
G01*
G37*
G36*
G01*
X87930000Y-90940000D02*
X88270000Y-90940000D01*
G75*
G02*
X88410000Y-91080000I0J-140000D01*
G01*
X88410000Y-91360000D01*
G75*
G02*
X88270000Y-91500000I-140000J0D01*
G01*
X87930000Y-91500000D01*
G75*
G02*
X87790000Y-91360000I0J140000D01*
G01*
X87790000Y-91080000D01*
G75*
G02*
X87930000Y-90940000I140000J0D01*
G01*
G37*
G36*
G01*
X69200000Y-84730000D02*
X69200000Y-85070000D01*
G75*
G02*
X69060000Y-85210000I-140000J0D01*
G01*
X68780000Y-85210000D01*
G75*
G02*
X68640000Y-85070000I0J140000D01*
G01*
X68640000Y-84730000D01*
G75*
G02*
X68780000Y-84590000I140000J0D01*
G01*
X69060000Y-84590000D01*
G75*
G02*
X69200000Y-84730000I0J-140000D01*
G01*
G37*
G36*
G01*
X70160000Y-84730000D02*
X70160000Y-85070000D01*
G75*
G02*
X70020000Y-85210000I-140000J0D01*
G01*
X69740000Y-85210000D01*
G75*
G02*
X69600000Y-85070000I0J140000D01*
G01*
X69600000Y-84730000D01*
G75*
G02*
X69740000Y-84590000I140000J0D01*
G01*
X70020000Y-84590000D01*
G75*
G02*
X70160000Y-84730000I0J-140000D01*
G01*
G37*
G36*
G01*
X69770000Y-86700000D02*
X69430000Y-86700000D01*
G75*
G02*
X69290000Y-86560000I0J140000D01*
G01*
X69290000Y-86280000D01*
G75*
G02*
X69430000Y-86140000I140000J0D01*
G01*
X69770000Y-86140000D01*
G75*
G02*
X69910000Y-86280000I0J-140000D01*
G01*
X69910000Y-86560000D01*
G75*
G02*
X69770000Y-86700000I-140000J0D01*
G01*
G37*
G36*
G01*
X69770000Y-87660000D02*
X69430000Y-87660000D01*
G75*
G02*
X69290000Y-87520000I0J140000D01*
G01*
X69290000Y-87240000D01*
G75*
G02*
X69430000Y-87100000I140000J0D01*
G01*
X69770000Y-87100000D01*
G75*
G02*
X69910000Y-87240000I0J-140000D01*
G01*
X69910000Y-87520000D01*
G75*
G02*
X69770000Y-87660000I-140000J0D01*
G01*
G37*
G36*
G01*
X56330000Y-72800000D02*
X56670000Y-72800000D01*
G75*
G02*
X56810000Y-72940000I0J-140000D01*
G01*
X56810000Y-73220000D01*
G75*
G02*
X56670000Y-73360000I-140000J0D01*
G01*
X56330000Y-73360000D01*
G75*
G02*
X56190000Y-73220000I0J140000D01*
G01*
X56190000Y-72940000D01*
G75*
G02*
X56330000Y-72800000I140000J0D01*
G01*
G37*
G36*
G01*
X56330000Y-71840000D02*
X56670000Y-71840000D01*
G75*
G02*
X56810000Y-71980000I0J-140000D01*
G01*
X56810000Y-72260000D01*
G75*
G02*
X56670000Y-72400000I-140000J0D01*
G01*
X56330000Y-72400000D01*
G75*
G02*
X56190000Y-72260000I0J140000D01*
G01*
X56190000Y-71980000D01*
G75*
G02*
X56330000Y-71840000I140000J0D01*
G01*
G37*
G36*
G01*
X57800000Y-65230000D02*
X57800000Y-65570000D01*
G75*
G02*
X57660000Y-65710000I-140000J0D01*
G01*
X57380000Y-65710000D01*
G75*
G02*
X57240000Y-65570000I0J140000D01*
G01*
X57240000Y-65230000D01*
G75*
G02*
X57380000Y-65090000I140000J0D01*
G01*
X57660000Y-65090000D01*
G75*
G02*
X57800000Y-65230000I0J-140000D01*
G01*
G37*
G36*
G01*
X58760000Y-65230000D02*
X58760000Y-65570000D01*
G75*
G02*
X58620000Y-65710000I-140000J0D01*
G01*
X58340000Y-65710000D01*
G75*
G02*
X58200000Y-65570000I0J140000D01*
G01*
X58200000Y-65230000D01*
G75*
G02*
X58340000Y-65090000I140000J0D01*
G01*
X58620000Y-65090000D01*
G75*
G02*
X58760000Y-65230000I0J-140000D01*
G01*
G37*
G36*
G01*
X67970000Y-71900000D02*
X67630000Y-71900000D01*
G75*
G02*
X67490000Y-71760000I0J140000D01*
G01*
X67490000Y-71480000D01*
G75*
G02*
X67630000Y-71340000I140000J0D01*
G01*
X67970000Y-71340000D01*
G75*
G02*
X68110000Y-71480000I0J-140000D01*
G01*
X68110000Y-71760000D01*
G75*
G02*
X67970000Y-71900000I-140000J0D01*
G01*
G37*
G36*
G01*
X67970000Y-72860000D02*
X67630000Y-72860000D01*
G75*
G02*
X67490000Y-72720000I0J140000D01*
G01*
X67490000Y-72440000D01*
G75*
G02*
X67630000Y-72300000I140000J0D01*
G01*
X67970000Y-72300000D01*
G75*
G02*
X68110000Y-72440000I0J-140000D01*
G01*
X68110000Y-72720000D01*
G75*
G02*
X67970000Y-72860000I-140000J0D01*
G01*
G37*
D17*
X72400000Y-97200000D03*
X72400000Y-98600000D03*
D14*
X65400000Y-90300000D03*
X63400000Y-91250000D03*
X63400000Y-89350000D03*
D18*
X64300000Y-95000000D03*
X63350000Y-93000000D03*
X65250000Y-93000000D03*
D14*
X61500000Y-88700000D03*
X59500000Y-89650000D03*
X59500000Y-87750000D03*
D18*
X80000000Y-98900000D03*
X79050000Y-96900000D03*
X80950000Y-96900000D03*
G36*
G01*
X72260000Y-61015000D02*
X72260000Y-61385000D01*
G75*
G02*
X72125000Y-61520000I-135000J0D01*
G01*
X71855000Y-61520000D01*
G75*
G02*
X71720000Y-61385000I0J135000D01*
G01*
X71720000Y-61015000D01*
G75*
G02*
X71855000Y-60880000I135000J0D01*
G01*
X72125000Y-60880000D01*
G75*
G02*
X72260000Y-61015000I0J-135000D01*
G01*
G37*
G36*
G01*
X73280000Y-61015000D02*
X73280000Y-61385000D01*
G75*
G02*
X73145000Y-61520000I-135000J0D01*
G01*
X72875000Y-61520000D01*
G75*
G02*
X72740000Y-61385000I0J135000D01*
G01*
X72740000Y-61015000D01*
G75*
G02*
X72875000Y-60880000I135000J0D01*
G01*
X73145000Y-60880000D01*
G75*
G02*
X73280000Y-61015000I0J-135000D01*
G01*
G37*
G36*
G01*
X63785000Y-86660000D02*
X63415000Y-86660000D01*
G75*
G02*
X63280000Y-86525000I0J135000D01*
G01*
X63280000Y-86255000D01*
G75*
G02*
X63415000Y-86120000I135000J0D01*
G01*
X63785000Y-86120000D01*
G75*
G02*
X63920000Y-86255000I0J-135000D01*
G01*
X63920000Y-86525000D01*
G75*
G02*
X63785000Y-86660000I-135000J0D01*
G01*
G37*
G36*
G01*
X63785000Y-87680000D02*
X63415000Y-87680000D01*
G75*
G02*
X63280000Y-87545000I0J135000D01*
G01*
X63280000Y-87275000D01*
G75*
G02*
X63415000Y-87140000I135000J0D01*
G01*
X63785000Y-87140000D01*
G75*
G02*
X63920000Y-87275000I0J-135000D01*
G01*
X63920000Y-87545000D01*
G75*
G02*
X63785000Y-87680000I-135000J0D01*
G01*
G37*
G36*
G01*
X56860000Y-86015000D02*
X56860000Y-86385000D01*
G75*
G02*
X56725000Y-86520000I-135000J0D01*
G01*
X56455000Y-86520000D01*
G75*
G02*
X56320000Y-86385000I0J135000D01*
G01*
X56320000Y-86015000D01*
G75*
G02*
X56455000Y-85880000I135000J0D01*
G01*
X56725000Y-85880000D01*
G75*
G02*
X56860000Y-86015000I0J-135000D01*
G01*
G37*
G36*
G01*
X57880000Y-86015000D02*
X57880000Y-86385000D01*
G75*
G02*
X57745000Y-86520000I-135000J0D01*
G01*
X57475000Y-86520000D01*
G75*
G02*
X57340000Y-86385000I0J135000D01*
G01*
X57340000Y-86015000D01*
G75*
G02*
X57475000Y-85880000I135000J0D01*
G01*
X57745000Y-85880000D01*
G75*
G02*
X57880000Y-86015000I0J-135000D01*
G01*
G37*
G36*
G01*
X55940000Y-89385000D02*
X55940000Y-89015000D01*
G75*
G02*
X56075000Y-88880000I135000J0D01*
G01*
X56345000Y-88880000D01*
G75*
G02*
X56480000Y-89015000I0J-135000D01*
G01*
X56480000Y-89385000D01*
G75*
G02*
X56345000Y-89520000I-135000J0D01*
G01*
X56075000Y-89520000D01*
G75*
G02*
X55940000Y-89385000I0J135000D01*
G01*
G37*
G36*
G01*
X54920000Y-89385000D02*
X54920000Y-89015000D01*
G75*
G02*
X55055000Y-88880000I135000J0D01*
G01*
X55325000Y-88880000D01*
G75*
G02*
X55460000Y-89015000I0J-135000D01*
G01*
X55460000Y-89385000D01*
G75*
G02*
X55325000Y-89520000I-135000J0D01*
G01*
X55055000Y-89520000D01*
G75*
G02*
X54920000Y-89385000I0J135000D01*
G01*
G37*
G36*
G01*
X68240000Y-95985000D02*
X68240000Y-95615000D01*
G75*
G02*
X68375000Y-95480000I135000J0D01*
G01*
X68645000Y-95480000D01*
G75*
G02*
X68780000Y-95615000I0J-135000D01*
G01*
X68780000Y-95985000D01*
G75*
G02*
X68645000Y-96120000I-135000J0D01*
G01*
X68375000Y-96120000D01*
G75*
G02*
X68240000Y-95985000I0J135000D01*
G01*
G37*
G36*
G01*
X67220000Y-95985000D02*
X67220000Y-95615000D01*
G75*
G02*
X67355000Y-95480000I135000J0D01*
G01*
X67625000Y-95480000D01*
G75*
G02*
X67760000Y-95615000I0J-135000D01*
G01*
X67760000Y-95985000D01*
G75*
G02*
X67625000Y-96120000I-135000J0D01*
G01*
X67355000Y-96120000D01*
G75*
G02*
X67220000Y-95985000I0J135000D01*
G01*
G37*
G36*
G01*
X84940000Y-95385000D02*
X84940000Y-95015000D01*
G75*
G02*
X85075000Y-94880000I135000J0D01*
G01*
X85345000Y-94880000D01*
G75*
G02*
X85480000Y-95015000I0J-135000D01*
G01*
X85480000Y-95385000D01*
G75*
G02*
X85345000Y-95520000I-135000J0D01*
G01*
X85075000Y-95520000D01*
G75*
G02*
X84940000Y-95385000I0J135000D01*
G01*
G37*
G36*
G01*
X83920000Y-95385000D02*
X83920000Y-95015000D01*
G75*
G02*
X84055000Y-94880000I135000J0D01*
G01*
X84325000Y-94880000D01*
G75*
G02*
X84460000Y-95015000I0J-135000D01*
G01*
X84460000Y-95385000D01*
G75*
G02*
X84325000Y-95520000I-135000J0D01*
G01*
X84055000Y-95520000D01*
G75*
G02*
X83920000Y-95385000I0J135000D01*
G01*
G37*
G36*
G01*
X54760000Y-59415000D02*
X54760000Y-59785000D01*
G75*
G02*
X54625000Y-59920000I-135000J0D01*
G01*
X54355000Y-59920000D01*
G75*
G02*
X54220000Y-59785000I0J135000D01*
G01*
X54220000Y-59415000D01*
G75*
G02*
X54355000Y-59280000I135000J0D01*
G01*
X54625000Y-59280000D01*
G75*
G02*
X54760000Y-59415000I0J-135000D01*
G01*
G37*
G36*
G01*
X55780000Y-59415000D02*
X55780000Y-59785000D01*
G75*
G02*
X55645000Y-59920000I-135000J0D01*
G01*
X55375000Y-59920000D01*
G75*
G02*
X55240000Y-59785000I0J135000D01*
G01*
X55240000Y-59415000D01*
G75*
G02*
X55375000Y-59280000I135000J0D01*
G01*
X55645000Y-59280000D01*
G75*
G02*
X55780000Y-59415000I0J-135000D01*
G01*
G37*
G36*
G01*
X53985000Y-67360000D02*
X53615000Y-67360000D01*
G75*
G02*
X53480000Y-67225000I0J135000D01*
G01*
X53480000Y-66955000D01*
G75*
G02*
X53615000Y-66820000I135000J0D01*
G01*
X53985000Y-66820000D01*
G75*
G02*
X54120000Y-66955000I0J-135000D01*
G01*
X54120000Y-67225000D01*
G75*
G02*
X53985000Y-67360000I-135000J0D01*
G01*
G37*
G36*
G01*
X53985000Y-68380000D02*
X53615000Y-68380000D01*
G75*
G02*
X53480000Y-68245000I0J135000D01*
G01*
X53480000Y-67975000D01*
G75*
G02*
X53615000Y-67840000I135000J0D01*
G01*
X53985000Y-67840000D01*
G75*
G02*
X54120000Y-67975000I0J-135000D01*
G01*
X54120000Y-68245000D01*
G75*
G02*
X53985000Y-68380000I-135000J0D01*
G01*
G37*
D17*
X57500000Y-89400000D03*
X57500000Y-88000000D03*
D13*
X53600000Y-89200000D03*
X52200000Y-89200000D03*
D17*
X67300000Y-92100000D03*
X67300000Y-93500000D03*
G36*
G01*
X84800000Y-69670000D02*
X84800000Y-69330000D01*
G75*
G02*
X84940000Y-69190000I140000J0D01*
G01*
X85220000Y-69190000D01*
G75*
G02*
X85360000Y-69330000I0J-140000D01*
G01*
X85360000Y-69670000D01*
G75*
G02*
X85220000Y-69810000I-140000J0D01*
G01*
X84940000Y-69810000D01*
G75*
G02*
X84800000Y-69670000I0J140000D01*
G01*
G37*
G36*
G01*
X83840000Y-69670000D02*
X83840000Y-69330000D01*
G75*
G02*
X83980000Y-69190000I140000J0D01*
G01*
X84260000Y-69190000D01*
G75*
G02*
X84400000Y-69330000I0J-140000D01*
G01*
X84400000Y-69670000D01*
G75*
G02*
X84260000Y-69810000I-140000J0D01*
G01*
X83980000Y-69810000D01*
G75*
G02*
X83840000Y-69670000I0J140000D01*
G01*
G37*
G36*
G01*
X96530000Y-58890000D02*
X96530000Y-58550000D01*
G75*
G02*
X96670000Y-58410000I140000J0D01*
G01*
X96950000Y-58410000D01*
G75*
G02*
X97090000Y-58550000I0J-140000D01*
G01*
X97090000Y-58890000D01*
G75*
G02*
X96950000Y-59030000I-140000J0D01*
G01*
X96670000Y-59030000D01*
G75*
G02*
X96530000Y-58890000I0J140000D01*
G01*
G37*
G36*
G01*
X95570000Y-58890000D02*
X95570000Y-58550000D01*
G75*
G02*
X95710000Y-58410000I140000J0D01*
G01*
X95990000Y-58410000D01*
G75*
G02*
X96130000Y-58550000I0J-140000D01*
G01*
X96130000Y-58890000D01*
G75*
G02*
X95990000Y-59030000I-140000J0D01*
G01*
X95710000Y-59030000D01*
G75*
G02*
X95570000Y-58890000I0J140000D01*
G01*
G37*
G36*
G01*
X86100000Y-63770000D02*
X86100000Y-63430000D01*
G75*
G02*
X86240000Y-63290000I140000J0D01*
G01*
X86520000Y-63290000D01*
G75*
G02*
X86660000Y-63430000I0J-140000D01*
G01*
X86660000Y-63770000D01*
G75*
G02*
X86520000Y-63910000I-140000J0D01*
G01*
X86240000Y-63910000D01*
G75*
G02*
X86100000Y-63770000I0J140000D01*
G01*
G37*
G36*
G01*
X85140000Y-63770000D02*
X85140000Y-63430000D01*
G75*
G02*
X85280000Y-63290000I140000J0D01*
G01*
X85560000Y-63290000D01*
G75*
G02*
X85700000Y-63430000I0J-140000D01*
G01*
X85700000Y-63770000D01*
G75*
G02*
X85560000Y-63910000I-140000J0D01*
G01*
X85280000Y-63910000D01*
G75*
G02*
X85140000Y-63770000I0J140000D01*
G01*
G37*
G36*
G01*
X96800000Y-74730000D02*
X96800000Y-75070000D01*
G75*
G02*
X96660000Y-75210000I-140000J0D01*
G01*
X96380000Y-75210000D01*
G75*
G02*
X96240000Y-75070000I0J140000D01*
G01*
X96240000Y-74730000D01*
G75*
G02*
X96380000Y-74590000I140000J0D01*
G01*
X96660000Y-74590000D01*
G75*
G02*
X96800000Y-74730000I0J-140000D01*
G01*
G37*
G36*
G01*
X97760000Y-74730000D02*
X97760000Y-75070000D01*
G75*
G02*
X97620000Y-75210000I-140000J0D01*
G01*
X97340000Y-75210000D01*
G75*
G02*
X97200000Y-75070000I0J140000D01*
G01*
X97200000Y-74730000D01*
G75*
G02*
X97340000Y-74590000I140000J0D01*
G01*
X97620000Y-74590000D01*
G75*
G02*
X97760000Y-74730000I0J-140000D01*
G01*
G37*
G36*
G01*
X103330000Y-69600000D02*
X103670000Y-69600000D01*
G75*
G02*
X103810000Y-69740000I0J-140000D01*
G01*
X103810000Y-70020000D01*
G75*
G02*
X103670000Y-70160000I-140000J0D01*
G01*
X103330000Y-70160000D01*
G75*
G02*
X103190000Y-70020000I0J140000D01*
G01*
X103190000Y-69740000D01*
G75*
G02*
X103330000Y-69600000I140000J0D01*
G01*
G37*
G36*
G01*
X103330000Y-68640000D02*
X103670000Y-68640000D01*
G75*
G02*
X103810000Y-68780000I0J-140000D01*
G01*
X103810000Y-69060000D01*
G75*
G02*
X103670000Y-69200000I-140000J0D01*
G01*
X103330000Y-69200000D01*
G75*
G02*
X103190000Y-69060000I0J140000D01*
G01*
X103190000Y-68780000D01*
G75*
G02*
X103330000Y-68640000I140000J0D01*
G01*
G37*
G36*
G01*
X74900000Y-84830000D02*
X74900000Y-85170000D01*
G75*
G02*
X74760000Y-85310000I-140000J0D01*
G01*
X74480000Y-85310000D01*
G75*
G02*
X74340000Y-85170000I0J140000D01*
G01*
X74340000Y-84830000D01*
G75*
G02*
X74480000Y-84690000I140000J0D01*
G01*
X74760000Y-84690000D01*
G75*
G02*
X74900000Y-84830000I0J-140000D01*
G01*
G37*
G36*
G01*
X75860000Y-84830000D02*
X75860000Y-85170000D01*
G75*
G02*
X75720000Y-85310000I-140000J0D01*
G01*
X75440000Y-85310000D01*
G75*
G02*
X75300000Y-85170000I0J140000D01*
G01*
X75300000Y-84830000D01*
G75*
G02*
X75440000Y-84690000I140000J0D01*
G01*
X75720000Y-84690000D01*
G75*
G02*
X75860000Y-84830000I0J-140000D01*
G01*
G37*
G36*
G01*
X57800000Y-66430000D02*
X57800000Y-66770000D01*
G75*
G02*
X57660000Y-66910000I-140000J0D01*
G01*
X57380000Y-66910000D01*
G75*
G02*
X57240000Y-66770000I0J140000D01*
G01*
X57240000Y-66430000D01*
G75*
G02*
X57380000Y-66290000I140000J0D01*
G01*
X57660000Y-66290000D01*
G75*
G02*
X57800000Y-66430000I0J-140000D01*
G01*
G37*
G36*
G01*
X58760000Y-66430000D02*
X58760000Y-66770000D01*
G75*
G02*
X58620000Y-66910000I-140000J0D01*
G01*
X58340000Y-66910000D01*
G75*
G02*
X58200000Y-66770000I0J140000D01*
G01*
X58200000Y-66430000D01*
G75*
G02*
X58340000Y-66290000I140000J0D01*
G01*
X58620000Y-66290000D01*
G75*
G02*
X58760000Y-66430000I0J-140000D01*
G01*
G37*
G36*
G01*
X66670000Y-71900000D02*
X66330000Y-71900000D01*
G75*
G02*
X66190000Y-71760000I0J140000D01*
G01*
X66190000Y-71480000D01*
G75*
G02*
X66330000Y-71340000I140000J0D01*
G01*
X66670000Y-71340000D01*
G75*
G02*
X66810000Y-71480000I0J-140000D01*
G01*
X66810000Y-71760000D01*
G75*
G02*
X66670000Y-71900000I-140000J0D01*
G01*
G37*
G36*
G01*
X66670000Y-72860000D02*
X66330000Y-72860000D01*
G75*
G02*
X66190000Y-72720000I0J140000D01*
G01*
X66190000Y-72440000D01*
G75*
G02*
X66330000Y-72300000I140000J0D01*
G01*
X66670000Y-72300000D01*
G75*
G02*
X66810000Y-72440000I0J-140000D01*
G01*
X66810000Y-72720000D01*
G75*
G02*
X66670000Y-72860000I-140000J0D01*
G01*
G37*
G36*
G01*
X61200000Y-73630000D02*
X61200000Y-73970000D01*
G75*
G02*
X61060000Y-74110000I-140000J0D01*
G01*
X60780000Y-74110000D01*
G75*
G02*
X60640000Y-73970000I0J140000D01*
G01*
X60640000Y-73630000D01*
G75*
G02*
X60780000Y-73490000I140000J0D01*
G01*
X61060000Y-73490000D01*
G75*
G02*
X61200000Y-73630000I0J-140000D01*
G01*
G37*
G36*
G01*
X62160000Y-73630000D02*
X62160000Y-73970000D01*
G75*
G02*
X62020000Y-74110000I-140000J0D01*
G01*
X61740000Y-74110000D01*
G75*
G02*
X61600000Y-73970000I0J140000D01*
G01*
X61600000Y-73630000D01*
G75*
G02*
X61740000Y-73490000I140000J0D01*
G01*
X62020000Y-73490000D01*
G75*
G02*
X62160000Y-73630000I0J-140000D01*
G01*
G37*
G36*
G01*
X52510000Y-60565000D02*
X52510000Y-60935000D01*
G75*
G02*
X52375000Y-61070000I-135000J0D01*
G01*
X52105000Y-61070000D01*
G75*
G02*
X51970000Y-60935000I0J135000D01*
G01*
X51970000Y-60565000D01*
G75*
G02*
X52105000Y-60430000I135000J0D01*
G01*
X52375000Y-60430000D01*
G75*
G02*
X52510000Y-60565000I0J-135000D01*
G01*
G37*
G36*
G01*
X53530000Y-60565000D02*
X53530000Y-60935000D01*
G75*
G02*
X53395000Y-61070000I-135000J0D01*
G01*
X53125000Y-61070000D01*
G75*
G02*
X52990000Y-60935000I0J135000D01*
G01*
X52990000Y-60565000D01*
G75*
G02*
X53125000Y-60430000I135000J0D01*
G01*
X53395000Y-60430000D01*
G75*
G02*
X53530000Y-60565000I0J-135000D01*
G01*
G37*
G36*
G01*
X54760000Y-60565000D02*
X54760000Y-60935000D01*
G75*
G02*
X54625000Y-61070000I-135000J0D01*
G01*
X54355000Y-61070000D01*
G75*
G02*
X54220000Y-60935000I0J135000D01*
G01*
X54220000Y-60565000D01*
G75*
G02*
X54355000Y-60430000I135000J0D01*
G01*
X54625000Y-60430000D01*
G75*
G02*
X54760000Y-60565000I0J-135000D01*
G01*
G37*
G36*
G01*
X55780000Y-60565000D02*
X55780000Y-60935000D01*
G75*
G02*
X55645000Y-61070000I-135000J0D01*
G01*
X55375000Y-61070000D01*
G75*
G02*
X55240000Y-60935000I0J135000D01*
G01*
X55240000Y-60565000D01*
G75*
G02*
X55375000Y-60430000I135000J0D01*
G01*
X55645000Y-60430000D01*
G75*
G02*
X55780000Y-60565000I0J-135000D01*
G01*
G37*
D19*
X60225000Y-79000000D03*
X66975000Y-79000000D03*
G36*
G01*
X52030000Y-67800000D02*
X52370000Y-67800000D01*
G75*
G02*
X52510000Y-67940000I0J-140000D01*
G01*
X52510000Y-68220000D01*
G75*
G02*
X52370000Y-68360000I-140000J0D01*
G01*
X52030000Y-68360000D01*
G75*
G02*
X51890000Y-68220000I0J140000D01*
G01*
X51890000Y-67940000D01*
G75*
G02*
X52030000Y-67800000I140000J0D01*
G01*
G37*
G36*
G01*
X52030000Y-66840000D02*
X52370000Y-66840000D01*
G75*
G02*
X52510000Y-66980000I0J-140000D01*
G01*
X52510000Y-67260000D01*
G75*
G02*
X52370000Y-67400000I-140000J0D01*
G01*
X52030000Y-67400000D01*
G75*
G02*
X51890000Y-67260000I0J140000D01*
G01*
X51890000Y-66980000D01*
G75*
G02*
X52030000Y-66840000I140000J0D01*
G01*
G37*
G36*
G01*
X64700000Y-69930000D02*
X64700000Y-70270000D01*
G75*
G02*
X64560000Y-70410000I-140000J0D01*
G01*
X64280000Y-70410000D01*
G75*
G02*
X64140000Y-70270000I0J140000D01*
G01*
X64140000Y-69930000D01*
G75*
G02*
X64280000Y-69790000I140000J0D01*
G01*
X64560000Y-69790000D01*
G75*
G02*
X64700000Y-69930000I0J-140000D01*
G01*
G37*
G36*
G01*
X65660000Y-69930000D02*
X65660000Y-70270000D01*
G75*
G02*
X65520000Y-70410000I-140000J0D01*
G01*
X65240000Y-70410000D01*
G75*
G02*
X65100000Y-70270000I0J140000D01*
G01*
X65100000Y-69930000D01*
G75*
G02*
X65240000Y-69790000I140000J0D01*
G01*
X65520000Y-69790000D01*
G75*
G02*
X65660000Y-69930000I0J-140000D01*
G01*
G37*
D20*
X108850000Y-95900000D03*
D21*
X108850000Y-95000000D03*
D20*
X108850000Y-94100000D03*
D21*
X107150000Y-95000000D03*
D20*
X107150000Y-94100000D03*
X107150000Y-95900000D03*
D22*
X108000000Y-95830000D03*
D23*
X108000000Y-94390000D03*
D24*
X58500000Y-68850000D03*
X59000000Y-68850000D03*
X59500000Y-68850000D03*
X62000000Y-68850000D03*
X61500000Y-68850000D03*
X61000000Y-68850000D03*
X60500000Y-68850000D03*
X60000000Y-68850000D03*
X58500000Y-72150000D03*
X59000000Y-72150000D03*
X59500000Y-72150000D03*
X62000000Y-72150000D03*
X61500000Y-72150000D03*
X61000000Y-72150000D03*
X60500000Y-72150000D03*
X60000000Y-72150000D03*
D25*
X62400000Y-69750000D03*
X62400000Y-71250000D03*
X58100000Y-69750000D03*
X58100000Y-71250000D03*
G36*
G01*
X98575000Y-96725000D02*
X98575000Y-97275000D01*
G75*
G02*
X98375000Y-97475000I-200000J0D01*
G01*
X97975000Y-97475000D01*
G75*
G02*
X97775000Y-97275000I0J200000D01*
G01*
X97775000Y-96725000D01*
G75*
G02*
X97975000Y-96525000I200000J0D01*
G01*
X98375000Y-96525000D01*
G75*
G02*
X98575000Y-96725000I0J-200000D01*
G01*
G37*
G36*
G01*
X100225000Y-96725000D02*
X100225000Y-97275000D01*
G75*
G02*
X100025000Y-97475000I-200000J0D01*
G01*
X99625000Y-97475000D01*
G75*
G02*
X99425000Y-97275000I0J200000D01*
G01*
X99425000Y-96725000D01*
G75*
G02*
X99625000Y-96525000I200000J0D01*
G01*
X100025000Y-96525000D01*
G75*
G02*
X100225000Y-96725000I0J-200000D01*
G01*
G37*
G36*
G01*
X98575000Y-94725000D02*
X98575000Y-95275000D01*
G75*
G02*
X98375000Y-95475000I-200000J0D01*
G01*
X97975000Y-95475000D01*
G75*
G02*
X97775000Y-95275000I0J200000D01*
G01*
X97775000Y-94725000D01*
G75*
G02*
X97975000Y-94525000I200000J0D01*
G01*
X98375000Y-94525000D01*
G75*
G02*
X98575000Y-94725000I0J-200000D01*
G01*
G37*
G36*
G01*
X100225000Y-94725000D02*
X100225000Y-95275000D01*
G75*
G02*
X100025000Y-95475000I-200000J0D01*
G01*
X99625000Y-95475000D01*
G75*
G02*
X99425000Y-95275000I0J200000D01*
G01*
X99425000Y-94725000D01*
G75*
G02*
X99625000Y-94525000I200000J0D01*
G01*
X100025000Y-94525000D01*
G75*
G02*
X100225000Y-94725000I0J-200000D01*
G01*
G37*
G36*
G01*
X92025000Y-99075000D02*
X92025000Y-98525000D01*
G75*
G02*
X92225000Y-98325000I200000J0D01*
G01*
X92625000Y-98325000D01*
G75*
G02*
X92825000Y-98525000I0J-200000D01*
G01*
X92825000Y-99075000D01*
G75*
G02*
X92625000Y-99275000I-200000J0D01*
G01*
X92225000Y-99275000D01*
G75*
G02*
X92025000Y-99075000I0J200000D01*
G01*
G37*
G36*
G01*
X90375000Y-99075000D02*
X90375000Y-98525000D01*
G75*
G02*
X90575000Y-98325000I200000J0D01*
G01*
X90975000Y-98325000D01*
G75*
G02*
X91175000Y-98525000I0J-200000D01*
G01*
X91175000Y-99075000D01*
G75*
G02*
X90975000Y-99275000I-200000J0D01*
G01*
X90575000Y-99275000D01*
G75*
G02*
X90375000Y-99075000I0J200000D01*
G01*
G37*
G36*
G01*
X92775000Y-94175000D02*
X92225000Y-94175000D01*
G75*
G02*
X92025000Y-93975000I0J200000D01*
G01*
X92025000Y-93575000D01*
G75*
G02*
X92225000Y-93375000I200000J0D01*
G01*
X92775000Y-93375000D01*
G75*
G02*
X92975000Y-93575000I0J-200000D01*
G01*
X92975000Y-93975000D01*
G75*
G02*
X92775000Y-94175000I-200000J0D01*
G01*
G37*
G36*
G01*
X92775000Y-95825000D02*
X92225000Y-95825000D01*
G75*
G02*
X92025000Y-95625000I0J200000D01*
G01*
X92025000Y-95225000D01*
G75*
G02*
X92225000Y-95025000I200000J0D01*
G01*
X92775000Y-95025000D01*
G75*
G02*
X92975000Y-95225000I0J-200000D01*
G01*
X92975000Y-95625000D01*
G75*
G02*
X92775000Y-95825000I-200000J0D01*
G01*
G37*
G36*
G01*
X103900000Y-104925001D02*
X103900000Y-103624999D01*
G75*
G02*
X104149999Y-103375000I249999J0D01*
G01*
X104850001Y-103375000D01*
G75*
G02*
X105100000Y-103624999I0J-249999D01*
G01*
X105100000Y-104925001D01*
G75*
G02*
X104850001Y-105175000I-249999J0D01*
G01*
X104149999Y-105175000D01*
G75*
G02*
X103900000Y-104925001I0J249999D01*
G01*
G37*
G36*
G01*
X98300000Y-104925001D02*
X98300000Y-103624999D01*
G75*
G02*
X98549999Y-103375000I249999J0D01*
G01*
X99250001Y-103375000D01*
G75*
G02*
X99500000Y-103624999I0J-249999D01*
G01*
X99500000Y-104925001D01*
G75*
G02*
X99250001Y-105175000I-249999J0D01*
G01*
X98549999Y-105175000D01*
G75*
G02*
X98300000Y-104925001I0J249999D01*
G01*
G37*
G36*
G01*
X102900000Y-101025000D02*
X102900000Y-99775000D01*
G75*
G02*
X103050000Y-99625000I150000J0D01*
G01*
X103350000Y-99625000D01*
G75*
G02*
X103500000Y-99775000I0J-150000D01*
G01*
X103500000Y-101025000D01*
G75*
G02*
X103350000Y-101175000I-150000J0D01*
G01*
X103050000Y-101175000D01*
G75*
G02*
X102900000Y-101025000I0J150000D01*
G01*
G37*
G36*
G01*
X101900000Y-101025000D02*
X101900000Y-99775000D01*
G75*
G02*
X102050000Y-99625000I150000J0D01*
G01*
X102350000Y-99625000D01*
G75*
G02*
X102500000Y-99775000I0J-150000D01*
G01*
X102500000Y-101025000D01*
G75*
G02*
X102350000Y-101175000I-150000J0D01*
G01*
X102050000Y-101175000D01*
G75*
G02*
X101900000Y-101025000I0J150000D01*
G01*
G37*
G36*
G01*
X100900000Y-101025000D02*
X100900000Y-99775000D01*
G75*
G02*
X101050000Y-99625000I150000J0D01*
G01*
X101350000Y-99625000D01*
G75*
G02*
X101500000Y-99775000I0J-150000D01*
G01*
X101500000Y-101025000D01*
G75*
G02*
X101350000Y-101175000I-150000J0D01*
G01*
X101050000Y-101175000D01*
G75*
G02*
X100900000Y-101025000I0J150000D01*
G01*
G37*
G36*
G01*
X99900000Y-101025000D02*
X99900000Y-99775000D01*
G75*
G02*
X100050000Y-99625000I150000J0D01*
G01*
X100350000Y-99625000D01*
G75*
G02*
X100500000Y-99775000I0J-150000D01*
G01*
X100500000Y-101025000D01*
G75*
G02*
X100350000Y-101175000I-150000J0D01*
G01*
X100050000Y-101175000D01*
G75*
G02*
X99900000Y-101025000I0J150000D01*
G01*
G37*
G36*
G01*
X87324428Y-66139860D02*
X86334478Y-65149910D01*
G75*
G02*
X86334478Y-65043844I53033J53033D01*
G01*
X86440544Y-64937778D01*
G75*
G02*
X86546610Y-64937778I53033J-53033D01*
G01*
X87536560Y-65927728D01*
G75*
G02*
X87536560Y-66033794I-53033J-53033D01*
G01*
X87430494Y-66139860D01*
G75*
G02*
X87324428Y-66139860I-53033J53033D01*
G01*
G37*
G36*
G01*
X87677981Y-65786307D02*
X86688031Y-64796357D01*
G75*
G02*
X86688031Y-64690291I53033J53033D01*
G01*
X86794097Y-64584225D01*
G75*
G02*
X86900163Y-64584225I53033J-53033D01*
G01*
X87890113Y-65574175D01*
G75*
G02*
X87890113Y-65680241I-53033J-53033D01*
G01*
X87784047Y-65786307D01*
G75*
G02*
X87677981Y-65786307I-53033J53033D01*
G01*
G37*
G36*
G01*
X88031534Y-65432754D02*
X87041584Y-64442804D01*
G75*
G02*
X87041584Y-64336738I53033J53033D01*
G01*
X87147650Y-64230672D01*
G75*
G02*
X87253716Y-64230672I53033J-53033D01*
G01*
X88243666Y-65220622D01*
G75*
G02*
X88243666Y-65326688I-53033J-53033D01*
G01*
X88137600Y-65432754D01*
G75*
G02*
X88031534Y-65432754I-53033J53033D01*
G01*
G37*
G36*
G01*
X88385088Y-65079200D02*
X87395138Y-64089250D01*
G75*
G02*
X87395138Y-63983184I53033J53033D01*
G01*
X87501204Y-63877118D01*
G75*
G02*
X87607270Y-63877118I53033J-53033D01*
G01*
X88597220Y-64867068D01*
G75*
G02*
X88597220Y-64973134I-53033J-53033D01*
G01*
X88491154Y-65079200D01*
G75*
G02*
X88385088Y-65079200I-53033J53033D01*
G01*
G37*
G36*
G01*
X88738641Y-64725647D02*
X87748691Y-63735697D01*
G75*
G02*
X87748691Y-63629631I53033J53033D01*
G01*
X87854757Y-63523565D01*
G75*
G02*
X87960823Y-63523565I53033J-53033D01*
G01*
X88950773Y-64513515D01*
G75*
G02*
X88950773Y-64619581I-53033J-53033D01*
G01*
X88844707Y-64725647D01*
G75*
G02*
X88738641Y-64725647I-53033J53033D01*
G01*
G37*
G36*
G01*
X89092195Y-64372093D02*
X88102245Y-63382143D01*
G75*
G02*
X88102245Y-63276077I53033J53033D01*
G01*
X88208311Y-63170011D01*
G75*
G02*
X88314377Y-63170011I53033J-53033D01*
G01*
X89304327Y-64159961D01*
G75*
G02*
X89304327Y-64266027I-53033J-53033D01*
G01*
X89198261Y-64372093D01*
G75*
G02*
X89092195Y-64372093I-53033J53033D01*
G01*
G37*
G36*
G01*
X89445748Y-64018540D02*
X88455798Y-63028590D01*
G75*
G02*
X88455798Y-62922524I53033J53033D01*
G01*
X88561864Y-62816458D01*
G75*
G02*
X88667930Y-62816458I53033J-53033D01*
G01*
X89657880Y-63806408D01*
G75*
G02*
X89657880Y-63912474I-53033J-53033D01*
G01*
X89551814Y-64018540D01*
G75*
G02*
X89445748Y-64018540I-53033J53033D01*
G01*
G37*
G36*
G01*
X89799301Y-63664987D02*
X88809351Y-62675037D01*
G75*
G02*
X88809351Y-62568971I53033J53033D01*
G01*
X88915417Y-62462905D01*
G75*
G02*
X89021483Y-62462905I53033J-53033D01*
G01*
X90011433Y-63452855D01*
G75*
G02*
X90011433Y-63558921I-53033J-53033D01*
G01*
X89905367Y-63664987D01*
G75*
G02*
X89799301Y-63664987I-53033J53033D01*
G01*
G37*
G36*
G01*
X90152855Y-63311433D02*
X89162905Y-62321483D01*
G75*
G02*
X89162905Y-62215417I53033J53033D01*
G01*
X89268971Y-62109351D01*
G75*
G02*
X89375037Y-62109351I53033J-53033D01*
G01*
X90364987Y-63099301D01*
G75*
G02*
X90364987Y-63205367I-53033J-53033D01*
G01*
X90258921Y-63311433D01*
G75*
G02*
X90152855Y-63311433I-53033J53033D01*
G01*
G37*
G36*
G01*
X90506408Y-62957880D02*
X89516458Y-61967930D01*
G75*
G02*
X89516458Y-61861864I53033J53033D01*
G01*
X89622524Y-61755798D01*
G75*
G02*
X89728590Y-61755798I53033J-53033D01*
G01*
X90718540Y-62745748D01*
G75*
G02*
X90718540Y-62851814I-53033J-53033D01*
G01*
X90612474Y-62957880D01*
G75*
G02*
X90506408Y-62957880I-53033J53033D01*
G01*
G37*
G36*
G01*
X90859961Y-62604327D02*
X89870011Y-61614377D01*
G75*
G02*
X89870011Y-61508311I53033J53033D01*
G01*
X89976077Y-61402245D01*
G75*
G02*
X90082143Y-61402245I53033J-53033D01*
G01*
X91072093Y-62392195D01*
G75*
G02*
X91072093Y-62498261I-53033J-53033D01*
G01*
X90966027Y-62604327D01*
G75*
G02*
X90859961Y-62604327I-53033J53033D01*
G01*
G37*
G36*
G01*
X91213515Y-62250773D02*
X90223565Y-61260823D01*
G75*
G02*
X90223565Y-61154757I53033J53033D01*
G01*
X90329631Y-61048691D01*
G75*
G02*
X90435697Y-61048691I53033J-53033D01*
G01*
X91425647Y-62038641D01*
G75*
G02*
X91425647Y-62144707I-53033J-53033D01*
G01*
X91319581Y-62250773D01*
G75*
G02*
X91213515Y-62250773I-53033J53033D01*
G01*
G37*
G36*
G01*
X91567068Y-61897220D02*
X90577118Y-60907270D01*
G75*
G02*
X90577118Y-60801204I53033J53033D01*
G01*
X90683184Y-60695138D01*
G75*
G02*
X90789250Y-60695138I53033J-53033D01*
G01*
X91779200Y-61685088D01*
G75*
G02*
X91779200Y-61791154I-53033J-53033D01*
G01*
X91673134Y-61897220D01*
G75*
G02*
X91567068Y-61897220I-53033J53033D01*
G01*
G37*
G36*
G01*
X91920622Y-61543666D02*
X90930672Y-60553716D01*
G75*
G02*
X90930672Y-60447650I53033J53033D01*
G01*
X91036738Y-60341584D01*
G75*
G02*
X91142804Y-60341584I53033J-53033D01*
G01*
X92132754Y-61331534D01*
G75*
G02*
X92132754Y-61437600I-53033J-53033D01*
G01*
X92026688Y-61543666D01*
G75*
G02*
X91920622Y-61543666I-53033J53033D01*
G01*
G37*
G36*
G01*
X92274175Y-61190113D02*
X91284225Y-60200163D01*
G75*
G02*
X91284225Y-60094097I53033J53033D01*
G01*
X91390291Y-59988031D01*
G75*
G02*
X91496357Y-59988031I53033J-53033D01*
G01*
X92486307Y-60977981D01*
G75*
G02*
X92486307Y-61084047I-53033J-53033D01*
G01*
X92380241Y-61190113D01*
G75*
G02*
X92274175Y-61190113I-53033J53033D01*
G01*
G37*
G36*
G01*
X92627728Y-60836560D02*
X91637778Y-59846610D01*
G75*
G02*
X91637778Y-59740544I53033J53033D01*
G01*
X91743844Y-59634478D01*
G75*
G02*
X91849910Y-59634478I53033J-53033D01*
G01*
X92839860Y-60624428D01*
G75*
G02*
X92839860Y-60730494I-53033J-53033D01*
G01*
X92733794Y-60836560D01*
G75*
G02*
X92627728Y-60836560I-53033J53033D01*
G01*
G37*
G36*
G01*
X94466206Y-60836560D02*
X94360140Y-60730494D01*
G75*
G02*
X94360140Y-60624428I53033J53033D01*
G01*
X95350090Y-59634478D01*
G75*
G02*
X95456156Y-59634478I53033J-53033D01*
G01*
X95562222Y-59740544D01*
G75*
G02*
X95562222Y-59846610I-53033J-53033D01*
G01*
X94572272Y-60836560D01*
G75*
G02*
X94466206Y-60836560I-53033J53033D01*
G01*
G37*
G36*
G01*
X94819759Y-61190113D02*
X94713693Y-61084047D01*
G75*
G02*
X94713693Y-60977981I53033J53033D01*
G01*
X95703643Y-59988031D01*
G75*
G02*
X95809709Y-59988031I53033J-53033D01*
G01*
X95915775Y-60094097D01*
G75*
G02*
X95915775Y-60200163I-53033J-53033D01*
G01*
X94925825Y-61190113D01*
G75*
G02*
X94819759Y-61190113I-53033J53033D01*
G01*
G37*
G36*
G01*
X95173312Y-61543666D02*
X95067246Y-61437600D01*
G75*
G02*
X95067246Y-61331534I53033J53033D01*
G01*
X96057196Y-60341584D01*
G75*
G02*
X96163262Y-60341584I53033J-53033D01*
G01*
X96269328Y-60447650D01*
G75*
G02*
X96269328Y-60553716I-53033J-53033D01*
G01*
X95279378Y-61543666D01*
G75*
G02*
X95173312Y-61543666I-53033J53033D01*
G01*
G37*
G36*
G01*
X95526866Y-61897220D02*
X95420800Y-61791154D01*
G75*
G02*
X95420800Y-61685088I53033J53033D01*
G01*
X96410750Y-60695138D01*
G75*
G02*
X96516816Y-60695138I53033J-53033D01*
G01*
X96622882Y-60801204D01*
G75*
G02*
X96622882Y-60907270I-53033J-53033D01*
G01*
X95632932Y-61897220D01*
G75*
G02*
X95526866Y-61897220I-53033J53033D01*
G01*
G37*
G36*
G01*
X95880419Y-62250773D02*
X95774353Y-62144707D01*
G75*
G02*
X95774353Y-62038641I53033J53033D01*
G01*
X96764303Y-61048691D01*
G75*
G02*
X96870369Y-61048691I53033J-53033D01*
G01*
X96976435Y-61154757D01*
G75*
G02*
X96976435Y-61260823I-53033J-53033D01*
G01*
X95986485Y-62250773D01*
G75*
G02*
X95880419Y-62250773I-53033J53033D01*
G01*
G37*
G36*
G01*
X96233973Y-62604327D02*
X96127907Y-62498261D01*
G75*
G02*
X96127907Y-62392195I53033J53033D01*
G01*
X97117857Y-61402245D01*
G75*
G02*
X97223923Y-61402245I53033J-53033D01*
G01*
X97329989Y-61508311D01*
G75*
G02*
X97329989Y-61614377I-53033J-53033D01*
G01*
X96340039Y-62604327D01*
G75*
G02*
X96233973Y-62604327I-53033J53033D01*
G01*
G37*
G36*
G01*
X96587526Y-62957880D02*
X96481460Y-62851814D01*
G75*
G02*
X96481460Y-62745748I53033J53033D01*
G01*
X97471410Y-61755798D01*
G75*
G02*
X97577476Y-61755798I53033J-53033D01*
G01*
X97683542Y-61861864D01*
G75*
G02*
X97683542Y-61967930I-53033J-53033D01*
G01*
X96693592Y-62957880D01*
G75*
G02*
X96587526Y-62957880I-53033J53033D01*
G01*
G37*
G36*
G01*
X96941079Y-63311433D02*
X96835013Y-63205367D01*
G75*
G02*
X96835013Y-63099301I53033J53033D01*
G01*
X97824963Y-62109351D01*
G75*
G02*
X97931029Y-62109351I53033J-53033D01*
G01*
X98037095Y-62215417D01*
G75*
G02*
X98037095Y-62321483I-53033J-53033D01*
G01*
X97047145Y-63311433D01*
G75*
G02*
X96941079Y-63311433I-53033J53033D01*
G01*
G37*
G36*
G01*
X97294633Y-63664987D02*
X97188567Y-63558921D01*
G75*
G02*
X97188567Y-63452855I53033J53033D01*
G01*
X98178517Y-62462905D01*
G75*
G02*
X98284583Y-62462905I53033J-53033D01*
G01*
X98390649Y-62568971D01*
G75*
G02*
X98390649Y-62675037I-53033J-53033D01*
G01*
X97400699Y-63664987D01*
G75*
G02*
X97294633Y-63664987I-53033J53033D01*
G01*
G37*
G36*
G01*
X97648186Y-64018540D02*
X97542120Y-63912474D01*
G75*
G02*
X97542120Y-63806408I53033J53033D01*
G01*
X98532070Y-62816458D01*
G75*
G02*
X98638136Y-62816458I53033J-53033D01*
G01*
X98744202Y-62922524D01*
G75*
G02*
X98744202Y-63028590I-53033J-53033D01*
G01*
X97754252Y-64018540D01*
G75*
G02*
X97648186Y-64018540I-53033J53033D01*
G01*
G37*
G36*
G01*
X98001739Y-64372093D02*
X97895673Y-64266027D01*
G75*
G02*
X97895673Y-64159961I53033J53033D01*
G01*
X98885623Y-63170011D01*
G75*
G02*
X98991689Y-63170011I53033J-53033D01*
G01*
X99097755Y-63276077D01*
G75*
G02*
X99097755Y-63382143I-53033J-53033D01*
G01*
X98107805Y-64372093D01*
G75*
G02*
X98001739Y-64372093I-53033J53033D01*
G01*
G37*
G36*
G01*
X98355293Y-64725647D02*
X98249227Y-64619581D01*
G75*
G02*
X98249227Y-64513515I53033J53033D01*
G01*
X99239177Y-63523565D01*
G75*
G02*
X99345243Y-63523565I53033J-53033D01*
G01*
X99451309Y-63629631D01*
G75*
G02*
X99451309Y-63735697I-53033J-53033D01*
G01*
X98461359Y-64725647D01*
G75*
G02*
X98355293Y-64725647I-53033J53033D01*
G01*
G37*
G36*
G01*
X98708846Y-65079200D02*
X98602780Y-64973134D01*
G75*
G02*
X98602780Y-64867068I53033J53033D01*
G01*
X99592730Y-63877118D01*
G75*
G02*
X99698796Y-63877118I53033J-53033D01*
G01*
X99804862Y-63983184D01*
G75*
G02*
X99804862Y-64089250I-53033J-53033D01*
G01*
X98814912Y-65079200D01*
G75*
G02*
X98708846Y-65079200I-53033J53033D01*
G01*
G37*
G36*
G01*
X99062400Y-65432754D02*
X98956334Y-65326688D01*
G75*
G02*
X98956334Y-65220622I53033J53033D01*
G01*
X99946284Y-64230672D01*
G75*
G02*
X100052350Y-64230672I53033J-53033D01*
G01*
X100158416Y-64336738D01*
G75*
G02*
X100158416Y-64442804I-53033J-53033D01*
G01*
X99168466Y-65432754D01*
G75*
G02*
X99062400Y-65432754I-53033J53033D01*
G01*
G37*
G36*
G01*
X99415953Y-65786307D02*
X99309887Y-65680241D01*
G75*
G02*
X99309887Y-65574175I53033J53033D01*
G01*
X100299837Y-64584225D01*
G75*
G02*
X100405903Y-64584225I53033J-53033D01*
G01*
X100511969Y-64690291D01*
G75*
G02*
X100511969Y-64796357I-53033J-53033D01*
G01*
X99522019Y-65786307D01*
G75*
G02*
X99415953Y-65786307I-53033J53033D01*
G01*
G37*
G36*
G01*
X99769506Y-66139860D02*
X99663440Y-66033794D01*
G75*
G02*
X99663440Y-65927728I53033J53033D01*
G01*
X100653390Y-64937778D01*
G75*
G02*
X100759456Y-64937778I53033J-53033D01*
G01*
X100865522Y-65043844D01*
G75*
G02*
X100865522Y-65149910I-53033J-53033D01*
G01*
X99875572Y-66139860D01*
G75*
G02*
X99769506Y-66139860I-53033J53033D01*
G01*
G37*
G36*
G01*
X100653390Y-68862222D02*
X99663440Y-67872272D01*
G75*
G02*
X99663440Y-67766206I53033J53033D01*
G01*
X99769506Y-67660140D01*
G75*
G02*
X99875572Y-67660140I53033J-53033D01*
G01*
X100865522Y-68650090D01*
G75*
G02*
X100865522Y-68756156I-53033J-53033D01*
G01*
X100759456Y-68862222D01*
G75*
G02*
X100653390Y-68862222I-53033J53033D01*
G01*
G37*
G36*
G01*
X100299837Y-69215775D02*
X99309887Y-68225825D01*
G75*
G02*
X99309887Y-68119759I53033J53033D01*
G01*
X99415953Y-68013693D01*
G75*
G02*
X99522019Y-68013693I53033J-53033D01*
G01*
X100511969Y-69003643D01*
G75*
G02*
X100511969Y-69109709I-53033J-53033D01*
G01*
X100405903Y-69215775D01*
G75*
G02*
X100299837Y-69215775I-53033J53033D01*
G01*
G37*
G36*
G01*
X99946284Y-69569328D02*
X98956334Y-68579378D01*
G75*
G02*
X98956334Y-68473312I53033J53033D01*
G01*
X99062400Y-68367246D01*
G75*
G02*
X99168466Y-68367246I53033J-53033D01*
G01*
X100158416Y-69357196D01*
G75*
G02*
X100158416Y-69463262I-53033J-53033D01*
G01*
X100052350Y-69569328D01*
G75*
G02*
X99946284Y-69569328I-53033J53033D01*
G01*
G37*
G36*
G01*
X99592730Y-69922882D02*
X98602780Y-68932932D01*
G75*
G02*
X98602780Y-68826866I53033J53033D01*
G01*
X98708846Y-68720800D01*
G75*
G02*
X98814912Y-68720800I53033J-53033D01*
G01*
X99804862Y-69710750D01*
G75*
G02*
X99804862Y-69816816I-53033J-53033D01*
G01*
X99698796Y-69922882D01*
G75*
G02*
X99592730Y-69922882I-53033J53033D01*
G01*
G37*
G36*
G01*
X99239177Y-70276435D02*
X98249227Y-69286485D01*
G75*
G02*
X98249227Y-69180419I53033J53033D01*
G01*
X98355293Y-69074353D01*
G75*
G02*
X98461359Y-69074353I53033J-53033D01*
G01*
X99451309Y-70064303D01*
G75*
G02*
X99451309Y-70170369I-53033J-53033D01*
G01*
X99345243Y-70276435D01*
G75*
G02*
X99239177Y-70276435I-53033J53033D01*
G01*
G37*
G36*
G01*
X98885623Y-70629989D02*
X97895673Y-69640039D01*
G75*
G02*
X97895673Y-69533973I53033J53033D01*
G01*
X98001739Y-69427907D01*
G75*
G02*
X98107805Y-69427907I53033J-53033D01*
G01*
X99097755Y-70417857D01*
G75*
G02*
X99097755Y-70523923I-53033J-53033D01*
G01*
X98991689Y-70629989D01*
G75*
G02*
X98885623Y-70629989I-53033J53033D01*
G01*
G37*
G36*
G01*
X98532070Y-70983542D02*
X97542120Y-69993592D01*
G75*
G02*
X97542120Y-69887526I53033J53033D01*
G01*
X97648186Y-69781460D01*
G75*
G02*
X97754252Y-69781460I53033J-53033D01*
G01*
X98744202Y-70771410D01*
G75*
G02*
X98744202Y-70877476I-53033J-53033D01*
G01*
X98638136Y-70983542D01*
G75*
G02*
X98532070Y-70983542I-53033J53033D01*
G01*
G37*
G36*
G01*
X98178517Y-71337095D02*
X97188567Y-70347145D01*
G75*
G02*
X97188567Y-70241079I53033J53033D01*
G01*
X97294633Y-70135013D01*
G75*
G02*
X97400699Y-70135013I53033J-53033D01*
G01*
X98390649Y-71124963D01*
G75*
G02*
X98390649Y-71231029I-53033J-53033D01*
G01*
X98284583Y-71337095D01*
G75*
G02*
X98178517Y-71337095I-53033J53033D01*
G01*
G37*
G36*
G01*
X97824963Y-71690649D02*
X96835013Y-70700699D01*
G75*
G02*
X96835013Y-70594633I53033J53033D01*
G01*
X96941079Y-70488567D01*
G75*
G02*
X97047145Y-70488567I53033J-53033D01*
G01*
X98037095Y-71478517D01*
G75*
G02*
X98037095Y-71584583I-53033J-53033D01*
G01*
X97931029Y-71690649D01*
G75*
G02*
X97824963Y-71690649I-53033J53033D01*
G01*
G37*
G36*
G01*
X97471410Y-72044202D02*
X96481460Y-71054252D01*
G75*
G02*
X96481460Y-70948186I53033J53033D01*
G01*
X96587526Y-70842120D01*
G75*
G02*
X96693592Y-70842120I53033J-53033D01*
G01*
X97683542Y-71832070D01*
G75*
G02*
X97683542Y-71938136I-53033J-53033D01*
G01*
X97577476Y-72044202D01*
G75*
G02*
X97471410Y-72044202I-53033J53033D01*
G01*
G37*
G36*
G01*
X97117857Y-72397755D02*
X96127907Y-71407805D01*
G75*
G02*
X96127907Y-71301739I53033J53033D01*
G01*
X96233973Y-71195673D01*
G75*
G02*
X96340039Y-71195673I53033J-53033D01*
G01*
X97329989Y-72185623D01*
G75*
G02*
X97329989Y-72291689I-53033J-53033D01*
G01*
X97223923Y-72397755D01*
G75*
G02*
X97117857Y-72397755I-53033J53033D01*
G01*
G37*
G36*
G01*
X96764303Y-72751309D02*
X95774353Y-71761359D01*
G75*
G02*
X95774353Y-71655293I53033J53033D01*
G01*
X95880419Y-71549227D01*
G75*
G02*
X95986485Y-71549227I53033J-53033D01*
G01*
X96976435Y-72539177D01*
G75*
G02*
X96976435Y-72645243I-53033J-53033D01*
G01*
X96870369Y-72751309D01*
G75*
G02*
X96764303Y-72751309I-53033J53033D01*
G01*
G37*
G36*
G01*
X96410750Y-73104862D02*
X95420800Y-72114912D01*
G75*
G02*
X95420800Y-72008846I53033J53033D01*
G01*
X95526866Y-71902780D01*
G75*
G02*
X95632932Y-71902780I53033J-53033D01*
G01*
X96622882Y-72892730D01*
G75*
G02*
X96622882Y-72998796I-53033J-53033D01*
G01*
X96516816Y-73104862D01*
G75*
G02*
X96410750Y-73104862I-53033J53033D01*
G01*
G37*
G36*
G01*
X96057196Y-73458416D02*
X95067246Y-72468466D01*
G75*
G02*
X95067246Y-72362400I53033J53033D01*
G01*
X95173312Y-72256334D01*
G75*
G02*
X95279378Y-72256334I53033J-53033D01*
G01*
X96269328Y-73246284D01*
G75*
G02*
X96269328Y-73352350I-53033J-53033D01*
G01*
X96163262Y-73458416D01*
G75*
G02*
X96057196Y-73458416I-53033J53033D01*
G01*
G37*
G36*
G01*
X95703643Y-73811969D02*
X94713693Y-72822019D01*
G75*
G02*
X94713693Y-72715953I53033J53033D01*
G01*
X94819759Y-72609887D01*
G75*
G02*
X94925825Y-72609887I53033J-53033D01*
G01*
X95915775Y-73599837D01*
G75*
G02*
X95915775Y-73705903I-53033J-53033D01*
G01*
X95809709Y-73811969D01*
G75*
G02*
X95703643Y-73811969I-53033J53033D01*
G01*
G37*
G36*
G01*
X95350090Y-74165522D02*
X94360140Y-73175572D01*
G75*
G02*
X94360140Y-73069506I53033J53033D01*
G01*
X94466206Y-72963440D01*
G75*
G02*
X94572272Y-72963440I53033J-53033D01*
G01*
X95562222Y-73953390D01*
G75*
G02*
X95562222Y-74059456I-53033J-53033D01*
G01*
X95456156Y-74165522D01*
G75*
G02*
X95350090Y-74165522I-53033J53033D01*
G01*
G37*
G36*
G01*
X91743844Y-74165522D02*
X91637778Y-74059456D01*
G75*
G02*
X91637778Y-73953390I53033J53033D01*
G01*
X92627728Y-72963440D01*
G75*
G02*
X92733794Y-72963440I53033J-53033D01*
G01*
X92839860Y-73069506D01*
G75*
G02*
X92839860Y-73175572I-53033J-53033D01*
G01*
X91849910Y-74165522D01*
G75*
G02*
X91743844Y-74165522I-53033J53033D01*
G01*
G37*
G36*
G01*
X91390291Y-73811969D02*
X91284225Y-73705903D01*
G75*
G02*
X91284225Y-73599837I53033J53033D01*
G01*
X92274175Y-72609887D01*
G75*
G02*
X92380241Y-72609887I53033J-53033D01*
G01*
X92486307Y-72715953D01*
G75*
G02*
X92486307Y-72822019I-53033J-53033D01*
G01*
X91496357Y-73811969D01*
G75*
G02*
X91390291Y-73811969I-53033J53033D01*
G01*
G37*
G36*
G01*
X91036738Y-73458416D02*
X90930672Y-73352350D01*
G75*
G02*
X90930672Y-73246284I53033J53033D01*
G01*
X91920622Y-72256334D01*
G75*
G02*
X92026688Y-72256334I53033J-53033D01*
G01*
X92132754Y-72362400D01*
G75*
G02*
X92132754Y-72468466I-53033J-53033D01*
G01*
X91142804Y-73458416D01*
G75*
G02*
X91036738Y-73458416I-53033J53033D01*
G01*
G37*
G36*
G01*
X90683184Y-73104862D02*
X90577118Y-72998796D01*
G75*
G02*
X90577118Y-72892730I53033J53033D01*
G01*
X91567068Y-71902780D01*
G75*
G02*
X91673134Y-71902780I53033J-53033D01*
G01*
X91779200Y-72008846D01*
G75*
G02*
X91779200Y-72114912I-53033J-53033D01*
G01*
X90789250Y-73104862D01*
G75*
G02*
X90683184Y-73104862I-53033J53033D01*
G01*
G37*
G36*
G01*
X90329631Y-72751309D02*
X90223565Y-72645243D01*
G75*
G02*
X90223565Y-72539177I53033J53033D01*
G01*
X91213515Y-71549227D01*
G75*
G02*
X91319581Y-71549227I53033J-53033D01*
G01*
X91425647Y-71655293D01*
G75*
G02*
X91425647Y-71761359I-53033J-53033D01*
G01*
X90435697Y-72751309D01*
G75*
G02*
X90329631Y-72751309I-53033J53033D01*
G01*
G37*
G36*
G01*
X89976077Y-72397755D02*
X89870011Y-72291689D01*
G75*
G02*
X89870011Y-72185623I53033J53033D01*
G01*
X90859961Y-71195673D01*
G75*
G02*
X90966027Y-71195673I53033J-53033D01*
G01*
X91072093Y-71301739D01*
G75*
G02*
X91072093Y-71407805I-53033J-53033D01*
G01*
X90082143Y-72397755D01*
G75*
G02*
X89976077Y-72397755I-53033J53033D01*
G01*
G37*
G36*
G01*
X89622524Y-72044202D02*
X89516458Y-71938136D01*
G75*
G02*
X89516458Y-71832070I53033J53033D01*
G01*
X90506408Y-70842120D01*
G75*
G02*
X90612474Y-70842120I53033J-53033D01*
G01*
X90718540Y-70948186D01*
G75*
G02*
X90718540Y-71054252I-53033J-53033D01*
G01*
X89728590Y-72044202D01*
G75*
G02*
X89622524Y-72044202I-53033J53033D01*
G01*
G37*
G36*
G01*
X89268971Y-71690649D02*
X89162905Y-71584583D01*
G75*
G02*
X89162905Y-71478517I53033J53033D01*
G01*
X90152855Y-70488567D01*
G75*
G02*
X90258921Y-70488567I53033J-53033D01*
G01*
X90364987Y-70594633D01*
G75*
G02*
X90364987Y-70700699I-53033J-53033D01*
G01*
X89375037Y-71690649D01*
G75*
G02*
X89268971Y-71690649I-53033J53033D01*
G01*
G37*
G36*
G01*
X88915417Y-71337095D02*
X88809351Y-71231029D01*
G75*
G02*
X88809351Y-71124963I53033J53033D01*
G01*
X89799301Y-70135013D01*
G75*
G02*
X89905367Y-70135013I53033J-53033D01*
G01*
X90011433Y-70241079D01*
G75*
G02*
X90011433Y-70347145I-53033J-53033D01*
G01*
X89021483Y-71337095D01*
G75*
G02*
X88915417Y-71337095I-53033J53033D01*
G01*
G37*
G36*
G01*
X88561864Y-70983542D02*
X88455798Y-70877476D01*
G75*
G02*
X88455798Y-70771410I53033J53033D01*
G01*
X89445748Y-69781460D01*
G75*
G02*
X89551814Y-69781460I53033J-53033D01*
G01*
X89657880Y-69887526D01*
G75*
G02*
X89657880Y-69993592I-53033J-53033D01*
G01*
X88667930Y-70983542D01*
G75*
G02*
X88561864Y-70983542I-53033J53033D01*
G01*
G37*
G36*
G01*
X88208311Y-70629989D02*
X88102245Y-70523923D01*
G75*
G02*
X88102245Y-70417857I53033J53033D01*
G01*
X89092195Y-69427907D01*
G75*
G02*
X89198261Y-69427907I53033J-53033D01*
G01*
X89304327Y-69533973D01*
G75*
G02*
X89304327Y-69640039I-53033J-53033D01*
G01*
X88314377Y-70629989D01*
G75*
G02*
X88208311Y-70629989I-53033J53033D01*
G01*
G37*
G36*
G01*
X87854757Y-70276435D02*
X87748691Y-70170369D01*
G75*
G02*
X87748691Y-70064303I53033J53033D01*
G01*
X88738641Y-69074353D01*
G75*
G02*
X88844707Y-69074353I53033J-53033D01*
G01*
X88950773Y-69180419D01*
G75*
G02*
X88950773Y-69286485I-53033J-53033D01*
G01*
X87960823Y-70276435D01*
G75*
G02*
X87854757Y-70276435I-53033J53033D01*
G01*
G37*
G36*
G01*
X87501204Y-69922882D02*
X87395138Y-69816816D01*
G75*
G02*
X87395138Y-69710750I53033J53033D01*
G01*
X88385088Y-68720800D01*
G75*
G02*
X88491154Y-68720800I53033J-53033D01*
G01*
X88597220Y-68826866D01*
G75*
G02*
X88597220Y-68932932I-53033J-53033D01*
G01*
X87607270Y-69922882D01*
G75*
G02*
X87501204Y-69922882I-53033J53033D01*
G01*
G37*
G36*
G01*
X87147650Y-69569328D02*
X87041584Y-69463262D01*
G75*
G02*
X87041584Y-69357196I53033J53033D01*
G01*
X88031534Y-68367246D01*
G75*
G02*
X88137600Y-68367246I53033J-53033D01*
G01*
X88243666Y-68473312D01*
G75*
G02*
X88243666Y-68579378I-53033J-53033D01*
G01*
X87253716Y-69569328D01*
G75*
G02*
X87147650Y-69569328I-53033J53033D01*
G01*
G37*
G36*
G01*
X86794097Y-69215775D02*
X86688031Y-69109709D01*
G75*
G02*
X86688031Y-69003643I53033J53033D01*
G01*
X87677981Y-68013693D01*
G75*
G02*
X87784047Y-68013693I53033J-53033D01*
G01*
X87890113Y-68119759D01*
G75*
G02*
X87890113Y-68225825I-53033J-53033D01*
G01*
X86900163Y-69215775D01*
G75*
G02*
X86794097Y-69215775I-53033J53033D01*
G01*
G37*
G36*
G01*
X86440544Y-68862222D02*
X86334478Y-68756156D01*
G75*
G02*
X86334478Y-68650090I53033J53033D01*
G01*
X87324428Y-67660140D01*
G75*
G02*
X87430494Y-67660140I53033J-53033D01*
G01*
X87536560Y-67766206D01*
G75*
G02*
X87536560Y-67872272I-53033J-53033D01*
G01*
X86546610Y-68862222D01*
G75*
G02*
X86440544Y-68862222I-53033J53033D01*
G01*
G37*
D11*
X75000000Y-63325000D03*
D12*
X72950000Y-63950000D03*
X72950000Y-65550000D03*
X77050000Y-63950000D03*
X77050000Y-65550000D03*
G36*
G01*
X103425000Y-95275000D02*
X103425000Y-94725000D01*
G75*
G02*
X103625000Y-94525000I200000J0D01*
G01*
X104025000Y-94525000D01*
G75*
G02*
X104225000Y-94725000I0J-200000D01*
G01*
X104225000Y-95275000D01*
G75*
G02*
X104025000Y-95475000I-200000J0D01*
G01*
X103625000Y-95475000D01*
G75*
G02*
X103425000Y-95275000I0J200000D01*
G01*
G37*
G36*
G01*
X101775000Y-95275000D02*
X101775000Y-94725000D01*
G75*
G02*
X101975000Y-94525000I200000J0D01*
G01*
X102375000Y-94525000D01*
G75*
G02*
X102575000Y-94725000I0J-200000D01*
G01*
X102575000Y-95275000D01*
G75*
G02*
X102375000Y-95475000I-200000J0D01*
G01*
X101975000Y-95475000D01*
G75*
G02*
X101775000Y-95275000I0J200000D01*
G01*
G37*
G36*
G01*
X103425000Y-97275000D02*
X103425000Y-96725000D01*
G75*
G02*
X103625000Y-96525000I200000J0D01*
G01*
X104025000Y-96525000D01*
G75*
G02*
X104225000Y-96725000I0J-200000D01*
G01*
X104225000Y-97275000D01*
G75*
G02*
X104025000Y-97475000I-200000J0D01*
G01*
X103625000Y-97475000D01*
G75*
G02*
X103425000Y-97275000I0J200000D01*
G01*
G37*
G36*
G01*
X101775000Y-97275000D02*
X101775000Y-96725000D01*
G75*
G02*
X101975000Y-96525000I200000J0D01*
G01*
X102375000Y-96525000D01*
G75*
G02*
X102575000Y-96725000I0J-200000D01*
G01*
X102575000Y-97275000D01*
G75*
G02*
X102375000Y-97475000I-200000J0D01*
G01*
X101975000Y-97475000D01*
G75*
G02*
X101775000Y-97275000I0J200000D01*
G01*
G37*
G36*
G01*
X90975000Y-92175000D02*
X90425000Y-92175000D01*
G75*
G02*
X90225000Y-91975000I0J200000D01*
G01*
X90225000Y-91575000D01*
G75*
G02*
X90425000Y-91375000I200000J0D01*
G01*
X90975000Y-91375000D01*
G75*
G02*
X91175000Y-91575000I0J-200000D01*
G01*
X91175000Y-91975000D01*
G75*
G02*
X90975000Y-92175000I-200000J0D01*
G01*
G37*
G36*
G01*
X90975000Y-93825000D02*
X90425000Y-93825000D01*
G75*
G02*
X90225000Y-93625000I0J200000D01*
G01*
X90225000Y-93225000D01*
G75*
G02*
X90425000Y-93025000I200000J0D01*
G01*
X90975000Y-93025000D01*
G75*
G02*
X91175000Y-93225000I0J-200000D01*
G01*
X91175000Y-93625000D01*
G75*
G02*
X90975000Y-93825000I-200000J0D01*
G01*
G37*
G36*
G01*
X56775000Y-70625000D02*
X56225000Y-70625000D01*
G75*
G02*
X56025000Y-70425000I0J200000D01*
G01*
X56025000Y-70025000D01*
G75*
G02*
X56225000Y-69825000I200000J0D01*
G01*
X56775000Y-69825000D01*
G75*
G02*
X56975000Y-70025000I0J-200000D01*
G01*
X56975000Y-70425000D01*
G75*
G02*
X56775000Y-70625000I-200000J0D01*
G01*
G37*
G36*
G01*
X56775000Y-68975000D02*
X56225000Y-68975000D01*
G75*
G02*
X56025000Y-68775000I0J200000D01*
G01*
X56025000Y-68375000D01*
G75*
G02*
X56225000Y-68175000I200000J0D01*
G01*
X56775000Y-68175000D01*
G75*
G02*
X56975000Y-68375000I0J-200000D01*
G01*
X56975000Y-68775000D01*
G75*
G02*
X56775000Y-68975000I-200000J0D01*
G01*
G37*
G36*
G01*
X56725000Y-77325000D02*
X57275000Y-77325000D01*
G75*
G02*
X57475000Y-77525000I0J-200000D01*
G01*
X57475000Y-77925000D01*
G75*
G02*
X57275000Y-78125000I-200000J0D01*
G01*
X56725000Y-78125000D01*
G75*
G02*
X56525000Y-77925000I0J200000D01*
G01*
X56525000Y-77525000D01*
G75*
G02*
X56725000Y-77325000I200000J0D01*
G01*
G37*
G36*
G01*
X56725000Y-75675000D02*
X57275000Y-75675000D01*
G75*
G02*
X57475000Y-75875000I0J-200000D01*
G01*
X57475000Y-76275000D01*
G75*
G02*
X57275000Y-76475000I-200000J0D01*
G01*
X56725000Y-76475000D01*
G75*
G02*
X56525000Y-76275000I0J200000D01*
G01*
X56525000Y-75875000D01*
G75*
G02*
X56725000Y-75675000I200000J0D01*
G01*
G37*
D26*
X80900000Y-89621000D03*
X80900000Y-83779000D03*
D27*
X66690000Y-98855000D03*
X65890000Y-98855000D03*
X60990000Y-98855000D03*
X60190000Y-98855000D03*
X60190000Y-98855000D03*
X60990000Y-98855000D03*
X65890000Y-98855000D03*
X66690000Y-98855000D03*
D28*
X61690000Y-98855000D03*
X62190000Y-98855000D03*
X62690000Y-98855000D03*
X63690000Y-98855000D03*
X64190000Y-98855000D03*
X64690000Y-98855000D03*
X65190000Y-98855000D03*
X63190000Y-98855000D03*
G36*
G01*
X70043750Y-95250000D02*
X70556250Y-95250000D01*
G75*
G02*
X70775000Y-95468750I0J-218750D01*
G01*
X70775000Y-95906250D01*
G75*
G02*
X70556250Y-96125000I-218750J0D01*
G01*
X70043750Y-96125000D01*
G75*
G02*
X69825000Y-95906250I0J218750D01*
G01*
X69825000Y-95468750D01*
G75*
G02*
X70043750Y-95250000I218750J0D01*
G01*
G37*
G36*
G01*
X70043750Y-93675000D02*
X70556250Y-93675000D01*
G75*
G02*
X70775000Y-93893750I0J-218750D01*
G01*
X70775000Y-94331250D01*
G75*
G02*
X70556250Y-94550000I-218750J0D01*
G01*
X70043750Y-94550000D01*
G75*
G02*
X69825000Y-94331250I0J218750D01*
G01*
X69825000Y-93893750D01*
G75*
G02*
X70043750Y-93675000I218750J0D01*
G01*
G37*
G36*
G01*
X56600000Y-62599999D02*
X56600000Y-63900001D01*
G75*
G02*
X56350001Y-64150000I-249999J0D01*
G01*
X55699999Y-64150000D01*
G75*
G02*
X55450000Y-63900001I0J249999D01*
G01*
X55450000Y-62599999D01*
G75*
G02*
X55699999Y-62350000I249999J0D01*
G01*
X56350001Y-62350000D01*
G75*
G02*
X56600000Y-62599999I0J-249999D01*
G01*
G37*
G36*
G01*
X59550000Y-62599999D02*
X59550000Y-63900001D01*
G75*
G02*
X59300001Y-64150000I-249999J0D01*
G01*
X58649999Y-64150000D01*
G75*
G02*
X58400000Y-63900001I0J249999D01*
G01*
X58400000Y-62599999D01*
G75*
G02*
X58649999Y-62350000I249999J0D01*
G01*
X59300001Y-62350000D01*
G75*
G02*
X59550000Y-62599999I0J-249999D01*
G01*
G37*
G36*
G01*
X66150000Y-63150001D02*
X66150000Y-61849999D01*
G75*
G02*
X66399999Y-61600000I249999J0D01*
G01*
X67050001Y-61600000D01*
G75*
G02*
X67300000Y-61849999I0J-249999D01*
G01*
X67300000Y-63150001D01*
G75*
G02*
X67050001Y-63400000I-249999J0D01*
G01*
X66399999Y-63400000D01*
G75*
G02*
X66150000Y-63150001I0J249999D01*
G01*
G37*
G36*
G01*
X63200000Y-63150001D02*
X63200000Y-61849999D01*
G75*
G02*
X63449999Y-61600000I249999J0D01*
G01*
X64100001Y-61600000D01*
G75*
G02*
X64350000Y-61849999I0J-249999D01*
G01*
X64350000Y-63150001D01*
G75*
G02*
X64100001Y-63400000I-249999J0D01*
G01*
X63449999Y-63400000D01*
G75*
G02*
X63200000Y-63150001I0J249999D01*
G01*
G37*
G36*
G01*
X101650000Y-71125000D02*
X102150000Y-71125000D01*
G75*
G02*
X102375000Y-71350000I0J-225000D01*
G01*
X102375000Y-71800000D01*
G75*
G02*
X102150000Y-72025000I-225000J0D01*
G01*
X101650000Y-72025000D01*
G75*
G02*
X101425000Y-71800000I0J225000D01*
G01*
X101425000Y-71350000D01*
G75*
G02*
X101650000Y-71125000I225000J0D01*
G01*
G37*
G36*
G01*
X101650000Y-69575000D02*
X102150000Y-69575000D01*
G75*
G02*
X102375000Y-69800000I0J-225000D01*
G01*
X102375000Y-70250000D01*
G75*
G02*
X102150000Y-70475000I-225000J0D01*
G01*
X101650000Y-70475000D01*
G75*
G02*
X101425000Y-70250000I0J225000D01*
G01*
X101425000Y-69800000D01*
G75*
G02*
X101650000Y-69575000I225000J0D01*
G01*
G37*
G36*
G01*
X89550000Y-84050001D02*
X89550000Y-82749999D01*
G75*
G02*
X89799999Y-82500000I249999J0D01*
G01*
X90450001Y-82500000D01*
G75*
G02*
X90700000Y-82749999I0J-249999D01*
G01*
X90700000Y-84050001D01*
G75*
G02*
X90450001Y-84300000I-249999J0D01*
G01*
X89799999Y-84300000D01*
G75*
G02*
X89550000Y-84050001I0J249999D01*
G01*
G37*
G36*
G01*
X92500000Y-84050001D02*
X92500000Y-82749999D01*
G75*
G02*
X92749999Y-82500000I249999J0D01*
G01*
X93400001Y-82500000D01*
G75*
G02*
X93650000Y-82749999I0J-249999D01*
G01*
X93650000Y-84050001D01*
G75*
G02*
X93400001Y-84300000I-249999J0D01*
G01*
X92749999Y-84300000D01*
G75*
G02*
X92500000Y-84050001I0J249999D01*
G01*
G37*
G36*
G01*
X73150000Y-84475000D02*
X72650000Y-84475000D01*
G75*
G02*
X72425000Y-84250000I0J225000D01*
G01*
X72425000Y-83800000D01*
G75*
G02*
X72650000Y-83575000I225000J0D01*
G01*
X73150000Y-83575000D01*
G75*
G02*
X73375000Y-83800000I0J-225000D01*
G01*
X73375000Y-84250000D01*
G75*
G02*
X73150000Y-84475000I-225000J0D01*
G01*
G37*
G36*
G01*
X73150000Y-86025000D02*
X72650000Y-86025000D01*
G75*
G02*
X72425000Y-85800000I0J225000D01*
G01*
X72425000Y-85350000D01*
G75*
G02*
X72650000Y-85125000I225000J0D01*
G01*
X73150000Y-85125000D01*
G75*
G02*
X73375000Y-85350000I0J-225000D01*
G01*
X73375000Y-85800000D01*
G75*
G02*
X73150000Y-86025000I-225000J0D01*
G01*
G37*
G36*
G01*
X66150000Y-60650001D02*
X66150000Y-59349999D01*
G75*
G02*
X66399999Y-59100000I249999J0D01*
G01*
X67050001Y-59100000D01*
G75*
G02*
X67300000Y-59349999I0J-249999D01*
G01*
X67300000Y-60650001D01*
G75*
G02*
X67050001Y-60900000I-249999J0D01*
G01*
X66399999Y-60900000D01*
G75*
G02*
X66150000Y-60650001I0J249999D01*
G01*
G37*
G36*
G01*
X63200000Y-60650001D02*
X63200000Y-59349999D01*
G75*
G02*
X63449999Y-59100000I249999J0D01*
G01*
X64100001Y-59100000D01*
G75*
G02*
X64350000Y-59349999I0J-249999D01*
G01*
X64350000Y-60650001D01*
G75*
G02*
X64100001Y-60900000I-249999J0D01*
G01*
X63449999Y-60900000D01*
G75*
G02*
X63200000Y-60650001I0J249999D01*
G01*
G37*
G36*
G01*
X66150000Y-68150001D02*
X66150000Y-66849999D01*
G75*
G02*
X66399999Y-66600000I249999J0D01*
G01*
X67050001Y-66600000D01*
G75*
G02*
X67300000Y-66849999I0J-249999D01*
G01*
X67300000Y-68150001D01*
G75*
G02*
X67050001Y-68400000I-249999J0D01*
G01*
X66399999Y-68400000D01*
G75*
G02*
X66150000Y-68150001I0J249999D01*
G01*
G37*
G36*
G01*
X63200000Y-68150001D02*
X63200000Y-66849999D01*
G75*
G02*
X63449999Y-66600000I249999J0D01*
G01*
X64100001Y-66600000D01*
G75*
G02*
X64350000Y-66849999I0J-249999D01*
G01*
X64350000Y-68150001D01*
G75*
G02*
X64100001Y-68400000I-249999J0D01*
G01*
X63449999Y-68400000D01*
G75*
G02*
X63200000Y-68150001I0J249999D01*
G01*
G37*
G36*
G01*
X66150000Y-65650001D02*
X66150000Y-64349999D01*
G75*
G02*
X66399999Y-64100000I249999J0D01*
G01*
X67050001Y-64100000D01*
G75*
G02*
X67300000Y-64349999I0J-249999D01*
G01*
X67300000Y-65650001D01*
G75*
G02*
X67050001Y-65900000I-249999J0D01*
G01*
X66399999Y-65900000D01*
G75*
G02*
X66150000Y-65650001I0J249999D01*
G01*
G37*
G36*
G01*
X63200000Y-65650001D02*
X63200000Y-64349999D01*
G75*
G02*
X63449999Y-64100000I249999J0D01*
G01*
X64100001Y-64100000D01*
G75*
G02*
X64350000Y-64349999I0J-249999D01*
G01*
X64350000Y-65650001D01*
G75*
G02*
X64100001Y-65900000I-249999J0D01*
G01*
X63449999Y-65900000D01*
G75*
G02*
X63200000Y-65650001I0J249999D01*
G01*
G37*
G36*
G01*
X70850001Y-71100000D02*
X69549999Y-71100000D01*
G75*
G02*
X69300000Y-70850001I0J249999D01*
G01*
X69300000Y-70199999D01*
G75*
G02*
X69549999Y-69950000I249999J0D01*
G01*
X70850001Y-69950000D01*
G75*
G02*
X71100000Y-70199999I0J-249999D01*
G01*
X71100000Y-70850001D01*
G75*
G02*
X70850001Y-71100000I-249999J0D01*
G01*
G37*
G36*
G01*
X70850001Y-74050000D02*
X69549999Y-74050000D01*
G75*
G02*
X69300000Y-73800001I0J249999D01*
G01*
X69300000Y-73149999D01*
G75*
G02*
X69549999Y-72900000I249999J0D01*
G01*
X70850001Y-72900000D01*
G75*
G02*
X71100000Y-73149999I0J-249999D01*
G01*
X71100000Y-73800001D01*
G75*
G02*
X70850001Y-74050000I-249999J0D01*
G01*
G37*
G36*
G01*
X73450001Y-71100000D02*
X72149999Y-71100000D01*
G75*
G02*
X71900000Y-70850001I0J249999D01*
G01*
X71900000Y-70199999D01*
G75*
G02*
X72149999Y-69950000I249999J0D01*
G01*
X73450001Y-69950000D01*
G75*
G02*
X73700000Y-70199999I0J-249999D01*
G01*
X73700000Y-70850001D01*
G75*
G02*
X73450001Y-71100000I-249999J0D01*
G01*
G37*
G36*
G01*
X73450001Y-74050000D02*
X72149999Y-74050000D01*
G75*
G02*
X71900000Y-73800001I0J249999D01*
G01*
X71900000Y-73149999D01*
G75*
G02*
X72149999Y-72900000I249999J0D01*
G01*
X73450001Y-72900000D01*
G75*
G02*
X73700000Y-73149999I0J-249999D01*
G01*
X73700000Y-73800001D01*
G75*
G02*
X73450001Y-74050000I-249999J0D01*
G01*
G37*
M02*
