G04 #@! TF.GenerationSoftware,KiCad,Pcbnew,(5.1.8)-1*
G04 #@! TF.CreationDate,2021-01-11T10:11:39-08:00*
G04 #@! TF.ProjectId,SuperPower-RPi-KiCAD,53757065-7250-46f7-9765-722d5250692d,rev?*
G04 #@! TF.SameCoordinates,Original*
G04 #@! TF.FileFunction,Legend,Bot*
G04 #@! TF.FilePolarity,Positive*
%FSLAX46Y46*%
G04 Gerber Fmt 4.6, Leading zero omitted, Abs format (unit mm)*
G04 Created by KiCad (PCBNEW (5.1.8)-1) date 2021-01-11 10:11:39*
%MOMM*%
%LPD*%
G01*
G04 APERTURE LIST*
%ADD10C,0.150000*%
%ADD11C,0.120000*%
G04 APERTURE END LIST*
D10*
X105152380Y-82061904D02*
X105533333Y-82061904D01*
X105571428Y-82442857D01*
X105533333Y-82404761D01*
X105457142Y-82366666D01*
X105266666Y-82366666D01*
X105190476Y-82404761D01*
X105152380Y-82442857D01*
X105114285Y-82519047D01*
X105114285Y-82709523D01*
X105152380Y-82785714D01*
X105190476Y-82823809D01*
X105266666Y-82861904D01*
X105457142Y-82861904D01*
X105533333Y-82823809D01*
X105571428Y-82785714D01*
X104885714Y-82061904D02*
X104619047Y-82861904D01*
X104352380Y-82061904D01*
X105880952Y-76361904D02*
X105385714Y-76361904D01*
X105652380Y-76666666D01*
X105538095Y-76666666D01*
X105461904Y-76704761D01*
X105423809Y-76742857D01*
X105385714Y-76819047D01*
X105385714Y-77009523D01*
X105423809Y-77085714D01*
X105461904Y-77123809D01*
X105538095Y-77161904D01*
X105766666Y-77161904D01*
X105842857Y-77123809D01*
X105880952Y-77085714D01*
X105042857Y-77085714D02*
X105004761Y-77123809D01*
X105042857Y-77161904D01*
X105080952Y-77123809D01*
X105042857Y-77085714D01*
X105042857Y-77161904D01*
X104738095Y-76361904D02*
X104242857Y-76361904D01*
X104509523Y-76666666D01*
X104395238Y-76666666D01*
X104319047Y-76704761D01*
X104280952Y-76742857D01*
X104242857Y-76819047D01*
X104242857Y-77009523D01*
X104280952Y-77085714D01*
X104319047Y-77123809D01*
X104395238Y-77161904D01*
X104623809Y-77161904D01*
X104700000Y-77123809D01*
X104738095Y-77085714D01*
X104014285Y-76361904D02*
X103747619Y-77161904D01*
X103480952Y-76361904D01*
D11*
X57040000Y-51400000D02*
X57040000Y-54000000D01*
X57040000Y-51400000D02*
X107960000Y-51400000D01*
X107960000Y-51400000D02*
X107960000Y-56600000D01*
X59640000Y-56600000D02*
X107960000Y-56600000D01*
X59640000Y-54000000D02*
X59640000Y-56600000D01*
X57040000Y-54000000D02*
X59640000Y-54000000D01*
X57040000Y-56600000D02*
X58370000Y-56600000D01*
X57040000Y-55270000D02*
X57040000Y-56600000D01*
X62470000Y-102110000D02*
X62470000Y-104910000D01*
X62470000Y-104910000D02*
X64470000Y-104910000D01*
X64470000Y-104910000D02*
X64470000Y-102110000D01*
X64470000Y-102110000D02*
X62470000Y-102110000D01*
X79400000Y-57300000D02*
X76600000Y-57300000D01*
X76600000Y-57300000D02*
X76600000Y-59300000D01*
X76600000Y-59300000D02*
X79400000Y-59300000D01*
X79400000Y-59300000D02*
X79400000Y-57300000D01*
X75270000Y-57300000D02*
X72470000Y-57300000D01*
X72470000Y-57300000D02*
X72470000Y-59300000D01*
X72470000Y-59300000D02*
X75270000Y-59300000D01*
X75270000Y-59300000D02*
X75270000Y-57300000D01*
X71950000Y-58180000D02*
X69150000Y-58180000D01*
X69150000Y-58180000D02*
X69150000Y-60180000D01*
X69150000Y-60180000D02*
X71950000Y-60180000D01*
X71950000Y-60180000D02*
X71950000Y-58180000D01*
X88590000Y-73430000D02*
X88590000Y-74830000D01*
X89990000Y-73430000D02*
X88590000Y-73430000D01*
X89990000Y-74830000D02*
X89990000Y-73430000D01*
X88590000Y-74830000D02*
X89990000Y-74830000D01*
X53840000Y-57320000D02*
X53840000Y-58720000D01*
X55240000Y-57320000D02*
X53840000Y-57320000D01*
X55240000Y-58720000D02*
X55240000Y-57320000D01*
X53840000Y-58720000D02*
X55240000Y-58720000D01*
X90599420Y-63620000D02*
X90880580Y-63620000D01*
X90599420Y-62600000D02*
X90880580Y-62600000D01*
X70200000Y-86500000D02*
X70200000Y-87900000D01*
X71600000Y-86500000D02*
X70200000Y-86500000D01*
X71600000Y-87900000D02*
X71600000Y-86500000D01*
X70200000Y-87900000D02*
X71600000Y-87900000D01*
X105310000Y-77450000D02*
X104710000Y-77450000D01*
X106010000Y-80900000D02*
X106010000Y-78100000D01*
X104710000Y-81550000D02*
X105310000Y-81550000D01*
X104010000Y-78100000D02*
X104010000Y-80900000D01*
X104710000Y-77450000D02*
G75*
G03*
X104010000Y-78150000I0J-700000D01*
G01*
X106010000Y-78150000D02*
G75*
G03*
X105310000Y-77450000I-700000J0D01*
G01*
X105310000Y-81550000D02*
G75*
G03*
X106010000Y-80850000I0J700000D01*
G01*
X104010000Y-80850000D02*
G75*
G03*
X104710000Y-81550000I700000J0D01*
G01*
X83830000Y-66830000D02*
X84430000Y-66830000D01*
X83130000Y-63380000D02*
X83130000Y-66180000D01*
X84430000Y-62730000D02*
X83830000Y-62730000D01*
X85130000Y-66180000D02*
X85130000Y-63380000D01*
X84430000Y-66830000D02*
G75*
G03*
X85130000Y-66130000I0J700000D01*
G01*
X83130000Y-66130000D02*
G75*
G03*
X83830000Y-66830000I700000J0D01*
G01*
X83830000Y-62730000D02*
G75*
G03*
X83130000Y-63430000I0J-700000D01*
G01*
X85130000Y-63430000D02*
G75*
G03*
X84430000Y-62730000I-700000J0D01*
G01*
X62200000Y-67400000D02*
X62200000Y-66000000D01*
X62200000Y-66000000D02*
X60800000Y-66000000D01*
X60800000Y-66000000D02*
X60800000Y-67400000D01*
X60800000Y-67400000D02*
X62200000Y-67400000D01*
X74100000Y-95100000D02*
X75500000Y-95100000D01*
X75500000Y-95100000D02*
X75500000Y-93700000D01*
X75500000Y-93700000D02*
X74100000Y-93700000D01*
X74100000Y-93700000D02*
X74100000Y-95100000D01*
X69460000Y-95370000D02*
X70860000Y-95370000D01*
X70860000Y-95370000D02*
X70860000Y-93970000D01*
X70860000Y-93970000D02*
X69460000Y-93970000D01*
X69460000Y-93970000D02*
X69460000Y-95370000D01*
X102272500Y-64087258D02*
X102272500Y-63612742D01*
X101227500Y-64087258D02*
X101227500Y-63612742D01*
X90477500Y-98562742D02*
X90477500Y-99037258D01*
X91522500Y-98562742D02*
X91522500Y-99037258D01*
X91850000Y-86900000D02*
X89850000Y-86900000D01*
X91850000Y-89700000D02*
X91850000Y-86900000D01*
X89850000Y-89700000D02*
X91850000Y-89700000D01*
X89850000Y-86900000D02*
X89850000Y-89700000D01*
X71500000Y-96700000D02*
X73500000Y-96700000D01*
X71500000Y-93900000D02*
X71500000Y-96700000D01*
X73500000Y-93900000D02*
X71500000Y-93900000D01*
X73500000Y-96700000D02*
X73500000Y-93900000D01*
X57600000Y-73500000D02*
X57600000Y-75500000D01*
X60400000Y-73500000D02*
X57600000Y-73500000D01*
X60400000Y-75500000D02*
X60400000Y-73500000D01*
X57600000Y-75500000D02*
X60400000Y-75500000D01*
X104810000Y-103115000D02*
X104810000Y-100615000D01*
X104810000Y-100615000D02*
X103760000Y-100615000D01*
X103760000Y-100615000D02*
X103760000Y-99625000D01*
X98590000Y-103115000D02*
X98590000Y-100615000D01*
X98590000Y-100615000D02*
X99640000Y-100615000D01*
X103640000Y-105085000D02*
X99760000Y-105085000D01*
X100735000Y-64700000D02*
X100735000Y-66985000D01*
X100735000Y-66985000D02*
X99265000Y-66985000D01*
X99265000Y-66985000D02*
X99265000Y-64700000D01*
D10*
X96270000Y-64350000D02*
X98020000Y-64350000D01*
X96270000Y-69655000D02*
X90770000Y-69655000D01*
X96270000Y-64145000D02*
X90770000Y-64145000D01*
X96270000Y-69655000D02*
X96270000Y-69355000D01*
X90770000Y-69655000D02*
X90770000Y-69355000D01*
X90770000Y-64145000D02*
X90770000Y-64445000D01*
X96270000Y-64145000D02*
X96270000Y-64350000D01*
D11*
X77437258Y-67327500D02*
X76962742Y-67327500D01*
X77437258Y-68372500D02*
X76962742Y-68372500D01*
X76777500Y-93037258D02*
X76777500Y-92562742D01*
X77822500Y-93037258D02*
X77822500Y-92562742D01*
D10*
X55052380Y-53666666D02*
X55766666Y-53666666D01*
X55909523Y-53619047D01*
X56004761Y-53523809D01*
X56052380Y-53380952D01*
X56052380Y-53285714D01*
X56052380Y-54666666D02*
X56052380Y-54095238D01*
X56052380Y-54380952D02*
X55052380Y-54380952D01*
X55195238Y-54285714D01*
X55290476Y-54190476D01*
X55338095Y-54095238D01*
X61122380Y-102200476D02*
X61836666Y-102200476D01*
X61979523Y-102152857D01*
X62074761Y-102057619D01*
X62122380Y-101914761D01*
X62122380Y-101819523D01*
X62122380Y-102676666D02*
X61122380Y-102676666D01*
X61122380Y-103057619D01*
X61170000Y-103152857D01*
X61217619Y-103200476D01*
X61312857Y-103248095D01*
X61455714Y-103248095D01*
X61550952Y-103200476D01*
X61598571Y-103152857D01*
X61646190Y-103057619D01*
X61646190Y-102676666D01*
X62122380Y-104200476D02*
X62122380Y-103629047D01*
X62122380Y-103914761D02*
X61122380Y-103914761D01*
X61265238Y-103819523D01*
X61360476Y-103724285D01*
X61408095Y-103629047D01*
X61217619Y-104581428D02*
X61170000Y-104629047D01*
X61122380Y-104724285D01*
X61122380Y-104962380D01*
X61170000Y-105057619D01*
X61217619Y-105105238D01*
X61312857Y-105152857D01*
X61408095Y-105152857D01*
X61550952Y-105105238D01*
X62122380Y-104533809D01*
X62122380Y-105152857D01*
X80989523Y-59722380D02*
X80989523Y-60436666D01*
X81037142Y-60579523D01*
X81132380Y-60674761D01*
X81275238Y-60722380D01*
X81370476Y-60722380D01*
X80513333Y-60722380D02*
X80513333Y-59722380D01*
X80132380Y-59722380D01*
X80037142Y-59770000D01*
X79989523Y-59817619D01*
X79941904Y-59912857D01*
X79941904Y-60055714D01*
X79989523Y-60150952D01*
X80037142Y-60198571D01*
X80132380Y-60246190D01*
X80513333Y-60246190D01*
X78989523Y-60722380D02*
X79560952Y-60722380D01*
X79275238Y-60722380D02*
X79275238Y-59722380D01*
X79370476Y-59865238D01*
X79465714Y-59960476D01*
X79560952Y-60008095D01*
X78037142Y-60722380D02*
X78608571Y-60722380D01*
X78322857Y-60722380D02*
X78322857Y-59722380D01*
X78418095Y-59865238D01*
X78513333Y-59960476D01*
X78608571Y-60008095D01*
X75509523Y-59752380D02*
X75509523Y-60466666D01*
X75557142Y-60609523D01*
X75652380Y-60704761D01*
X75795238Y-60752380D01*
X75890476Y-60752380D01*
X75033333Y-60752380D02*
X75033333Y-59752380D01*
X74652380Y-59752380D01*
X74557142Y-59800000D01*
X74509523Y-59847619D01*
X74461904Y-59942857D01*
X74461904Y-60085714D01*
X74509523Y-60180952D01*
X74557142Y-60228571D01*
X74652380Y-60276190D01*
X75033333Y-60276190D01*
X73509523Y-60752380D02*
X74080952Y-60752380D01*
X73795238Y-60752380D02*
X73795238Y-59752380D01*
X73890476Y-59895238D01*
X73985714Y-59990476D01*
X74080952Y-60038095D01*
X72890476Y-59752380D02*
X72795238Y-59752380D01*
X72700000Y-59800000D01*
X72652380Y-59847619D01*
X72604761Y-59942857D01*
X72557142Y-60133333D01*
X72557142Y-60371428D01*
X72604761Y-60561904D01*
X72652380Y-60657142D01*
X72700000Y-60704761D01*
X72795238Y-60752380D01*
X72890476Y-60752380D01*
X72985714Y-60704761D01*
X73033333Y-60657142D01*
X73080952Y-60561904D01*
X73128571Y-60371428D01*
X73128571Y-60133333D01*
X73080952Y-59942857D01*
X73033333Y-59847619D01*
X72985714Y-59800000D01*
X72890476Y-59752380D01*
X69933333Y-60552380D02*
X69933333Y-61266666D01*
X69980952Y-61409523D01*
X70076190Y-61504761D01*
X70219047Y-61552380D01*
X70314285Y-61552380D01*
X69457142Y-61552380D02*
X69457142Y-60552380D01*
X69076190Y-60552380D01*
X68980952Y-60600000D01*
X68933333Y-60647619D01*
X68885714Y-60742857D01*
X68885714Y-60885714D01*
X68933333Y-60980952D01*
X68980952Y-61028571D01*
X69076190Y-61076190D01*
X69457142Y-61076190D01*
X68409523Y-61552380D02*
X68219047Y-61552380D01*
X68123809Y-61504761D01*
X68076190Y-61457142D01*
X67980952Y-61314285D01*
X67933333Y-61123809D01*
X67933333Y-60742857D01*
X67980952Y-60647619D01*
X68028571Y-60600000D01*
X68123809Y-60552380D01*
X68314285Y-60552380D01*
X68409523Y-60600000D01*
X68457142Y-60647619D01*
X68504761Y-60742857D01*
X68504761Y-60980952D01*
X68457142Y-61076190D01*
X68409523Y-61123809D01*
X68314285Y-61171428D01*
X68123809Y-61171428D01*
X68028571Y-61123809D01*
X67980952Y-61076190D01*
X67933333Y-60980952D01*
X90531904Y-75262380D02*
X89960476Y-75262380D01*
X90246190Y-76262380D02*
X90246190Y-75262380D01*
X89627142Y-76262380D02*
X89627142Y-75262380D01*
X89246190Y-75262380D01*
X89150952Y-75310000D01*
X89103333Y-75357619D01*
X89055714Y-75452857D01*
X89055714Y-75595714D01*
X89103333Y-75690952D01*
X89150952Y-75738571D01*
X89246190Y-75786190D01*
X89627142Y-75786190D01*
X88484285Y-75690952D02*
X88579523Y-75643333D01*
X88627142Y-75595714D01*
X88674761Y-75500476D01*
X88674761Y-75452857D01*
X88627142Y-75357619D01*
X88579523Y-75310000D01*
X88484285Y-75262380D01*
X88293809Y-75262380D01*
X88198571Y-75310000D01*
X88150952Y-75357619D01*
X88103333Y-75452857D01*
X88103333Y-75500476D01*
X88150952Y-75595714D01*
X88198571Y-75643333D01*
X88293809Y-75690952D01*
X88484285Y-75690952D01*
X88579523Y-75738571D01*
X88627142Y-75786190D01*
X88674761Y-75881428D01*
X88674761Y-76071904D01*
X88627142Y-76167142D01*
X88579523Y-76214761D01*
X88484285Y-76262380D01*
X88293809Y-76262380D01*
X88198571Y-76214761D01*
X88150952Y-76167142D01*
X88103333Y-76071904D01*
X88103333Y-75881428D01*
X88150952Y-75786190D01*
X88198571Y-75738571D01*
X88293809Y-75690952D01*
X55781904Y-59212380D02*
X55210476Y-59212380D01*
X55496190Y-60212380D02*
X55496190Y-59212380D01*
X54877142Y-60212380D02*
X54877142Y-59212380D01*
X54496190Y-59212380D01*
X54400952Y-59260000D01*
X54353333Y-59307619D01*
X54305714Y-59402857D01*
X54305714Y-59545714D01*
X54353333Y-59640952D01*
X54400952Y-59688571D01*
X54496190Y-59736190D01*
X54877142Y-59736190D01*
X53448571Y-59545714D02*
X53448571Y-60212380D01*
X53686666Y-59164761D02*
X53924761Y-59879047D01*
X53305714Y-59879047D01*
X91254285Y-61965714D02*
X91292380Y-62003809D01*
X91406666Y-62041904D01*
X91482857Y-62041904D01*
X91597142Y-62003809D01*
X91673333Y-61927619D01*
X91711428Y-61851428D01*
X91749523Y-61699047D01*
X91749523Y-61584761D01*
X91711428Y-61432380D01*
X91673333Y-61356190D01*
X91597142Y-61280000D01*
X91482857Y-61241904D01*
X91406666Y-61241904D01*
X91292380Y-61280000D01*
X91254285Y-61318095D01*
X90949523Y-61318095D02*
X90911428Y-61280000D01*
X90835238Y-61241904D01*
X90644761Y-61241904D01*
X90568571Y-61280000D01*
X90530476Y-61318095D01*
X90492380Y-61394285D01*
X90492380Y-61470476D01*
X90530476Y-61584761D01*
X90987619Y-62041904D01*
X90492380Y-62041904D01*
X89768571Y-61241904D02*
X90149523Y-61241904D01*
X90187619Y-61622857D01*
X90149523Y-61584761D01*
X90073333Y-61546666D01*
X89882857Y-61546666D01*
X89806666Y-61584761D01*
X89768571Y-61622857D01*
X89730476Y-61699047D01*
X89730476Y-61889523D01*
X89768571Y-61965714D01*
X89806666Y-62003809D01*
X89882857Y-62041904D01*
X90073333Y-62041904D01*
X90149523Y-62003809D01*
X90187619Y-61965714D01*
X71889523Y-88361904D02*
X71432380Y-88361904D01*
X71660952Y-89161904D02*
X71660952Y-88361904D01*
X71165714Y-89161904D02*
X71165714Y-88361904D01*
X70860952Y-88361904D01*
X70784761Y-88400000D01*
X70746666Y-88438095D01*
X70708571Y-88514285D01*
X70708571Y-88628571D01*
X70746666Y-88704761D01*
X70784761Y-88742857D01*
X70860952Y-88780952D01*
X71165714Y-88780952D01*
X70441904Y-88361904D02*
X69946666Y-88361904D01*
X70213333Y-88666666D01*
X70099047Y-88666666D01*
X70022857Y-88704761D01*
X69984761Y-88742857D01*
X69946666Y-88819047D01*
X69946666Y-89009523D01*
X69984761Y-89085714D01*
X70022857Y-89123809D01*
X70099047Y-89161904D01*
X70327619Y-89161904D01*
X70403809Y-89123809D01*
X70441904Y-89085714D01*
X103186666Y-79121904D02*
X103186666Y-79693333D01*
X103224761Y-79807619D01*
X103300952Y-79883809D01*
X103415238Y-79921904D01*
X103491428Y-79921904D01*
X102805714Y-79921904D02*
X102805714Y-79121904D01*
X102500952Y-79121904D01*
X102424761Y-79160000D01*
X102386666Y-79198095D01*
X102348571Y-79274285D01*
X102348571Y-79388571D01*
X102386666Y-79464761D01*
X102424761Y-79502857D01*
X102500952Y-79540952D01*
X102805714Y-79540952D01*
X102081904Y-79121904D02*
X101548571Y-79121904D01*
X101891428Y-79921904D01*
X87206666Y-64261904D02*
X87206666Y-64833333D01*
X87244761Y-64947619D01*
X87320952Y-65023809D01*
X87435238Y-65061904D01*
X87511428Y-65061904D01*
X86825714Y-65061904D02*
X86825714Y-64261904D01*
X86520952Y-64261904D01*
X86444761Y-64300000D01*
X86406666Y-64338095D01*
X86368571Y-64414285D01*
X86368571Y-64528571D01*
X86406666Y-64604761D01*
X86444761Y-64642857D01*
X86520952Y-64680952D01*
X86825714Y-64680952D01*
X85606666Y-65061904D02*
X86063809Y-65061904D01*
X85835238Y-65061904D02*
X85835238Y-64261904D01*
X85911428Y-64376190D01*
X85987619Y-64452380D01*
X86063809Y-64490476D01*
X84491904Y-67608571D02*
X84491904Y-67151428D01*
X84491904Y-67380000D02*
X83691904Y-67380000D01*
X83806190Y-67303809D01*
X83882380Y-67227619D01*
X83920476Y-67151428D01*
X83691904Y-61913333D02*
X83691904Y-62408571D01*
X83996666Y-62141904D01*
X83996666Y-62256190D01*
X84034761Y-62332380D01*
X84072857Y-62370476D01*
X84149047Y-62408571D01*
X84339523Y-62408571D01*
X84415714Y-62370476D01*
X84453809Y-62332380D01*
X84491904Y-62256190D01*
X84491904Y-62027619D01*
X84453809Y-61951428D01*
X84415714Y-61913333D01*
X64609523Y-66251904D02*
X64152380Y-66251904D01*
X64380952Y-67051904D02*
X64380952Y-66251904D01*
X63885714Y-67051904D02*
X63885714Y-66251904D01*
X63580952Y-66251904D01*
X63504761Y-66290000D01*
X63466666Y-66328095D01*
X63428571Y-66404285D01*
X63428571Y-66518571D01*
X63466666Y-66594761D01*
X63504761Y-66632857D01*
X63580952Y-66670952D01*
X63885714Y-66670952D01*
X63161904Y-66251904D02*
X62628571Y-66251904D01*
X62971428Y-67051904D01*
X76299523Y-95611904D02*
X75842380Y-95611904D01*
X76070952Y-96411904D02*
X76070952Y-95611904D01*
X75575714Y-96411904D02*
X75575714Y-95611904D01*
X75270952Y-95611904D01*
X75194761Y-95650000D01*
X75156666Y-95688095D01*
X75118571Y-95764285D01*
X75118571Y-95878571D01*
X75156666Y-95954761D01*
X75194761Y-95992857D01*
X75270952Y-96030952D01*
X75575714Y-96030952D01*
X74432857Y-95611904D02*
X74585238Y-95611904D01*
X74661428Y-95650000D01*
X74699523Y-95688095D01*
X74775714Y-95802380D01*
X74813809Y-95954761D01*
X74813809Y-96259523D01*
X74775714Y-96335714D01*
X74737619Y-96373809D01*
X74661428Y-96411904D01*
X74509047Y-96411904D01*
X74432857Y-96373809D01*
X74394761Y-96335714D01*
X74356666Y-96259523D01*
X74356666Y-96069047D01*
X74394761Y-95992857D01*
X74432857Y-95954761D01*
X74509047Y-95916666D01*
X74661428Y-95916666D01*
X74737619Y-95954761D01*
X74775714Y-95992857D01*
X74813809Y-96069047D01*
X71169523Y-95679904D02*
X70712380Y-95679904D01*
X70940952Y-96479904D02*
X70940952Y-95679904D01*
X70445714Y-96479904D02*
X70445714Y-95679904D01*
X70140952Y-95679904D01*
X70064761Y-95718000D01*
X70026666Y-95756095D01*
X69988571Y-95832285D01*
X69988571Y-95946571D01*
X70026666Y-96022761D01*
X70064761Y-96060857D01*
X70140952Y-96098952D01*
X70445714Y-96098952D01*
X69264761Y-95679904D02*
X69645714Y-95679904D01*
X69683809Y-96060857D01*
X69645714Y-96022761D01*
X69569523Y-95984666D01*
X69379047Y-95984666D01*
X69302857Y-96022761D01*
X69264761Y-96060857D01*
X69226666Y-96137047D01*
X69226666Y-96327523D01*
X69264761Y-96403714D01*
X69302857Y-96441809D01*
X69379047Y-96479904D01*
X69569523Y-96479904D01*
X69645714Y-96441809D01*
X69683809Y-96403714D01*
X104564285Y-64401904D02*
X104830952Y-64020952D01*
X105021428Y-64401904D02*
X105021428Y-63601904D01*
X104716666Y-63601904D01*
X104640476Y-63640000D01*
X104602380Y-63678095D01*
X104564285Y-63754285D01*
X104564285Y-63868571D01*
X104602380Y-63944761D01*
X104640476Y-63982857D01*
X104716666Y-64020952D01*
X105021428Y-64020952D01*
X104259523Y-63678095D02*
X104221428Y-63640000D01*
X104145238Y-63601904D01*
X103954761Y-63601904D01*
X103878571Y-63640000D01*
X103840476Y-63678095D01*
X103802380Y-63754285D01*
X103802380Y-63830476D01*
X103840476Y-63944761D01*
X104297619Y-64401904D01*
X103802380Y-64401904D01*
X103535714Y-63601904D02*
X103002380Y-63601904D01*
X103345238Y-64401904D01*
X89524285Y-99241904D02*
X89790952Y-98860952D01*
X89981428Y-99241904D02*
X89981428Y-98441904D01*
X89676666Y-98441904D01*
X89600476Y-98480000D01*
X89562380Y-98518095D01*
X89524285Y-98594285D01*
X89524285Y-98708571D01*
X89562380Y-98784761D01*
X89600476Y-98822857D01*
X89676666Y-98860952D01*
X89981428Y-98860952D01*
X89219523Y-98518095D02*
X89181428Y-98480000D01*
X89105238Y-98441904D01*
X88914761Y-98441904D01*
X88838571Y-98480000D01*
X88800476Y-98518095D01*
X88762380Y-98594285D01*
X88762380Y-98670476D01*
X88800476Y-98784761D01*
X89257619Y-99241904D01*
X88762380Y-99241904D01*
X88457619Y-98518095D02*
X88419523Y-98480000D01*
X88343333Y-98441904D01*
X88152857Y-98441904D01*
X88076666Y-98480000D01*
X88038571Y-98518095D01*
X88000476Y-98594285D01*
X88000476Y-98670476D01*
X88038571Y-98784761D01*
X88495714Y-99241904D01*
X88000476Y-99241904D01*
X89116666Y-87961904D02*
X89116666Y-88533333D01*
X89154761Y-88647619D01*
X89230952Y-88723809D01*
X89345238Y-88761904D01*
X89421428Y-88761904D01*
X88735714Y-88761904D02*
X88735714Y-87961904D01*
X88430952Y-87961904D01*
X88354761Y-88000000D01*
X88316666Y-88038095D01*
X88278571Y-88114285D01*
X88278571Y-88228571D01*
X88316666Y-88304761D01*
X88354761Y-88342857D01*
X88430952Y-88380952D01*
X88735714Y-88380952D01*
X87592857Y-88228571D02*
X87592857Y-88761904D01*
X87783333Y-87923809D02*
X87973809Y-88495238D01*
X87478571Y-88495238D01*
X73216666Y-97191904D02*
X73216666Y-97763333D01*
X73254761Y-97877619D01*
X73330952Y-97953809D01*
X73445238Y-97991904D01*
X73521428Y-97991904D01*
X72835714Y-97991904D02*
X72835714Y-97191904D01*
X72530952Y-97191904D01*
X72454761Y-97230000D01*
X72416666Y-97268095D01*
X72378571Y-97344285D01*
X72378571Y-97458571D01*
X72416666Y-97534761D01*
X72454761Y-97572857D01*
X72530952Y-97610952D01*
X72835714Y-97610952D01*
X72111904Y-97191904D02*
X71616666Y-97191904D01*
X71883333Y-97496666D01*
X71769047Y-97496666D01*
X71692857Y-97534761D01*
X71654761Y-97572857D01*
X71616666Y-97649047D01*
X71616666Y-97839523D01*
X71654761Y-97915714D01*
X71692857Y-97953809D01*
X71769047Y-97991904D01*
X71997619Y-97991904D01*
X72073809Y-97953809D01*
X72111904Y-97915714D01*
X59686666Y-75931904D02*
X59686666Y-76503333D01*
X59724761Y-76617619D01*
X59800952Y-76693809D01*
X59915238Y-76731904D01*
X59991428Y-76731904D01*
X59305714Y-76731904D02*
X59305714Y-75931904D01*
X59000952Y-75931904D01*
X58924761Y-75970000D01*
X58886666Y-76008095D01*
X58848571Y-76084285D01*
X58848571Y-76198571D01*
X58886666Y-76274761D01*
X58924761Y-76312857D01*
X59000952Y-76350952D01*
X59305714Y-76350952D01*
X58543809Y-76008095D02*
X58505714Y-75970000D01*
X58429523Y-75931904D01*
X58239047Y-75931904D01*
X58162857Y-75970000D01*
X58124761Y-76008095D01*
X58086666Y-76084285D01*
X58086666Y-76160476D01*
X58124761Y-76274761D01*
X58581904Y-76731904D01*
X58086666Y-76731904D01*
X107447619Y-99161904D02*
X107447619Y-99733333D01*
X107485714Y-99847619D01*
X107561904Y-99923809D01*
X107676190Y-99961904D01*
X107752380Y-99961904D01*
X106647619Y-99961904D02*
X107104761Y-99961904D01*
X106876190Y-99961904D02*
X106876190Y-99161904D01*
X106952380Y-99276190D01*
X107028571Y-99352380D01*
X107104761Y-99390476D01*
X106342857Y-99238095D02*
X106304761Y-99200000D01*
X106228571Y-99161904D01*
X106038095Y-99161904D01*
X105961904Y-99200000D01*
X105923809Y-99238095D01*
X105885714Y-99314285D01*
X105885714Y-99390476D01*
X105923809Y-99504761D01*
X106380952Y-99961904D01*
X105885714Y-99961904D01*
X100610476Y-68131904D02*
X100610476Y-67331904D01*
X100420000Y-67331904D01*
X100305714Y-67370000D01*
X100229523Y-67446190D01*
X100191428Y-67522380D01*
X100153333Y-67674761D01*
X100153333Y-67789047D01*
X100191428Y-67941428D01*
X100229523Y-68017619D01*
X100305714Y-68093809D01*
X100420000Y-68131904D01*
X100610476Y-68131904D01*
X99696190Y-67674761D02*
X99772380Y-67636666D01*
X99810476Y-67598571D01*
X99848571Y-67522380D01*
X99848571Y-67484285D01*
X99810476Y-67408095D01*
X99772380Y-67370000D01*
X99696190Y-67331904D01*
X99543809Y-67331904D01*
X99467619Y-67370000D01*
X99429523Y-67408095D01*
X99391428Y-67484285D01*
X99391428Y-67522380D01*
X99429523Y-67598571D01*
X99467619Y-67636666D01*
X99543809Y-67674761D01*
X99696190Y-67674761D01*
X99772380Y-67712857D01*
X99810476Y-67750952D01*
X99848571Y-67827142D01*
X99848571Y-67979523D01*
X99810476Y-68055714D01*
X99772380Y-68093809D01*
X99696190Y-68131904D01*
X99543809Y-68131904D01*
X99467619Y-68093809D01*
X99429523Y-68055714D01*
X99391428Y-67979523D01*
X99391428Y-67827142D01*
X99429523Y-67750952D01*
X99467619Y-67712857D01*
X99543809Y-67674761D01*
X95959523Y-62871904D02*
X95959523Y-63519523D01*
X95921428Y-63595714D01*
X95883333Y-63633809D01*
X95807142Y-63671904D01*
X95654761Y-63671904D01*
X95578571Y-63633809D01*
X95540476Y-63595714D01*
X95502380Y-63519523D01*
X95502380Y-62871904D01*
X94778571Y-63138571D02*
X94778571Y-63671904D01*
X94969047Y-62833809D02*
X95159523Y-63405238D01*
X94664285Y-63405238D01*
X77714285Y-66781904D02*
X77980952Y-66400952D01*
X78171428Y-66781904D02*
X78171428Y-65981904D01*
X77866666Y-65981904D01*
X77790476Y-66020000D01*
X77752380Y-66058095D01*
X77714285Y-66134285D01*
X77714285Y-66248571D01*
X77752380Y-66324761D01*
X77790476Y-66362857D01*
X77866666Y-66400952D01*
X78171428Y-66400952D01*
X76952380Y-66781904D02*
X77409523Y-66781904D01*
X77180952Y-66781904D02*
X77180952Y-65981904D01*
X77257142Y-66096190D01*
X77333333Y-66172380D01*
X77409523Y-66210476D01*
X76228571Y-65981904D02*
X76609523Y-65981904D01*
X76647619Y-66362857D01*
X76609523Y-66324761D01*
X76533333Y-66286666D01*
X76342857Y-66286666D01*
X76266666Y-66324761D01*
X76228571Y-66362857D01*
X76190476Y-66439047D01*
X76190476Y-66629523D01*
X76228571Y-66705714D01*
X76266666Y-66743809D01*
X76342857Y-66781904D01*
X76533333Y-66781904D01*
X76609523Y-66743809D01*
X76647619Y-66705714D01*
X79043333Y-93221904D02*
X79310000Y-92840952D01*
X79500476Y-93221904D02*
X79500476Y-92421904D01*
X79195714Y-92421904D01*
X79119523Y-92460000D01*
X79081428Y-92498095D01*
X79043333Y-92574285D01*
X79043333Y-92688571D01*
X79081428Y-92764761D01*
X79119523Y-92802857D01*
X79195714Y-92840952D01*
X79500476Y-92840952D01*
X78776666Y-92421904D02*
X78243333Y-92421904D01*
X78586190Y-93221904D01*
M02*
