<!DOCTYPE svg PUBLIC "-//W3C//DTD SVG 1.1//EN" "http://www.w3.org/Graphics/SVG/1.1/DTD/svg11.dtd">
<svg xmlns="http://www.w3.org/2000/svg" version="1.1" width="0.9721429cm" height="0.7243501cm" viewBox="0 0 3827 2851">
            <title>Picture generated by PcbDraw </title>
            <desc>Picture generated by PcbDraw</desc>
        <g transform="translate(-51847, -35891)" id="boardContainer"><g clip-path="url(#cut-off)" mask="url(#hole-mask)"><defs><clipPath id="cut-off"><path d=" M 51920.0 35900.0 L 55600.0 35900.0 L 55600.0 38240.0 L 51920.0 38240.0 L 51920.0 35900.0 " style="fill-rule=evenodd;"/></clipPath></defs><g id="substrate-board" style="fill:#285e3a; stroke:#285e3a;"><path d=" M 51920.0 35900.0 L 55600.0 35900.0 L 55600.0 38240.0 L 51920.0 38240.0 L 51920.0 35900.0 " style="fill-rule=evenodd;"/><g style="fill:#000000; stroke: #000000;"><g style="fill-opacity:1; stroke-opacity:1; stroke-linecap:round; stroke-linejoin:round;" transform="translate(0 0) scale(1 1)">
</g>
<g style="fill-opacity:0.0; stroke-width:-0.000393701; stroke-opacity:1; stroke-linecap:round; stroke-linejoin:round;">
</g>
<g style="fill-opacity:0.0; stroke-width:19.685; stroke-opacity:1; stroke-linecap:round; stroke-linejoin:round;">
<path d="M51920 38240 L51920 35900 "/>
<path d="M55600 38240 L51920 38240 "/>
<path d="M55600 35900 L55600 38240 "/>
<path d="M51920 35900 L55600 35900 "/>
<g>
</g>
<g>
</g>
</g> 
</g></g><g id="substrate-clad" style="fill:#9c6b28; stroke:#9c6b28;"><g style="fill-opacity:1; stroke-opacity:1; stroke-linecap:round; stroke-linejoin:round;" transform="translate(0 0) scale(1 1)">
</g>
<g style="fill-opacity:0.0; stroke-width:-0.000393701; stroke-opacity:1; stroke-linecap:round; stroke-linejoin:round;">
</g>
<g style="fill-opacity:1.0; stroke-width:0; stroke-opacity:1; stroke-linecap:round; stroke-linejoin:round;">
<path style="fill-opacity:1.0; stroke-width:0; stroke-opacity:1; stroke-linecap:round; stroke-linejoin:round;fill-rule:evenodd;" d="M 54113.8,37997.2 53876.8,37997.2 53876.8,37602.8 54113.8,37602.8 Z"/> 
<path style="fill-opacity:1.0; stroke-width:0; stroke-opacity:1; stroke-linecap:round; stroke-linejoin:round;fill-rule:evenodd;" d="M 53523.2,37997.2 53286.2,37997.2 53286.2,37602.8 53523.2,37602.8 Z"/> 
</g> 
</g><g id="substrate-copper" style="fill:#208b47; stroke:#208b47;"><g style="fill-opacity:1; stroke-opacity:1; stroke-linecap:round; stroke-linejoin:round;" transform="translate(0 0) scale(1 1)">
</g>
<g style="fill-opacity:0.0; stroke-width:-0.000393701; stroke-opacity:1; stroke-linecap:round; stroke-linejoin:round;">
<g>
</g>
<g style="fill-opacity:0.0; stroke-width:0; stroke-opacity:1; stroke-linecap:round; stroke-linejoin:round;">
</g>
<g style="fill-opacity:1.0; stroke-width:0; stroke-opacity:1; stroke-linecap:round; stroke-linejoin:round;">
<path style="fill-opacity:1.0; stroke-width:0; stroke-opacity:1; stroke-linecap:round; stroke-linejoin:round;fill-rule:evenodd;" d="M 53306.3,37977.2 53306.3,37622.8 53503.1,37622.8 53503.1,37977.2 Z"/> 
<path style="fill-opacity:1.0; stroke-width:0; stroke-opacity:1; stroke-linecap:round; stroke-linejoin:round;fill-rule:evenodd;" d="M 53896.9,37977.2 53896.9,37622.8 54093.7,37622.8 54093.7,37977.2 Z"/> 
</g>
<g>
</g>
<g>
</g>
<g>
</g>
</g>
<g style="fill-opacity:1.0; stroke-width:0; stroke-opacity:1; stroke-linecap:round; stroke-linejoin:round;">
</g>
<g style="fill-opacity:1.0; stroke-width:0; stroke-opacity:1; stroke-linecap:round; stroke-linejoin:round;">
</g> 
</g><g id="substrate-pads" style="fill:#b5ae30; stroke:#b5ae30;" mask="url(#pads-mask)"><g style="fill-opacity:1; stroke-opacity:1; stroke-linecap:round; stroke-linejoin:round;" transform="translate(0 0) scale(1 1)">
</g>
<g style="fill-opacity:0.0; stroke-width:-0.000393701; stroke-opacity:1; stroke-linecap:round; stroke-linejoin:round;">
<g>
</g>
<g style="fill-opacity:0.0; stroke-width:0; stroke-opacity:1; stroke-linecap:round; stroke-linejoin:round;">
</g>
<g style="fill-opacity:1.0; stroke-width:0; stroke-opacity:1; stroke-linecap:round; stroke-linejoin:round;">
<path style="fill-opacity:1.0; stroke-width:0; stroke-opacity:1; stroke-linecap:round; stroke-linejoin:round;fill-rule:evenodd;" d="M 53306.3,37977.2 53306.3,37622.8 53503.1,37622.8 53503.1,37977.2 Z"/> 
<path style="fill-opacity:1.0; stroke-width:0; stroke-opacity:1; stroke-linecap:round; stroke-linejoin:round;fill-rule:evenodd;" d="M 53896.9,37977.2 53896.9,37622.8 54093.7,37622.8 54093.7,37977.2 Z"/> 
</g>
<g>
</g>
<g>
</g>
<g>
</g>
</g>
<g style="fill-opacity:1.0; stroke-width:0; stroke-opacity:1; stroke-linecap:round; stroke-linejoin:round;">
</g>
<g style="fill-opacity:1.0; stroke-width:0; stroke-opacity:1; stroke-linecap:round; stroke-linejoin:round;">
</g> 
</g><defs><mask id="pads-mask"><g style="fill:#ffffff; fill-opacity:1;stroke:#ffffff; stroke-opacity:1; stroke-linecap:round; stroke-linejoin:round; " transform="translate(0 0) scale(1 1)">
</g>
<g style="fill:#ffffff; fill-opacity:0.0;  stroke:#ffffff; stroke-width:-0.000393701; stroke-opacity:1;  stroke-linecap:round; stroke-linejoin:round;">
</g>
<g style="fill:#ffffff; fill-opacity:1.0;  stroke:#ffffff; stroke-width:0; stroke-opacity:1;  stroke-linecap:round; stroke-linejoin:round;">
<path style="fill:#ffffff; fill-opacity:1.0;  stroke:#ffffff; stroke-width:0; stroke-opacity:1;  stroke-linecap:round; stroke-linejoin:round;fill-rule:evenodd;" d="M 54113.8,37997.2 53876.8,37997.2 53876.8,37602.8 54113.8,37602.8 Z"/> 
<path style="fill:#ffffff; fill-opacity:1.0;  stroke:#ffffff; stroke-width:0; stroke-opacity:1;  stroke-linecap:round; stroke-linejoin:round;fill-rule:evenodd;" d="M 53523.2,37997.2 53286.2,37997.2 53286.2,37602.8 53523.2,37602.8 Z"/> 
</g> 
</mask></defs><defs><mask id="pads-mask-silkscreen"><g style="fill:#000000; fill-opacity:1;stroke:#000000; stroke-opacity:1; stroke-linecap:round; stroke-linejoin:round; " transform="translate(0 0) scale(1 1)">
</g>
<g style="fill:#000000; fill-opacity:0.0;  stroke:#000000; stroke-width:-0.000393701; stroke-opacity:1;  stroke-linecap:round; stroke-linejoin:round;">
</g>
<g style="fill:#000000; fill-opacity:1.0;  stroke:#000000; stroke-width:0; stroke-opacity:1;  stroke-linecap:round; stroke-linejoin:round;">
<path style="fill:#000000; fill-opacity:1.0;  stroke:#000000; stroke-width:0; stroke-opacity:1;  stroke-linecap:round; stroke-linejoin:round;fill-rule:evenodd;" d="M 54113.8,37997.2 53876.8,37997.2 53876.8,37602.8 54113.8,37602.8 Z"/> 
<path style="fill:#000000; fill-opacity:1.0;  stroke:#000000; stroke-width:0; stroke-opacity:1;  stroke-linecap:round; stroke-linejoin:round;fill-rule:evenodd;" d="M 53523.2,37997.2 53286.2,37997.2 53286.2,37602.8 53523.2,37602.8 Z"/> 
</g> 
<rect x="51846" y="35890" width="3827" height="2851" fill="white"/></mask></defs><g id="substrate-silk" style="fill:#f0f0f0; stroke:#f0f0f0;" mask="url(#pads-mask-silkscreen)"><g style="fill-opacity:1; stroke-opacity:1; stroke-linecap:round; stroke-linejoin:round;" transform="translate(0 0) scale(1 1)">
</g>
<g style="fill-opacity:0.0; stroke-width:-0.000393701; stroke-opacity:1; stroke-linecap:round; stroke-linejoin:round;">
</g>
<g style="fill-opacity:0.0; stroke-width:59.0551; stroke-opacity:1; stroke-linecap:round; stroke-linejoin:round;">
<text x="53760" y="37256.9" textLength="3768.28" font-size="524.934" lengthAdjust="spacingAndGlyphs" text-anchor="middle" opacity="0">Empty Board</text>
<path d="M51969 37031 L52100 37031 "/>
<path d="M52157 37238 L51969 37238 L51969 36844 L52157 36844 "/>
<path d="M52325 37238 L52325 36975 "/>
<path d="M52325 37013 L52344 36994 L52382 36975 L52438 36975 L52475 36994 L52494 37031 L52494 37238 "/>
<path d="M52494 37031 L52513 36994 L52550 36975 L52607 36975 L52644 36994 L52663 37031 L52663 37238 "/>
<path d="M52850 36975 L52850 37369 "/>
<path d="M52850 36994 L52888 36975 L52963 36975 L53000 36994 L53019 37013 L53038 37050 L53038 37163 L53019 37200 L53000 37219 L52963 37238 L52888 37238 L52850 37219 "/>
<path d="M53150 36975 L53300 36975 "/>
<path d="M53206 36844 L53206 37181 L53225 37219 L53263 37238 L53300 37238 "/>
<path d="M53394 36975 L53488 37238 "/>
<path d="M53581 36975 L53488 37238 L53450 37331 L53431 37350 L53394 37369 "/>
<path d="M54163 37031 L54219 37050 L54238 37069 L54256 37106 L54256 37163 L54238 37200 L54219 37219 L54181 37238 L54031 37238 L54031 36844 L54163 36844 L54200 36863 L54219 36881 L54238 36919 L54238 36956 L54219 36994 L54200 37013 L54163 37031 L54031 37031 "/>
<path d="M54481 37238 L54444 37219 L54425 37200 L54406 37163 L54406 37050 L54425 37013 L54444 36994 L54481 36975 L54538 36975 L54575 36994 L54594 37013 L54613 37050 L54613 37163 L54594 37200 L54575 37219 L54538 37238 L54481 37238 "/>
<path d="M54950 37238 L54950 37031 L54931 36994 L54894 36975 L54819 36975 L54781 36994 "/>
<path d="M54950 37219 L54912 37238 L54819 37238 L54781 37219 L54762 37181 L54762 37144 L54781 37106 L54819 37088 L54912 37088 L54950 37069 "/>
<path d="M55137 37238 L55137 36975 "/>
<path d="M55137 37050 L55156 37013 L55175 36994 L55212 36975 L55250 36975 "/>
<path d="M55550 37238 L55550 36844 "/>
<path d="M55550 37219 L55512 37238 L55437 37238 L55400 37219 L55381 37200 L55362 37163 L55362 37050 L55381 37013 L55400 36994 L55437 36975 L55512 36975 L55550 36994 "/>
</g>
<g style="fill-opacity:0.0; stroke-width:47.2441; stroke-opacity:1; stroke-linecap:round; stroke-linejoin:round;">
<path d="M53896 38067 L53503 38067 "/>
<path d="M53503 37532 L53896 37532 "/>
</g>
<g style="fill-opacity:0.0; stroke-width:59.0551; stroke-opacity:1; stroke-linecap:round; stroke-linejoin:round;">
<text x="53700" y="37426" textLength="1764.06" font-size="524.934" lengthAdjust="spacingAndGlyphs" text-anchor="middle" opacity="0">REF**</text>
<path d="M53175 37407 L53043 37219 "/>
<path d="M52950 37407 L52950 37013 L53100 37013 L53137 37032 L53156 37051 L53175 37088 L53175 37144 L53156 37182 L53137 37201 L53100 37219 L52950 37219 "/>
<path d="M53343 37201 L53475 37201 "/>
<path d="M53531 37407 L53343 37407 L53343 37013 L53531 37013 "/>
<path d="M53831 37201 L53700 37201 "/>
<path d="M53700 37407 L53700 37013 L53887 37013 "/>
<path d="M54093 37013 L54093 37107 "/>
<path d="M53999 37069 L54093 37107 L54187 37069 "/>
<path d="M54037 37182 L54093 37107 L54149 37182 "/>
<path d="M54393 37013 L54393 37107 "/>
<path d="M54299 37069 L54393 37107 L54487 37069 "/>
<path d="M54337 37182 L54393 37107 L54449 37182 "/>
<g>
</g>
</g> 
</g><g id="substrate-outline" style="fill:#000000; stroke:#000000;"><g style="fill-opacity:1; stroke-opacity:1; stroke-linecap:round; stroke-linejoin:round;" transform="translate(0 0) scale(1 1)">
</g>
<g style="fill-opacity:0.0; stroke-width:-0.000393701; stroke-opacity:1; stroke-linecap:round; stroke-linejoin:round;">
</g>
<g style="fill-opacity:0.0; stroke-width:19.685; stroke-opacity:1; stroke-linecap:round; stroke-linejoin:round;">
<path d="M51920 38240 L51920 35900 "/>
<path d="M55600 38240 L51920 38240 "/>
<path d="M55600 35900 L55600 38240 "/>
<path d="M51920 35900 L55600 35900 "/>
<g>
</g>
<g>
</g>
</g> 
</g><defs><mask id="hole-mask"><g><rect x="51846" y="35890" fill="white" width="3827" height="2851"/></g></mask></defs></g></g><g transform="translate(-51847, -35891)" id="highlightContainer"/><g transform="translate(-51847, -35891)" id="componentContainer"/></svg>