<!DOCTYPE svg PUBLIC "-//W3C//DTD SVG 1.1//EN" "http://www.w3.org/Graphics/SVG/1.1/DTD/svg11.dtd">
<svg xmlns="http://www.w3.org/2000/svg" version="1.1" width="3.5813202cm" height="1.8490402cm" viewBox="0 0 14099 7279">
            <title>Picture generated by PcbDraw </title>
            <desc>Picture generated by PcbDraw</desc>
        <g transform="translate(-47971, -34031)" id="boardContainer"><g clip-path="url(#cut-off)" mask="url(#hole-mask)"><defs><clipPath id="cut-off"><path d=" M 47980.0 34040.0 L 62060.0 34040.0 L 62060.0 41300.0 L 47980.0 41300.0 L 47980.0 34040.0 " style="fill-rule=evenodd;"/></clipPath></defs><g id="substrate-board" style="fill:#285e3a; stroke:#285e3a;"><path d=" M 47980.0 34040.0 L 62060.0 34040.0 L 62060.0 41300.0 L 47980.0 41300.0 L 47980.0 34040.0 " style="fill-rule=evenodd;"/><g style="fill:#000000; stroke: #000000;"><g style="fill-opacity:1; stroke-opacity:1; stroke-linecap:round; stroke-linejoin:round;" transform="translate(0 0) scale(1 1)">
</g>
<g style="fill-opacity:0.0; stroke-width:-0.000393701; stroke-opacity:1; stroke-linecap:round; stroke-linejoin:round;">
</g>
<g style="fill-opacity:0.0; stroke-width:19.685; stroke-opacity:1; stroke-linecap:round; stroke-linejoin:round;">
<path d="M47980 41300 L47980 34040 "/>
<path d="M62060 41300 L47980 41300 "/>
<path d="M62060 34040 L62060 41300 "/>
<path d="M47980 34040 L62060 34040 "/>
<g>
</g>
<g>
</g>
</g> 
</g></g><g id="substrate-clad" style="fill:#9c6b28; stroke:#9c6b28;"><g style="fill-opacity:1; stroke-opacity:1; stroke-linecap:round; stroke-linejoin:round;" transform="translate(0 0) scale(1 1)">
</g>
<g style="fill-opacity:0.0; stroke-width:-0.000393701; stroke-opacity:1; stroke-linecap:round; stroke-linejoin:round;">
</g>
<g style="fill-opacity:1.0; stroke-width:0; stroke-opacity:1; stroke-linecap:round; stroke-linejoin:round;">
<path style="fill-opacity:1.0; stroke-width:0; stroke-opacity:1; stroke-linecap:round; stroke-linejoin:round;fill-rule:evenodd;" d="M 55093.8,39197.2 54856.8,39197.2 54856.8,38802.8 55093.8,38802.8 Z"/> 
<path style="fill-opacity:1.0; stroke-width:0; stroke-opacity:1; stroke-linecap:round; stroke-linejoin:round;fill-rule:evenodd;" d="M 54503.2,39197.2 54266.2,39197.2 54266.2,38802.8 54503.2,38802.8 Z"/> 
</g> 
</g><g id="substrate-copper" style="fill:#208b47; stroke:#208b47;"><g style="fill-opacity:1; stroke-opacity:1; stroke-linecap:round; stroke-linejoin:round;" transform="translate(0 0) scale(1 1)">
</g>
<g style="fill-opacity:0.0; stroke-width:-0.000393701; stroke-opacity:1; stroke-linecap:round; stroke-linejoin:round;">
<g>
</g>
<g style="fill-opacity:0.0; stroke-width:0; stroke-opacity:1; stroke-linecap:round; stroke-linejoin:round;">
</g>
<g style="fill-opacity:1.0; stroke-width:0; stroke-opacity:1; stroke-linecap:round; stroke-linejoin:round;">
<path style="fill-opacity:1.0; stroke-width:0; stroke-opacity:1; stroke-linecap:round; stroke-linejoin:round;fill-rule:evenodd;" d="M 54286.3,39177.2 54286.3,38822.8 54483.1,38822.8 54483.1,39177.2 Z"/> 
<path style="fill-opacity:1.0; stroke-width:0; stroke-opacity:1; stroke-linecap:round; stroke-linejoin:round;fill-rule:evenodd;" d="M 54876.9,39177.2 54876.9,38822.8 55073.7,38822.8 55073.7,39177.2 Z"/> 
</g>
<g>
</g>
<g>
</g>
<g>
</g>
</g>
<g style="fill-opacity:1.0; stroke-width:0; stroke-opacity:1; stroke-linecap:round; stroke-linejoin:round;">
</g>
<g style="fill-opacity:1.0; stroke-width:0; stroke-opacity:1; stroke-linecap:round; stroke-linejoin:round;">
</g> 
</g><g id="substrate-pads" style="fill:#b5ae30; stroke:#b5ae30;" mask="url(#pads-mask)"><g style="fill-opacity:1; stroke-opacity:1; stroke-linecap:round; stroke-linejoin:round;" transform="translate(0 0) scale(1 1)">
</g>
<g style="fill-opacity:0.0; stroke-width:-0.000393701; stroke-opacity:1; stroke-linecap:round; stroke-linejoin:round;">
<g>
</g>
<g style="fill-opacity:0.0; stroke-width:0; stroke-opacity:1; stroke-linecap:round; stroke-linejoin:round;">
</g>
<g style="fill-opacity:1.0; stroke-width:0; stroke-opacity:1; stroke-linecap:round; stroke-linejoin:round;">
<path style="fill-opacity:1.0; stroke-width:0; stroke-opacity:1; stroke-linecap:round; stroke-linejoin:round;fill-rule:evenodd;" d="M 54286.3,39177.2 54286.3,38822.8 54483.1,38822.8 54483.1,39177.2 Z"/> 
<path style="fill-opacity:1.0; stroke-width:0; stroke-opacity:1; stroke-linecap:round; stroke-linejoin:round;fill-rule:evenodd;" d="M 54876.9,39177.2 54876.9,38822.8 55073.7,38822.8 55073.7,39177.2 Z"/> 
</g>
<g>
</g>
<g>
</g>
<g>
</g>
</g>
<g style="fill-opacity:1.0; stroke-width:0; stroke-opacity:1; stroke-linecap:round; stroke-linejoin:round;">
</g>
<g style="fill-opacity:1.0; stroke-width:0; stroke-opacity:1; stroke-linecap:round; stroke-linejoin:round;">
</g> 
</g><defs><mask id="pads-mask"><g style="fill:#ffffff; fill-opacity:1;stroke:#ffffff; stroke-opacity:1; stroke-linecap:round; stroke-linejoin:round; " transform="translate(0 0) scale(1 1)">
</g>
<g style="fill:#ffffff; fill-opacity:0.0;  stroke:#ffffff; stroke-width:-0.000393701; stroke-opacity:1;  stroke-linecap:round; stroke-linejoin:round;">
</g>
<g style="fill:#ffffff; fill-opacity:1.0;  stroke:#ffffff; stroke-width:0; stroke-opacity:1;  stroke-linecap:round; stroke-linejoin:round;">
<path style="fill:#ffffff; fill-opacity:1.0;  stroke:#ffffff; stroke-width:0; stroke-opacity:1;  stroke-linecap:round; stroke-linejoin:round;fill-rule:evenodd;" d="M 55093.8,39197.2 54856.8,39197.2 54856.8,38802.8 55093.8,38802.8 Z"/> 
<path style="fill:#ffffff; fill-opacity:1.0;  stroke:#ffffff; stroke-width:0; stroke-opacity:1;  stroke-linecap:round; stroke-linejoin:round;fill-rule:evenodd;" d="M 54503.2,39197.2 54266.2,39197.2 54266.2,38802.8 54503.2,38802.8 Z"/> 
</g> 
</mask></defs><defs><mask id="pads-mask-silkscreen"><g style="fill:#000000; fill-opacity:1;stroke:#000000; stroke-opacity:1; stroke-linecap:round; stroke-linejoin:round; " transform="translate(0 0) scale(1 1)">
</g>
<g style="fill:#000000; fill-opacity:0.0;  stroke:#000000; stroke-width:-0.000393701; stroke-opacity:1;  stroke-linecap:round; stroke-linejoin:round;">
</g>
<g style="fill:#000000; fill-opacity:1.0;  stroke:#000000; stroke-width:0; stroke-opacity:1;  stroke-linecap:round; stroke-linejoin:round;">
<path style="fill:#000000; fill-opacity:1.0;  stroke:#000000; stroke-width:0; stroke-opacity:1;  stroke-linecap:round; stroke-linejoin:round;fill-rule:evenodd;" d="M 55093.8,39197.2 54856.8,39197.2 54856.8,38802.8 55093.8,38802.8 Z"/> 
<path style="fill:#000000; fill-opacity:1.0;  stroke:#000000; stroke-width:0; stroke-opacity:1;  stroke-linecap:round; stroke-linejoin:round;fill-rule:evenodd;" d="M 54503.2,39197.2 54266.2,39197.2 54266.2,38802.8 54503.2,38802.8 Z"/> 
</g> 
<rect x="47970" y="34030" width="14099" height="7279" fill="white"/></mask></defs><g id="substrate-silk" style="fill:#f0f0f0; stroke:#f0f0f0;" mask="url(#pads-mask-silkscreen)"><g style="fill-opacity:1; stroke-opacity:1; stroke-linecap:round; stroke-linejoin:round;" transform="translate(0 0) scale(1 1)">
</g>
<g style="fill-opacity:0.0; stroke-width:-0.000393701; stroke-opacity:1; stroke-linecap:round; stroke-linejoin:round;">
</g>
<g style="fill-opacity:0.0; stroke-width:59.0551; stroke-opacity:1; stroke-linecap:round; stroke-linejoin:round;">
<text x="55040" y="37796.9" textLength="3768.28" font-size="524.934" lengthAdjust="spacingAndGlyphs" text-anchor="middle" opacity="0">Empty Board</text>
<path d="M53249 37571 L53380 37571 "/>
<path d="M53437 37778 L53249 37778 L53249 37384 L53437 37384 "/>
<path d="M53605 37778 L53605 37515 "/>
<path d="M53605 37553 L53624 37534 L53662 37515 L53718 37515 L53755 37534 L53774 37571 L53774 37778 "/>
<path d="M53774 37571 L53793 37534 L53830 37515 L53887 37515 L53924 37534 L53943 37571 L53943 37778 "/>
<path d="M54130 37515 L54130 37909 "/>
<path d="M54130 37534 L54168 37515 L54243 37515 L54280 37534 L54299 37553 L54318 37590 L54318 37703 L54299 37740 L54280 37759 L54243 37778 L54168 37778 L54130 37759 "/>
<path d="M54430 37515 L54580 37515 "/>
<path d="M54486 37384 L54486 37721 L54505 37759 L54543 37778 L54580 37778 "/>
<path d="M54674 37515 L54768 37778 "/>
<path d="M54861 37515 L54768 37778 L54730 37871 L54711 37890 L54674 37909 "/>
<path d="M55443 37571 L55499 37590 L55518 37609 L55536 37646 L55536 37703 L55518 37740 L55499 37759 L55461 37778 L55311 37778 L55311 37384 L55443 37384 L55480 37403 L55499 37421 L55518 37459 L55518 37496 L55499 37534 L55480 37553 L55443 37571 L55311 37571 "/>
<path d="M55761 37778 L55724 37759 L55705 37740 L55686 37703 L55686 37590 L55705 37553 L55724 37534 L55761 37515 L55818 37515 L55855 37534 L55874 37553 L55893 37590 L55893 37703 L55874 37740 L55855 37759 L55818 37778 L55761 37778 "/>
<path d="M56230 37778 L56230 37571 L56211 37534 L56174 37515 L56099 37515 L56061 37534 "/>
<path d="M56230 37759 L56192 37778 L56099 37778 L56061 37759 L56042 37721 L56042 37684 L56061 37646 L56099 37628 L56192 37628 L56230 37609 "/>
<path d="M56417 37778 L56417 37515 "/>
<path d="M56417 37590 L56436 37553 L56455 37534 L56492 37515 L56530 37515 "/>
<path d="M56830 37778 L56830 37384 "/>
<path d="M56830 37759 L56792 37778 L56717 37778 L56680 37759 L56661 37740 L56642 37703 L56642 37590 L56661 37553 L56680 37534 L56717 37515 L56792 37515 L56830 37534 "/>
</g>
<g style="fill-opacity:0.0; stroke-width:47.2441; stroke-opacity:1; stroke-linecap:round; stroke-linejoin:round;">
<path d="M54876 39267 L54483 39267 "/>
<path d="M54483 38732 L54876 38732 "/>
</g>
<g style="fill-opacity:0.0; stroke-width:59.0551; stroke-opacity:1; stroke-linecap:round; stroke-linejoin:round;">
<text x="54680" y="38626" textLength="1764.06" font-size="524.934" lengthAdjust="spacingAndGlyphs" text-anchor="middle" opacity="0">REF**</text>
<path d="M54155 38607 L54023 38419 "/>
<path d="M53930 38607 L53930 38213 L54080 38213 L54117 38232 L54136 38251 L54155 38288 L54155 38344 L54136 38382 L54117 38401 L54080 38419 L53930 38419 "/>
<path d="M54323 38401 L54455 38401 "/>
<path d="M54511 38607 L54323 38607 L54323 38213 L54511 38213 "/>
<path d="M54811 38401 L54680 38401 "/>
<path d="M54680 38607 L54680 38213 L54867 38213 "/>
<path d="M55073 38213 L55073 38307 "/>
<path d="M54979 38269 L55073 38307 L55167 38269 "/>
<path d="M55017 38382 L55073 38307 L55129 38382 "/>
<path d="M55373 38213 L55373 38307 "/>
<path d="M55279 38269 L55373 38307 L55467 38269 "/>
<path d="M55317 38382 L55373 38307 L55429 38382 "/>
<g>
</g>
</g> 
</g><g id="substrate-outline" style="fill:#000000; stroke:#000000;"><g style="fill-opacity:1; stroke-opacity:1; stroke-linecap:round; stroke-linejoin:round;" transform="translate(0 0) scale(1 1)">
</g>
<g style="fill-opacity:0.0; stroke-width:-0.000393701; stroke-opacity:1; stroke-linecap:round; stroke-linejoin:round;">
</g>
<g style="fill-opacity:0.0; stroke-width:19.685; stroke-opacity:1; stroke-linecap:round; stroke-linejoin:round;">
<path d="M47980 41300 L47980 34040 "/>
<path d="M62060 41300 L47980 41300 "/>
<path d="M62060 34040 L62060 41300 "/>
<path d="M47980 34040 L62060 34040 "/>
<g>
</g>
<g>
</g>
</g> 
</g><defs><mask id="hole-mask"><g><rect x="47970" y="34030" fill="white" width="14099" height="7279"/></g></mask></defs></g></g><g transform="translate(-47971, -34031)" id="highlightContainer"/><g transform="translate(-47971, -34031)" id="componentContainer"/></svg>