<?xml version="1.0" standalone="no"?>
 <!DOCTYPE svg PUBLIC "-//W3C//DTD SVG 1.1//EN" 
 "http://www.w3.org/Graphics/SVG/1.1/DTD/svg11.dtd"> 
<svg xmlns="http://www.w3.org/2000/svg" version="1.1" 
    width="29.7002cm" height="21.0007cm" viewBox="0 0 116930 82680 ">
<title>SVG Picture created as Pi-Batt-Pi-Batt.svg date 2020/10/01 07:05:29 </title>
  <desc>Picture generated by Eeschema-SVG </desc>
<g style="fill:#000000; fill-opacity:1;stroke:#000000; stroke-opacity:1;
stroke-linecap:round; stroke-linejoin:round; "
 transform="translate(0 0) scale(1 1)">
</g>
<g style="fill:#000000; fill-opacity:0.0; 
stroke:#000000; stroke-width:-10; stroke-opacity:1; 
stroke-linecap:round; stroke-linejoin:round;">
</g>
<g style="fill:#840000; fill-opacity:0.0; 
stroke:#840000; stroke-width:-10; stroke-opacity:1; 
stroke-linecap:round; stroke-linejoin:round;">
</g>
<g style="fill:#840000; fill-opacity:0.0; 
stroke:#840000; stroke-width:100; stroke-opacity:1; 
stroke-linecap:round; stroke-linejoin:round;">
</g>
<g style="fill:#840000; fill-opacity:0.0; 
stroke:#840000; stroke-width:60; stroke-opacity:1; 
stroke-linecap:round; stroke-linejoin:round;">
<rect x="69690" y="65360" width="42520" height="12600" rx="0" />
</g>
<g style="fill:#840000; fill-opacity:0.0; 
stroke:#840000; stroke-width:100; stroke-opacity:1; 
stroke-linecap:round; stroke-linejoin:round;">
</g>
<g style="fill:#840000; fill-opacity:0.0; 
stroke:#840000; stroke-width:60; stroke-opacity:1; 
stroke-linecap:round; stroke-linejoin:round;">
<rect x="3940" y="3940" width="109050" height="74800" rx="0" />
</g>
<g style="fill:#840000; fill-opacity:0.0; 
stroke:#840000; stroke-width:100; stroke-opacity:1; 
stroke-linecap:round; stroke-linejoin:round;">
</g>
<g style="fill:#840000; fill-opacity:0.0; 
stroke:#840000; stroke-width:60; stroke-opacity:1; 
stroke-linecap:round; stroke-linejoin:round;">
<rect x="4720" y="4720" width="107490" height="73240" rx="0" />
</g>
<g style="fill:#840000; fill-opacity:0.0; 
stroke:#840000; stroke-width:100; stroke-opacity:1; 
stroke-linecap:round; stroke-linejoin:round;">
</g>
<g style="fill:#840000; fill-opacity:0.0; 
stroke:#840000; stroke-width:60; stroke-opacity:1; 
stroke-linecap:round; stroke-linejoin:round;">
<path d="M23620 4720
L23620 3940
" />
</g>
<g style="fill:#840000; fill-opacity:0.0; 
stroke:#840000; stroke-width:100; stroke-opacity:1; 
stroke-linecap:round; stroke-linejoin:round;">
</g>
<g style="fill:#840000; fill-opacity:0.0; 
stroke:#840000; stroke-width:60; stroke-opacity:1; 
stroke-linecap:round; stroke-linejoin:round;">
<path d="M43310 4720
L43310 3940
" />
</g>
<g style="fill:#840000; fill-opacity:0.0; 
stroke:#840000; stroke-width:100; stroke-opacity:1; 
stroke-linecap:round; stroke-linejoin:round;">
</g>
<g style="fill:#840000; fill-opacity:0.0; 
stroke:#840000; stroke-width:60; stroke-opacity:1; 
stroke-linecap:round; stroke-linejoin:round;">
<path d="M62990 4720
L62990 3940
" />
</g>
<g style="fill:#840000; fill-opacity:0.0; 
stroke:#840000; stroke-width:100; stroke-opacity:1; 
stroke-linecap:round; stroke-linejoin:round;">
</g>
<g style="fill:#840000; fill-opacity:0.0; 
stroke:#840000; stroke-width:60; stroke-opacity:1; 
stroke-linecap:round; stroke-linejoin:round;">
<path d="M82680 4720
L82680 3940
" />
</g>
<g style="fill:#840000; fill-opacity:0.0; 
stroke:#840000; stroke-width:100; stroke-opacity:1; 
stroke-linecap:round; stroke-linejoin:round;">
</g>
<g style="fill:#840000; fill-opacity:0.0; 
stroke:#840000; stroke-width:60; stroke-opacity:1; 
stroke-linecap:round; stroke-linejoin:round;">
<path d="M102360 4720
L102360 3940
" />
</g>
<g style="fill:#840000; fill-opacity:0.0; 
stroke:#840000; stroke-width:100; stroke-opacity:1; 
stroke-linecap:round; stroke-linejoin:round;">
</g>
<g style="fill:#840000; fill-opacity:0.0; 
stroke:#840000; stroke-width:60; stroke-opacity:1; 
stroke-linecap:round; stroke-linejoin:round;">
<text x="13780" y="4580"
textLength="550" font-size="680" lengthAdjust="spacingAndGlyphs"
text-anchor="start" opacity="0">1</text>
<path d="M14190 4560
L13900 4560
" />
<path d="M14050 4560
L14050 4050
L14000 4120
L13950 4170
L13900 4190
" />
</g>
<g style="fill:#840000; fill-opacity:0.0; 
stroke:#840000; stroke-width:100; stroke-opacity:1; 
stroke-linecap:round; stroke-linejoin:round;">
</g>
<g style="fill:#840000; fill-opacity:0.0; 
stroke:#840000; stroke-width:60; stroke-opacity:1; 
stroke-linecap:round; stroke-linejoin:round;">
<text x="33460" y="4580"
textLength="550" font-size="680" lengthAdjust="spacingAndGlyphs"
text-anchor="start" opacity="0">2</text>
<path d="M33580 4090
L33610 4070
L33660 4050
L33780 4050
L33830 4070
L33850 4090
L33870 4140
L33870 4190
L33850 4260
L33560 4560
L33870 4560
" />
</g>
<g style="fill:#840000; fill-opacity:0.0; 
stroke:#840000; stroke-width:100; stroke-opacity:1; 
stroke-linecap:round; stroke-linejoin:round;">
</g>
<g style="fill:#840000; fill-opacity:0.0; 
stroke:#840000; stroke-width:60; stroke-opacity:1; 
stroke-linecap:round; stroke-linejoin:round;">
<text x="53150" y="4580"
textLength="550" font-size="680" lengthAdjust="spacingAndGlyphs"
text-anchor="start" opacity="0">3</text>
<path d="M53250 4050
L53560 4050
L53390 4240
L53470 4240
L53520 4260
L53540 4290
L53560 4340
L53560 4460
L53540 4510
L53520 4530
L53470 4560
L53320 4560
L53270 4530
L53250 4510
" />
</g>
<g style="fill:#840000; fill-opacity:0.0; 
stroke:#840000; stroke-width:100; stroke-opacity:1; 
stroke-linecap:round; stroke-linejoin:round;">
</g>
<g style="fill:#840000; fill-opacity:0.0; 
stroke:#840000; stroke-width:60; stroke-opacity:1; 
stroke-linecap:round; stroke-linejoin:round;">
<text x="72830" y="4580"
textLength="550" font-size="680" lengthAdjust="spacingAndGlyphs"
text-anchor="start" opacity="0">4</text>
<path d="M73200 4220
L73200 4560
" />
<path d="M73070 4020
L72950 4390
L73270 4390
" />
</g>
<g style="fill:#840000; fill-opacity:0.0; 
stroke:#840000; stroke-width:100; stroke-opacity:1; 
stroke-linecap:round; stroke-linejoin:round;">
</g>
<g style="fill:#840000; fill-opacity:0.0; 
stroke:#840000; stroke-width:60; stroke-opacity:1; 
stroke-linecap:round; stroke-linejoin:round;">
<text x="92520" y="4580"
textLength="550" font-size="680" lengthAdjust="spacingAndGlyphs"
text-anchor="start" opacity="0">5</text>
<path d="M92910 4050
L92670 4050
L92640 4290
L92670 4260
L92720 4240
L92840 4240
L92890 4260
L92910 4290
L92930 4340
L92930 4460
L92910 4510
L92890 4530
L92840 4560
L92720 4560
L92670 4530
L92640 4510
" />
</g>
<g style="fill:#840000; fill-opacity:0.0; 
stroke:#840000; stroke-width:100; stroke-opacity:1; 
stroke-linecap:round; stroke-linejoin:round;">
</g>
<g style="fill:#840000; fill-opacity:0.0; 
stroke:#840000; stroke-width:60; stroke-opacity:1; 
stroke-linecap:round; stroke-linejoin:round;">
<text x="112200" y="4580"
textLength="550" font-size="680" lengthAdjust="spacingAndGlyphs"
text-anchor="start" opacity="0">6</text>
<path d="M112570 4050
L112470 4050
L112420 4070
L112400 4090
L112350 4170
L112320 4260
L112320 4460
L112350 4510
L112370 4530
L112420 4560
L112520 4560
L112570 4530
L112590 4510
L112610 4460
L112610 4340
L112590 4290
L112570 4260
L112520 4240
L112420 4240
L112370 4260
L112350 4290
L112320 4340
" />
</g>
<g style="fill:#840000; fill-opacity:0.0; 
stroke:#840000; stroke-width:100; stroke-opacity:1; 
stroke-linecap:round; stroke-linejoin:round;">
</g>
<g style="fill:#840000; fill-opacity:0.0; 
stroke:#840000; stroke-width:60; stroke-opacity:1; 
stroke-linecap:round; stroke-linejoin:round;">
<path d="M23620 77960
L23620 78740
" />
</g>
<g style="fill:#840000; fill-opacity:0.0; 
stroke:#840000; stroke-width:100; stroke-opacity:1; 
stroke-linecap:round; stroke-linejoin:round;">
</g>
<g style="fill:#840000; fill-opacity:0.0; 
stroke:#840000; stroke-width:60; stroke-opacity:1; 
stroke-linecap:round; stroke-linejoin:round;">
<path d="M43310 77960
L43310 78740
" />
</g>
<g style="fill:#840000; fill-opacity:0.0; 
stroke:#840000; stroke-width:100; stroke-opacity:1; 
stroke-linecap:round; stroke-linejoin:round;">
</g>
<g style="fill:#840000; fill-opacity:0.0; 
stroke:#840000; stroke-width:60; stroke-opacity:1; 
stroke-linecap:round; stroke-linejoin:round;">
<path d="M62990 77960
L62990 78740
" />
</g>
<g style="fill:#840000; fill-opacity:0.0; 
stroke:#840000; stroke-width:100; stroke-opacity:1; 
stroke-linecap:round; stroke-linejoin:round;">
</g>
<g style="fill:#840000; fill-opacity:0.0; 
stroke:#840000; stroke-width:60; stroke-opacity:1; 
stroke-linecap:round; stroke-linejoin:round;">
<path d="M82680 77960
L82680 78740
" />
</g>
<g style="fill:#840000; fill-opacity:0.0; 
stroke:#840000; stroke-width:100; stroke-opacity:1; 
stroke-linecap:round; stroke-linejoin:round;">
</g>
<g style="fill:#840000; fill-opacity:0.0; 
stroke:#840000; stroke-width:60; stroke-opacity:1; 
stroke-linecap:round; stroke-linejoin:round;">
<path d="M102360 77960
L102360 78740
" />
</g>
<g style="fill:#840000; fill-opacity:0.0; 
stroke:#840000; stroke-width:100; stroke-opacity:1; 
stroke-linecap:round; stroke-linejoin:round;">
</g>
<g style="fill:#840000; fill-opacity:0.0; 
stroke:#840000; stroke-width:60; stroke-opacity:1; 
stroke-linecap:round; stroke-linejoin:round;">
<text x="13780" y="78600"
textLength="550" font-size="680" lengthAdjust="spacingAndGlyphs"
text-anchor="start" opacity="0">1</text>
<path d="M14190 78580
L13900 78580
" />
<path d="M14050 78580
L14050 78070
L14000 78140
L13950 78190
L13900 78210
" />
</g>
<g style="fill:#840000; fill-opacity:0.0; 
stroke:#840000; stroke-width:100; stroke-opacity:1; 
stroke-linecap:round; stroke-linejoin:round;">
</g>
<g style="fill:#840000; fill-opacity:0.0; 
stroke:#840000; stroke-width:60; stroke-opacity:1; 
stroke-linecap:round; stroke-linejoin:round;">
<text x="33460" y="78600"
textLength="550" font-size="680" lengthAdjust="spacingAndGlyphs"
text-anchor="start" opacity="0">2</text>
<path d="M33580 78110
L33610 78090
L33660 78070
L33780 78070
L33830 78090
L33850 78110
L33870 78160
L33870 78210
L33850 78280
L33560 78580
L33870 78580
" />
</g>
<g style="fill:#840000; fill-opacity:0.0; 
stroke:#840000; stroke-width:100; stroke-opacity:1; 
stroke-linecap:round; stroke-linejoin:round;">
</g>
<g style="fill:#840000; fill-opacity:0.0; 
stroke:#840000; stroke-width:60; stroke-opacity:1; 
stroke-linecap:round; stroke-linejoin:round;">
<text x="53150" y="78600"
textLength="550" font-size="680" lengthAdjust="spacingAndGlyphs"
text-anchor="start" opacity="0">3</text>
<path d="M53250 78070
L53560 78070
L53390 78260
L53470 78260
L53520 78280
L53540 78310
L53560 78360
L53560 78480
L53540 78530
L53520 78550
L53470 78580
L53320 78580
L53270 78550
L53250 78530
" />
</g>
<g style="fill:#840000; fill-opacity:0.0; 
stroke:#840000; stroke-width:100; stroke-opacity:1; 
stroke-linecap:round; stroke-linejoin:round;">
</g>
<g style="fill:#840000; fill-opacity:0.0; 
stroke:#840000; stroke-width:60; stroke-opacity:1; 
stroke-linecap:round; stroke-linejoin:round;">
<text x="72830" y="78600"
textLength="550" font-size="680" lengthAdjust="spacingAndGlyphs"
text-anchor="start" opacity="0">4</text>
<path d="M73200 78240
L73200 78580
" />
<path d="M73070 78040
L72950 78410
L73270 78410
" />
</g>
<g style="fill:#840000; fill-opacity:0.0; 
stroke:#840000; stroke-width:100; stroke-opacity:1; 
stroke-linecap:round; stroke-linejoin:round;">
</g>
<g style="fill:#840000; fill-opacity:0.0; 
stroke:#840000; stroke-width:60; stroke-opacity:1; 
stroke-linecap:round; stroke-linejoin:round;">
<text x="92520" y="78600"
textLength="550" font-size="680" lengthAdjust="spacingAndGlyphs"
text-anchor="start" opacity="0">5</text>
<path d="M92910 78070
L92670 78070
L92640 78310
L92670 78280
L92720 78260
L92840 78260
L92890 78280
L92910 78310
L92930 78360
L92930 78480
L92910 78530
L92890 78550
L92840 78580
L92720 78580
L92670 78550
L92640 78530
" />
</g>
<g style="fill:#840000; fill-opacity:0.0; 
stroke:#840000; stroke-width:100; stroke-opacity:1; 
stroke-linecap:round; stroke-linejoin:round;">
</g>
<g style="fill:#840000; fill-opacity:0.0; 
stroke:#840000; stroke-width:60; stroke-opacity:1; 
stroke-linecap:round; stroke-linejoin:round;">
<text x="112200" y="78600"
textLength="550" font-size="680" lengthAdjust="spacingAndGlyphs"
text-anchor="start" opacity="0">6</text>
<path d="M112570 78070
L112470 78070
L112420 78090
L112400 78110
L112350 78190
L112320 78280
L112320 78480
L112350 78530
L112370 78550
L112420 78580
L112520 78580
L112570 78550
L112590 78530
L112610 78480
L112610 78360
L112590 78310
L112570 78280
L112520 78260
L112420 78260
L112370 78280
L112350 78310
L112320 78360
" />
</g>
<g style="fill:#840000; fill-opacity:0.0; 
stroke:#840000; stroke-width:100; stroke-opacity:1; 
stroke-linecap:round; stroke-linejoin:round;">
</g>
<g style="fill:#840000; fill-opacity:0.0; 
stroke:#840000; stroke-width:60; stroke-opacity:1; 
stroke-linecap:round; stroke-linejoin:round;">
<path d="M3940 23620
L4720 23620
" />
</g>
<g style="fill:#840000; fill-opacity:0.0; 
stroke:#840000; stroke-width:100; stroke-opacity:1; 
stroke-linecap:round; stroke-linejoin:round;">
</g>
<g style="fill:#840000; fill-opacity:0.0; 
stroke:#840000; stroke-width:60; stroke-opacity:1; 
stroke-linecap:round; stroke-linejoin:round;">
<path d="M3940 43310
L4720 43310
" />
</g>
<g style="fill:#840000; fill-opacity:0.0; 
stroke:#840000; stroke-width:100; stroke-opacity:1; 
stroke-linecap:round; stroke-linejoin:round;">
</g>
<g style="fill:#840000; fill-opacity:0.0; 
stroke:#840000; stroke-width:60; stroke-opacity:1; 
stroke-linecap:round; stroke-linejoin:round;">
<path d="M3940 62990
L4720 62990
" />
</g>
<g style="fill:#840000; fill-opacity:0.0; 
stroke:#840000; stroke-width:100; stroke-opacity:1; 
stroke-linecap:round; stroke-linejoin:round;">
</g>
<g style="fill:#840000; fill-opacity:0.0; 
stroke:#840000; stroke-width:60; stroke-opacity:1; 
stroke-linecap:round; stroke-linejoin:round;">
<text x="4330" y="14030"
textLength="500" font-size="680" lengthAdjust="spacingAndGlyphs"
text-anchor="middle" opacity="0">A</text>
<path d="M4200 13860
L4450 13860
" />
<path d="M4160 14010
L4330 13500
L4500 14010
" />
</g>
<g style="fill:#840000; fill-opacity:0.0; 
stroke:#840000; stroke-width:100; stroke-opacity:1; 
stroke-linecap:round; stroke-linejoin:round;">
</g>
<g style="fill:#840000; fill-opacity:0.0; 
stroke:#840000; stroke-width:60; stroke-opacity:1; 
stroke-linecap:round; stroke-linejoin:round;">
<text x="4330" y="33710"
textLength="570" font-size="680" lengthAdjust="spacingAndGlyphs"
text-anchor="middle" opacity="0">B</text>
<path d="M4360 33420
L4430 33440
L4460 33470
L4480 33520
L4480 33590
L4460 33640
L4430 33660
L4390 33690
L4190 33690
L4190 33180
L4360 33180
L4410 33200
L4430 33220
L4460 33270
L4460 33320
L4430 33370
L4410 33390
L4360 33420
L4190 33420
" />
</g>
<g style="fill:#840000; fill-opacity:0.0; 
stroke:#840000; stroke-width:100; stroke-opacity:1; 
stroke-linecap:round; stroke-linejoin:round;">
</g>
<g style="fill:#840000; fill-opacity:0.0; 
stroke:#840000; stroke-width:60; stroke-opacity:1; 
stroke-linecap:round; stroke-linejoin:round;">
<text x="4330" y="53400"
textLength="570" font-size="680" lengthAdjust="spacingAndGlyphs"
text-anchor="middle" opacity="0">C</text>
<path d="M4480 53330
L4460 53350
L4390 53380
L4340 53380
L4260 53350
L4220 53300
L4190 53250
L4170 53160
L4170 53080
L4190 52990
L4220 52940
L4260 52890
L4340 52870
L4390 52870
L4460 52890
L4480 52910
" />
</g>
<g style="fill:#840000; fill-opacity:0.0; 
stroke:#840000; stroke-width:100; stroke-opacity:1; 
stroke-linecap:round; stroke-linejoin:round;">
</g>
<g style="fill:#840000; fill-opacity:0.0; 
stroke:#840000; stroke-width:60; stroke-opacity:1; 
stroke-linecap:round; stroke-linejoin:round;">
<text x="4330" y="73080"
textLength="570" font-size="680" lengthAdjust="spacingAndGlyphs"
text-anchor="middle" opacity="0">D</text>
<path d="M4190 73060
L4190 72550
L4310 72550
L4390 72570
L4430 72620
L4460 72670
L4480 72760
L4480 72840
L4460 72930
L4430 72980
L4390 73030
L4310 73060
L4190 73060
" />
</g>
<g style="fill:#840000; fill-opacity:0.0; 
stroke:#840000; stroke-width:100; stroke-opacity:1; 
stroke-linecap:round; stroke-linejoin:round;">
</g>
<g style="fill:#840000; fill-opacity:0.0; 
stroke:#840000; stroke-width:60; stroke-opacity:1; 
stroke-linecap:round; stroke-linejoin:round;">
<path d="M112990 23620
L112210 23620
" />
</g>
<g style="fill:#840000; fill-opacity:0.0; 
stroke:#840000; stroke-width:100; stroke-opacity:1; 
stroke-linecap:round; stroke-linejoin:round;">
</g>
<g style="fill:#840000; fill-opacity:0.0; 
stroke:#840000; stroke-width:60; stroke-opacity:1; 
stroke-linecap:round; stroke-linejoin:round;">
<path d="M112990 43310
L112210 43310
" />
</g>
<g style="fill:#840000; fill-opacity:0.0; 
stroke:#840000; stroke-width:100; stroke-opacity:1; 
stroke-linecap:round; stroke-linejoin:round;">
</g>
<g style="fill:#840000; fill-opacity:0.0; 
stroke:#840000; stroke-width:60; stroke-opacity:1; 
stroke-linecap:round; stroke-linejoin:round;">
<path d="M112990 62990
L112210 62990
" />
</g>
<g style="fill:#840000; fill-opacity:0.0; 
stroke:#840000; stroke-width:100; stroke-opacity:1; 
stroke-linecap:round; stroke-linejoin:round;">
</g>
<g style="fill:#840000; fill-opacity:0.0; 
stroke:#840000; stroke-width:60; stroke-opacity:1; 
stroke-linecap:round; stroke-linejoin:round;">
<text x="112600" y="14030"
textLength="500" font-size="680" lengthAdjust="spacingAndGlyphs"
text-anchor="middle" opacity="0">A</text>
<path d="M112470 13860
L112720 13860
" />
<path d="M112430 14010
L112600 13500
L112770 14010
" />
</g>
<g style="fill:#840000; fill-opacity:0.0; 
stroke:#840000; stroke-width:100; stroke-opacity:1; 
stroke-linecap:round; stroke-linejoin:round;">
</g>
<g style="fill:#840000; fill-opacity:0.0; 
stroke:#840000; stroke-width:60; stroke-opacity:1; 
stroke-linecap:round; stroke-linejoin:round;">
<text x="112600" y="33710"
textLength="570" font-size="680" lengthAdjust="spacingAndGlyphs"
text-anchor="middle" opacity="0">B</text>
<path d="M112630 33420
L112700 33440
L112730 33470
L112750 33520
L112750 33590
L112730 33640
L112700 33660
L112660 33690
L112460 33690
L112460 33180
L112630 33180
L112680 33200
L112700 33220
L112730 33270
L112730 33320
L112700 33370
L112680 33390
L112630 33420
L112460 33420
" />
</g>
<g style="fill:#840000; fill-opacity:0.0; 
stroke:#840000; stroke-width:100; stroke-opacity:1; 
stroke-linecap:round; stroke-linejoin:round;">
</g>
<g style="fill:#840000; fill-opacity:0.0; 
stroke:#840000; stroke-width:60; stroke-opacity:1; 
stroke-linecap:round; stroke-linejoin:round;">
<text x="112600" y="53400"
textLength="570" font-size="680" lengthAdjust="spacingAndGlyphs"
text-anchor="middle" opacity="0">C</text>
<path d="M112750 53330
L112730 53350
L112660 53380
L112610 53380
L112530 53350
L112490 53300
L112460 53250
L112440 53160
L112440 53080
L112460 52990
L112490 52940
L112530 52890
L112610 52870
L112660 52870
L112730 52890
L112750 52910
" />
</g>
<g style="fill:#840000; fill-opacity:0.0; 
stroke:#840000; stroke-width:100; stroke-opacity:1; 
stroke-linecap:round; stroke-linejoin:round;">
</g>
<g style="fill:#840000; fill-opacity:0.0; 
stroke:#840000; stroke-width:60; stroke-opacity:1; 
stroke-linecap:round; stroke-linejoin:round;">
<text x="112600" y="73080"
textLength="570" font-size="680" lengthAdjust="spacingAndGlyphs"
text-anchor="middle" opacity="0">D</text>
<path d="M112460 73060
L112460 72550
L112580 72550
L112660 72570
L112700 72620
L112730 72670
L112750 72760
L112750 72840
L112730 72930
L112700 72980
L112660 73030
L112580 73060
L112460 73060
" />
</g>
<g style="fill:#840000; fill-opacity:0.0; 
stroke:#840000; stroke-width:100; stroke-opacity:1; 
stroke-linecap:round; stroke-linejoin:round;">
</g>
<g style="fill:#840000; fill-opacity:0.0; 
stroke:#840000; stroke-width:60; stroke-opacity:1; 
stroke-linecap:round; stroke-linejoin:round;">
<text x="78740" y="76320"
textLength="2760" font-size="780" lengthAdjust="spacingAndGlyphs"
text-anchor="start" opacity="0">Date: </text>
<path d="M78910 76290
L78910 75700
L79050 75700
L79130 75730
L79190 75790
L79210 75840
L79240 75950
L79240 76040
L79210 76150
L79190 76210
L79130 76260
L79050 76290
L78910 76290
" />
<path d="M79750 76290
L79750 75980
L79720 75930
L79660 75900
L79550 75900
L79500 75930
" />
<path d="M79750 76260
L79690 76290
L79550 76290
L79500 76260
L79470 76210
L79470 76150
L79500 76100
L79550 76070
L79690 76070
L79750 76040
" />
<path d="M79950 75900
L80170 75900
" />
<path d="M80030 75700
L80030 76210
L80060 76260
L80110 76290
L80170 76290
" />
<path d="M80590 76260
L80540 76290
L80420 76290
L80370 76260
L80340 76210
L80340 75980
L80370 75930
L80420 75900
L80540 75900
L80590 75930
L80620 75980
L80620 76040
L80340 76100
" />
<path d="M80870 76240
L80900 76260
L80870 76290
L80840 76260
L80870 76240
L80870 76290
" />
<path d="M80870 75930
L80900 75950
L80870 75980
L80840 75950
L80870 75930
L80870 75980
" />
</g>
<g style="fill:#840000; fill-opacity:0.0; 
stroke:#840000; stroke-width:100; stroke-opacity:1; 
stroke-linecap:round; stroke-linejoin:round;">
</g>
<g style="fill:#840000; fill-opacity:0.0; 
stroke:#840000; stroke-width:60; stroke-opacity:1; 
stroke-linecap:round; stroke-linejoin:round;">
<path d="M69690 76580
L112210 76580
" />
</g>
<g style="fill:#840000; fill-opacity:0.0; 
stroke:#840000; stroke-width:100; stroke-opacity:1; 
stroke-linecap:round; stroke-linejoin:round;">
</g>
<g style="fill:#840000; fill-opacity:0.0; 
stroke:#840000; stroke-width:60; stroke-opacity:1; 
stroke-linecap:round; stroke-linejoin:round;">
<text x="70080" y="77420"
textLength="21950" font-size="780" lengthAdjust="spacingAndGlyphs"
text-anchor="start" opacity="0">KiCad E.D.A.  eeschema 5.1.5+dfsg1-2~bpo10+1</text>
<path d="M70250 77390
L70250 76800
" />
<path d="M70580 77390
L70330 77050
" />
<path d="M70580 76800
L70250 77140
" />
<path d="M70840 77390
L70840 77000
" />
<path d="M70840 76800
L70810 76830
L70840 76860
L70860 76830
L70840 76800
L70840 76860
" />
<path d="M71450 77340
L71430 77360
L71340 77390
L71290 77390
L71200 77360
L71140 77310
L71120 77250
L71090 77140
L71090 77050
L71120 76940
L71140 76890
L71200 76830
L71290 76800
L71340 76800
L71430 76830
L71450 76860
" />
<path d="M71960 77390
L71960 77080
L71930 77030
L71880 77000
L71760 77000
L71710 77030
" />
<path d="M71960 77360
L71900 77390
L71760 77390
L71710 77360
L71680 77310
L71680 77250
L71710 77200
L71760 77170
L71900 77170
L71960 77140
" />
<path d="M72490 77390
L72490 76800
" />
<path d="M72490 77360
L72440 77390
L72320 77390
L72270 77360
L72240 77340
L72210 77280
L72210 77110
L72240 77050
L72270 77030
L72320 77000
L72440 77000
L72490 77030
" />
<path d="M73220 77080
L73420 77080
" />
<path d="M73500 77390
L73220 77390
L73220 76800
L73500 76800
" />
<path d="M73760 77340
L73790 77360
L73760 77390
L73730 77360
L73760 77340
L73760 77390
" />
<path d="M74040 77390
L74040 76800
L74180 76800
L74260 76830
L74320 76890
L74350 76940
L74380 77050
L74380 77140
L74350 77250
L74320 77310
L74260 77360
L74180 77390
L74040 77390
" />
<path d="M74630 77340
L74660 77360
L74630 77390
L74600 77360
L74630 77340
L74630 77390
" />
<path d="M74880 77220
L75160 77220
" />
<path d="M74830 77390
L75020 76800
L75220 77390
" />
<path d="M75420 77340
L75440 77360
L75420 77390
L75390 77360
L75420 77340
L75420 77390
" />
<path d="M76820 77360
L76760 77390
L76650 77390
L76600 77360
L76570 77310
L76570 77080
L76600 77030
L76650 77000
L76760 77000
L76820 77030
L76850 77080
L76850 77140
L76570 77200
" />
<path d="M77330 77360
L77270 77390
L77160 77390
L77100 77360
L77070 77310
L77070 77080
L77100 77030
L77160 77000
L77270 77000
L77330 77030
L77350 77080
L77350 77140
L77070 77200
" />
<path d="M77580 77360
L77630 77390
L77750 77390
L77800 77360
L77830 77310
L77830 77280
L77800 77220
L77750 77200
L77660 77200
L77610 77170
L77580 77110
L77580 77080
L77610 77030
L77660 77000
L77750 77000
L77800 77030
" />
<path d="M78340 77360
L78280 77390
L78170 77390
L78110 77360
L78080 77340
L78060 77280
L78060 77110
L78080 77050
L78110 77030
L78170 77000
L78280 77000
L78340 77030
" />
<path d="M78590 77390
L78590 76800
" />
<path d="M78840 77390
L78840 77080
L78810 77030
L78760 77000
L78670 77000
L78620 77030
L78590 77050
" />
<path d="M79350 77360
L79290 77390
L79180 77390
L79120 77360
L79100 77310
L79100 77080
L79120 77030
L79180 77000
L79290 77000
L79350 77030
L79380 77080
L79380 77140
L79100 77200
" />
<path d="M79630 77390
L79630 77000
" />
<path d="M79630 77050
L79660 77030
L79710 77000
L79800 77000
L79850 77030
L79880 77080
L79880 77390
" />
<path d="M79880 77080
L79910 77030
L79970 77000
L80050 77000
L80110 77030
L80140 77080
L80140 77390
" />
<path d="M80670 77390
L80670 77080
L80640 77030
L80580 77000
L80470 77000
L80420 77030
" />
<path d="M80670 77360
L80610 77390
L80470 77390
L80420 77360
L80390 77310
L80390 77250
L80420 77200
L80470 77170
L80610 77170
L80670 77140
" />
<path d="M81680 76800
L81400 76800
L81370 77080
L81400 77050
L81460 77030
L81600 77030
L81650 77050
L81680 77080
L81710 77140
L81710 77280
L81680 77340
L81650 77360
L81600 77390
L81460 77390
L81400 77360
L81370 77340
" />
<path d="M81960 77340
L81990 77360
L81960 77390
L81930 77360
L81960 77340
L81960 77390
" />
<path d="M82550 77390
L82210 77390
" />
<path d="M82380 77390
L82380 76800
L82330 76890
L82270 76940
L82210 76970
" />
<path d="M82800 77340
L82830 77360
L82800 77390
L82780 77360
L82800 77340
L82800 77390
" />
<path d="M83370 76800
L83090 76800
L83060 77080
L83090 77050
L83140 77030
L83280 77030
L83340 77050
L83370 77080
L83390 77140
L83390 77280
L83370 77340
L83340 77360
L83280 77390
L83140 77390
L83090 77360
L83060 77340
" />
<path d="M83650 77170
L84100 77170
" />
<path d="M83870 77390
L83870 76940
" />
<path d="M84630 77390
L84630 76800
" />
<path d="M84630 77360
L84570 77390
L84460 77390
L84410 77360
L84380 77340
L84350 77280
L84350 77110
L84380 77050
L84410 77030
L84460 77000
L84570 77000
L84630 77030
" />
<path d="M84830 77000
L85050 77000
" />
<path d="M84910 77390
L84910 76890
L84940 76830
L85000 76800
L85050 76800
" />
<path d="M85220 77360
L85280 77390
L85390 77390
L85450 77360
L85470 77310
L85470 77280
L85450 77220
L85390 77200
L85300 77200
L85250 77170
L85220 77110
L85220 77080
L85250 77030
L85300 77000
L85390 77000
L85450 77030
" />
<path d="M85980 77000
L85980 77480
L85950 77530
L85920 77560
L85870 77590
L85780 77590
L85730 77560
" />
<path d="M85980 77360
L85920 77390
L85810 77390
L85750 77360
L85730 77340
L85700 77280
L85700 77110
L85730 77050
L85750 77030
L85810 77000
L85920 77000
L85980 77030
" />
<path d="M86570 77390
L86230 77390
" />
<path d="M86400 77390
L86400 76800
L86340 76890
L86290 76940
L86230 76970
" />
<path d="M86820 77170
L87270 77170
" />
<path d="M87520 76860
L87550 76830
L87610 76800
L87750 76800
L87810 76830
L87830 76860
L87860 76910
L87860 76970
L87830 77050
L87500 77390
L87860 77390
" />
<path d="M87970 76640
L88510 76640
" />
<path d="M88110 77390
L88110 76800
" />
<path d="M88110 77030
L88170 77000
L88280 77000
L88340 77030
L88370 77050
L88400 77110
L88400 77280
L88370 77340
L88340 77360
L88280 77390
L88170 77390
L88110 77360
" />
<path d="M88510 76640
L89040 76640
" />
<path d="M88650 77000
L88650 77590
" />
<path d="M88650 77030
L88700 77000
L88820 77000
L88870 77030
L88900 77050
L88930 77110
L88930 77280
L88900 77340
L88870 77360
L88820 77390
L88700 77390
L88650 77360
" />
<path d="M89040 76640
L89580 76640
" />
<path d="M89270 77390
L89210 77360
L89180 77340
L89150 77280
L89150 77110
L89180 77050
L89210 77030
L89270 77000
L89350 77000
L89410 77030
L89430 77050
L89460 77110
L89460 77280
L89430 77340
L89410 77360
L89350 77390
L89270 77390
" />
<path d="M89580 76640
L90140 76640
" />
<path d="M90020 77390
L89690 77390
" />
<path d="M89860 77390
L89860 76800
L89800 76890
L89740 76940
L89690 76970
" />
<path d="M90140 76640
L90700 76640
" />
<path d="M90390 76800
L90450 76800
L90500 76830
L90530 76860
L90560 76910
L90590 77030
L90590 77170
L90560 77280
L90530 77340
L90500 77360
L90450 77390
L90390 77390
L90330 77360
L90310 77340
L90280 77280
L90250 77170
L90250 77030
L90280 76910
L90310 76860
L90330 76830
L90390 76800
" />
<path d="M90700 76640
L91430 76640
" />
<path d="M90840 77170
L91290 77170
" />
<path d="M91060 77390
L91060 76940
" />
<path d="M91430 76640
L91990 76640
" />
<path d="M91880 77390
L91540 77390
" />
<path d="M91710 77390
L91710 76800
L91650 76890
L91600 76940
L91540 76970
" />
</g>
<g style="fill:#840000; fill-opacity:0.0; 
stroke:#840000; stroke-width:100; stroke-opacity:1; 
stroke-linecap:round; stroke-linejoin:round;">
</g>
<g style="fill:#840000; fill-opacity:0.0; 
stroke:#840000; stroke-width:60; stroke-opacity:1; 
stroke-linecap:round; stroke-linejoin:round;">
<path d="M69690 75400
L112210 75400
" />
</g>
<g style="fill:#840000; fill-opacity:0.0; 
stroke:#840000; stroke-width:100; stroke-opacity:1; 
stroke-linecap:round; stroke-linejoin:round;">
</g>
<g style="fill:#840000; fill-opacity:0.0; 
stroke:#840000; stroke-width:120; stroke-opacity:1; 
stroke-linecap:round; stroke-linejoin:round;">
<text x="103540" y="76320"
textLength="2340" font-size="780" lengthAdjust="spacingAndGlyphs"
text-anchor="start" opacity="0">Rev: </text>
<path d="M104090 76290
L103890 76010
" />
<path d="M103750 76290
L103750 75700
L103980 75700
L104030 75730
L104060 75760
L104090 75810
L104090 75900
L104060 75950
L104030 75980
L103980 76010
L103750 76010
" />
<path d="M104570 76260
L104510 76290
L104400 76290
L104340 76260
L104320 76210
L104320 75980
L104340 75930
L104400 75900
L104510 75900
L104570 75930
L104600 75980
L104600 76040
L104320 76100
" />
<path d="M104790 75900
L104930 76290
L105070 75900
" />
<path d="M105300 76240
L105330 76260
L105300 76290
L105270 76260
L105300 76240
L105300 76290
" />
<path d="M105300 75930
L105330 75950
L105300 75980
L105270 75950
L105300 75930
L105300 75980
" />
</g>
<g style="fill:#840000; fill-opacity:0.0; 
stroke:#840000; stroke-width:100; stroke-opacity:1; 
stroke-linecap:round; stroke-linejoin:round;">
</g>
<g style="fill:#840000; fill-opacity:0.0; 
stroke:#840000; stroke-width:60; stroke-opacity:1; 
stroke-linecap:round; stroke-linejoin:round;">
<text x="70080" y="76320"
textLength="3780" font-size="780" lengthAdjust="spacingAndGlyphs"
text-anchor="start" opacity="0">Size: A4</text>
<path d="M70220 76260
L70300 76290
L70440 76290
L70500 76260
L70530 76240
L70550 76180
L70550 76120
L70530 76070
L70500 76040
L70440 76010
L70330 75980
L70270 75950
L70250 75930
L70220 75870
L70220 75810
L70250 75760
L70270 75730
L70330 75700
L70470 75700
L70550 75730
" />
<path d="M70810 76290
L70810 75900
" />
<path d="M70810 75700
L70780 75730
L70810 75760
L70840 75730
L70810 75700
L70810 75760
" />
<path d="M71030 75900
L71340 75900
L71030 76290
L71340 76290
" />
<path d="M71790 76260
L71730 76290
L71620 76290
L71570 76260
L71540 76210
L71540 75980
L71570 75930
L71620 75900
L71730 75900
L71790 75930
L71820 75980
L71820 76040
L71540 76100
" />
<path d="M72070 76240
L72100 76260
L72070 76290
L72040 76260
L72070 76240
L72070 76290
" />
<path d="M72070 75930
L72100 75950
L72070 75980
L72040 75950
L72070 75930
L72070 75980
" />
<path d="M72770 76120
L73060 76120
" />
<path d="M72720 76290
L72910 75700
L73110 76290
" />
<path d="M73560 75900
L73560 76290
" />
<path d="M73420 75670
L73280 76100
L73650 76100
" />
</g>
<g style="fill:#840000; fill-opacity:0.0; 
stroke:#840000; stroke-width:100; stroke-opacity:1; 
stroke-linecap:round; stroke-linejoin:round;">
</g>
<g style="fill:#840000; fill-opacity:0.0; 
stroke:#840000; stroke-width:60; stroke-opacity:1; 
stroke-linecap:round; stroke-linejoin:round;">
<text x="103540" y="77420"
textLength="3350" font-size="780" lengthAdjust="spacingAndGlyphs"
text-anchor="start" opacity="0">Id: 7/8</text>
<path d="M103710 77390
L103710 76800
" />
<path d="M104240 77390
L104240 76800
" />
<path d="M104240 77360
L104180 77390
L104070 77390
L104010 77360
L103990 77340
L103960 77280
L103960 77110
L103990 77050
L104010 77030
L104070 77000
L104180 77000
L104240 77030
" />
<path d="M104520 77340
L104550 77360
L104520 77390
L104490 77360
L104520 77340
L104520 77390
" />
<path d="M104520 77030
L104550 77050
L104520 77080
L104490 77050
L104520 77030
L104520 77080
" />
<path d="M105190 76800
L105590 76800
L105340 77390
" />
<path d="M106230 76770
L105730 77530
" />
<path d="M106520 77050
L106460 77030
L106430 77000
L106400 76940
L106400 76910
L106430 76860
L106460 76830
L106520 76800
L106630 76800
L106680 76830
L106710 76860
L106740 76910
L106740 76940
L106710 77000
L106680 77030
L106630 77050
L106520 77050
L106460 77080
L106430 77110
L106400 77170
L106400 77280
L106430 77340
L106460 77360
L106520 77390
L106630 77390
L106680 77360
L106710 77340
L106740 77280
L106740 77170
L106710 77110
L106680 77080
L106630 77050
" />
</g>
<g style="fill:#840000; fill-opacity:0.0; 
stroke:#840000; stroke-width:100; stroke-opacity:1; 
stroke-linecap:round; stroke-linejoin:round;">
</g>
<g style="fill:#840000; fill-opacity:0.0; 
stroke:#840000; stroke-width:60; stroke-opacity:1; 
stroke-linecap:round; stroke-linejoin:round;">
<path d="M69690 73820
L112210 73820
" />
</g>
<g style="fill:#840000; fill-opacity:0.0; 
stroke:#840000; stroke-width:100; stroke-opacity:1; 
stroke-linecap:round; stroke-linejoin:round;">
</g>
<g style="fill:#840000; fill-opacity:0.0; 
stroke:#840000; stroke-width:160; stroke-opacity:1; 
stroke-linecap:round; stroke-linejoin:round;">
<text x="70080" y="74920"
textLength="3710" font-size="1050" lengthAdjust="spacingAndGlyphs"
text-anchor="start" opacity="0">Title: </text>
<path d="M70360 74090
L70810 74090
" />
<path d="M70480 74880
L70580 74090
" />
<path d="M70970 74880
L71040 74360
" />
<path d="M71070 74090
L71030 74130
L71060 74170
L71110 74130
L71070 74090
L71060 74170
" />
<path d="M71300 74360
L71600 74360
" />
<path d="M71450 74090
L71360 74770
L71390 74840
L71460 74880
L71540 74880
" />
<path d="M71910 74880
L71840 74840
L71820 74770
L71900 74090
" />
<path d="M72520 74840
L72440 74880
L72290 74880
L72220 74840
L72190 74770
L72230 74470
L72280 74390
L72360 74360
L72510 74360
L72580 74390
L72610 74470
L72600 74540
L72210 74620
" />
<path d="M72900 74810
L72930 74840
L72890 74880
L72860 74840
L72900 74810
L72890 74880
" />
<path d="M72950 74390
L72990 74430
L72940 74470
L72910 74430
L72950 74390
L72940 74470
" />
</g>
<g style="fill:#840000; fill-opacity:0.0; 
stroke:#840000; stroke-width:100; stroke-opacity:1; 
stroke-linecap:round; stroke-linejoin:round;">
</g>
<g style="fill:#840000; fill-opacity:0.0; 
stroke:#840000; stroke-width:60; stroke-opacity:1; 
stroke-linecap:round; stroke-linejoin:round;">
<text x="70080" y="73400"
textLength="7740" font-size="780" lengthAdjust="spacingAndGlyphs"
text-anchor="start" opacity="0">File: Pi-Batt.sch</text>
<path d="M70440 73060
L70250 73060
" />
<path d="M70250 73370
L70250 72780
L70530 72780
" />
<path d="M70750 73370
L70750 72980
" />
<path d="M70750 72780
L70720 72810
L70750 72840
L70780 72810
L70750 72780
L70750 72840
" />
<path d="M71120 73370
L71060 73340
L71030 73290
L71030 72780
" />
<path d="M71570 73340
L71510 73370
L71400 73370
L71340 73340
L71310 73290
L71310 73060
L71340 73010
L71400 72980
L71510 72980
L71570 73010
L71590 73060
L71590 73120
L71310 73180
" />
<path d="M71850 73320
L71880 73340
L71850 73370
L71820 73340
L71850 73320
L71850 73370
" />
<path d="M71850 73010
L71880 73030
L71850 73060
L71820 73030
L71850 73010
L71850 73060
" />
<path d="M72580 73370
L72580 72780
L72800 72780
L72860 72810
L72890 72840
L72910 72890
L72910 72980
L72890 73030
L72860 73060
L72800 73090
L72580 73090
" />
<path d="M73170 73370
L73170 72980
" />
<path d="M73170 72780
L73140 72810
L73170 72840
L73200 72810
L73170 72780
L73170 72840
" />
<path d="M73450 73150
L73900 73150
" />
<path d="M74380 73060
L74460 73090
L74490 73120
L74520 73180
L74520 73260
L74490 73320
L74460 73340
L74400 73370
L74180 73370
L74180 72780
L74380 72780
L74430 72810
L74460 72840
L74490 72890
L74490 72950
L74460 73010
L74430 73030
L74380 73060
L74180 73060
" />
<path d="M75020 73370
L75020 73060
L74990 73010
L74940 72980
L74830 72980
L74770 73010
" />
<path d="M75020 73340
L74970 73370
L74830 73370
L74770 73340
L74740 73290
L74740 73230
L74770 73180
L74830 73150
L74970 73150
L75020 73120
" />
<path d="M75220 72980
L75440 72980
" />
<path d="M75300 72780
L75300 73290
L75330 73340
L75390 73370
L75440 73370
" />
<path d="M75560 72980
L75780 72980
" />
<path d="M75640 72780
L75640 73290
L75670 73340
L75720 73370
L75780 73370
" />
<path d="M75980 73320
L76010 73340
L75980 73370
L75950 73340
L75980 73320
L75980 73370
" />
<path d="M76230 73340
L76290 73370
L76400 73370
L76450 73340
L76480 73290
L76480 73260
L76450 73200
L76400 73180
L76310 73180
L76260 73150
L76230 73090
L76230 73060
L76260 73010
L76310 72980
L76400 72980
L76450 73010
" />
<path d="M76990 73340
L76930 73370
L76820 73370
L76760 73340
L76740 73320
L76710 73260
L76710 73090
L76740 73030
L76760 73010
L76820 72980
L76930 72980
L76990 73010
" />
<path d="M77240 73370
L77240 72780
" />
<path d="M77490 73370
L77490 73060
L77470 73010
L77410 72980
L77330 72980
L77270 73010
L77240 73030
" />
</g>
<g style="fill:#840000; fill-opacity:0.0; 
stroke:#840000; stroke-width:100; stroke-opacity:1; 
stroke-linecap:round; stroke-linejoin:round;">
</g>
<g style="fill:#840000; fill-opacity:0.0; 
stroke:#840000; stroke-width:60; stroke-opacity:1; 
stroke-linecap:round; stroke-linejoin:round;">
<path d="M69690 71460
L112210 71460
" />
</g>
<g style="fill:#840000; fill-opacity:0.0; 
stroke:#840000; stroke-width:100; stroke-opacity:1; 
stroke-linecap:round; stroke-linejoin:round;">
</g>
<g style="fill:#840000; fill-opacity:0.0; 
stroke:#840000; stroke-width:60; stroke-opacity:1; 
stroke-linecap:round; stroke-linejoin:round;">
<text x="70080" y="72340"
textLength="7870" font-size="780" lengthAdjust="spacingAndGlyphs"
text-anchor="start" opacity="0">Sheet: /Pi-Batt/</text>
<path d="M70220 72280
L70300 72310
L70440 72310
L70500 72280
L70530 72260
L70550 72200
L70550 72140
L70530 72090
L70500 72060
L70440 72030
L70330 72000
L70270 71970
L70250 71950
L70220 71890
L70220 71830
L70250 71780
L70270 71750
L70330 71720
L70470 71720
L70550 71750
" />
<path d="M70810 72310
L70810 71720
" />
<path d="M71060 72310
L71060 72000
L71030 71950
L70980 71920
L70890 71920
L70840 71950
L70810 71970
" />
<path d="M71570 72280
L71510 72310
L71400 72310
L71340 72280
L71310 72230
L71310 72000
L71340 71950
L71400 71920
L71510 71920
L71570 71950
L71590 72000
L71590 72060
L71310 72120
" />
<path d="M72070 72280
L72020 72310
L71900 72310
L71850 72280
L71820 72230
L71820 72000
L71850 71950
L71900 71920
L72020 71920
L72070 71950
L72100 72000
L72100 72060
L71820 72120
" />
<path d="M72270 71920
L72490 71920
" />
<path d="M72350 71720
L72350 72230
L72380 72280
L72440 72310
L72490 72310
" />
<path d="M72690 72260
L72720 72280
L72690 72310
L72660 72280
L72690 72260
L72690 72310
" />
<path d="M72690 71950
L72720 71970
L72690 72000
L72660 71970
L72690 71950
L72690 72000
" />
<path d="M73840 71690
L73340 72450
" />
<path d="M74040 72310
L74040 71720
L74260 71720
L74320 71750
L74350 71780
L74380 71830
L74380 71920
L74350 71970
L74320 72000
L74260 72030
L74040 72030
" />
<path d="M74630 72310
L74630 71920
" />
<path d="M74630 71720
L74600 71750
L74630 71780
L74660 71750
L74630 71720
L74630 71780
" />
<path d="M74910 72090
L75360 72090
" />
<path d="M75840 72000
L75920 72030
L75950 72060
L75980 72120
L75980 72200
L75950 72260
L75920 72280
L75860 72310
L75640 72310
L75640 71720
L75840 71720
L75890 71750
L75920 71780
L75950 71830
L75950 71890
L75920 71950
L75890 71970
L75840 72000
L75640 72000
" />
<path d="M76480 72310
L76480 72000
L76450 71950
L76400 71920
L76290 71920
L76230 71950
" />
<path d="M76480 72280
L76430 72310
L76290 72310
L76230 72280
L76200 72230
L76200 72170
L76230 72120
L76290 72090
L76430 72090
L76480 72060
" />
<path d="M76680 71920
L76900 71920
" />
<path d="M76760 71720
L76760 72230
L76790 72280
L76850 72310
L76900 72310
" />
<path d="M77020 71920
L77240 71920
" />
<path d="M77100 71720
L77100 72230
L77130 72280
L77190 72310
L77240 72310
" />
<path d="M77860 71690
L77350 72450
" />
</g>
<g style="fill:#840000; fill-opacity:0.0; 
stroke:#840000; stroke-width:100; stroke-opacity:1; 
stroke-linecap:round; stroke-linejoin:round;">
</g>
<g style="fill:#840000; fill-opacity:0.0; 
stroke:#840000; stroke-width:60; stroke-opacity:1; 
stroke-linecap:round; stroke-linejoin:round;">
<path d="M77560 75400
L77560 76580
" />
</g>
<g style="fill:#840000; fill-opacity:0.0; 
stroke:#840000; stroke-width:100; stroke-opacity:1; 
stroke-linecap:round; stroke-linejoin:round;">
</g>
<g style="fill:#840000; fill-opacity:0.0; 
stroke:#840000; stroke-width:60; stroke-opacity:1; 
stroke-linecap:round; stroke-linejoin:round;">
<path d="M102760 75400
L102760 77960
" />
</g>
<g style="fill:#848400; fill-opacity:0.0; 
stroke:#848400; stroke-width:60; stroke-opacity:1; 
stroke-linecap:round; stroke-linejoin:round;">
<text x="68900" y="21750"
textLength="1750" font-size="660" lengthAdjust="spacingAndGlyphs"
text-anchor="end" opacity="0">BATT</text>
<path d="M67460 21460
L67530 21480
L67560 21510
L67580 21550
L67580 21630
L67560 21670
L67530 21700
L67480 21720
L67290 21720
L67290 21220
L67460 21220
L67510 21250
L67530 21270
L67560 21320
L67560 21360
L67530 21410
L67510 21440
L67460 21460
L67290 21460
" />
<path d="M67770 21580
L68010 21580
" />
<path d="M67720 21720
L67890 21220
L68060 21720
" />
<path d="M68150 21220
L68440 21220
" />
<path d="M68290 21720
L68290 21220
" />
<path d="M68530 21220
L68820 21220
" />
<path d="M68670 21720
L68670 21220
" />
</g>
<g style="fill:#848400; fill-opacity:0.0; 
stroke:#848400; stroke-width:100; stroke-opacity:1; 
stroke-linecap:round; stroke-linejoin:round;">
<path style="fill:#848400; fill-opacity:0.0; 
stroke:#848400; stroke-width:100; stroke-opacity:1; 
stroke-linecap:round; stroke-linejoin:round;fill:none"
d="M 69500,21500
69250,21250
69000,21500
69250,21750
Z" /> 
</g>
<g style="fill:#848400; fill-opacity:0.0; 
stroke:#848400; stroke-width:60; stroke-opacity:1; 
stroke-linecap:round; stroke-linejoin:round;">
</g>
<g style="fill:#0000C2; fill-opacity:0.0; 
stroke:#0000C2; stroke-width:60; stroke-opacity:1; 
stroke-linecap:round; stroke-linejoin:round;">
<text x="10500" y="54280"
textLength="2180" font-size="660" lengthAdjust="spacingAndGlyphs"
text-anchor="start" opacity="0">NOTE:</text>
<path d="M10640 54250
L10640 53750
L10930 54250
L10930 53750
" />
<path d="M11260 53750
L11360 53750
L11410 53780
L11450 53820
L11480 53920
L11480 54080
L11450 54180
L11410 54230
L11360 54250
L11260 54250
L11220 54230
L11170 54180
L11140 54080
L11140 53920
L11170 53820
L11220 53780
L11260 53750
" />
<path d="M11620 53750
L11910 53750
" />
<path d="M11760 54250
L11760 53750
" />
<path d="M12070 53990
L12240 53990
" />
<path d="M12310 54250
L12070 54250
L12070 53750
L12310 53750
" />
<path d="M12530 54200
L12550 54230
L12530 54250
L12500 54230
L12530 54200
L12530 54250
" />
<path d="M12530 53940
L12550 53970
L12530 53990
L12500 53970
L12530 53940
L12530 53990
" />
<text x="10500" y="55090"
textLength="20820" font-size="660" lengthAdjust="spacingAndGlyphs"
text-anchor="start" opacity="0">Battery Connection will be made on this page, along </text>
<path d="M10810 54800
L10880 54820
L10910 54850
L10930 54890
L10930 54970
L10910 55010
L10880 55040
L10830 55060
L10640 55060
L10640 54560
L10810 54560
L10860 54590
L10880 54610
L10910 54660
L10910 54700
L10880 54750
L10860 54780
L10810 54800
L10640 54800
" />
<path d="M11360 55060
L11360 54800
L11330 54750
L11290 54730
L11190 54730
L11140 54750
" />
<path d="M11360 55040
L11310 55060
L11190 55060
L11140 55040
L11120 54990
L11120 54940
L11140 54890
L11190 54870
L11310 54870
L11360 54850
" />
<path d="M11530 54730
L11720 54730
" />
<path d="M11600 54560
L11600 54990
L11620 55040
L11670 55060
L11720 55060
" />
<path d="M11810 54730
L12000 54730
" />
<path d="M11880 54560
L11880 54990
L11910 55040
L11950 55060
L12000 55060
" />
<path d="M12360 55040
L12310 55060
L12220 55060
L12170 55040
L12140 54990
L12140 54800
L12170 54750
L12220 54730
L12310 54730
L12360 54750
L12380 54800
L12380 54850
L12140 54890
" />
<path d="M12600 55060
L12600 54730
" />
<path d="M12600 54820
L12620 54780
L12640 54750
L12690 54730
L12740 54730
" />
<path d="M12860 54730
L12980 55060
" />
<path d="M13100 54730
L12980 55060
L12930 55180
L12910 55200
L12860 55230
" />
<path d="M13950 55010
L13930 55040
L13860 55060
L13810 55060
L13740 55040
L13690 54990
L13670 54940
L13640 54850
L13640 54780
L13670 54680
L13690 54630
L13740 54590
L13810 54560
L13860 54560
L13930 54590
L13950 54610
" />
<path d="M14240 55060
L14190 55040
L14170 55010
L14140 54970
L14140 54820
L14170 54780
L14190 54750
L14240 54730
L14310 54730
L14360 54750
L14380 54780
L14410 54820
L14410 54970
L14380 55010
L14360 55040
L14310 55060
L14240 55060
" />
<path d="M14620 54730
L14620 55060
" />
<path d="M14620 54780
L14640 54750
L14690 54730
L14760 54730
L14810 54750
L14830 54800
L14830 55060
" />
<path d="M15070 54730
L15070 55060
" />
<path d="M15070 54780
L15100 54750
L15140 54730
L15220 54730
L15260 54750
L15290 54800
L15290 55060
" />
<path d="M15720 55040
L15670 55060
L15570 55060
L15530 55040
L15500 54990
L15500 54800
L15530 54750
L15570 54730
L15670 54730
L15720 54750
L15740 54800
L15740 54850
L15500 54890
" />
<path d="M16170 55040
L16120 55060
L16030 55060
L15980 55040
L15950 55010
L15930 54970
L15930 54820
L15950 54780
L15980 54750
L16030 54730
L16120 54730
L16170 54750
" />
<path d="M16310 54730
L16500 54730
" />
<path d="M16380 54560
L16380 54990
L16410 55040
L16450 55060
L16500 55060
" />
<path d="M16670 55060
L16670 54730
" />
<path d="M16670 54560
L16640 54590
L16670 54610
L16690 54590
L16670 54560
L16670 54610
" />
<path d="M16980 55060
L16930 55040
L16910 55010
L16880 54970
L16880 54820
L16910 54780
L16930 54750
L16980 54730
L17050 54730
L17100 54750
L17120 54780
L17140 54820
L17140 54970
L17120 55010
L17100 55040
L17050 55060
L16980 55060
" />
<path d="M17360 54730
L17360 55060
" />
<path d="M17360 54780
L17380 54750
L17430 54730
L17500 54730
L17550 54750
L17570 54800
L17570 55060
" />
<path d="M18140 54730
L18240 55060
L18330 54820
L18430 55060
L18530 54730
" />
<path d="M18720 55060
L18720 54730
" />
<path d="M18720 54560
L18690 54590
L18720 54610
L18740 54590
L18720 54560
L18720 54610
" />
<path d="M19030 55060
L18980 55040
L18950 54990
L18950 54560
" />
<path d="M19290 55060
L19240 55040
L19220 54990
L19220 54560
" />
<path d="M19860 55060
L19860 54560
" />
<path d="M19860 54750
L19910 54730
L20000 54730
L20050 54750
L20070 54780
L20100 54820
L20100 54970
L20070 55010
L20050 55040
L20000 55060
L19910 55060
L19860 55040
" />
<path d="M20500 55040
L20450 55060
L20360 55060
L20310 55040
L20290 54990
L20290 54800
L20310 54750
L20360 54730
L20450 54730
L20500 54750
L20530 54800
L20530 54850
L20290 54890
" />
<path d="M21120 55060
L21120 54730
" />
<path d="M21120 54780
L21140 54750
L21190 54730
L21260 54730
L21310 54750
L21330 54800
L21330 55060
" />
<path d="M21330 54800
L21360 54750
L21410 54730
L21480 54730
L21530 54750
L21550 54800
L21550 55060
" />
<path d="M22000 55060
L22000 54800
L21980 54750
L21930 54730
L21830 54730
L21790 54750
" />
<path d="M22000 55040
L21950 55060
L21830 55060
L21790 55040
L21760 54990
L21760 54940
L21790 54890
L21830 54870
L21950 54870
L22000 54850
" />
<path d="M22450 55060
L22450 54560
" />
<path d="M22450 55040
L22410 55060
L22310 55060
L22260 55040
L22240 55010
L22220 54970
L22220 54820
L22240 54780
L22260 54750
L22310 54730
L22410 54730
L22450 54750
" />
<path d="M22880 55040
L22830 55060
L22740 55060
L22690 55040
L22670 54990
L22670 54800
L22690 54750
L22740 54730
L22830 54730
L22880 54750
L22910 54800
L22910 54850
L22670 54890
" />
<path d="M23570 55060
L23530 55040
L23500 55010
L23480 54970
L23480 54820
L23500 54780
L23530 54750
L23570 54730
L23640 54730
L23690 54750
L23720 54780
L23740 54820
L23740 54970
L23720 55010
L23690 55040
L23640 55060
L23570 55060
" />
<path d="M23950 54730
L23950 55060
" />
<path d="M23950 54780
L23980 54750
L24030 54730
L24100 54730
L24140 54750
L24170 54800
L24170 55060
" />
<path d="M24720 54730
L24910 54730
" />
<path d="M24790 54560
L24790 54990
L24810 55040
L24860 55060
L24910 55060
" />
<path d="M25070 55060
L25070 54560
" />
<path d="M25290 55060
L25290 54800
L25260 54750
L25220 54730
L25140 54730
L25100 54750
L25070 54780
" />
<path d="M25530 55060
L25530 54730
" />
<path d="M25530 54560
L25500 54590
L25530 54610
L25550 54590
L25530 54560
L25530 54610
" />
<path d="M25740 55040
L25790 55060
L25880 55060
L25930 55040
L25950 54990
L25950 54970
L25930 54920
L25880 54890
L25810 54890
L25760 54870
L25740 54820
L25740 54800
L25760 54750
L25810 54730
L25880 54730
L25930 54750
" />
<path d="M26550 54730
L26550 55230
" />
<path d="M26550 54750
L26600 54730
L26690 54730
L26740 54750
L26760 54780
L26790 54820
L26790 54970
L26760 55010
L26740 55040
L26690 55060
L26600 55060
L26550 55040
" />
<path d="M27220 55060
L27220 54800
L27190 54750
L27140 54730
L27050 54730
L27000 54750
" />
<path d="M27220 55040
L27170 55060
L27050 55060
L27000 55040
L26980 54990
L26980 54940
L27000 54890
L27050 54870
L27170 54870
L27220 54850
" />
<path d="M27670 54730
L27670 55130
L27640 55180
L27620 55200
L27570 55230
L27500 55230
L27450 55200
" />
<path d="M27670 55040
L27620 55060
L27520 55060
L27480 55040
L27450 55010
L27430 54970
L27430 54820
L27450 54780
L27480 54750
L27520 54730
L27620 54730
L27670 54750
" />
<path d="M28100 55040
L28050 55060
L27950 55060
L27910 55040
L27880 54990
L27880 54800
L27910 54750
L27950 54730
L28050 54730
L28100 54750
L28120 54800
L28120 54850
L27880 54890
" />
<path d="M28360 55040
L28360 55060
L28330 55110
L28310 55130
" />
<path d="M29170 55060
L29170 54800
L29140 54750
L29100 54730
L29000 54730
L28950 54750
" />
<path d="M29170 55040
L29120 55060
L29000 55060
L28950 55040
L28930 54990
L28930 54940
L28950 54890
L29000 54870
L29120 54870
L29170 54850
" />
<path d="M29480 55060
L29430 55040
L29410 54990
L29410 54560
" />
<path d="M29740 55060
L29690 55040
L29670 55010
L29640 54970
L29640 54820
L29670 54780
L29690 54750
L29740 54730
L29810 54730
L29860 54750
L29880 54780
L29910 54820
L29910 54970
L29880 55010
L29860 55040
L29810 55060
L29740 55060
" />
<path d="M30120 54730
L30120 55060
" />
<path d="M30120 54780
L30140 54750
L30190 54730
L30260 54730
L30310 54750
L30330 54800
L30330 55060
" />
<path d="M30790 54730
L30790 55130
L30760 55180
L30740 55200
L30690 55230
L30620 55230
L30570 55200
" />
<path d="M30790 55040
L30740 55060
L30640 55060
L30600 55040
L30570 55010
L30550 54970
L30550 54820
L30570 54780
L30600 54750
L30640 54730
L30740 54730
L30790 54750
" />
<text x="10500" y="55900"
textLength="17060" font-size="660" lengthAdjust="spacingAndGlyphs"
text-anchor="start" opacity="0">with any battery specific protection circuits.</text>
<path d="M10600 55540
L10690 55870
L10790 55630
L10880 55870
L10980 55540
" />
<path d="M11170 55870
L11170 55540
" />
<path d="M11170 55370
L11140 55400
L11170 55420
L11190 55400
L11170 55370
L11170 55420
" />
<path d="M11330 55540
L11530 55540
" />
<path d="M11410 55370
L11410 55800
L11430 55850
L11480 55870
L11530 55870
" />
<path d="M11690 55870
L11690 55370
" />
<path d="M11910 55870
L11910 55610
L11880 55560
L11830 55540
L11760 55540
L11720 55560
L11690 55590
" />
<path d="M12740 55870
L12740 55610
L12720 55560
L12670 55540
L12570 55540
L12530 55560
" />
<path d="M12740 55850
L12690 55870
L12570 55870
L12530 55850
L12500 55800
L12500 55750
L12530 55700
L12570 55680
L12690 55680
L12740 55660
" />
<path d="M12980 55540
L12980 55870
" />
<path d="M12980 55590
L13000 55560
L13050 55540
L13120 55540
L13170 55560
L13190 55610
L13190 55870
" />
<path d="M13380 55540
L13500 55870
" />
<path d="M13620 55540
L13500 55870
L13450 55990
L13430 56010
L13380 56040
" />
<path d="M14190 55870
L14190 55370
" />
<path d="M14190 55560
L14240 55540
L14330 55540
L14380 55560
L14410 55590
L14430 55630
L14430 55780
L14410 55820
L14380 55850
L14330 55870
L14240 55870
L14190 55850
" />
<path d="M14860 55870
L14860 55610
L14830 55560
L14790 55540
L14690 55540
L14640 55560
" />
<path d="M14860 55850
L14810 55870
L14690 55870
L14640 55850
L14620 55800
L14620 55750
L14640 55700
L14690 55680
L14810 55680
L14860 55660
" />
<path d="M15030 55540
L15220 55540
" />
<path d="M15100 55370
L15100 55800
L15120 55850
L15170 55870
L15220 55870
" />
<path d="M15310 55540
L15500 55540
" />
<path d="M15380 55370
L15380 55800
L15410 55850
L15450 55870
L15500 55870
" />
<path d="M15860 55850
L15810 55870
L15720 55870
L15670 55850
L15640 55800
L15640 55610
L15670 55560
L15720 55540
L15810 55540
L15860 55560
L15880 55610
L15880 55660
L15640 55700
" />
<path d="M16100 55870
L16100 55540
" />
<path d="M16100 55630
L16120 55590
L16140 55560
L16190 55540
L16240 55540
" />
<path d="M16360 55540
L16480 55870
" />
<path d="M16600 55540
L16480 55870
L16430 55990
L16410 56010
L16360 56040
" />
<path d="M17140 55850
L17190 55870
L17290 55870
L17330 55850
L17360 55800
L17360 55780
L17330 55730
L17290 55700
L17220 55700
L17170 55680
L17140 55630
L17140 55610
L17170 55560
L17220 55540
L17290 55540
L17330 55560
" />
<path d="M17570 55540
L17570 56040
" />
<path d="M17570 55560
L17620 55540
L17720 55540
L17760 55560
L17790 55590
L17810 55630
L17810 55780
L17790 55820
L17760 55850
L17720 55870
L17620 55870
L17570 55850
" />
<path d="M18220 55850
L18170 55870
L18070 55870
L18030 55850
L18000 55800
L18000 55610
L18030 55560
L18070 55540
L18170 55540
L18220 55560
L18240 55610
L18240 55660
L18000 55700
" />
<path d="M18670 55850
L18620 55870
L18530 55870
L18480 55850
L18450 55820
L18430 55780
L18430 55630
L18450 55590
L18480 55560
L18530 55540
L18620 55540
L18670 55560
" />
<path d="M18880 55870
L18880 55540
" />
<path d="M18880 55370
L18860 55400
L18880 55420
L18910 55400
L18880 55370
L18880 55420
" />
<path d="M19050 55540
L19240 55540
" />
<path d="M19120 55870
L19120 55440
L19140 55400
L19190 55370
L19240 55370
" />
<path d="M19410 55870
L19410 55540
" />
<path d="M19410 55370
L19380 55400
L19410 55420
L19430 55400
L19410 55370
L19410 55420
" />
<path d="M19860 55850
L19810 55870
L19720 55870
L19670 55850
L19640 55820
L19620 55780
L19620 55630
L19640 55590
L19670 55560
L19720 55540
L19810 55540
L19860 55560
" />
<path d="M20450 55540
L20450 56040
" />
<path d="M20450 55560
L20500 55540
L20600 55540
L20640 55560
L20670 55590
L20690 55630
L20690 55780
L20670 55820
L20640 55850
L20600 55870
L20500 55870
L20450 55850
" />
<path d="M20910 55870
L20910 55540
" />
<path d="M20910 55630
L20930 55590
L20950 55560
L21000 55540
L21050 55540
" />
<path d="M21290 55870
L21240 55850
L21220 55820
L21190 55780
L21190 55630
L21220 55590
L21240 55560
L21290 55540
L21360 55540
L21410 55560
L21430 55590
L21450 55630
L21450 55780
L21430 55820
L21410 55850
L21360 55870
L21290 55870
" />
<path d="M21600 55540
L21790 55540
" />
<path d="M21670 55370
L21670 55800
L21690 55850
L21740 55870
L21790 55870
" />
<path d="M22140 55850
L22100 55870
L22000 55870
L21950 55850
L21930 55800
L21930 55610
L21950 55560
L22000 55540
L22100 55540
L22140 55560
L22170 55610
L22170 55660
L21930 55700
" />
<path d="M22600 55850
L22550 55870
L22450 55870
L22410 55850
L22380 55820
L22360 55780
L22360 55630
L22380 55590
L22410 55560
L22450 55540
L22550 55540
L22600 55560
" />
<path d="M22740 55540
L22930 55540
" />
<path d="M22810 55370
L22810 55800
L22830 55850
L22880 55870
L22930 55870
" />
<path d="M23100 55870
L23100 55540
" />
<path d="M23100 55370
L23070 55400
L23100 55420
L23120 55400
L23100 55370
L23100 55420
" />
<path d="M23410 55870
L23360 55850
L23330 55820
L23310 55780
L23310 55630
L23330 55590
L23360 55560
L23410 55540
L23480 55540
L23530 55560
L23550 55590
L23570 55630
L23570 55780
L23550 55820
L23530 55850
L23480 55870
L23410 55870
" />
<path d="M23790 55540
L23790 55870
" />
<path d="M23790 55590
L23810 55560
L23860 55540
L23930 55540
L23980 55560
L24000 55610
L24000 55870
" />
<path d="M24830 55850
L24790 55870
L24690 55870
L24640 55850
L24620 55820
L24600 55780
L24600 55630
L24620 55590
L24640 55560
L24690 55540
L24790 55540
L24830 55560
" />
<path d="M25050 55870
L25050 55540
" />
<path d="M25050 55370
L25030 55400
L25050 55420
L25070 55400
L25050 55370
L25050 55420
" />
<path d="M25290 55870
L25290 55540
" />
<path d="M25290 55630
L25310 55590
L25330 55560
L25380 55540
L25430 55540
" />
<path d="M25810 55850
L25760 55870
L25670 55870
L25620 55850
L25600 55820
L25570 55780
L25570 55630
L25600 55590
L25620 55560
L25670 55540
L25760 55540
L25810 55560
" />
<path d="M26240 55540
L26240 55870
" />
<path d="M26030 55540
L26030 55800
L26050 55850
L26100 55870
L26170 55870
L26220 55850
L26240 55820
" />
<path d="M26480 55870
L26480 55540
" />
<path d="M26480 55370
L26450 55400
L26480 55420
L26500 55400
L26480 55370
L26480 55420
" />
<path d="M26640 55540
L26830 55540
" />
<path d="M26720 55370
L26720 55800
L26740 55850
L26790 55870
L26830 55870
" />
<path d="M26980 55850
L27030 55870
L27120 55870
L27170 55850
L27190 55800
L27190 55780
L27170 55730
L27120 55700
L27050 55700
L27000 55680
L26980 55630
L26980 55610
L27000 55560
L27050 55540
L27120 55540
L27170 55560
" />
<path d="M27410 55820
L27430 55850
L27410 55870
L27380 55850
L27410 55820
L27410 55870
" />
</g> 
</svg>
