G04 #@! TF.GenerationSoftware,KiCad,Pcbnew,(5.1.8)-1*
G04 #@! TF.CreationDate,2020-12-07T15:13:13+01:00*
G04 #@! TF.ProjectId,SuperPower-uC-KiCad,53757065-7250-46f7-9765-722d75432d4b,rev?*
G04 #@! TF.SameCoordinates,Original*
G04 #@! TF.FileFunction,Legend,Top*
G04 #@! TF.FilePolarity,Positive*
%FSLAX46Y46*%
G04 Gerber Fmt 4.6, Leading zero omitted, Abs format (unit mm)*
G04 Created by KiCad (PCBNEW (5.1.8)-1) date 2020-12-07 15:13:13*
%MOMM*%
%LPD*%
G01*
G04 APERTURE LIST*
%ADD10C,0.120000*%
%ADD11C,0.153000*%
%ADD12C,0.150000*%
G04 APERTURE END LIST*
D10*
X152435000Y-98340200D02*
X156335000Y-98340200D01*
X152435000Y-100340200D02*
X156335000Y-100340200D01*
X152435000Y-98340200D02*
X152435000Y-100340200D01*
X131403800Y-117771200D02*
X131403800Y-119771200D01*
X131403800Y-119771200D02*
X135303800Y-119771200D01*
X131403800Y-117771200D02*
X135303800Y-117771200D01*
X124718867Y-114400400D02*
X124376333Y-114400400D01*
X124718867Y-115420400D02*
X124376333Y-115420400D01*
X128224067Y-105815200D02*
X127881533Y-105815200D01*
X128224067Y-106835200D02*
X127881533Y-106835200D01*
X139012200Y-114626133D02*
X139012200Y-114968667D01*
X140032200Y-114626133D02*
X140032200Y-114968667D01*
X121416867Y-114400400D02*
X121074333Y-114400400D01*
X121416867Y-115420400D02*
X121074333Y-115420400D01*
X145518600Y-111486267D02*
X145518600Y-111143733D01*
X144498600Y-111486267D02*
X144498600Y-111143733D01*
X138559000Y-113670667D02*
X138559000Y-113328133D01*
X137539000Y-113670667D02*
X137539000Y-113328133D01*
X142730067Y-103783200D02*
X142387533Y-103783200D01*
X142730067Y-104803200D02*
X142387533Y-104803200D01*
X156034200Y-115589667D02*
X156034200Y-115247133D01*
X155014200Y-115589667D02*
X155014200Y-115247133D01*
X157558200Y-115258533D02*
X157558200Y-115601067D01*
X156538200Y-115258533D02*
X156538200Y-115601067D01*
X149249800Y-114727600D02*
X149249800Y-113797600D01*
X149249800Y-111567600D02*
X149249800Y-112497600D01*
X149249800Y-111567600D02*
X146089800Y-111567600D01*
X149249800Y-114727600D02*
X147789800Y-114727600D01*
X126527400Y-104580000D02*
X127457400Y-104580000D01*
X129687400Y-104580000D02*
X128757400Y-104580000D01*
X129687400Y-104580000D02*
X129687400Y-102420000D01*
X126527400Y-104580000D02*
X126527400Y-103120000D01*
X123037000Y-109139600D02*
X123037000Y-108209600D01*
X123037000Y-105979600D02*
X123037000Y-106909600D01*
X123037000Y-105979600D02*
X119877000Y-105979600D01*
X123037000Y-109139600D02*
X121577000Y-109139600D01*
X123037000Y-105619200D02*
X123037000Y-104689200D01*
X123037000Y-102459200D02*
X123037000Y-103389200D01*
X123037000Y-102459200D02*
X119877000Y-102459200D01*
X123037000Y-105619200D02*
X121577000Y-105619200D01*
X137356667Y-104291200D02*
X137014133Y-104291200D01*
X137356667Y-105311200D02*
X137014133Y-105311200D01*
X157665267Y-100735200D02*
X157322733Y-100735200D01*
X157665267Y-101755200D02*
X157322733Y-101755200D01*
X137345267Y-102767200D02*
X137002733Y-102767200D01*
X137345267Y-103787200D02*
X137002733Y-103787200D01*
D11*
X123581000Y-113946000D02*
X123581000Y-109446000D01*
X123581000Y-109446000D02*
X118181000Y-109446000D01*
D10*
X182813000Y-121920000D02*
X182813000Y-123250000D01*
X182813000Y-123250000D02*
X181483000Y-123250000D01*
X180213000Y-123250000D02*
X129353000Y-123250000D01*
X129353000Y-120590000D02*
X129353000Y-123250000D01*
X180213000Y-120590000D02*
X129353000Y-120590000D01*
X180213000Y-120590000D02*
X180213000Y-123250000D01*
X182813000Y-96520000D02*
X182813000Y-97850000D01*
X182813000Y-97850000D02*
X181483000Y-97850000D01*
X180213000Y-97850000D02*
X129353000Y-97850000D01*
X129353000Y-95190000D02*
X129353000Y-97850000D01*
X180213000Y-95190000D02*
X129353000Y-95190000D01*
X180213000Y-95190000D02*
X180213000Y-97850000D01*
D11*
X149924600Y-102042000D02*
X149924600Y-100042000D01*
X149924600Y-100042000D02*
X146024600Y-100042000D01*
X149924600Y-102042000D02*
X146024600Y-102042000D01*
X107087500Y-107885000D02*
X106637500Y-107885000D01*
X107087500Y-107885000D02*
X107087500Y-108335000D01*
X106537500Y-113485000D02*
X106537500Y-113035000D01*
X104687500Y-113485000D02*
X106537500Y-113485000D01*
X102137500Y-105685000D02*
X102387500Y-105685000D01*
X102137500Y-113485000D02*
X102387500Y-113485000D01*
X104687500Y-105685000D02*
X106537500Y-105685000D01*
X106537500Y-105685000D02*
X106537500Y-106135000D01*
X152412800Y-107716400D02*
X152412800Y-108566400D01*
X145492800Y-108566400D02*
X145492800Y-107716400D01*
X152412800Y-103016400D02*
X152412800Y-103816400D01*
X146102800Y-102356400D02*
X151752800Y-102356400D01*
X145492800Y-103816400D02*
X145492800Y-102966400D01*
X151802800Y-109176400D02*
X146102800Y-109176400D01*
X145492800Y-102966400D02*
G75*
G02*
X146102800Y-102356400I610000J0D01*
G01*
X151752800Y-102356400D02*
G75*
G02*
X152412800Y-103016400I0J-660000D01*
G01*
X146102800Y-109176400D02*
G75*
G02*
X145492800Y-108566400I0J610000D01*
G01*
X152412800Y-108566400D02*
G75*
G02*
X151802800Y-109176400I-610000J0D01*
G01*
X129970500Y-113367500D02*
X129970500Y-112017500D01*
X128220500Y-113367500D02*
X128220500Y-112017500D01*
X160572000Y-100109000D02*
X159792000Y-100109000D01*
X159792000Y-100109000D02*
X159792000Y-101109000D01*
X160572000Y-118349000D02*
X159792000Y-118349000D01*
X159792000Y-118349000D02*
X159792000Y-117349000D01*
X185537000Y-100109000D02*
X185537000Y-118349000D01*
X185537000Y-118349000D02*
X179117000Y-118349000D01*
X185537000Y-100109000D02*
X179117000Y-100109000D01*
X179117000Y-100109000D02*
X179117000Y-99729000D01*
X157387000Y-103877000D02*
X158697000Y-103877000D01*
X158697000Y-103877000D02*
X158697000Y-106597000D01*
X154207000Y-107737000D02*
X154207000Y-106597000D01*
X153977000Y-103877000D02*
X155287000Y-103877000D01*
X153977000Y-106597000D02*
X153977000Y-103877000D01*
X153977000Y-106597000D02*
X154207000Y-106597000D01*
X158697000Y-106597000D02*
X158467000Y-106597000D01*
X152409000Y-118525000D02*
X152409000Y-119835000D01*
X152409000Y-119835000D02*
X149689000Y-119835000D01*
X148549000Y-115345000D02*
X149689000Y-115345000D01*
X152409000Y-115115000D02*
X152409000Y-116425000D01*
X149689000Y-115115000D02*
X152409000Y-115115000D01*
X149689000Y-115115000D02*
X149689000Y-115345000D01*
X149689000Y-119835000D02*
X149689000Y-119605000D01*
X143804200Y-100119500D02*
X142004200Y-100119500D01*
X142004200Y-103339500D02*
X144954200Y-103339500D01*
X129980000Y-102303500D02*
X129980000Y-104503500D01*
X129980000Y-102303500D02*
X129980000Y-100103500D01*
X135450000Y-102303500D02*
X135450000Y-104503500D01*
X135450000Y-102303500D02*
X135450000Y-98703500D01*
X140218000Y-110337000D02*
X141148000Y-110337000D01*
X143378000Y-110337000D02*
X142448000Y-110337000D01*
X143378000Y-110337000D02*
X143378000Y-107177000D01*
X140218000Y-110337000D02*
X140218000Y-108877000D01*
X135529000Y-110806000D02*
X135529000Y-108856000D01*
X135529000Y-110806000D02*
X135529000Y-112756000D01*
X130409000Y-110806000D02*
X130409000Y-108856000D01*
X130409000Y-110806000D02*
X130409000Y-114256000D01*
X119283000Y-102089000D02*
X119283000Y-100829000D01*
X119283000Y-95269000D02*
X119283000Y-96529000D01*
X115523000Y-102089000D02*
X119283000Y-102089000D01*
X113273000Y-95269000D02*
X119283000Y-95269000D01*
X117909000Y-108077000D02*
X117909000Y-105692000D01*
X117909000Y-105692000D02*
X117654000Y-105692000D01*
X117909000Y-108077000D02*
X117909000Y-110462000D01*
X117909000Y-110462000D02*
X117654000Y-110462000D01*
X107389000Y-108077000D02*
X107389000Y-105692000D01*
X107389000Y-105692000D02*
X107644000Y-105692000D01*
X107389000Y-108077000D02*
X107389000Y-110462000D01*
X107389000Y-110462000D02*
X107644000Y-110462000D01*
X107644000Y-110462000D02*
X107644000Y-112127000D01*
X121011000Y-119401500D02*
X121011000Y-121351500D01*
X121011000Y-119401500D02*
X121011000Y-117451500D01*
X126131000Y-119401500D02*
X126131000Y-121351500D01*
X126131000Y-119401500D02*
X126131000Y-115951500D01*
X126238000Y-98656500D02*
X128238000Y-98656500D01*
X124238000Y-101876500D02*
X128238000Y-101876500D01*
X115374500Y-119929000D02*
X113174500Y-119929000D01*
X115374500Y-119929000D02*
X117574500Y-119929000D01*
X115374500Y-123149000D02*
X113174500Y-123149000D01*
X115374500Y-123149000D02*
X118974500Y-123149000D01*
X118325500Y-118231500D02*
X118325500Y-116431500D01*
X115105500Y-116431500D02*
X115105500Y-119381500D01*
X112844733Y-118425500D02*
X113187267Y-118425500D01*
X112844733Y-119445500D02*
X113187267Y-119445500D01*
X139215400Y-101732667D02*
X139215400Y-101390133D01*
X140235400Y-101732667D02*
X140235400Y-101390133D01*
X147477267Y-99621600D02*
X147134733Y-99621600D01*
X147477267Y-98601600D02*
X147134733Y-98601600D01*
X144101667Y-99621600D02*
X143759133Y-99621600D01*
X144101667Y-98601600D02*
X143759133Y-98601600D01*
X138131733Y-108075000D02*
X138474267Y-108075000D01*
X138131733Y-109095000D02*
X138474267Y-109095000D01*
X138131733Y-106551000D02*
X138474267Y-106551000D01*
X138131733Y-107571000D02*
X138474267Y-107571000D01*
X127535400Y-117623333D02*
X127535400Y-117965867D01*
X126515400Y-117623333D02*
X126515400Y-117965867D01*
X119305800Y-103907333D02*
X119305800Y-104249867D01*
X118285800Y-103907333D02*
X118285800Y-104249867D01*
X118285800Y-107625467D02*
X118285800Y-107282933D01*
X119305800Y-107625467D02*
X119305800Y-107282933D01*
X133100867Y-117350800D02*
X132758333Y-117350800D01*
X133100867Y-116330800D02*
X132758333Y-116330800D01*
X127573500Y-121290233D02*
X127573500Y-121632767D01*
X126553500Y-121290233D02*
X126553500Y-121632767D01*
X127157267Y-96776000D02*
X126814733Y-96776000D01*
X127157267Y-95756000D02*
X126814733Y-95756000D01*
X127157267Y-98250000D02*
X126814733Y-98250000D01*
X127157267Y-97230000D02*
X126814733Y-97230000D01*
X120525000Y-121000733D02*
X120525000Y-121343267D01*
X119505000Y-121000733D02*
X119505000Y-121343267D01*
X140067000Y-116657000D02*
X140067000Y-117587000D01*
X140067000Y-119817000D02*
X140067000Y-118887000D01*
X140067000Y-119817000D02*
X142227000Y-119817000D01*
X140067000Y-116657000D02*
X141527000Y-116657000D01*
X143738000Y-116302400D02*
X143738000Y-115372400D01*
X143738000Y-113142400D02*
X143738000Y-114072400D01*
X143738000Y-113142400D02*
X140578000Y-113142400D01*
X143738000Y-116302400D02*
X142278000Y-116302400D01*
X154612500Y-111468500D02*
X153682500Y-111468500D01*
X151452500Y-111468500D02*
X152382500Y-111468500D01*
X151452500Y-111468500D02*
X151452500Y-114628500D01*
X154612500Y-111468500D02*
X154612500Y-112928500D01*
X128789400Y-115108400D02*
X128789400Y-116038400D01*
X128789400Y-118268400D02*
X128789400Y-117338400D01*
X128789400Y-118268400D02*
X130949400Y-118268400D01*
X128789400Y-115108400D02*
X130249400Y-115108400D01*
X137980200Y-102352800D02*
X137980200Y-101422800D01*
X137980200Y-99192800D02*
X137980200Y-100122800D01*
X137980200Y-99192800D02*
X135820200Y-99192800D01*
X137980200Y-102352800D02*
X136520200Y-102352800D01*
D10*
X108503000Y-101924000D02*
X110703000Y-101924000D01*
X110703000Y-101924000D02*
X110703000Y-103144000D01*
X110703000Y-103144000D02*
X102283000Y-103144000D01*
X102283000Y-103144000D02*
X102283000Y-95424000D01*
X102283000Y-95424000D02*
X110703000Y-95424000D01*
X110703000Y-95424000D02*
X110703000Y-96644000D01*
X110703000Y-96644000D02*
X108503000Y-96644000D01*
X103503000Y-103144000D02*
X103503000Y-101924000D01*
X103503000Y-101924000D02*
X108503000Y-101924000D01*
X108503000Y-101924000D02*
X108503000Y-103144000D01*
X103503000Y-95424000D02*
X103503000Y-96644000D01*
X103503000Y-96644000D02*
X108503000Y-96644000D01*
X108503000Y-96644000D02*
X108503000Y-95424000D01*
X107503000Y-101924000D02*
X107503000Y-96644000D01*
X107503000Y-100534000D02*
X107503000Y-100854000D01*
X107503000Y-100854000D02*
X104083000Y-100854000D01*
X104083000Y-100854000D02*
X104003000Y-100534000D01*
X104003000Y-100534000D02*
X104083000Y-100214000D01*
X104083000Y-100214000D02*
X107503000Y-100214000D01*
X107503000Y-100214000D02*
X107503000Y-100534000D01*
X108503000Y-99364000D02*
X108503000Y-99204000D01*
X107503000Y-98034000D02*
X107503000Y-98354000D01*
X107503000Y-98354000D02*
X104083000Y-98354000D01*
X104083000Y-98354000D02*
X104003000Y-98034000D01*
X104003000Y-98034000D02*
X104083000Y-97714000D01*
X104083000Y-97714000D02*
X107503000Y-97714000D01*
X107503000Y-97714000D02*
X107503000Y-98034000D01*
X110593000Y-100534000D02*
X111193000Y-100834000D01*
X111193000Y-100834000D02*
X111193000Y-100234000D01*
X111193000Y-100234000D02*
X110593000Y-100534000D01*
D11*
X123756267Y-98250000D02*
X123413733Y-98250000D01*
X123756267Y-97230000D02*
X123413733Y-97230000D01*
D10*
X108503000Y-121736000D02*
X110703000Y-121736000D01*
X110703000Y-121736000D02*
X110703000Y-122956000D01*
X110703000Y-122956000D02*
X102283000Y-122956000D01*
X102283000Y-122956000D02*
X102283000Y-115236000D01*
X102283000Y-115236000D02*
X110703000Y-115236000D01*
X110703000Y-115236000D02*
X110703000Y-116456000D01*
X110703000Y-116456000D02*
X108503000Y-116456000D01*
X103503000Y-122956000D02*
X103503000Y-121736000D01*
X103503000Y-121736000D02*
X108503000Y-121736000D01*
X108503000Y-121736000D02*
X108503000Y-122956000D01*
X103503000Y-115236000D02*
X103503000Y-116456000D01*
X103503000Y-116456000D02*
X108503000Y-116456000D01*
X108503000Y-116456000D02*
X108503000Y-115236000D01*
X107503000Y-121736000D02*
X107503000Y-116456000D01*
X107503000Y-120346000D02*
X107503000Y-120666000D01*
X107503000Y-120666000D02*
X104083000Y-120666000D01*
X104083000Y-120666000D02*
X104003000Y-120346000D01*
X104003000Y-120346000D02*
X104083000Y-120026000D01*
X104083000Y-120026000D02*
X107503000Y-120026000D01*
X107503000Y-120026000D02*
X107503000Y-120346000D01*
X108503000Y-119176000D02*
X108503000Y-119016000D01*
X107503000Y-117846000D02*
X107503000Y-118166000D01*
X107503000Y-118166000D02*
X104083000Y-118166000D01*
X104083000Y-118166000D02*
X104003000Y-117846000D01*
X104003000Y-117846000D02*
X104083000Y-117526000D01*
X104083000Y-117526000D02*
X107503000Y-117526000D01*
X107503000Y-117526000D02*
X107503000Y-117846000D01*
X110593000Y-120346000D02*
X111193000Y-120646000D01*
X111193000Y-120646000D02*
X111193000Y-120046000D01*
X111193000Y-120046000D02*
X110593000Y-120346000D01*
D11*
X126290400Y-113641800D02*
X126290400Y-116101800D01*
X126290400Y-116101800D02*
X127760400Y-116101800D01*
X127760400Y-116101800D02*
X127760400Y-113641800D01*
X111631000Y-100487267D02*
X111631000Y-100144733D01*
X112651000Y-100487267D02*
X112651000Y-100144733D01*
X177883667Y-99215200D02*
X177541133Y-99215200D01*
X177883667Y-98195200D02*
X177541133Y-98195200D01*
X174530867Y-99215200D02*
X174188333Y-99215200D01*
X174530867Y-98195200D02*
X174188333Y-98195200D01*
X157157267Y-113413000D02*
X156814733Y-113413000D01*
X157157267Y-112393000D02*
X156814733Y-112393000D01*
X150490133Y-98601600D02*
X150832667Y-98601600D01*
X150490133Y-99621600D02*
X150832667Y-99621600D01*
X142809500Y-118485767D02*
X142809500Y-118143233D01*
X143829500Y-118485767D02*
X143829500Y-118143233D01*
X156800733Y-109422000D02*
X157143267Y-109422000D01*
X156800733Y-110442000D02*
X157143267Y-110442000D01*
X146941000Y-116555733D02*
X146941000Y-116898267D01*
X145921000Y-116555733D02*
X145921000Y-116898267D01*
X140429133Y-98601600D02*
X140771667Y-98601600D01*
X140429133Y-99621600D02*
X140771667Y-99621600D01*
X151554333Y-100938400D02*
X151896867Y-100938400D01*
X151554333Y-101958400D02*
X151896867Y-101958400D01*
X157157267Y-111952500D02*
X156814733Y-111952500D01*
X157157267Y-110932500D02*
X156814733Y-110932500D01*
X144397000Y-118485767D02*
X144397000Y-118143233D01*
X145417000Y-118485767D02*
X145417000Y-118143233D01*
X142016267Y-106555000D02*
X141673733Y-106555000D01*
X142016267Y-105535000D02*
X141673733Y-105535000D01*
X128903000Y-109123267D02*
X128903000Y-108780733D01*
X129923000Y-109123267D02*
X129923000Y-108780733D01*
X113314267Y-115127500D02*
X112971733Y-115127500D01*
X113314267Y-114107500D02*
X112971733Y-114107500D01*
X113314267Y-113667000D02*
X112971733Y-113667000D01*
X113314267Y-112647000D02*
X112971733Y-112647000D01*
X112651000Y-96842733D02*
X112651000Y-97185267D01*
X111631000Y-96842733D02*
X111631000Y-97185267D01*
X129303933Y-118679500D02*
X129646467Y-118679500D01*
X129303933Y-119699500D02*
X129646467Y-119699500D01*
X120588500Y-117621233D02*
X120588500Y-117963767D01*
X119568500Y-117621233D02*
X119568500Y-117963767D01*
X123319000Y-100017733D02*
X123319000Y-100360267D01*
X122299000Y-100017733D02*
X122299000Y-100360267D01*
X112872733Y-116838000D02*
X113215267Y-116838000D01*
X112872733Y-117858000D02*
X113215267Y-117858000D01*
D12*
X153946904Y-97792580D02*
X153946904Y-96792580D01*
X154185000Y-96792580D01*
X154327857Y-96840200D01*
X154423095Y-96935438D01*
X154470714Y-97030676D01*
X154518333Y-97221152D01*
X154518333Y-97364009D01*
X154470714Y-97554485D01*
X154423095Y-97649723D01*
X154327857Y-97744961D01*
X154185000Y-97792580D01*
X153946904Y-97792580D01*
X155423095Y-96792580D02*
X154946904Y-96792580D01*
X154899285Y-97268771D01*
X154946904Y-97221152D01*
X155042142Y-97173533D01*
X155280238Y-97173533D01*
X155375476Y-97221152D01*
X155423095Y-97268771D01*
X155470714Y-97364009D01*
X155470714Y-97602104D01*
X155423095Y-97697342D01*
X155375476Y-97744961D01*
X155280238Y-97792580D01*
X155042142Y-97792580D01*
X154946904Y-97744961D01*
X154899285Y-97697342D01*
X132915704Y-117223580D02*
X132915704Y-116223580D01*
X133153800Y-116223580D01*
X133296657Y-116271200D01*
X133391895Y-116366438D01*
X133439514Y-116461676D01*
X133487133Y-116652152D01*
X133487133Y-116795009D01*
X133439514Y-116985485D01*
X133391895Y-117080723D01*
X133296657Y-117175961D01*
X133153800Y-117223580D01*
X132915704Y-117223580D01*
X133820466Y-116223580D02*
X134439514Y-116223580D01*
X134106180Y-116604533D01*
X134249038Y-116604533D01*
X134344276Y-116652152D01*
X134391895Y-116699771D01*
X134439514Y-116795009D01*
X134439514Y-117033104D01*
X134391895Y-117128342D01*
X134344276Y-117175961D01*
X134249038Y-117223580D01*
X133963323Y-117223580D01*
X133868085Y-117175961D01*
X133820466Y-117128342D01*
X124338114Y-114002304D02*
X124071447Y-113621352D01*
X123880971Y-114002304D02*
X123880971Y-113202304D01*
X124185733Y-113202304D01*
X124261923Y-113240400D01*
X124300019Y-113278495D01*
X124338114Y-113354685D01*
X124338114Y-113468971D01*
X124300019Y-113545161D01*
X124261923Y-113583257D01*
X124185733Y-113621352D01*
X123880971Y-113621352D01*
X124642876Y-113278495D02*
X124680971Y-113240400D01*
X124757161Y-113202304D01*
X124947638Y-113202304D01*
X125023828Y-113240400D01*
X125061923Y-113278495D01*
X125100019Y-113354685D01*
X125100019Y-113430876D01*
X125061923Y-113545161D01*
X124604780Y-114002304D01*
X125100019Y-114002304D01*
X125404780Y-113278495D02*
X125442876Y-113240400D01*
X125519066Y-113202304D01*
X125709542Y-113202304D01*
X125785733Y-113240400D01*
X125823828Y-113278495D01*
X125861923Y-113354685D01*
X125861923Y-113430876D01*
X125823828Y-113545161D01*
X125366685Y-114002304D01*
X125861923Y-114002304D01*
X127409942Y-108207580D02*
X127076609Y-107731390D01*
X126838514Y-108207580D02*
X126838514Y-107207580D01*
X127219466Y-107207580D01*
X127314704Y-107255200D01*
X127362323Y-107302819D01*
X127409942Y-107398057D01*
X127409942Y-107540914D01*
X127362323Y-107636152D01*
X127314704Y-107683771D01*
X127219466Y-107731390D01*
X126838514Y-107731390D01*
X128362323Y-108207580D02*
X127790895Y-108207580D01*
X128076609Y-108207580D02*
X128076609Y-107207580D01*
X127981371Y-107350438D01*
X127886133Y-107445676D01*
X127790895Y-107493295D01*
X128838514Y-108207580D02*
X129028990Y-108207580D01*
X129124228Y-108159961D01*
X129171847Y-108112342D01*
X129267085Y-107969485D01*
X129314704Y-107779009D01*
X129314704Y-107398057D01*
X129267085Y-107302819D01*
X129219466Y-107255200D01*
X129124228Y-107207580D01*
X128933752Y-107207580D01*
X128838514Y-107255200D01*
X128790895Y-107302819D01*
X128743276Y-107398057D01*
X128743276Y-107636152D01*
X128790895Y-107731390D01*
X128838514Y-107779009D01*
X128933752Y-107826628D01*
X129124228Y-107826628D01*
X129219466Y-107779009D01*
X129267085Y-107731390D01*
X129314704Y-107636152D01*
X139731704Y-112529085D02*
X139350752Y-112795752D01*
X139731704Y-112986228D02*
X138931704Y-112986228D01*
X138931704Y-112681466D01*
X138969800Y-112605276D01*
X139007895Y-112567180D01*
X139084085Y-112529085D01*
X139198371Y-112529085D01*
X139274561Y-112567180D01*
X139312657Y-112605276D01*
X139350752Y-112681466D01*
X139350752Y-112986228D01*
X139731704Y-111767180D02*
X139731704Y-112224323D01*
X139731704Y-111995752D02*
X138931704Y-111995752D01*
X139045990Y-112071942D01*
X139122180Y-112148133D01*
X139160276Y-112224323D01*
X138931704Y-111500514D02*
X138931704Y-111005276D01*
X139236466Y-111271942D01*
X139236466Y-111157657D01*
X139274561Y-111081466D01*
X139312657Y-111043371D01*
X139388847Y-111005276D01*
X139579323Y-111005276D01*
X139655514Y-111043371D01*
X139693609Y-111081466D01*
X139731704Y-111157657D01*
X139731704Y-111386228D01*
X139693609Y-111462419D01*
X139655514Y-111500514D01*
X118786866Y-115018304D02*
X118520200Y-114637352D01*
X118329723Y-115018304D02*
X118329723Y-114218304D01*
X118634485Y-114218304D01*
X118710676Y-114256400D01*
X118748771Y-114294495D01*
X118786866Y-114370685D01*
X118786866Y-114484971D01*
X118748771Y-114561161D01*
X118710676Y-114599257D01*
X118634485Y-114637352D01*
X118329723Y-114637352D01*
X119510676Y-114218304D02*
X119129723Y-114218304D01*
X119091628Y-114599257D01*
X119129723Y-114561161D01*
X119205914Y-114523066D01*
X119396390Y-114523066D01*
X119472580Y-114561161D01*
X119510676Y-114599257D01*
X119548771Y-114675447D01*
X119548771Y-114865923D01*
X119510676Y-114942114D01*
X119472580Y-114980209D01*
X119396390Y-115018304D01*
X119205914Y-115018304D01*
X119129723Y-114980209D01*
X119091628Y-114942114D01*
X144278314Y-109887485D02*
X144316409Y-109925580D01*
X144354504Y-110039866D01*
X144354504Y-110116057D01*
X144316409Y-110230342D01*
X144240219Y-110306533D01*
X144164028Y-110344628D01*
X144011647Y-110382723D01*
X143897361Y-110382723D01*
X143744980Y-110344628D01*
X143668790Y-110306533D01*
X143592600Y-110230342D01*
X143554504Y-110116057D01*
X143554504Y-110039866D01*
X143592600Y-109925580D01*
X143630695Y-109887485D01*
X143630695Y-109582723D02*
X143592600Y-109544628D01*
X143554504Y-109468438D01*
X143554504Y-109277961D01*
X143592600Y-109201771D01*
X143630695Y-109163676D01*
X143706885Y-109125580D01*
X143783076Y-109125580D01*
X143897361Y-109163676D01*
X144354504Y-109620819D01*
X144354504Y-109125580D01*
X143554504Y-108401771D02*
X143554504Y-108782723D01*
X143935457Y-108820819D01*
X143897361Y-108782723D01*
X143859266Y-108706533D01*
X143859266Y-108516057D01*
X143897361Y-108439866D01*
X143935457Y-108401771D01*
X144011647Y-108363676D01*
X144202123Y-108363676D01*
X144278314Y-108401771D01*
X144316409Y-108439866D01*
X144354504Y-108516057D01*
X144354504Y-108706533D01*
X144316409Y-108782723D01*
X144278314Y-108820819D01*
X136904714Y-114013685D02*
X136942809Y-114051780D01*
X136980904Y-114166066D01*
X136980904Y-114242257D01*
X136942809Y-114356542D01*
X136866619Y-114432733D01*
X136790428Y-114470828D01*
X136638047Y-114508923D01*
X136523761Y-114508923D01*
X136371380Y-114470828D01*
X136295190Y-114432733D01*
X136219000Y-114356542D01*
X136180904Y-114242257D01*
X136180904Y-114166066D01*
X136219000Y-114051780D01*
X136257095Y-114013685D01*
X136257095Y-113708923D02*
X136219000Y-113670828D01*
X136180904Y-113594638D01*
X136180904Y-113404161D01*
X136219000Y-113327971D01*
X136257095Y-113289876D01*
X136333285Y-113251780D01*
X136409476Y-113251780D01*
X136523761Y-113289876D01*
X136980904Y-113747019D01*
X136980904Y-113251780D01*
X136447571Y-112566066D02*
X136980904Y-112566066D01*
X136142809Y-112756542D02*
X136714238Y-112947019D01*
X136714238Y-112451780D01*
X139414314Y-105086914D02*
X139376219Y-105125009D01*
X139261933Y-105163104D01*
X139185742Y-105163104D01*
X139071457Y-105125009D01*
X138995266Y-105048819D01*
X138957171Y-104972628D01*
X138919076Y-104820247D01*
X138919076Y-104705961D01*
X138957171Y-104553580D01*
X138995266Y-104477390D01*
X139071457Y-104401200D01*
X139185742Y-104363104D01*
X139261933Y-104363104D01*
X139376219Y-104401200D01*
X139414314Y-104439295D01*
X139719076Y-104439295D02*
X139757171Y-104401200D01*
X139833361Y-104363104D01*
X140023838Y-104363104D01*
X140100028Y-104401200D01*
X140138123Y-104439295D01*
X140176219Y-104515485D01*
X140176219Y-104591676D01*
X140138123Y-104705961D01*
X139680980Y-105163104D01*
X140176219Y-105163104D01*
X140442885Y-104363104D02*
X140938123Y-104363104D01*
X140671457Y-104667866D01*
X140785742Y-104667866D01*
X140861933Y-104705961D01*
X140900028Y-104744057D01*
X140938123Y-104820247D01*
X140938123Y-105010723D01*
X140900028Y-105086914D01*
X140861933Y-105125009D01*
X140785742Y-105163104D01*
X140557171Y-105163104D01*
X140480980Y-105125009D01*
X140442885Y-105086914D01*
X154959114Y-118015504D02*
X154692447Y-117634552D01*
X154501971Y-118015504D02*
X154501971Y-117215504D01*
X154806733Y-117215504D01*
X154882923Y-117253600D01*
X154921019Y-117291695D01*
X154959114Y-117367885D01*
X154959114Y-117482171D01*
X154921019Y-117558361D01*
X154882923Y-117596457D01*
X154806733Y-117634552D01*
X154501971Y-117634552D01*
X155721019Y-118015504D02*
X155263876Y-118015504D01*
X155492447Y-118015504D02*
X155492447Y-117215504D01*
X155416257Y-117329790D01*
X155340066Y-117405980D01*
X155263876Y-117444076D01*
X156406733Y-117482171D02*
X156406733Y-118015504D01*
X156216257Y-117177409D02*
X156025780Y-117748838D01*
X156521019Y-117748838D01*
X157346714Y-117964704D02*
X157080047Y-117583752D01*
X156889571Y-117964704D02*
X156889571Y-117164704D01*
X157194333Y-117164704D01*
X157270523Y-117202800D01*
X157308619Y-117240895D01*
X157346714Y-117317085D01*
X157346714Y-117431371D01*
X157308619Y-117507561D01*
X157270523Y-117545657D01*
X157194333Y-117583752D01*
X156889571Y-117583752D01*
X157651476Y-117240895D02*
X157689571Y-117202800D01*
X157765761Y-117164704D01*
X157956238Y-117164704D01*
X158032428Y-117202800D01*
X158070523Y-117240895D01*
X158108619Y-117317085D01*
X158108619Y-117393276D01*
X158070523Y-117507561D01*
X157613380Y-117964704D01*
X158108619Y-117964704D01*
X158603857Y-117164704D02*
X158680047Y-117164704D01*
X158756238Y-117202800D01*
X158794333Y-117240895D01*
X158832428Y-117317085D01*
X158870523Y-117469466D01*
X158870523Y-117659942D01*
X158832428Y-117812323D01*
X158794333Y-117888514D01*
X158756238Y-117926609D01*
X158680047Y-117964704D01*
X158603857Y-117964704D01*
X158527666Y-117926609D01*
X158489571Y-117888514D01*
X158451476Y-117812323D01*
X158413380Y-117659942D01*
X158413380Y-117469466D01*
X158451476Y-117317085D01*
X158489571Y-117240895D01*
X158527666Y-117202800D01*
X158603857Y-117164704D01*
X150012409Y-112554495D02*
X149936219Y-112516400D01*
X149860028Y-112440209D01*
X149745742Y-112325923D01*
X149669552Y-112287828D01*
X149593361Y-112287828D01*
X149631457Y-112478304D02*
X149555266Y-112440209D01*
X149479076Y-112364019D01*
X149440980Y-112211638D01*
X149440980Y-111944971D01*
X149479076Y-111792590D01*
X149555266Y-111716400D01*
X149631457Y-111678304D01*
X149783838Y-111678304D01*
X149860028Y-111716400D01*
X149936219Y-111792590D01*
X149974314Y-111944971D01*
X149974314Y-112211638D01*
X149936219Y-112364019D01*
X149860028Y-112440209D01*
X149783838Y-112478304D01*
X149631457Y-112478304D01*
X150355266Y-112478304D02*
X150507647Y-112478304D01*
X150583838Y-112440209D01*
X150621933Y-112402114D01*
X150698123Y-112287828D01*
X150736219Y-112135447D01*
X150736219Y-111830685D01*
X150698123Y-111754495D01*
X150660028Y-111716400D01*
X150583838Y-111678304D01*
X150431457Y-111678304D01*
X150355266Y-111716400D01*
X150317171Y-111754495D01*
X150279076Y-111830685D01*
X150279076Y-112021161D01*
X150317171Y-112097352D01*
X150355266Y-112135447D01*
X150431457Y-112173542D01*
X150583838Y-112173542D01*
X150660028Y-112135447D01*
X150698123Y-112097352D01*
X150736219Y-112021161D01*
X125628409Y-104528095D02*
X125552219Y-104490000D01*
X125476028Y-104413809D01*
X125361742Y-104299523D01*
X125285552Y-104261428D01*
X125209361Y-104261428D01*
X125247457Y-104451904D02*
X125171266Y-104413809D01*
X125095076Y-104337619D01*
X125056980Y-104185238D01*
X125056980Y-103918571D01*
X125095076Y-103766190D01*
X125171266Y-103690000D01*
X125247457Y-103651904D01*
X125399838Y-103651904D01*
X125476028Y-103690000D01*
X125552219Y-103766190D01*
X125590314Y-103918571D01*
X125590314Y-104185238D01*
X125552219Y-104337619D01*
X125476028Y-104413809D01*
X125399838Y-104451904D01*
X125247457Y-104451904D01*
X126047457Y-103994761D02*
X125971266Y-103956666D01*
X125933171Y-103918571D01*
X125895076Y-103842380D01*
X125895076Y-103804285D01*
X125933171Y-103728095D01*
X125971266Y-103690000D01*
X126047457Y-103651904D01*
X126199838Y-103651904D01*
X126276028Y-103690000D01*
X126314123Y-103728095D01*
X126352219Y-103804285D01*
X126352219Y-103842380D01*
X126314123Y-103918571D01*
X126276028Y-103956666D01*
X126199838Y-103994761D01*
X126047457Y-103994761D01*
X125971266Y-104032857D01*
X125933171Y-104070952D01*
X125895076Y-104147142D01*
X125895076Y-104299523D01*
X125933171Y-104375714D01*
X125971266Y-104413809D01*
X126047457Y-104451904D01*
X126199838Y-104451904D01*
X126276028Y-104413809D01*
X126314123Y-104375714D01*
X126352219Y-104299523D01*
X126352219Y-104147142D01*
X126314123Y-104070952D01*
X126276028Y-104032857D01*
X126199838Y-103994761D01*
X123932961Y-107025219D02*
X123837723Y-106977600D01*
X123742485Y-106882361D01*
X123599628Y-106739504D01*
X123504390Y-106691885D01*
X123409152Y-106691885D01*
X123456771Y-106929980D02*
X123361533Y-106882361D01*
X123266295Y-106787123D01*
X123218676Y-106596647D01*
X123218676Y-106263314D01*
X123266295Y-106072838D01*
X123361533Y-105977600D01*
X123456771Y-105929980D01*
X123647247Y-105929980D01*
X123742485Y-105977600D01*
X123837723Y-106072838D01*
X123885342Y-106263314D01*
X123885342Y-106596647D01*
X123837723Y-106787123D01*
X123742485Y-106882361D01*
X123647247Y-106929980D01*
X123456771Y-106929980D01*
X124218676Y-105929980D02*
X124837723Y-105929980D01*
X124504390Y-106310933D01*
X124647247Y-106310933D01*
X124742485Y-106358552D01*
X124790104Y-106406171D01*
X124837723Y-106501409D01*
X124837723Y-106739504D01*
X124790104Y-106834742D01*
X124742485Y-106882361D01*
X124647247Y-106929980D01*
X124361533Y-106929980D01*
X124266295Y-106882361D01*
X124218676Y-106834742D01*
X123882161Y-103520019D02*
X123786923Y-103472400D01*
X123691685Y-103377161D01*
X123548828Y-103234304D01*
X123453590Y-103186685D01*
X123358352Y-103186685D01*
X123405971Y-103424780D02*
X123310733Y-103377161D01*
X123215495Y-103281923D01*
X123167876Y-103091447D01*
X123167876Y-102758114D01*
X123215495Y-102567638D01*
X123310733Y-102472400D01*
X123405971Y-102424780D01*
X123596447Y-102424780D01*
X123691685Y-102472400D01*
X123786923Y-102567638D01*
X123834542Y-102758114D01*
X123834542Y-103091447D01*
X123786923Y-103281923D01*
X123691685Y-103377161D01*
X123596447Y-103424780D01*
X123405971Y-103424780D01*
X124691685Y-102758114D02*
X124691685Y-103424780D01*
X124453590Y-102377161D02*
X124215495Y-103091447D01*
X124834542Y-103091447D01*
X136010714Y-106255314D02*
X135972619Y-106293409D01*
X135858333Y-106331504D01*
X135782142Y-106331504D01*
X135667857Y-106293409D01*
X135591666Y-106217219D01*
X135553571Y-106141028D01*
X135515476Y-105988647D01*
X135515476Y-105874361D01*
X135553571Y-105721980D01*
X135591666Y-105645790D01*
X135667857Y-105569600D01*
X135782142Y-105531504D01*
X135858333Y-105531504D01*
X135972619Y-105569600D01*
X136010714Y-105607695D01*
X136315476Y-105607695D02*
X136353571Y-105569600D01*
X136429761Y-105531504D01*
X136620238Y-105531504D01*
X136696428Y-105569600D01*
X136734523Y-105607695D01*
X136772619Y-105683885D01*
X136772619Y-105760076D01*
X136734523Y-105874361D01*
X136277380Y-106331504D01*
X136772619Y-106331504D01*
X137077380Y-105607695D02*
X137115476Y-105569600D01*
X137191666Y-105531504D01*
X137382142Y-105531504D01*
X137458333Y-105569600D01*
X137496428Y-105607695D01*
X137534523Y-105683885D01*
X137534523Y-105760076D01*
X137496428Y-105874361D01*
X137039285Y-106331504D01*
X137534523Y-106331504D01*
X154377514Y-101708704D02*
X154110847Y-101327752D01*
X153920371Y-101708704D02*
X153920371Y-100908704D01*
X154225133Y-100908704D01*
X154301323Y-100946800D01*
X154339419Y-100984895D01*
X154377514Y-101061085D01*
X154377514Y-101175371D01*
X154339419Y-101251561D01*
X154301323Y-101289657D01*
X154225133Y-101327752D01*
X153920371Y-101327752D01*
X155139419Y-101708704D02*
X154682276Y-101708704D01*
X154910847Y-101708704D02*
X154910847Y-100908704D01*
X154834657Y-101022990D01*
X154758466Y-101099180D01*
X154682276Y-101137276D01*
X155596561Y-101251561D02*
X155520371Y-101213466D01*
X155482276Y-101175371D01*
X155444180Y-101099180D01*
X155444180Y-101061085D01*
X155482276Y-100984895D01*
X155520371Y-100946800D01*
X155596561Y-100908704D01*
X155748942Y-100908704D01*
X155825133Y-100946800D01*
X155863228Y-100984895D01*
X155901323Y-101061085D01*
X155901323Y-101099180D01*
X155863228Y-101175371D01*
X155825133Y-101213466D01*
X155748942Y-101251561D01*
X155596561Y-101251561D01*
X155520371Y-101289657D01*
X155482276Y-101327752D01*
X155444180Y-101403942D01*
X155444180Y-101556323D01*
X155482276Y-101632514D01*
X155520371Y-101670609D01*
X155596561Y-101708704D01*
X155748942Y-101708704D01*
X155825133Y-101670609D01*
X155863228Y-101632514D01*
X155901323Y-101556323D01*
X155901323Y-101403942D01*
X155863228Y-101327752D01*
X155825133Y-101289657D01*
X155748942Y-101251561D01*
X138423666Y-102724704D02*
X138157000Y-102343752D01*
X137966523Y-102724704D02*
X137966523Y-101924704D01*
X138271285Y-101924704D01*
X138347476Y-101962800D01*
X138385571Y-102000895D01*
X138423666Y-102077085D01*
X138423666Y-102191371D01*
X138385571Y-102267561D01*
X138347476Y-102305657D01*
X138271285Y-102343752D01*
X137966523Y-102343752D01*
X139109380Y-102191371D02*
X139109380Y-102724704D01*
X138918904Y-101886609D02*
X138728428Y-102458038D01*
X139223666Y-102458038D01*
D11*
X120510547Y-114463952D02*
X120510547Y-114844904D01*
X120243880Y-114044904D02*
X120510547Y-114463952D01*
X120777214Y-114044904D01*
X121462928Y-114844904D02*
X121005785Y-114844904D01*
X121234357Y-114844904D02*
X121234357Y-114044904D01*
X121158166Y-114159190D01*
X121081976Y-114235380D01*
X121005785Y-114273476D01*
D12*
X163674466Y-119290380D02*
X163674466Y-120004666D01*
X163626847Y-120147523D01*
X163531609Y-120242761D01*
X163388752Y-120290380D01*
X163293514Y-120290380D01*
X164626847Y-119290380D02*
X164150657Y-119290380D01*
X164103038Y-119766571D01*
X164150657Y-119718952D01*
X164245895Y-119671333D01*
X164483990Y-119671333D01*
X164579228Y-119718952D01*
X164626847Y-119766571D01*
X164674466Y-119861809D01*
X164674466Y-120099904D01*
X164626847Y-120195142D01*
X164579228Y-120242761D01*
X164483990Y-120290380D01*
X164245895Y-120290380D01*
X164150657Y-120242761D01*
X164103038Y-120195142D01*
X164436466Y-98005180D02*
X164436466Y-98719466D01*
X164388847Y-98862323D01*
X164293609Y-98957561D01*
X164150752Y-99005180D01*
X164055514Y-99005180D01*
X165341228Y-98005180D02*
X165150752Y-98005180D01*
X165055514Y-98052800D01*
X165007895Y-98100419D01*
X164912657Y-98243276D01*
X164865038Y-98433752D01*
X164865038Y-98814704D01*
X164912657Y-98909942D01*
X164960276Y-98957561D01*
X165055514Y-99005180D01*
X165245990Y-99005180D01*
X165341228Y-98957561D01*
X165388847Y-98909942D01*
X165436466Y-98814704D01*
X165436466Y-98576609D01*
X165388847Y-98481371D01*
X165341228Y-98433752D01*
X165245990Y-98386133D01*
X165055514Y-98386133D01*
X164960276Y-98433752D01*
X164912657Y-98481371D01*
X164865038Y-98576609D01*
D11*
X147161323Y-101454704D02*
X147161323Y-100654704D01*
X147351800Y-100654704D01*
X147466085Y-100692800D01*
X147542276Y-100768990D01*
X147580371Y-100845180D01*
X147618466Y-100997561D01*
X147618466Y-101111847D01*
X147580371Y-101264228D01*
X147542276Y-101340419D01*
X147466085Y-101416609D01*
X147351800Y-101454704D01*
X147161323Y-101454704D01*
X148304180Y-100921371D02*
X148304180Y-101454704D01*
X148113704Y-100616609D02*
X147923228Y-101188038D01*
X148418466Y-101188038D01*
X104908404Y-114630166D02*
X105479833Y-114630166D01*
X105594119Y-114668261D01*
X105670309Y-114744452D01*
X105708404Y-114858738D01*
X105708404Y-114934928D01*
X104908404Y-114325404D02*
X104908404Y-113830166D01*
X105213166Y-114096833D01*
X105213166Y-113982547D01*
X105251261Y-113906357D01*
X105289357Y-113868261D01*
X105365547Y-113830166D01*
X105556023Y-113830166D01*
X105632214Y-113868261D01*
X105670309Y-113906357D01*
X105708404Y-113982547D01*
X105708404Y-114211119D01*
X105670309Y-114287309D01*
X105632214Y-114325404D01*
X145268904Y-108388933D02*
X145268904Y-108769885D01*
X144468904Y-108769885D01*
X145268904Y-107703219D02*
X145268904Y-108160361D01*
X145268904Y-107931790D02*
X144468904Y-107931790D01*
X144583190Y-108007980D01*
X144659380Y-108084171D01*
X144697476Y-108160361D01*
X127750047Y-110326952D02*
X127750047Y-110707904D01*
X127483380Y-109907904D02*
X127750047Y-110326952D01*
X128016714Y-109907904D01*
X128245285Y-109984095D02*
X128283380Y-109946000D01*
X128359571Y-109907904D01*
X128550047Y-109907904D01*
X128626238Y-109946000D01*
X128664333Y-109984095D01*
X128702428Y-110060285D01*
X128702428Y-110136476D01*
X128664333Y-110250761D01*
X128207190Y-110707904D01*
X128702428Y-110707904D01*
X158565904Y-102463476D02*
X159213523Y-102463476D01*
X159289714Y-102425380D01*
X159327809Y-102387285D01*
X159365904Y-102311095D01*
X159365904Y-102158714D01*
X159327809Y-102082523D01*
X159289714Y-102044428D01*
X159213523Y-102006333D01*
X158565904Y-102006333D01*
X159365904Y-101206333D02*
X159365904Y-101663476D01*
X159365904Y-101434904D02*
X158565904Y-101434904D01*
X158680190Y-101511095D01*
X158756380Y-101587285D01*
X158794476Y-101663476D01*
X158565904Y-100939666D02*
X158565904Y-100444428D01*
X158870666Y-100711095D01*
X158870666Y-100596809D01*
X158908761Y-100520619D01*
X158946857Y-100482523D01*
X159023047Y-100444428D01*
X159213523Y-100444428D01*
X159289714Y-100482523D01*
X159327809Y-100520619D01*
X159365904Y-100596809D01*
X159365904Y-100825380D01*
X159327809Y-100901571D01*
X159289714Y-100939666D01*
X153187523Y-102685904D02*
X153187523Y-103333523D01*
X153225619Y-103409714D01*
X153263714Y-103447809D01*
X153339904Y-103485904D01*
X153492285Y-103485904D01*
X153568476Y-103447809D01*
X153606571Y-103409714D01*
X153644666Y-103333523D01*
X153644666Y-102685904D01*
X154444666Y-103485904D02*
X153987523Y-103485904D01*
X154216095Y-103485904D02*
X154216095Y-102685904D01*
X154139904Y-102800190D01*
X154063714Y-102876380D01*
X153987523Y-102914476D01*
X154749428Y-102762095D02*
X154787523Y-102724000D01*
X154863714Y-102685904D01*
X155054190Y-102685904D01*
X155130380Y-102724000D01*
X155168476Y-102762095D01*
X155206571Y-102838285D01*
X155206571Y-102914476D01*
X155168476Y-103028761D01*
X154711333Y-103485904D01*
X155206571Y-103485904D01*
X152679523Y-115512904D02*
X152679523Y-116160523D01*
X152717619Y-116236714D01*
X152755714Y-116274809D01*
X152831904Y-116312904D01*
X152984285Y-116312904D01*
X153060476Y-116274809D01*
X153098571Y-116236714D01*
X153136666Y-116160523D01*
X153136666Y-115512904D01*
X153936666Y-116312904D02*
X153479523Y-116312904D01*
X153708095Y-116312904D02*
X153708095Y-115512904D01*
X153631904Y-115627190D01*
X153555714Y-115703380D01*
X153479523Y-115741476D01*
X154698571Y-116312904D02*
X154241428Y-116312904D01*
X154470000Y-116312904D02*
X154470000Y-115512904D01*
X154393809Y-115627190D01*
X154317619Y-115703380D01*
X154241428Y-115741476D01*
X142487704Y-102692876D02*
X143135323Y-102692876D01*
X143211514Y-102654780D01*
X143249609Y-102616685D01*
X143287704Y-102540495D01*
X143287704Y-102388114D01*
X143249609Y-102311923D01*
X143211514Y-102273828D01*
X143135323Y-102235733D01*
X142487704Y-102235733D01*
X143287704Y-101435733D02*
X143287704Y-101892876D01*
X143287704Y-101664304D02*
X142487704Y-101664304D01*
X142601990Y-101740495D01*
X142678180Y-101816685D01*
X142716276Y-101892876D01*
X142487704Y-100940495D02*
X142487704Y-100864304D01*
X142525800Y-100788114D01*
X142563895Y-100750019D01*
X142640085Y-100711923D01*
X142792466Y-100673828D01*
X142982942Y-100673828D01*
X143135323Y-100711923D01*
X143211514Y-100750019D01*
X143249609Y-100788114D01*
X143287704Y-100864304D01*
X143287704Y-100940495D01*
X143249609Y-101016685D01*
X143211514Y-101054780D01*
X143135323Y-101092876D01*
X142982942Y-101130971D01*
X142792466Y-101130971D01*
X142640085Y-101092876D01*
X142563895Y-101054780D01*
X142525800Y-101016685D01*
X142487704Y-100940495D01*
X128676476Y-104717904D02*
X128676476Y-105365523D01*
X128714571Y-105441714D01*
X128752666Y-105479809D01*
X128828857Y-105517904D01*
X128981238Y-105517904D01*
X129057428Y-105479809D01*
X129095523Y-105441714D01*
X129133619Y-105365523D01*
X129133619Y-104717904D01*
X129552666Y-105517904D02*
X129705047Y-105517904D01*
X129781238Y-105479809D01*
X129819333Y-105441714D01*
X129895523Y-105327428D01*
X129933619Y-105175047D01*
X129933619Y-104870285D01*
X129895523Y-104794095D01*
X129857428Y-104756000D01*
X129781238Y-104717904D01*
X129628857Y-104717904D01*
X129552666Y-104756000D01*
X129514571Y-104794095D01*
X129476476Y-104870285D01*
X129476476Y-105060761D01*
X129514571Y-105136952D01*
X129552666Y-105175047D01*
X129628857Y-105213142D01*
X129781238Y-105213142D01*
X129857428Y-105175047D01*
X129895523Y-105136952D01*
X129933619Y-105060761D01*
X142709976Y-110559904D02*
X142709976Y-111207523D01*
X142748071Y-111283714D01*
X142786166Y-111321809D01*
X142862357Y-111359904D01*
X143014738Y-111359904D01*
X143090928Y-111321809D01*
X143129023Y-111283714D01*
X143167119Y-111207523D01*
X143167119Y-110559904D01*
X143662357Y-110902761D02*
X143586166Y-110864666D01*
X143548071Y-110826571D01*
X143509976Y-110750380D01*
X143509976Y-110712285D01*
X143548071Y-110636095D01*
X143586166Y-110598000D01*
X143662357Y-110559904D01*
X143814738Y-110559904D01*
X143890928Y-110598000D01*
X143929023Y-110636095D01*
X143967119Y-110712285D01*
X143967119Y-110750380D01*
X143929023Y-110826571D01*
X143890928Y-110864666D01*
X143814738Y-110902761D01*
X143662357Y-110902761D01*
X143586166Y-110940857D01*
X143548071Y-110978952D01*
X143509976Y-111055142D01*
X143509976Y-111207523D01*
X143548071Y-111283714D01*
X143586166Y-111321809D01*
X143662357Y-111359904D01*
X143814738Y-111359904D01*
X143890928Y-111321809D01*
X143929023Y-111283714D01*
X143967119Y-111207523D01*
X143967119Y-111055142D01*
X143929023Y-110978952D01*
X143890928Y-110940857D01*
X143814738Y-110902761D01*
X129819476Y-106547504D02*
X129819476Y-107195123D01*
X129857571Y-107271314D01*
X129895666Y-107309409D01*
X129971857Y-107347504D01*
X130124238Y-107347504D01*
X130200428Y-107309409D01*
X130238523Y-107271314D01*
X130276619Y-107195123D01*
X130276619Y-106547504D01*
X130581380Y-106547504D02*
X131114714Y-106547504D01*
X130771857Y-107347504D01*
X117373476Y-102304904D02*
X117373476Y-102952523D01*
X117411571Y-103028714D01*
X117449666Y-103066809D01*
X117525857Y-103104904D01*
X117678238Y-103104904D01*
X117754428Y-103066809D01*
X117792523Y-103028714D01*
X117830619Y-102952523D01*
X117830619Y-102304904D01*
X118554428Y-102304904D02*
X118402047Y-102304904D01*
X118325857Y-102343000D01*
X118287761Y-102381095D01*
X118211571Y-102495380D01*
X118173476Y-102647761D01*
X118173476Y-102952523D01*
X118211571Y-103028714D01*
X118249666Y-103066809D01*
X118325857Y-103104904D01*
X118478238Y-103104904D01*
X118554428Y-103066809D01*
X118592523Y-103028714D01*
X118630619Y-102952523D01*
X118630619Y-102762047D01*
X118592523Y-102685857D01*
X118554428Y-102647761D01*
X118478238Y-102609666D01*
X118325857Y-102609666D01*
X118249666Y-102647761D01*
X118211571Y-102685857D01*
X118173476Y-102762047D01*
X106324476Y-104336904D02*
X106324476Y-104984523D01*
X106362571Y-105060714D01*
X106400666Y-105098809D01*
X106476857Y-105136904D01*
X106629238Y-105136904D01*
X106705428Y-105098809D01*
X106743523Y-105060714D01*
X106781619Y-104984523D01*
X106781619Y-104336904D01*
X107543523Y-104336904D02*
X107162571Y-104336904D01*
X107124476Y-104717857D01*
X107162571Y-104679761D01*
X107238761Y-104641666D01*
X107429238Y-104641666D01*
X107505428Y-104679761D01*
X107543523Y-104717857D01*
X107581619Y-104794047D01*
X107581619Y-104984523D01*
X107543523Y-105060714D01*
X107505428Y-105098809D01*
X107429238Y-105136904D01*
X107238761Y-105136904D01*
X107162571Y-105098809D01*
X107124476Y-105060714D01*
X119913476Y-115357904D02*
X119913476Y-116005523D01*
X119951571Y-116081714D01*
X119989666Y-116119809D01*
X120065857Y-116157904D01*
X120218238Y-116157904D01*
X120294428Y-116119809D01*
X120332523Y-116081714D01*
X120370619Y-116005523D01*
X120370619Y-115357904D01*
X121094428Y-115624571D02*
X121094428Y-116157904D01*
X120903952Y-115319809D02*
X120713476Y-115891238D01*
X121208714Y-115891238D01*
X125196676Y-102077104D02*
X125196676Y-102724723D01*
X125234771Y-102800914D01*
X125272866Y-102839009D01*
X125349057Y-102877104D01*
X125501438Y-102877104D01*
X125577628Y-102839009D01*
X125615723Y-102800914D01*
X125653819Y-102724723D01*
X125653819Y-102077104D01*
X125958580Y-102077104D02*
X126453819Y-102077104D01*
X126187152Y-102381866D01*
X126301438Y-102381866D01*
X126377628Y-102419961D01*
X126415723Y-102458057D01*
X126453819Y-102534247D01*
X126453819Y-102724723D01*
X126415723Y-102800914D01*
X126377628Y-102839009D01*
X126301438Y-102877104D01*
X126072866Y-102877104D01*
X125996676Y-102839009D01*
X125958580Y-102800914D01*
X110261476Y-122243904D02*
X110261476Y-122891523D01*
X110299571Y-122967714D01*
X110337666Y-123005809D01*
X110413857Y-123043904D01*
X110566238Y-123043904D01*
X110642428Y-123005809D01*
X110680523Y-122967714D01*
X110718619Y-122891523D01*
X110718619Y-122243904D01*
X111061476Y-122320095D02*
X111099571Y-122282000D01*
X111175761Y-122243904D01*
X111366238Y-122243904D01*
X111442428Y-122282000D01*
X111480523Y-122320095D01*
X111518619Y-122396285D01*
X111518619Y-122472476D01*
X111480523Y-122586761D01*
X111023380Y-123043904D01*
X111518619Y-123043904D01*
X116166976Y-114192904D02*
X116166976Y-114840523D01*
X116205071Y-114916714D01*
X116243166Y-114954809D01*
X116319357Y-114992904D01*
X116471738Y-114992904D01*
X116547928Y-114954809D01*
X116586023Y-114916714D01*
X116624119Y-114840523D01*
X116624119Y-114192904D01*
X117424119Y-114992904D02*
X116966976Y-114992904D01*
X117195547Y-114992904D02*
X117195547Y-114192904D01*
X117119357Y-114307190D01*
X117043166Y-114383380D01*
X116966976Y-114421476D01*
X111423404Y-119336285D02*
X111042452Y-119602952D01*
X111423404Y-119793428D02*
X110623404Y-119793428D01*
X110623404Y-119488666D01*
X110661500Y-119412476D01*
X110699595Y-119374380D01*
X110775785Y-119336285D01*
X110890071Y-119336285D01*
X110966261Y-119374380D01*
X111004357Y-119412476D01*
X111042452Y-119488666D01*
X111042452Y-119793428D01*
X110699595Y-119031523D02*
X110661500Y-118993428D01*
X110623404Y-118917238D01*
X110623404Y-118726761D01*
X110661500Y-118650571D01*
X110699595Y-118612476D01*
X110775785Y-118574380D01*
X110851976Y-118574380D01*
X110966261Y-118612476D01*
X111423404Y-119069619D01*
X111423404Y-118574380D01*
X111423404Y-117812476D02*
X111423404Y-118269619D01*
X111423404Y-118041047D02*
X110623404Y-118041047D01*
X110737690Y-118117238D01*
X110813880Y-118193428D01*
X110851976Y-118269619D01*
X139617514Y-103994704D02*
X139350847Y-103613752D01*
X139160371Y-103994704D02*
X139160371Y-103194704D01*
X139465133Y-103194704D01*
X139541323Y-103232800D01*
X139579419Y-103270895D01*
X139617514Y-103347085D01*
X139617514Y-103461371D01*
X139579419Y-103537561D01*
X139541323Y-103575657D01*
X139465133Y-103613752D01*
X139160371Y-103613752D01*
X140379419Y-103994704D02*
X139922276Y-103994704D01*
X140150847Y-103994704D02*
X140150847Y-103194704D01*
X140074657Y-103308990D01*
X139998466Y-103385180D01*
X139922276Y-103423276D01*
X140646085Y-103194704D02*
X141179419Y-103194704D01*
X140836561Y-103994704D01*
X149371114Y-98762304D02*
X149104447Y-98381352D01*
X148913971Y-98762304D02*
X148913971Y-97962304D01*
X149218733Y-97962304D01*
X149294923Y-98000400D01*
X149333019Y-98038495D01*
X149371114Y-98114685D01*
X149371114Y-98228971D01*
X149333019Y-98305161D01*
X149294923Y-98343257D01*
X149218733Y-98381352D01*
X148913971Y-98381352D01*
X150133019Y-98762304D02*
X149675876Y-98762304D01*
X149904447Y-98762304D02*
X149904447Y-97962304D01*
X149828257Y-98076590D01*
X149752066Y-98152780D01*
X149675876Y-98190876D01*
X150818733Y-97962304D02*
X150666352Y-97962304D01*
X150590161Y-98000400D01*
X150552066Y-98038495D01*
X150475876Y-98152780D01*
X150437780Y-98305161D01*
X150437780Y-98609923D01*
X150475876Y-98686114D01*
X150513971Y-98724209D01*
X150590161Y-98762304D01*
X150742542Y-98762304D01*
X150818733Y-98724209D01*
X150856828Y-98686114D01*
X150894923Y-98609923D01*
X150894923Y-98419447D01*
X150856828Y-98343257D01*
X150818733Y-98305161D01*
X150742542Y-98267066D01*
X150590161Y-98267066D01*
X150513971Y-98305161D01*
X150475876Y-98343257D01*
X150437780Y-98419447D01*
X142360714Y-98660704D02*
X142094047Y-98279752D01*
X141903571Y-98660704D02*
X141903571Y-97860704D01*
X142208333Y-97860704D01*
X142284523Y-97898800D01*
X142322619Y-97936895D01*
X142360714Y-98013085D01*
X142360714Y-98127371D01*
X142322619Y-98203561D01*
X142284523Y-98241657D01*
X142208333Y-98279752D01*
X141903571Y-98279752D01*
X143122619Y-98660704D02*
X142665476Y-98660704D01*
X142894047Y-98660704D02*
X142894047Y-97860704D01*
X142817857Y-97974990D01*
X142741666Y-98051180D01*
X142665476Y-98089276D01*
X143846428Y-97860704D02*
X143465476Y-97860704D01*
X143427380Y-98241657D01*
X143465476Y-98203561D01*
X143541666Y-98165466D01*
X143732142Y-98165466D01*
X143808333Y-98203561D01*
X143846428Y-98241657D01*
X143884523Y-98317847D01*
X143884523Y-98508323D01*
X143846428Y-98584514D01*
X143808333Y-98622609D01*
X143732142Y-98660704D01*
X143541666Y-98660704D01*
X143465476Y-98622609D01*
X143427380Y-98584514D01*
X137788714Y-110216904D02*
X137522047Y-109835952D01*
X137331571Y-110216904D02*
X137331571Y-109416904D01*
X137636333Y-109416904D01*
X137712523Y-109455000D01*
X137750619Y-109493095D01*
X137788714Y-109569285D01*
X137788714Y-109683571D01*
X137750619Y-109759761D01*
X137712523Y-109797857D01*
X137636333Y-109835952D01*
X137331571Y-109835952D01*
X138550619Y-110216904D02*
X138093476Y-110216904D01*
X138322047Y-110216904D02*
X138322047Y-109416904D01*
X138245857Y-109531190D01*
X138169666Y-109607380D01*
X138093476Y-109645476D01*
X138855380Y-109493095D02*
X138893476Y-109455000D01*
X138969666Y-109416904D01*
X139160142Y-109416904D01*
X139236333Y-109455000D01*
X139274428Y-109493095D01*
X139312523Y-109569285D01*
X139312523Y-109645476D01*
X139274428Y-109759761D01*
X138817285Y-110216904D01*
X139312523Y-110216904D01*
X138804714Y-106433104D02*
X138538047Y-106052152D01*
X138347571Y-106433104D02*
X138347571Y-105633104D01*
X138652333Y-105633104D01*
X138728523Y-105671200D01*
X138766619Y-105709295D01*
X138804714Y-105785485D01*
X138804714Y-105899771D01*
X138766619Y-105975961D01*
X138728523Y-106014057D01*
X138652333Y-106052152D01*
X138347571Y-106052152D01*
X139566619Y-106433104D02*
X139109476Y-106433104D01*
X139338047Y-106433104D02*
X139338047Y-105633104D01*
X139261857Y-105747390D01*
X139185666Y-105823580D01*
X139109476Y-105861676D01*
X140328523Y-106433104D02*
X139871380Y-106433104D01*
X140099952Y-106433104D02*
X140099952Y-105633104D01*
X140023761Y-105747390D01*
X139947571Y-105823580D01*
X139871380Y-105861676D01*
X126378614Y-112860004D02*
X126111947Y-112479052D01*
X125921471Y-112860004D02*
X125921471Y-112060004D01*
X126226233Y-112060004D01*
X126302423Y-112098100D01*
X126340519Y-112136195D01*
X126378614Y-112212385D01*
X126378614Y-112326671D01*
X126340519Y-112402861D01*
X126302423Y-112440957D01*
X126226233Y-112479052D01*
X125921471Y-112479052D01*
X127140519Y-112860004D02*
X126683376Y-112860004D01*
X126911947Y-112860004D02*
X126911947Y-112060004D01*
X126835757Y-112174290D01*
X126759566Y-112250480D01*
X126683376Y-112288576D01*
X127635757Y-112060004D02*
X127711947Y-112060004D01*
X127788138Y-112098100D01*
X127826233Y-112136195D01*
X127864328Y-112212385D01*
X127902423Y-112364766D01*
X127902423Y-112555242D01*
X127864328Y-112707623D01*
X127826233Y-112783814D01*
X127788138Y-112821909D01*
X127711947Y-112860004D01*
X127635757Y-112860004D01*
X127559566Y-112821909D01*
X127521471Y-112783814D01*
X127483376Y-112707623D01*
X127445280Y-112555242D01*
X127445280Y-112364766D01*
X127483376Y-112212385D01*
X127521471Y-112136195D01*
X127559566Y-112098100D01*
X127635757Y-112060004D01*
X119932466Y-104350304D02*
X119665800Y-103969352D01*
X119475323Y-104350304D02*
X119475323Y-103550304D01*
X119780085Y-103550304D01*
X119856276Y-103588400D01*
X119894371Y-103626495D01*
X119932466Y-103702685D01*
X119932466Y-103816971D01*
X119894371Y-103893161D01*
X119856276Y-103931257D01*
X119780085Y-103969352D01*
X119475323Y-103969352D01*
X120313419Y-104350304D02*
X120465800Y-104350304D01*
X120541990Y-104312209D01*
X120580085Y-104274114D01*
X120656276Y-104159828D01*
X120694371Y-104007447D01*
X120694371Y-103702685D01*
X120656276Y-103626495D01*
X120618180Y-103588400D01*
X120541990Y-103550304D01*
X120389609Y-103550304D01*
X120313419Y-103588400D01*
X120275323Y-103626495D01*
X120237228Y-103702685D01*
X120237228Y-103893161D01*
X120275323Y-103969352D01*
X120313419Y-104007447D01*
X120389609Y-104045542D01*
X120541990Y-104045542D01*
X120618180Y-104007447D01*
X120656276Y-103969352D01*
X120694371Y-103893161D01*
X119881666Y-107906304D02*
X119615000Y-107525352D01*
X119424523Y-107906304D02*
X119424523Y-107106304D01*
X119729285Y-107106304D01*
X119805476Y-107144400D01*
X119843571Y-107182495D01*
X119881666Y-107258685D01*
X119881666Y-107372971D01*
X119843571Y-107449161D01*
X119805476Y-107487257D01*
X119729285Y-107525352D01*
X119424523Y-107525352D01*
X120338809Y-107449161D02*
X120262619Y-107411066D01*
X120224523Y-107372971D01*
X120186428Y-107296780D01*
X120186428Y-107258685D01*
X120224523Y-107182495D01*
X120262619Y-107144400D01*
X120338809Y-107106304D01*
X120491190Y-107106304D01*
X120567380Y-107144400D01*
X120605476Y-107182495D01*
X120643571Y-107258685D01*
X120643571Y-107296780D01*
X120605476Y-107372971D01*
X120567380Y-107411066D01*
X120491190Y-107449161D01*
X120338809Y-107449161D01*
X120262619Y-107487257D01*
X120224523Y-107525352D01*
X120186428Y-107601542D01*
X120186428Y-107753923D01*
X120224523Y-107830114D01*
X120262619Y-107868209D01*
X120338809Y-107906304D01*
X120491190Y-107906304D01*
X120567380Y-107868209D01*
X120605476Y-107830114D01*
X120643571Y-107753923D01*
X120643571Y-107601542D01*
X120605476Y-107525352D01*
X120567380Y-107487257D01*
X120491190Y-107449161D01*
X132655266Y-116250204D02*
X132388600Y-115869252D01*
X132198123Y-116250204D02*
X132198123Y-115450204D01*
X132502885Y-115450204D01*
X132579076Y-115488300D01*
X132617171Y-115526395D01*
X132655266Y-115602585D01*
X132655266Y-115716871D01*
X132617171Y-115793061D01*
X132579076Y-115831157D01*
X132502885Y-115869252D01*
X132198123Y-115869252D01*
X132921933Y-115450204D02*
X133455266Y-115450204D01*
X133112409Y-116250204D01*
X128504904Y-122307333D02*
X128123952Y-122574000D01*
X128504904Y-122764476D02*
X127704904Y-122764476D01*
X127704904Y-122459714D01*
X127743000Y-122383523D01*
X127781095Y-122345428D01*
X127857285Y-122307333D01*
X127971571Y-122307333D01*
X128047761Y-122345428D01*
X128085857Y-122383523D01*
X128123952Y-122459714D01*
X128123952Y-122764476D01*
X127704904Y-121621619D02*
X127704904Y-121774000D01*
X127743000Y-121850190D01*
X127781095Y-121888285D01*
X127895380Y-121964476D01*
X128047761Y-122002571D01*
X128352523Y-122002571D01*
X128428714Y-121964476D01*
X128466809Y-121926380D01*
X128504904Y-121850190D01*
X128504904Y-121697809D01*
X128466809Y-121621619D01*
X128428714Y-121583523D01*
X128352523Y-121545428D01*
X128162047Y-121545428D01*
X128085857Y-121583523D01*
X128047761Y-121621619D01*
X128009666Y-121697809D01*
X128009666Y-121850190D01*
X128047761Y-121926380D01*
X128085857Y-121964476D01*
X128162047Y-122002571D01*
X129266904Y-96272333D02*
X128885952Y-96539000D01*
X129266904Y-96729476D02*
X128466904Y-96729476D01*
X128466904Y-96424714D01*
X128505000Y-96348523D01*
X128543095Y-96310428D01*
X128619285Y-96272333D01*
X128733571Y-96272333D01*
X128809761Y-96310428D01*
X128847857Y-96348523D01*
X128885952Y-96424714D01*
X128885952Y-96729476D01*
X128466904Y-96005666D02*
X128466904Y-95510428D01*
X128771666Y-95777095D01*
X128771666Y-95662809D01*
X128809761Y-95586619D01*
X128847857Y-95548523D01*
X128924047Y-95510428D01*
X129114523Y-95510428D01*
X129190714Y-95548523D01*
X129228809Y-95586619D01*
X129266904Y-95662809D01*
X129266904Y-95891380D01*
X129228809Y-95967571D01*
X129190714Y-96005666D01*
X129266904Y-98063833D02*
X128885952Y-98330500D01*
X129266904Y-98520976D02*
X128466904Y-98520976D01*
X128466904Y-98216214D01*
X128505000Y-98140023D01*
X128543095Y-98101928D01*
X128619285Y-98063833D01*
X128733571Y-98063833D01*
X128809761Y-98101928D01*
X128847857Y-98140023D01*
X128885952Y-98216214D01*
X128885952Y-98520976D01*
X128543095Y-97759071D02*
X128505000Y-97720976D01*
X128466904Y-97644785D01*
X128466904Y-97454309D01*
X128505000Y-97378119D01*
X128543095Y-97340023D01*
X128619285Y-97301928D01*
X128695476Y-97301928D01*
X128809761Y-97340023D01*
X129266904Y-97797166D01*
X129266904Y-97301928D01*
X119360904Y-119767333D02*
X118979952Y-120034000D01*
X119360904Y-120224476D02*
X118560904Y-120224476D01*
X118560904Y-119919714D01*
X118599000Y-119843523D01*
X118637095Y-119805428D01*
X118713285Y-119767333D01*
X118827571Y-119767333D01*
X118903761Y-119805428D01*
X118941857Y-119843523D01*
X118979952Y-119919714D01*
X118979952Y-120224476D01*
X119360904Y-119005428D02*
X119360904Y-119462571D01*
X119360904Y-119234000D02*
X118560904Y-119234000D01*
X118675190Y-119310190D01*
X118751380Y-119386380D01*
X118789476Y-119462571D01*
X139052309Y-119881595D02*
X138976119Y-119843500D01*
X138899928Y-119767309D01*
X138785642Y-119653023D01*
X138709452Y-119614928D01*
X138633261Y-119614928D01*
X138671357Y-119805404D02*
X138595166Y-119767309D01*
X138518976Y-119691119D01*
X138480880Y-119538738D01*
X138480880Y-119272071D01*
X138518976Y-119119690D01*
X138595166Y-119043500D01*
X138671357Y-119005404D01*
X138823738Y-119005404D01*
X138899928Y-119043500D01*
X138976119Y-119119690D01*
X139014214Y-119272071D01*
X139014214Y-119538738D01*
X138976119Y-119691119D01*
X138899928Y-119767309D01*
X138823738Y-119805404D01*
X138671357Y-119805404D01*
X139280880Y-119005404D02*
X139814214Y-119005404D01*
X139471357Y-119805404D01*
X143243309Y-112935495D02*
X143167119Y-112897400D01*
X143090928Y-112821209D01*
X142976642Y-112706923D01*
X142900452Y-112668828D01*
X142824261Y-112668828D01*
X142862357Y-112859304D02*
X142786166Y-112821209D01*
X142709976Y-112745019D01*
X142671880Y-112592638D01*
X142671880Y-112325971D01*
X142709976Y-112173590D01*
X142786166Y-112097400D01*
X142862357Y-112059304D01*
X143014738Y-112059304D01*
X143090928Y-112097400D01*
X143167119Y-112173590D01*
X143205214Y-112325971D01*
X143205214Y-112592638D01*
X143167119Y-112745019D01*
X143090928Y-112821209D01*
X143014738Y-112859304D01*
X142862357Y-112859304D01*
X143890928Y-112059304D02*
X143738547Y-112059304D01*
X143662357Y-112097400D01*
X143624261Y-112135495D01*
X143548071Y-112249780D01*
X143509976Y-112402161D01*
X143509976Y-112706923D01*
X143548071Y-112783114D01*
X143586166Y-112821209D01*
X143662357Y-112859304D01*
X143814738Y-112859304D01*
X143890928Y-112821209D01*
X143929023Y-112783114D01*
X143967119Y-112706923D01*
X143967119Y-112516447D01*
X143929023Y-112440257D01*
X143890928Y-112402161D01*
X143814738Y-112364066D01*
X143662357Y-112364066D01*
X143586166Y-112402161D01*
X143548071Y-112440257D01*
X143509976Y-112516447D01*
X152330095Y-110693190D02*
X152292000Y-110769380D01*
X152215809Y-110845571D01*
X152101523Y-110959857D01*
X152063428Y-111036047D01*
X152063428Y-111112238D01*
X152253904Y-111074142D02*
X152215809Y-111150333D01*
X152139619Y-111226523D01*
X151987238Y-111264619D01*
X151720571Y-111264619D01*
X151568190Y-111226523D01*
X151492000Y-111150333D01*
X151453904Y-111074142D01*
X151453904Y-110921761D01*
X151492000Y-110845571D01*
X151568190Y-110769380D01*
X151720571Y-110731285D01*
X151987238Y-110731285D01*
X152139619Y-110769380D01*
X152215809Y-110845571D01*
X152253904Y-110921761D01*
X152253904Y-111074142D01*
X151453904Y-110007476D02*
X151453904Y-110388428D01*
X151834857Y-110426523D01*
X151796761Y-110388428D01*
X151758666Y-110312238D01*
X151758666Y-110121761D01*
X151796761Y-110045571D01*
X151834857Y-110007476D01*
X151911047Y-109969380D01*
X152101523Y-109969380D01*
X152177714Y-110007476D01*
X152215809Y-110045571D01*
X152253904Y-110121761D01*
X152253904Y-110312238D01*
X152215809Y-110388428D01*
X152177714Y-110426523D01*
X130034995Y-116703590D02*
X129996900Y-116779780D01*
X129920709Y-116855971D01*
X129806423Y-116970257D01*
X129768328Y-117046447D01*
X129768328Y-117122638D01*
X129958804Y-117084542D02*
X129920709Y-117160733D01*
X129844519Y-117236923D01*
X129692138Y-117275019D01*
X129425471Y-117275019D01*
X129273090Y-117236923D01*
X129196900Y-117160733D01*
X129158804Y-117084542D01*
X129158804Y-116932161D01*
X129196900Y-116855971D01*
X129273090Y-116779780D01*
X129425471Y-116741685D01*
X129692138Y-116741685D01*
X129844519Y-116779780D01*
X129920709Y-116855971D01*
X129958804Y-116932161D01*
X129958804Y-117084542D01*
X129234995Y-116436923D02*
X129196900Y-116398828D01*
X129158804Y-116322638D01*
X129158804Y-116132161D01*
X129196900Y-116055971D01*
X129234995Y-116017876D01*
X129311185Y-115979780D01*
X129387376Y-115979780D01*
X129501661Y-116017876D01*
X129958804Y-116475019D01*
X129958804Y-115979780D01*
X137674295Y-100914990D02*
X137636200Y-100991180D01*
X137560009Y-101067371D01*
X137445723Y-101181657D01*
X137407628Y-101257847D01*
X137407628Y-101334038D01*
X137598104Y-101295942D02*
X137560009Y-101372133D01*
X137483819Y-101448323D01*
X137331438Y-101486419D01*
X137064771Y-101486419D01*
X136912390Y-101448323D01*
X136836200Y-101372133D01*
X136798104Y-101295942D01*
X136798104Y-101143561D01*
X136836200Y-101067371D01*
X136912390Y-100991180D01*
X137064771Y-100953085D01*
X137331438Y-100953085D01*
X137483819Y-100991180D01*
X137560009Y-101067371D01*
X137598104Y-101143561D01*
X137598104Y-101295942D01*
X137598104Y-100191180D02*
X137598104Y-100648323D01*
X137598104Y-100419752D02*
X136798104Y-100419752D01*
X136912390Y-100495942D01*
X136988580Y-100572133D01*
X137026676Y-100648323D01*
D12*
X102703380Y-99533833D02*
X103417666Y-99533833D01*
X103560523Y-99581452D01*
X103655761Y-99676690D01*
X103703380Y-99819547D01*
X103703380Y-99914785D01*
X103036714Y-98629071D02*
X103703380Y-98629071D01*
X102655761Y-98867166D02*
X103370047Y-99105261D01*
X103370047Y-98486214D01*
D11*
X124919833Y-98254404D02*
X124919833Y-98825833D01*
X124881738Y-98940119D01*
X124805547Y-99016309D01*
X124691261Y-99054404D01*
X124615071Y-99054404D01*
X125262690Y-98330595D02*
X125300785Y-98292500D01*
X125376976Y-98254404D01*
X125567452Y-98254404D01*
X125643642Y-98292500D01*
X125681738Y-98330595D01*
X125719833Y-98406785D01*
X125719833Y-98482976D01*
X125681738Y-98597261D01*
X125224595Y-99054404D01*
X125719833Y-99054404D01*
D12*
X102703380Y-119472833D02*
X103417666Y-119472833D01*
X103560523Y-119520452D01*
X103655761Y-119615690D01*
X103703380Y-119758547D01*
X103703380Y-119853785D01*
X103703380Y-118472833D02*
X103703380Y-119044261D01*
X103703380Y-118758547D02*
X102703380Y-118758547D01*
X102846238Y-118853785D01*
X102941476Y-118949023D01*
X102989095Y-119044261D01*
D11*
X126302423Y-111872704D02*
X126302423Y-111072704D01*
X126492900Y-111072704D01*
X126607185Y-111110800D01*
X126683376Y-111186990D01*
X126721471Y-111263180D01*
X126759566Y-111415561D01*
X126759566Y-111529847D01*
X126721471Y-111682228D01*
X126683376Y-111758419D01*
X126607185Y-111834609D01*
X126492900Y-111872704D01*
X126302423Y-111872704D01*
X127064328Y-111148895D02*
X127102423Y-111110800D01*
X127178614Y-111072704D01*
X127369090Y-111072704D01*
X127445280Y-111110800D01*
X127483376Y-111148895D01*
X127521471Y-111225085D01*
X127521471Y-111301276D01*
X127483376Y-111415561D01*
X127026233Y-111872704D01*
X127521471Y-111872704D01*
X111499714Y-102661214D02*
X111461619Y-102699309D01*
X111347333Y-102737404D01*
X111271142Y-102737404D01*
X111156857Y-102699309D01*
X111080666Y-102623119D01*
X111042571Y-102546928D01*
X111004476Y-102394547D01*
X111004476Y-102280261D01*
X111042571Y-102127880D01*
X111080666Y-102051690D01*
X111156857Y-101975500D01*
X111271142Y-101937404D01*
X111347333Y-101937404D01*
X111461619Y-101975500D01*
X111499714Y-102013595D01*
X111804476Y-102013595D02*
X111842571Y-101975500D01*
X111918761Y-101937404D01*
X112109238Y-101937404D01*
X112185428Y-101975500D01*
X112223523Y-102013595D01*
X112261619Y-102089785D01*
X112261619Y-102165976D01*
X112223523Y-102280261D01*
X111766380Y-102737404D01*
X112261619Y-102737404D01*
X113023523Y-102737404D02*
X112566380Y-102737404D01*
X112794952Y-102737404D02*
X112794952Y-101937404D01*
X112718761Y-102051690D01*
X112642571Y-102127880D01*
X112566380Y-102165976D01*
X179800314Y-99041714D02*
X179762219Y-99079809D01*
X179647933Y-99117904D01*
X179571742Y-99117904D01*
X179457457Y-99079809D01*
X179381266Y-99003619D01*
X179343171Y-98927428D01*
X179305076Y-98775047D01*
X179305076Y-98660761D01*
X179343171Y-98508380D01*
X179381266Y-98432190D01*
X179457457Y-98356000D01*
X179571742Y-98317904D01*
X179647933Y-98317904D01*
X179762219Y-98356000D01*
X179800314Y-98394095D01*
X180105076Y-98394095D02*
X180143171Y-98356000D01*
X180219361Y-98317904D01*
X180409838Y-98317904D01*
X180486028Y-98356000D01*
X180524123Y-98394095D01*
X180562219Y-98470285D01*
X180562219Y-98546476D01*
X180524123Y-98660761D01*
X180066980Y-99117904D01*
X180562219Y-99117904D01*
X181057457Y-98317904D02*
X181133647Y-98317904D01*
X181209838Y-98356000D01*
X181247933Y-98394095D01*
X181286028Y-98470285D01*
X181324123Y-98622666D01*
X181324123Y-98813142D01*
X181286028Y-98965523D01*
X181247933Y-99041714D01*
X181209838Y-99079809D01*
X181133647Y-99117904D01*
X181057457Y-99117904D01*
X180981266Y-99079809D01*
X180943171Y-99041714D01*
X180905076Y-98965523D01*
X180866980Y-98813142D01*
X180866980Y-98622666D01*
X180905076Y-98470285D01*
X180943171Y-98394095D01*
X180981266Y-98356000D01*
X181057457Y-98317904D01*
X176399314Y-99498914D02*
X176361219Y-99537009D01*
X176246933Y-99575104D01*
X176170742Y-99575104D01*
X176056457Y-99537009D01*
X175980266Y-99460819D01*
X175942171Y-99384628D01*
X175904076Y-99232247D01*
X175904076Y-99117961D01*
X175942171Y-98965580D01*
X175980266Y-98889390D01*
X176056457Y-98813200D01*
X176170742Y-98775104D01*
X176246933Y-98775104D01*
X176361219Y-98813200D01*
X176399314Y-98851295D01*
X177161219Y-99575104D02*
X176704076Y-99575104D01*
X176932647Y-99575104D02*
X176932647Y-98775104D01*
X176856457Y-98889390D01*
X176780266Y-98965580D01*
X176704076Y-99003676D01*
X177542171Y-99575104D02*
X177694552Y-99575104D01*
X177770742Y-99537009D01*
X177808838Y-99498914D01*
X177885028Y-99384628D01*
X177923123Y-99232247D01*
X177923123Y-98927485D01*
X177885028Y-98851295D01*
X177846933Y-98813200D01*
X177770742Y-98775104D01*
X177618361Y-98775104D01*
X177542171Y-98813200D01*
X177504076Y-98851295D01*
X177465980Y-98927485D01*
X177465980Y-99117961D01*
X177504076Y-99194152D01*
X177542171Y-99232247D01*
X177618361Y-99270342D01*
X177770742Y-99270342D01*
X177846933Y-99232247D01*
X177885028Y-99194152D01*
X177923123Y-99117961D01*
X158857914Y-115323085D02*
X158896009Y-115361180D01*
X158934104Y-115475466D01*
X158934104Y-115551657D01*
X158896009Y-115665942D01*
X158819819Y-115742133D01*
X158743628Y-115780228D01*
X158591247Y-115818323D01*
X158476961Y-115818323D01*
X158324580Y-115780228D01*
X158248390Y-115742133D01*
X158172200Y-115665942D01*
X158134104Y-115551657D01*
X158134104Y-115475466D01*
X158172200Y-115361180D01*
X158210295Y-115323085D01*
X158934104Y-114561180D02*
X158934104Y-115018323D01*
X158934104Y-114789752D02*
X158134104Y-114789752D01*
X158248390Y-114865942D01*
X158324580Y-114942133D01*
X158362676Y-115018323D01*
X158476961Y-114104038D02*
X158438866Y-114180228D01*
X158400771Y-114218323D01*
X158324580Y-114256419D01*
X158286485Y-114256419D01*
X158210295Y-114218323D01*
X158172200Y-114180228D01*
X158134104Y-114104038D01*
X158134104Y-113951657D01*
X158172200Y-113875466D01*
X158210295Y-113837371D01*
X158286485Y-113799276D01*
X158324580Y-113799276D01*
X158400771Y-113837371D01*
X158438866Y-113875466D01*
X158476961Y-113951657D01*
X158476961Y-114104038D01*
X158515057Y-114180228D01*
X158553152Y-114218323D01*
X158629342Y-114256419D01*
X158781723Y-114256419D01*
X158857914Y-114218323D01*
X158896009Y-114180228D01*
X158934104Y-114104038D01*
X158934104Y-113951657D01*
X158896009Y-113875466D01*
X158857914Y-113837371D01*
X158781723Y-113799276D01*
X158629342Y-113799276D01*
X158553152Y-113837371D01*
X158515057Y-113875466D01*
X158476961Y-113951657D01*
X152675714Y-99397314D02*
X152637619Y-99435409D01*
X152523333Y-99473504D01*
X152447142Y-99473504D01*
X152332857Y-99435409D01*
X152256666Y-99359219D01*
X152218571Y-99283028D01*
X152180476Y-99130647D01*
X152180476Y-99016361D01*
X152218571Y-98863980D01*
X152256666Y-98787790D01*
X152332857Y-98711600D01*
X152447142Y-98673504D01*
X152523333Y-98673504D01*
X152637619Y-98711600D01*
X152675714Y-98749695D01*
X153437619Y-99473504D02*
X152980476Y-99473504D01*
X153209047Y-99473504D02*
X153209047Y-98673504D01*
X153132857Y-98787790D01*
X153056666Y-98863980D01*
X152980476Y-98902076D01*
X153704285Y-98673504D02*
X154237619Y-98673504D01*
X153894761Y-99473504D01*
X144291114Y-116618514D02*
X144253019Y-116656609D01*
X144138733Y-116694704D01*
X144062542Y-116694704D01*
X143948257Y-116656609D01*
X143872066Y-116580419D01*
X143833971Y-116504228D01*
X143795876Y-116351847D01*
X143795876Y-116237561D01*
X143833971Y-116085180D01*
X143872066Y-116008990D01*
X143948257Y-115932800D01*
X144062542Y-115894704D01*
X144138733Y-115894704D01*
X144253019Y-115932800D01*
X144291114Y-115970895D01*
X145053019Y-116694704D02*
X144595876Y-116694704D01*
X144824447Y-116694704D02*
X144824447Y-115894704D01*
X144748257Y-116008990D01*
X144672066Y-116085180D01*
X144595876Y-116123276D01*
X145738733Y-115894704D02*
X145586352Y-115894704D01*
X145510161Y-115932800D01*
X145472066Y-115970895D01*
X145395876Y-116085180D01*
X145357780Y-116237561D01*
X145357780Y-116542323D01*
X145395876Y-116618514D01*
X145433971Y-116656609D01*
X145510161Y-116694704D01*
X145662542Y-116694704D01*
X145738733Y-116656609D01*
X145776828Y-116618514D01*
X145814923Y-116542323D01*
X145814923Y-116351847D01*
X145776828Y-116275657D01*
X145738733Y-116237561D01*
X145662542Y-116199466D01*
X145510161Y-116199466D01*
X145433971Y-116237561D01*
X145395876Y-116275657D01*
X145357780Y-116351847D01*
X154030714Y-109900214D02*
X153992619Y-109938309D01*
X153878333Y-109976404D01*
X153802142Y-109976404D01*
X153687857Y-109938309D01*
X153611666Y-109862119D01*
X153573571Y-109785928D01*
X153535476Y-109633547D01*
X153535476Y-109519261D01*
X153573571Y-109366880D01*
X153611666Y-109290690D01*
X153687857Y-109214500D01*
X153802142Y-109176404D01*
X153878333Y-109176404D01*
X153992619Y-109214500D01*
X154030714Y-109252595D01*
X154792619Y-109976404D02*
X154335476Y-109976404D01*
X154564047Y-109976404D02*
X154564047Y-109176404D01*
X154487857Y-109290690D01*
X154411666Y-109366880D01*
X154335476Y-109404976D01*
X155516428Y-109176404D02*
X155135476Y-109176404D01*
X155097380Y-109557357D01*
X155135476Y-109519261D01*
X155211666Y-109481166D01*
X155402142Y-109481166D01*
X155478333Y-109519261D01*
X155516428Y-109557357D01*
X155554523Y-109633547D01*
X155554523Y-109824023D01*
X155516428Y-109900214D01*
X155478333Y-109938309D01*
X155402142Y-109976404D01*
X155211666Y-109976404D01*
X155135476Y-109938309D01*
X155097380Y-109900214D01*
X146272314Y-115246914D02*
X146234219Y-115285009D01*
X146119933Y-115323104D01*
X146043742Y-115323104D01*
X145929457Y-115285009D01*
X145853266Y-115208819D01*
X145815171Y-115132628D01*
X145777076Y-114980247D01*
X145777076Y-114865961D01*
X145815171Y-114713580D01*
X145853266Y-114637390D01*
X145929457Y-114561200D01*
X146043742Y-114523104D01*
X146119933Y-114523104D01*
X146234219Y-114561200D01*
X146272314Y-114599295D01*
X147034219Y-115323104D02*
X146577076Y-115323104D01*
X146805647Y-115323104D02*
X146805647Y-114523104D01*
X146729457Y-114637390D01*
X146653266Y-114713580D01*
X146577076Y-114751676D01*
X147719933Y-114789771D02*
X147719933Y-115323104D01*
X147529457Y-114485009D02*
X147338980Y-115056438D01*
X147834219Y-115056438D01*
X137585514Y-98838514D02*
X137547419Y-98876609D01*
X137433133Y-98914704D01*
X137356942Y-98914704D01*
X137242657Y-98876609D01*
X137166466Y-98800419D01*
X137128371Y-98724228D01*
X137090276Y-98571847D01*
X137090276Y-98457561D01*
X137128371Y-98305180D01*
X137166466Y-98228990D01*
X137242657Y-98152800D01*
X137356942Y-98114704D01*
X137433133Y-98114704D01*
X137547419Y-98152800D01*
X137585514Y-98190895D01*
X138347419Y-98914704D02*
X137890276Y-98914704D01*
X138118847Y-98914704D02*
X138118847Y-98114704D01*
X138042657Y-98228990D01*
X137966466Y-98305180D01*
X137890276Y-98343276D01*
X138614085Y-98114704D02*
X139109323Y-98114704D01*
X138842657Y-98419466D01*
X138956942Y-98419466D01*
X139033133Y-98457561D01*
X139071228Y-98495657D01*
X139109323Y-98571847D01*
X139109323Y-98762323D01*
X139071228Y-98838514D01*
X139033133Y-98876609D01*
X138956942Y-98914704D01*
X138728371Y-98914704D01*
X138652180Y-98876609D01*
X138614085Y-98838514D01*
X153689114Y-101734114D02*
X153651019Y-101772209D01*
X153536733Y-101810304D01*
X153460542Y-101810304D01*
X153346257Y-101772209D01*
X153270066Y-101696019D01*
X153231971Y-101619828D01*
X153193876Y-101467447D01*
X153193876Y-101353161D01*
X153231971Y-101200780D01*
X153270066Y-101124590D01*
X153346257Y-101048400D01*
X153460542Y-101010304D01*
X153536733Y-101010304D01*
X153651019Y-101048400D01*
X153689114Y-101086495D01*
X154451019Y-101810304D02*
X153993876Y-101810304D01*
X154222447Y-101810304D02*
X154222447Y-101010304D01*
X154146257Y-101124590D01*
X154070066Y-101200780D01*
X153993876Y-101238876D01*
X154755780Y-101086495D02*
X154793876Y-101048400D01*
X154870066Y-101010304D01*
X155060542Y-101010304D01*
X155136733Y-101048400D01*
X155174828Y-101086495D01*
X155212923Y-101162685D01*
X155212923Y-101238876D01*
X155174828Y-101353161D01*
X154717685Y-101810304D01*
X155212923Y-101810304D01*
X154044714Y-111156714D02*
X154006619Y-111194809D01*
X153892333Y-111232904D01*
X153816142Y-111232904D01*
X153701857Y-111194809D01*
X153625666Y-111118619D01*
X153587571Y-111042428D01*
X153549476Y-110890047D01*
X153549476Y-110775761D01*
X153587571Y-110623380D01*
X153625666Y-110547190D01*
X153701857Y-110471000D01*
X153816142Y-110432904D01*
X153892333Y-110432904D01*
X154006619Y-110471000D01*
X154044714Y-110509095D01*
X154806619Y-111232904D02*
X154349476Y-111232904D01*
X154578047Y-111232904D02*
X154578047Y-110432904D01*
X154501857Y-110547190D01*
X154425666Y-110623380D01*
X154349476Y-110661476D01*
X155568523Y-111232904D02*
X155111380Y-111232904D01*
X155339952Y-111232904D02*
X155339952Y-110432904D01*
X155263761Y-110547190D01*
X155187571Y-110623380D01*
X155111380Y-110661476D01*
X146366714Y-119910285D02*
X146404809Y-119948380D01*
X146442904Y-120062666D01*
X146442904Y-120138857D01*
X146404809Y-120253142D01*
X146328619Y-120329333D01*
X146252428Y-120367428D01*
X146100047Y-120405523D01*
X145985761Y-120405523D01*
X145833380Y-120367428D01*
X145757190Y-120329333D01*
X145681000Y-120253142D01*
X145642904Y-120138857D01*
X145642904Y-120062666D01*
X145681000Y-119948380D01*
X145719095Y-119910285D01*
X146442904Y-119148380D02*
X146442904Y-119605523D01*
X146442904Y-119376952D02*
X145642904Y-119376952D01*
X145757190Y-119453142D01*
X145833380Y-119529333D01*
X145871476Y-119605523D01*
X145642904Y-118653142D02*
X145642904Y-118576952D01*
X145681000Y-118500761D01*
X145719095Y-118462666D01*
X145795285Y-118424571D01*
X145947666Y-118386476D01*
X146138142Y-118386476D01*
X146290523Y-118424571D01*
X146366714Y-118462666D01*
X146404809Y-118500761D01*
X146442904Y-118576952D01*
X146442904Y-118653142D01*
X146404809Y-118729333D01*
X146366714Y-118767428D01*
X146290523Y-118805523D01*
X146138142Y-118843619D01*
X145947666Y-118843619D01*
X145795285Y-118805523D01*
X145719095Y-118767428D01*
X145681000Y-118729333D01*
X145642904Y-118653142D01*
X144278314Y-106153733D02*
X144316409Y-106191828D01*
X144354504Y-106306114D01*
X144354504Y-106382304D01*
X144316409Y-106496590D01*
X144240219Y-106572780D01*
X144164028Y-106610876D01*
X144011647Y-106648971D01*
X143897361Y-106648971D01*
X143744980Y-106610876D01*
X143668790Y-106572780D01*
X143592600Y-106496590D01*
X143554504Y-106382304D01*
X143554504Y-106306114D01*
X143592600Y-106191828D01*
X143630695Y-106153733D01*
X144354504Y-105772780D02*
X144354504Y-105620400D01*
X144316409Y-105544209D01*
X144278314Y-105506114D01*
X144164028Y-105429923D01*
X144011647Y-105391828D01*
X143706885Y-105391828D01*
X143630695Y-105429923D01*
X143592600Y-105468019D01*
X143554504Y-105544209D01*
X143554504Y-105696590D01*
X143592600Y-105772780D01*
X143630695Y-105810876D01*
X143706885Y-105848971D01*
X143897361Y-105848971D01*
X143973552Y-105810876D01*
X144011647Y-105772780D01*
X144049742Y-105696590D01*
X144049742Y-105544209D01*
X144011647Y-105468019D01*
X143973552Y-105429923D01*
X143897361Y-105391828D01*
X127958866Y-109201714D02*
X127920771Y-109239809D01*
X127806485Y-109277904D01*
X127730295Y-109277904D01*
X127616009Y-109239809D01*
X127539819Y-109163619D01*
X127501723Y-109087428D01*
X127463628Y-108935047D01*
X127463628Y-108820761D01*
X127501723Y-108668380D01*
X127539819Y-108592190D01*
X127616009Y-108516000D01*
X127730295Y-108477904D01*
X127806485Y-108477904D01*
X127920771Y-108516000D01*
X127958866Y-108554095D01*
X128416009Y-108820761D02*
X128339819Y-108782666D01*
X128301723Y-108744571D01*
X128263628Y-108668380D01*
X128263628Y-108630285D01*
X128301723Y-108554095D01*
X128339819Y-108516000D01*
X128416009Y-108477904D01*
X128568390Y-108477904D01*
X128644580Y-108516000D01*
X128682676Y-108554095D01*
X128720771Y-108630285D01*
X128720771Y-108668380D01*
X128682676Y-108744571D01*
X128644580Y-108782666D01*
X128568390Y-108820761D01*
X128416009Y-108820761D01*
X128339819Y-108858857D01*
X128301723Y-108896952D01*
X128263628Y-108973142D01*
X128263628Y-109125523D01*
X128301723Y-109201714D01*
X128339819Y-109239809D01*
X128416009Y-109277904D01*
X128568390Y-109277904D01*
X128644580Y-109239809D01*
X128682676Y-109201714D01*
X128720771Y-109125523D01*
X128720771Y-108973142D01*
X128682676Y-108896952D01*
X128644580Y-108858857D01*
X128568390Y-108820761D01*
X111283714Y-114814333D02*
X111321809Y-114852428D01*
X111359904Y-114966714D01*
X111359904Y-115042904D01*
X111321809Y-115157190D01*
X111245619Y-115233380D01*
X111169428Y-115271476D01*
X111017047Y-115309571D01*
X110902761Y-115309571D01*
X110750380Y-115271476D01*
X110674190Y-115233380D01*
X110598000Y-115157190D01*
X110559904Y-115042904D01*
X110559904Y-114966714D01*
X110598000Y-114852428D01*
X110636095Y-114814333D01*
X110559904Y-114547666D02*
X110559904Y-114014333D01*
X111359904Y-114357190D01*
X111283714Y-113290333D02*
X111321809Y-113328428D01*
X111359904Y-113442714D01*
X111359904Y-113518904D01*
X111321809Y-113633190D01*
X111245619Y-113709380D01*
X111169428Y-113747476D01*
X111017047Y-113785571D01*
X110902761Y-113785571D01*
X110750380Y-113747476D01*
X110674190Y-113709380D01*
X110598000Y-113633190D01*
X110559904Y-113518904D01*
X110559904Y-113442714D01*
X110598000Y-113328428D01*
X110636095Y-113290333D01*
X110559904Y-112604619D02*
X110559904Y-112757000D01*
X110598000Y-112833190D01*
X110636095Y-112871285D01*
X110750380Y-112947476D01*
X110902761Y-112985571D01*
X111207523Y-112985571D01*
X111283714Y-112947476D01*
X111321809Y-112909380D01*
X111359904Y-112833190D01*
X111359904Y-112680809D01*
X111321809Y-112604619D01*
X111283714Y-112566523D01*
X111207523Y-112528428D01*
X111017047Y-112528428D01*
X110940857Y-112566523D01*
X110902761Y-112604619D01*
X110864666Y-112680809D01*
X110864666Y-112833190D01*
X110902761Y-112909380D01*
X110940857Y-112947476D01*
X111017047Y-112985571D01*
X110737666Y-98724214D02*
X110699571Y-98762309D01*
X110585285Y-98800404D01*
X110509095Y-98800404D01*
X110394809Y-98762309D01*
X110318619Y-98686119D01*
X110280523Y-98609928D01*
X110242428Y-98457547D01*
X110242428Y-98343261D01*
X110280523Y-98190880D01*
X110318619Y-98114690D01*
X110394809Y-98038500D01*
X110509095Y-98000404D01*
X110585285Y-98000404D01*
X110699571Y-98038500D01*
X110737666Y-98076595D01*
X111461476Y-98000404D02*
X111080523Y-98000404D01*
X111042428Y-98381357D01*
X111080523Y-98343261D01*
X111156714Y-98305166D01*
X111347190Y-98305166D01*
X111423380Y-98343261D01*
X111461476Y-98381357D01*
X111499571Y-98457547D01*
X111499571Y-98648023D01*
X111461476Y-98724214D01*
X111423380Y-98762309D01*
X111347190Y-98800404D01*
X111156714Y-98800404D01*
X111080523Y-98762309D01*
X111042428Y-98724214D01*
X128184866Y-120681714D02*
X128146771Y-120719809D01*
X128032485Y-120757904D01*
X127956295Y-120757904D01*
X127842009Y-120719809D01*
X127765819Y-120643619D01*
X127727723Y-120567428D01*
X127689628Y-120415047D01*
X127689628Y-120300761D01*
X127727723Y-120148380D01*
X127765819Y-120072190D01*
X127842009Y-119996000D01*
X127956295Y-119957904D01*
X128032485Y-119957904D01*
X128146771Y-119996000D01*
X128184866Y-120034095D01*
X128870580Y-120224571D02*
X128870580Y-120757904D01*
X128680104Y-119919809D02*
X128489628Y-120491238D01*
X128984866Y-120491238D01*
X119411714Y-117227333D02*
X119449809Y-117265428D01*
X119487904Y-117379714D01*
X119487904Y-117455904D01*
X119449809Y-117570190D01*
X119373619Y-117646380D01*
X119297428Y-117684476D01*
X119145047Y-117722571D01*
X119030761Y-117722571D01*
X118878380Y-117684476D01*
X118802190Y-117646380D01*
X118726000Y-117570190D01*
X118687904Y-117455904D01*
X118687904Y-117379714D01*
X118726000Y-117265428D01*
X118764095Y-117227333D01*
X118687904Y-116960666D02*
X118687904Y-116465428D01*
X118992666Y-116732095D01*
X118992666Y-116617809D01*
X119030761Y-116541619D01*
X119068857Y-116503523D01*
X119145047Y-116465428D01*
X119335523Y-116465428D01*
X119411714Y-116503523D01*
X119449809Y-116541619D01*
X119487904Y-116617809D01*
X119487904Y-116846380D01*
X119449809Y-116922571D01*
X119411714Y-116960666D01*
X121278666Y-101631714D02*
X121240571Y-101669809D01*
X121126285Y-101707904D01*
X121050095Y-101707904D01*
X120935809Y-101669809D01*
X120859619Y-101593619D01*
X120821523Y-101517428D01*
X120783428Y-101365047D01*
X120783428Y-101250761D01*
X120821523Y-101098380D01*
X120859619Y-101022190D01*
X120935809Y-100946000D01*
X121050095Y-100907904D01*
X121126285Y-100907904D01*
X121240571Y-100946000D01*
X121278666Y-100984095D01*
X121583428Y-100984095D02*
X121621523Y-100946000D01*
X121697714Y-100907904D01*
X121888190Y-100907904D01*
X121964380Y-100946000D01*
X122002476Y-100984095D01*
X122040571Y-101060285D01*
X122040571Y-101136476D01*
X122002476Y-101250761D01*
X121545333Y-101707904D01*
X122040571Y-101707904D01*
X112896666Y-116567714D02*
X112858571Y-116605809D01*
X112744285Y-116643904D01*
X112668095Y-116643904D01*
X112553809Y-116605809D01*
X112477619Y-116529619D01*
X112439523Y-116453428D01*
X112401428Y-116301047D01*
X112401428Y-116186761D01*
X112439523Y-116034380D01*
X112477619Y-115958190D01*
X112553809Y-115882000D01*
X112668095Y-115843904D01*
X112744285Y-115843904D01*
X112858571Y-115882000D01*
X112896666Y-115920095D01*
X113658571Y-116643904D02*
X113201428Y-116643904D01*
X113430000Y-116643904D02*
X113430000Y-115843904D01*
X113353809Y-115958190D01*
X113277619Y-116034380D01*
X113201428Y-116072476D01*
M02*
