G04 #@! TF.GenerationSoftware,KiCad,Pcbnew,(5.1.8)-1*
G04 #@! TF.CreationDate,2020-12-07T15:13:27+01:00*
G04 #@! TF.ProjectId,SuperPower-uC-KiCad,53757065-7250-46f7-9765-722d75432d4b,rev?*
G04 #@! TF.SameCoordinates,Original*
G04 #@! TF.FileFunction,Soldermask,Bot*
G04 #@! TF.FilePolarity,Negative*
%FSLAX46Y46*%
G04 Gerber Fmt 4.6, Leading zero omitted, Abs format (unit mm)*
G04 Created by KiCad (PCBNEW (5.1.8)-1) date 2020-12-07 15:13:27*
%MOMM*%
%LPD*%
G01*
G04 APERTURE LIST*
%ADD10O,1.802000X1.802000*%
%ADD11O,2.002000X1.302000*%
%ADD12C,1.552000*%
%ADD13O,2.102000X1.802000*%
%ADD14C,0.100000*%
G04 APERTURE END LIST*
D10*
X130683000Y-121920000D03*
X133223000Y-121920000D03*
X135763000Y-121920000D03*
X138303000Y-121920000D03*
X140843000Y-121920000D03*
X143383000Y-121920000D03*
X145923000Y-121920000D03*
X148463000Y-121920000D03*
X151003000Y-121920000D03*
X153543000Y-121920000D03*
X156083000Y-121920000D03*
X158623000Y-121920000D03*
X161163000Y-121920000D03*
X163703000Y-121920000D03*
X166243000Y-121920000D03*
X168783000Y-121920000D03*
X171323000Y-121920000D03*
X173863000Y-121920000D03*
X176403000Y-121920000D03*
X178943000Y-121920000D03*
G36*
G01*
X180633000Y-121019000D02*
X182333000Y-121019000D01*
G75*
G02*
X182384000Y-121070000I0J-51000D01*
G01*
X182384000Y-122770000D01*
G75*
G02*
X182333000Y-122821000I-51000J0D01*
G01*
X180633000Y-122821000D01*
G75*
G02*
X180582000Y-122770000I0J51000D01*
G01*
X180582000Y-121070000D01*
G75*
G02*
X180633000Y-121019000I51000J0D01*
G01*
G37*
X130683000Y-96520000D03*
X133223000Y-96520000D03*
X135763000Y-96520000D03*
X138303000Y-96520000D03*
X140843000Y-96520000D03*
X143383000Y-96520000D03*
X145923000Y-96520000D03*
X148463000Y-96520000D03*
X151003000Y-96520000D03*
X153543000Y-96520000D03*
X156083000Y-96520000D03*
X158623000Y-96520000D03*
X161163000Y-96520000D03*
X163703000Y-96520000D03*
X166243000Y-96520000D03*
X168783000Y-96520000D03*
X171323000Y-96520000D03*
X173863000Y-96520000D03*
X176403000Y-96520000D03*
X178943000Y-96520000D03*
G36*
G01*
X180633000Y-95619000D02*
X182333000Y-95619000D01*
G75*
G02*
X182384000Y-95670000I0J-51000D01*
G01*
X182384000Y-97370000D01*
G75*
G02*
X182333000Y-97421000I-51000J0D01*
G01*
X180633000Y-97421000D01*
G75*
G02*
X180582000Y-97370000I0J51000D01*
G01*
X180582000Y-95670000D01*
G75*
G02*
X180633000Y-95619000I51000J0D01*
G01*
G37*
G36*
G01*
X131805000Y-114296000D02*
X131805000Y-112796000D01*
G75*
G02*
X131856000Y-112745000I51000J0D01*
G01*
X133356000Y-112745000D01*
G75*
G02*
X133407000Y-112796000I0J-51000D01*
G01*
X133407000Y-114296000D01*
G75*
G02*
X133356000Y-114347000I-51000J0D01*
G01*
X131856000Y-114347000D01*
G75*
G02*
X131805000Y-114296000I0J51000D01*
G01*
G37*
G36*
G01*
X123532000Y-122797000D02*
X123532000Y-121297000D01*
G75*
G02*
X123583000Y-121246000I51000J0D01*
G01*
X125083000Y-121246000D01*
G75*
G02*
X125134000Y-121297000I0J-51000D01*
G01*
X125134000Y-122797000D01*
G75*
G02*
X125083000Y-122848000I-51000J0D01*
G01*
X123583000Y-122848000D01*
G75*
G02*
X123532000Y-122797000I0J51000D01*
G01*
G37*
G36*
G01*
X152234000Y-117717000D02*
X152234000Y-116217000D01*
G75*
G02*
X152285000Y-116166000I51000J0D01*
G01*
X153785000Y-116166000D01*
G75*
G02*
X153836000Y-116217000I0J-51000D01*
G01*
X153836000Y-117717000D01*
G75*
G02*
X153785000Y-117768000I-51000J0D01*
G01*
X152285000Y-117768000D01*
G75*
G02*
X152234000Y-117717000I0J51000D01*
G01*
G37*
G36*
G01*
X146849200Y-101893600D02*
X146849200Y-100393600D01*
G75*
G02*
X146900200Y-100342600I51000J0D01*
G01*
X148400200Y-100342600D01*
G75*
G02*
X148451200Y-100393600I0J-51000D01*
G01*
X148451200Y-101893600D01*
G75*
G02*
X148400200Y-101944600I-51000J0D01*
G01*
X146900200Y-101944600D01*
G75*
G02*
X146849200Y-101893600I0J51000D01*
G01*
G37*
G36*
G01*
X112102000Y-105588500D02*
X112102000Y-104088500D01*
G75*
G02*
X112153000Y-104037500I51000J0D01*
G01*
X113653000Y-104037500D01*
G75*
G02*
X113704000Y-104088500I0J-51000D01*
G01*
X113704000Y-105588500D01*
G75*
G02*
X113653000Y-105639500I-51000J0D01*
G01*
X112153000Y-105639500D01*
G75*
G02*
X112102000Y-105588500I0J51000D01*
G01*
G37*
G36*
G01*
X109562000Y-105588500D02*
X109562000Y-104088500D01*
G75*
G02*
X109613000Y-104037500I51000J0D01*
G01*
X111113000Y-104037500D01*
G75*
G02*
X111164000Y-104088500I0J-51000D01*
G01*
X111164000Y-105588500D01*
G75*
G02*
X111113000Y-105639500I-51000J0D01*
G01*
X109613000Y-105639500D01*
G75*
G02*
X109562000Y-105588500I0J51000D01*
G01*
G37*
G36*
G01*
X127215000Y-121654000D02*
X127215000Y-120154000D01*
G75*
G02*
X127266000Y-120103000I51000J0D01*
G01*
X128766000Y-120103000D01*
G75*
G02*
X128817000Y-120154000I0J-51000D01*
G01*
X128817000Y-121654000D01*
G75*
G02*
X128766000Y-121705000I-51000J0D01*
G01*
X127266000Y-121705000D01*
G75*
G02*
X127215000Y-121654000I0J51000D01*
G01*
G37*
G36*
G01*
X116674000Y-99429000D02*
X116674000Y-97929000D01*
G75*
G02*
X116725000Y-97878000I51000J0D01*
G01*
X118225000Y-97878000D01*
G75*
G02*
X118276000Y-97929000I0J-51000D01*
G01*
X118276000Y-99429000D01*
G75*
G02*
X118225000Y-99480000I-51000J0D01*
G01*
X116725000Y-99480000D01*
G75*
G02*
X116674000Y-99429000I0J51000D01*
G01*
G37*
D11*
X103537500Y-113085000D03*
X103537500Y-106085000D03*
D12*
X106237500Y-112085000D03*
X106237500Y-107085000D03*
G36*
G01*
X140323000Y-112468000D02*
X138823000Y-112468000D01*
G75*
G02*
X138772000Y-112417000I0J51000D01*
G01*
X138772000Y-111417000D01*
G75*
G02*
X138823000Y-111366000I51000J0D01*
G01*
X140323000Y-111366000D01*
G75*
G02*
X140374000Y-111417000I0J-51000D01*
G01*
X140374000Y-112417000D01*
G75*
G02*
X140323000Y-112468000I-51000J0D01*
G01*
G37*
G36*
G01*
X140323000Y-111168000D02*
X138823000Y-111168000D01*
G75*
G02*
X138772000Y-111117000I0J51000D01*
G01*
X138772000Y-110117000D01*
G75*
G02*
X138823000Y-110066000I51000J0D01*
G01*
X140323000Y-110066000D01*
G75*
G02*
X140374000Y-110117000I0J-51000D01*
G01*
X140374000Y-111117000D01*
G75*
G02*
X140323000Y-111168000I-51000J0D01*
G01*
G37*
G36*
G01*
X151793600Y-113120400D02*
X151793600Y-111620400D01*
G75*
G02*
X151844600Y-111569400I51000J0D01*
G01*
X152844600Y-111569400D01*
G75*
G02*
X152895600Y-111620400I0J-51000D01*
G01*
X152895600Y-113120400D01*
G75*
G02*
X152844600Y-113171400I-51000J0D01*
G01*
X151844600Y-113171400D01*
G75*
G02*
X151793600Y-113120400I0J51000D01*
G01*
G37*
G36*
G01*
X153093600Y-113120400D02*
X153093600Y-111620400D01*
G75*
G02*
X153144600Y-111569400I51000J0D01*
G01*
X154144600Y-111569400D01*
G75*
G02*
X154195600Y-111620400I0J-51000D01*
G01*
X154195600Y-113120400D01*
G75*
G02*
X154144600Y-113171400I-51000J0D01*
G01*
X153144600Y-113171400D01*
G75*
G02*
X153093600Y-113120400I0J51000D01*
G01*
G37*
G36*
G01*
X104956000Y-105588500D02*
X104956000Y-104088500D01*
G75*
G02*
X105007000Y-104037500I51000J0D01*
G01*
X106007000Y-104037500D01*
G75*
G02*
X106058000Y-104088500I0J-51000D01*
G01*
X106058000Y-105588500D01*
G75*
G02*
X106007000Y-105639500I-51000J0D01*
G01*
X105007000Y-105639500D01*
G75*
G02*
X104956000Y-105588500I0J51000D01*
G01*
G37*
G36*
G01*
X106256000Y-105588500D02*
X106256000Y-104088500D01*
G75*
G02*
X106307000Y-104037500I51000J0D01*
G01*
X107307000Y-104037500D01*
G75*
G02*
X107358000Y-104088500I0J-51000D01*
G01*
X107358000Y-105588500D01*
G75*
G02*
X107307000Y-105639500I-51000J0D01*
G01*
X106307000Y-105639500D01*
G75*
G02*
X106256000Y-105588500I0J51000D01*
G01*
G37*
G36*
G01*
X107556000Y-105588500D02*
X107556000Y-104088500D01*
G75*
G02*
X107607000Y-104037500I51000J0D01*
G01*
X108607000Y-104037500D01*
G75*
G02*
X108658000Y-104088500I0J-51000D01*
G01*
X108658000Y-105588500D01*
G75*
G02*
X108607000Y-105639500I-51000J0D01*
G01*
X107607000Y-105639500D01*
G75*
G02*
X107556000Y-105588500I0J51000D01*
G01*
G37*
D13*
X109093000Y-98034000D03*
G36*
G01*
X109879000Y-101435000D02*
X108307000Y-101435000D01*
G75*
G02*
X108042000Y-101170000I0J265000D01*
G01*
X108042000Y-99898000D01*
G75*
G02*
X108307000Y-99633000I265000J0D01*
G01*
X109879000Y-99633000D01*
G75*
G02*
X110144000Y-99898000I0J-265000D01*
G01*
X110144000Y-101170000D01*
G75*
G02*
X109879000Y-101435000I-265000J0D01*
G01*
G37*
X109093000Y-117846000D03*
G36*
G01*
X109879000Y-121247000D02*
X108307000Y-121247000D01*
G75*
G02*
X108042000Y-120982000I0J265000D01*
G01*
X108042000Y-119710000D01*
G75*
G02*
X108307000Y-119445000I265000J0D01*
G01*
X109879000Y-119445000D01*
G75*
G02*
X110144000Y-119710000I0J-265000D01*
G01*
X110144000Y-120982000D01*
G75*
G02*
X109879000Y-121247000I-265000J0D01*
G01*
G37*
D14*
G36*
X108043990Y-120981804D02*
G01*
X108049062Y-121033304D01*
X108064029Y-121082642D01*
X108088332Y-121128110D01*
X108121038Y-121167962D01*
X108160890Y-121200668D01*
X108206358Y-121224971D01*
X108255696Y-121239938D01*
X108307196Y-121245010D01*
X108308822Y-121246175D01*
X108308626Y-121248165D01*
X108307000Y-121249000D01*
X108224903Y-121249000D01*
X108224707Y-121248990D01*
X108184204Y-121245001D01*
X108183819Y-121244925D01*
X108150767Y-121234899D01*
X108150405Y-121234749D01*
X108119954Y-121218472D01*
X108119628Y-121218254D01*
X108092932Y-121196345D01*
X108092655Y-121196068D01*
X108070746Y-121169372D01*
X108070528Y-121169046D01*
X108054251Y-121138595D01*
X108054101Y-121138233D01*
X108044075Y-121105181D01*
X108043999Y-121104796D01*
X108040010Y-121064293D01*
X108040000Y-121064097D01*
X108040000Y-120982000D01*
X108041000Y-120980268D01*
X108043000Y-120980268D01*
X108043990Y-120981804D01*
G37*
G36*
X110145165Y-120980374D02*
G01*
X110146000Y-120982000D01*
X110146000Y-121064097D01*
X110145990Y-121064293D01*
X110142001Y-121104796D01*
X110141925Y-121105181D01*
X110131899Y-121138233D01*
X110131749Y-121138595D01*
X110115472Y-121169046D01*
X110115254Y-121169372D01*
X110093345Y-121196068D01*
X110093068Y-121196345D01*
X110066372Y-121218254D01*
X110066046Y-121218472D01*
X110035595Y-121234749D01*
X110035233Y-121234899D01*
X110002181Y-121244925D01*
X110001796Y-121245001D01*
X109961293Y-121248990D01*
X109961097Y-121249000D01*
X109879000Y-121249000D01*
X109877268Y-121248000D01*
X109877268Y-121246000D01*
X109878804Y-121245010D01*
X109930304Y-121239938D01*
X109979642Y-121224971D01*
X110025110Y-121200668D01*
X110064962Y-121167962D01*
X110097668Y-121128110D01*
X110121971Y-121082642D01*
X110136938Y-121033304D01*
X110142010Y-120981804D01*
X110143175Y-120980178D01*
X110145165Y-120980374D01*
G37*
G36*
X108308732Y-119444000D02*
G01*
X108308732Y-119446000D01*
X108307196Y-119446990D01*
X108255696Y-119452062D01*
X108206358Y-119467029D01*
X108160890Y-119491332D01*
X108121038Y-119524038D01*
X108088332Y-119563890D01*
X108064029Y-119609358D01*
X108049062Y-119658696D01*
X108043990Y-119710196D01*
X108042825Y-119711822D01*
X108040835Y-119711626D01*
X108040000Y-119710000D01*
X108040000Y-119627903D01*
X108040010Y-119627707D01*
X108043999Y-119587204D01*
X108044075Y-119586819D01*
X108054101Y-119553767D01*
X108054251Y-119553405D01*
X108070528Y-119522954D01*
X108070746Y-119522628D01*
X108092655Y-119495932D01*
X108092932Y-119495655D01*
X108119628Y-119473746D01*
X108119954Y-119473528D01*
X108150405Y-119457251D01*
X108150767Y-119457101D01*
X108183819Y-119447075D01*
X108184204Y-119446999D01*
X108224707Y-119443010D01*
X108224903Y-119443000D01*
X108307000Y-119443000D01*
X108308732Y-119444000D01*
G37*
G36*
X109961293Y-119443010D02*
G01*
X110001796Y-119446999D01*
X110002181Y-119447075D01*
X110035233Y-119457101D01*
X110035595Y-119457251D01*
X110066046Y-119473528D01*
X110066372Y-119473746D01*
X110093068Y-119495655D01*
X110093345Y-119495932D01*
X110115254Y-119522628D01*
X110115472Y-119522954D01*
X110131749Y-119553405D01*
X110131899Y-119553767D01*
X110141925Y-119586819D01*
X110142001Y-119587204D01*
X110145990Y-119627707D01*
X110146000Y-119627903D01*
X110146000Y-119710000D01*
X110145000Y-119711732D01*
X110143000Y-119711732D01*
X110142010Y-119710196D01*
X110136938Y-119658696D01*
X110121971Y-119609358D01*
X110097668Y-119563890D01*
X110064962Y-119524038D01*
X110025110Y-119491332D01*
X109979642Y-119467029D01*
X109930304Y-119452062D01*
X109878804Y-119446990D01*
X109877178Y-119445825D01*
X109877374Y-119443835D01*
X109879000Y-119443000D01*
X109961097Y-119443000D01*
X109961293Y-119443010D01*
G37*
G36*
X153095332Y-111568400D02*
G01*
X153095600Y-111569400D01*
X153095600Y-113171400D01*
X153094600Y-113173132D01*
X153093600Y-113173400D01*
X152895600Y-113173400D01*
X152893868Y-113172400D01*
X152893600Y-113171400D01*
X152893600Y-111569400D01*
X152894600Y-111567668D01*
X152895600Y-111567400D01*
X153093600Y-111567400D01*
X153095332Y-111568400D01*
G37*
G36*
X140375732Y-111167000D02*
G01*
X140376000Y-111168000D01*
X140376000Y-111366000D01*
X140375000Y-111367732D01*
X140374000Y-111368000D01*
X138772000Y-111368000D01*
X138770268Y-111367000D01*
X138770000Y-111366000D01*
X138770000Y-111168000D01*
X138771000Y-111166268D01*
X138772000Y-111166000D01*
X140374000Y-111166000D01*
X140375732Y-111167000D01*
G37*
G36*
X107557732Y-104036500D02*
G01*
X107558000Y-104037500D01*
X107558000Y-105639500D01*
X107557000Y-105641232D01*
X107556000Y-105641500D01*
X107358000Y-105641500D01*
X107356268Y-105640500D01*
X107356000Y-105639500D01*
X107356000Y-104039500D01*
X106258000Y-104039500D01*
X106258000Y-105639500D01*
X106257000Y-105641232D01*
X106256000Y-105641500D01*
X106058000Y-105641500D01*
X106056268Y-105640500D01*
X106056000Y-105639500D01*
X106056000Y-104037500D01*
X106057000Y-104035768D01*
X106058000Y-104035500D01*
X107556000Y-104035500D01*
X107557732Y-104036500D01*
G37*
G36*
X110145165Y-101168374D02*
G01*
X110146000Y-101170000D01*
X110146000Y-101252097D01*
X110145990Y-101252293D01*
X110142001Y-101292796D01*
X110141925Y-101293181D01*
X110131899Y-101326233D01*
X110131749Y-101326595D01*
X110115472Y-101357046D01*
X110115254Y-101357372D01*
X110093345Y-101384068D01*
X110093068Y-101384345D01*
X110066372Y-101406254D01*
X110066046Y-101406472D01*
X110035595Y-101422749D01*
X110035233Y-101422899D01*
X110002181Y-101432925D01*
X110001796Y-101433001D01*
X109961293Y-101436990D01*
X109961097Y-101437000D01*
X109879000Y-101437000D01*
X109877268Y-101436000D01*
X109877268Y-101434000D01*
X109878804Y-101433010D01*
X109930304Y-101427938D01*
X109979642Y-101412971D01*
X110025110Y-101388668D01*
X110064962Y-101355962D01*
X110097668Y-101316110D01*
X110121971Y-101270642D01*
X110136938Y-101221304D01*
X110142010Y-101169804D01*
X110143175Y-101168178D01*
X110145165Y-101168374D01*
G37*
G36*
X108043990Y-101169804D02*
G01*
X108049062Y-101221304D01*
X108064029Y-101270642D01*
X108088332Y-101316110D01*
X108121038Y-101355962D01*
X108160890Y-101388668D01*
X108206358Y-101412971D01*
X108255696Y-101427938D01*
X108307196Y-101433010D01*
X108308822Y-101434175D01*
X108308626Y-101436165D01*
X108307000Y-101437000D01*
X108224903Y-101437000D01*
X108224707Y-101436990D01*
X108184204Y-101433001D01*
X108183819Y-101432925D01*
X108150767Y-101422899D01*
X108150405Y-101422749D01*
X108119954Y-101406472D01*
X108119628Y-101406254D01*
X108092932Y-101384345D01*
X108092655Y-101384068D01*
X108070746Y-101357372D01*
X108070528Y-101357046D01*
X108054251Y-101326595D01*
X108054101Y-101326233D01*
X108044075Y-101293181D01*
X108043999Y-101292796D01*
X108040010Y-101252293D01*
X108040000Y-101252097D01*
X108040000Y-101170000D01*
X108041000Y-101168268D01*
X108043000Y-101168268D01*
X108043990Y-101169804D01*
G37*
G36*
X108308732Y-99632000D02*
G01*
X108308732Y-99634000D01*
X108307196Y-99634990D01*
X108255696Y-99640062D01*
X108206358Y-99655029D01*
X108160890Y-99679332D01*
X108121038Y-99712038D01*
X108088332Y-99751890D01*
X108064029Y-99797358D01*
X108049062Y-99846696D01*
X108043990Y-99898196D01*
X108042825Y-99899822D01*
X108040835Y-99899626D01*
X108040000Y-99898000D01*
X108040000Y-99815903D01*
X108040010Y-99815707D01*
X108043999Y-99775204D01*
X108044075Y-99774819D01*
X108054101Y-99741767D01*
X108054251Y-99741405D01*
X108070528Y-99710954D01*
X108070746Y-99710628D01*
X108092655Y-99683932D01*
X108092932Y-99683655D01*
X108119628Y-99661746D01*
X108119954Y-99661528D01*
X108150405Y-99645251D01*
X108150767Y-99645101D01*
X108183819Y-99635075D01*
X108184204Y-99634999D01*
X108224707Y-99631010D01*
X108224903Y-99631000D01*
X108307000Y-99631000D01*
X108308732Y-99632000D01*
G37*
G36*
X109961293Y-99631010D02*
G01*
X110001796Y-99634999D01*
X110002181Y-99635075D01*
X110035233Y-99645101D01*
X110035595Y-99645251D01*
X110066046Y-99661528D01*
X110066372Y-99661746D01*
X110093068Y-99683655D01*
X110093345Y-99683932D01*
X110115254Y-99710628D01*
X110115472Y-99710954D01*
X110131749Y-99741405D01*
X110131899Y-99741767D01*
X110141925Y-99774819D01*
X110142001Y-99775204D01*
X110145990Y-99815707D01*
X110146000Y-99815903D01*
X110146000Y-99898000D01*
X110145000Y-99899732D01*
X110143000Y-99899732D01*
X110142010Y-99898196D01*
X110136938Y-99846696D01*
X110121971Y-99797358D01*
X110097668Y-99751890D01*
X110064962Y-99712038D01*
X110025110Y-99679332D01*
X109979642Y-99655029D01*
X109930304Y-99640062D01*
X109878804Y-99634990D01*
X109877178Y-99633825D01*
X109877374Y-99631835D01*
X109879000Y-99631000D01*
X109961097Y-99631000D01*
X109961293Y-99631010D01*
G37*
M02*
