M48
; DRILL file {KiCad (5.1.8)-1} date 12/07/20 15:13:44
; FORMAT={-:-/ absolute / inch / decimal}
; #@! TF.CreationDate,2020-12-07T15:13:44+01:00
; #@! TF.GenerationSoftware,Kicad,Pcbnew,(5.1.8)-1
; #@! TF.FileFunction,Plated,1,2,PTH
FMAT,2
INCH
T1C0.0118
T2C0.0157
T3C0.0236
T4C0.0335
T5C0.0394
%
G90
G05
T1
X4.365Y-4.175
X4.3772Y-4.2361
X4.3774Y-4.5557
X4.3851Y-3.9467
X4.4075Y-4.3326
X4.4228Y-4.0828
X4.425Y-4.715
X4.5143Y-4.5676
X4.575Y-3.885
X4.6075Y-4.7725
X4.6075Y-4.7981
X4.745Y-4.56
X4.755Y-4.775
X4.764Y-4.6721
X4.8574Y-4.6426
X4.895Y-4.292
X4.9Y-4.76
X4.9166Y-4.4703
X4.93Y-4.06
X4.9485Y-4.6226
X4.96Y-4.359
X4.963Y-4.452
X5.0319Y-3.885
X5.0375Y-4.2845
X5.04Y-3.9994
X5.041Y-4.06
X5.065Y-3.88
X5.081Y-3.9803
X5.081Y-4.086
X5.095Y-4.542
X5.109Y-4.166
X5.1176Y-4.728
X5.1231Y-4.0221
X5.1282Y-4.2267
X5.1391Y-4.322
X5.153Y-4.088
X5.1673Y-4.2087
X5.1715Y-4.3228
X5.1871Y-3.9581
X5.1969Y-4.0076
X5.197Y-4.074
X5.2293Y-4.0957
X5.233Y-4.042
X5.261Y-4.528
X5.267Y-4.56
X5.309Y-4.518
X5.323Y-4.722
X5.36Y-3.965
X5.3624Y-4.2302
X5.3743Y-4.2981
X5.399Y-4.006
X5.4136Y-4.339
X5.4136Y-4.3685
X5.4136Y-4.398
X5.429Y-4.16
X5.4572Y-4.4678
X5.475Y-3.998
X5.4796Y-4.3265
X5.4825Y-4.121
X5.5075Y-4.4455
X5.5225Y-4.5925
X5.5225Y-4.51
X5.5226Y-4.106
X5.601Y-3.93
X5.611Y-4.398
X5.613Y-4.08
X5.633Y-4.58
X5.66Y-4.275
X5.665Y-4.3467
X5.671Y-4.406
X5.749Y-4.354
X5.785Y-4.655
X5.813Y-3.982
X5.965Y-3.939
X5.975Y-4.2994
X5.977Y-4.578
X6.05Y-4.41
X6.065Y-4.3024
X6.122Y-3.968
X6.1694Y-4.6164
X6.1912Y-3.8925
X6.195Y-3.7594
X6.2449Y-4.0903
X6.3Y-4.7576
X6.301Y-4.668
X6.5475Y-4.4305
X6.74Y-4.5801
X6.79Y-4.578
X6.8215Y-3.8495
X6.84Y-4.578
X6.89Y-4.578
X7.0Y-4.5775
T2
X4.155Y-4.075
X4.21Y-4.17
X4.23Y-4.373
X4.235Y-4.255
X4.326Y-4.0687
X4.375Y-3.785
X4.3816Y-4.4841
X4.6095Y-4.3089
X4.6174Y-4.4474
X4.8069Y-4.7084
X4.8675Y-3.8825
X4.92Y-4.68
X5.061Y-4.324
X5.061Y-4.646
X5.1202Y-3.87
X5.179Y-4.552
X5.345Y-4.163
X5.45Y-4.55
X5.5121Y-4.1842
X5.5476Y-4.6276
X5.58Y-4.52
X5.5831Y-4.2545
X5.667Y-4.474
X5.675Y-4.59
X5.731Y-4.0246
X5.75Y-4.72
X5.823Y-4.276
X5.8715Y-4.4066
X5.905Y-4.492
X5.905Y-4.545
X5.996Y-4.4149
X6.007Y-4.034
X6.095Y-4.165
X6.11Y-4.415
X6.3775Y-4.0725
X6.665Y-4.213
X6.665Y-4.263
X6.665Y-4.313
X6.711Y-4.261
X6.715Y-4.213
X6.715Y-4.313
X6.765Y-4.213
X6.765Y-4.263
X6.765Y-4.313
X7.0025Y-4.025
X7.061Y-3.862
T4
X4.1826Y-4.2159
X4.1826Y-4.4128
T5
X4.295Y-3.8596
X4.295Y-3.958
X4.295Y-4.6396
X4.295Y-4.738
X5.145Y-3.8
X5.245Y-3.8
X5.345Y-3.8
X5.445Y-3.8
X5.545Y-3.8
X5.645Y-3.8
X5.745Y-3.8
X5.845Y-3.8
X5.945Y-3.8
X6.045Y-3.8
X6.145Y-3.8
X6.245Y-3.8
X6.345Y-3.8
X6.445Y-3.8
X6.545Y-3.8
X6.645Y-3.8
X6.745Y-3.8
X6.845Y-3.8
X6.945Y-3.8
X7.045Y-3.8
X7.145Y-3.8
X5.145Y-4.8
X5.245Y-4.8
X5.345Y-4.8
X5.445Y-4.8
X5.545Y-4.8
X5.645Y-4.8
X5.745Y-4.8
X5.845Y-4.8
X5.945Y-4.8
X6.045Y-4.8
X6.145Y-4.8
X6.245Y-4.8
X6.345Y-4.8
X6.445Y-4.8
X6.545Y-4.8
X6.645Y-4.8
X6.745Y-4.8
X6.845Y-4.8
X6.945Y-4.8
X7.045Y-4.8
X7.145Y-4.8
T3
G00X4.0625Y-4.1766
M15
G01X4.0901Y-4.1766
M16
G05
G00X4.0901Y-4.4522
M15
G01X4.0625Y-4.4522
M16
G05
T0
M30
