G04 #@! TF.GenerationSoftware,KiCad,Pcbnew,(5.1.8)-1*
G04 #@! TF.CreationDate,2020-12-07T15:13:13+01:00*
G04 #@! TF.ProjectId,SuperPower-uC-KiCad,53757065-7250-46f7-9765-722d75432d4b,rev?*
G04 #@! TF.SameCoordinates,Original*
G04 #@! TF.FileFunction,Paste,Top*
G04 #@! TF.FilePolarity,Positive*
%FSLAX46Y46*%
G04 Gerber Fmt 4.6, Leading zero omitted, Abs format (unit mm)*
G04 Created by KiCad (PCBNEW (5.1.8)-1) date 2020-12-07 15:13:13*
%MOMM*%
%LPD*%
G01*
G04 APERTURE LIST*
%ADD10R,0.900000X1.200000*%
%ADD11R,1.900000X0.800000*%
%ADD12R,0.800000X0.900000*%
%ADD13R,2.100000X1.800000*%
%ADD14R,1.900000X1.500000*%
%ADD15R,1.350000X0.400000*%
%ADD16R,2.950000X3.500000*%
%ADD17R,1.800000X1.000000*%
%ADD18R,0.900000X2.000000*%
%ADD19R,2.000000X0.900000*%
%ADD20R,5.000000X5.000000*%
%ADD21C,0.100000*%
%ADD22R,0.900000X2.300000*%
%ADD23R,2.300000X0.900000*%
%ADD24R,1.560000X0.650000*%
%ADD25R,0.800000X1.900000*%
%ADD26R,2.000000X1.500000*%
%ADD27R,2.000000X3.800000*%
%ADD28R,0.650000X1.560000*%
%ADD29R,0.900000X0.800000*%
G04 APERTURE END LIST*
D10*
X156335000Y-99340200D03*
X153035000Y-99340200D03*
X135303800Y-118771200D03*
X132003800Y-118771200D03*
G36*
G01*
X124197600Y-114672900D02*
X124197600Y-115147900D01*
G75*
G02*
X123960100Y-115385400I-237500J0D01*
G01*
X123385100Y-115385400D01*
G75*
G02*
X123147600Y-115147900I0J237500D01*
G01*
X123147600Y-114672900D01*
G75*
G02*
X123385100Y-114435400I237500J0D01*
G01*
X123960100Y-114435400D01*
G75*
G02*
X124197600Y-114672900I0J-237500D01*
G01*
G37*
G36*
G01*
X125947600Y-114672900D02*
X125947600Y-115147900D01*
G75*
G02*
X125710100Y-115385400I-237500J0D01*
G01*
X125135100Y-115385400D01*
G75*
G02*
X124897600Y-115147900I0J237500D01*
G01*
X124897600Y-114672900D01*
G75*
G02*
X125135100Y-114435400I237500J0D01*
G01*
X125710100Y-114435400D01*
G75*
G02*
X125947600Y-114672900I0J-237500D01*
G01*
G37*
G36*
G01*
X127702800Y-106087700D02*
X127702800Y-106562700D01*
G75*
G02*
X127465300Y-106800200I-237500J0D01*
G01*
X126890300Y-106800200D01*
G75*
G02*
X126652800Y-106562700I0J237500D01*
G01*
X126652800Y-106087700D01*
G75*
G02*
X126890300Y-105850200I237500J0D01*
G01*
X127465300Y-105850200D01*
G75*
G02*
X127702800Y-106087700I0J-237500D01*
G01*
G37*
G36*
G01*
X129452800Y-106087700D02*
X129452800Y-106562700D01*
G75*
G02*
X129215300Y-106800200I-237500J0D01*
G01*
X128640300Y-106800200D01*
G75*
G02*
X128402800Y-106562700I0J237500D01*
G01*
X128402800Y-106087700D01*
G75*
G02*
X128640300Y-105850200I237500J0D01*
G01*
X129215300Y-105850200D01*
G75*
G02*
X129452800Y-106087700I0J-237500D01*
G01*
G37*
G36*
G01*
X139284700Y-115147400D02*
X139759700Y-115147400D01*
G75*
G02*
X139997200Y-115384900I0J-237500D01*
G01*
X139997200Y-115959900D01*
G75*
G02*
X139759700Y-116197400I-237500J0D01*
G01*
X139284700Y-116197400D01*
G75*
G02*
X139047200Y-115959900I0J237500D01*
G01*
X139047200Y-115384900D01*
G75*
G02*
X139284700Y-115147400I237500J0D01*
G01*
G37*
G36*
G01*
X139284700Y-113397400D02*
X139759700Y-113397400D01*
G75*
G02*
X139997200Y-113634900I0J-237500D01*
G01*
X139997200Y-114209900D01*
G75*
G02*
X139759700Y-114447400I-237500J0D01*
G01*
X139284700Y-114447400D01*
G75*
G02*
X139047200Y-114209900I0J237500D01*
G01*
X139047200Y-113634900D01*
G75*
G02*
X139284700Y-113397400I237500J0D01*
G01*
G37*
G36*
G01*
X120895600Y-114672900D02*
X120895600Y-115147900D01*
G75*
G02*
X120658100Y-115385400I-237500J0D01*
G01*
X120083100Y-115385400D01*
G75*
G02*
X119845600Y-115147900I0J237500D01*
G01*
X119845600Y-114672900D01*
G75*
G02*
X120083100Y-114435400I237500J0D01*
G01*
X120658100Y-114435400D01*
G75*
G02*
X120895600Y-114672900I0J-237500D01*
G01*
G37*
G36*
G01*
X122645600Y-114672900D02*
X122645600Y-115147900D01*
G75*
G02*
X122408100Y-115385400I-237500J0D01*
G01*
X121833100Y-115385400D01*
G75*
G02*
X121595600Y-115147900I0J237500D01*
G01*
X121595600Y-114672900D01*
G75*
G02*
X121833100Y-114435400I237500J0D01*
G01*
X122408100Y-114435400D01*
G75*
G02*
X122645600Y-114672900I0J-237500D01*
G01*
G37*
G36*
G01*
X145246100Y-110965000D02*
X144771100Y-110965000D01*
G75*
G02*
X144533600Y-110727500I0J237500D01*
G01*
X144533600Y-110152500D01*
G75*
G02*
X144771100Y-109915000I237500J0D01*
G01*
X145246100Y-109915000D01*
G75*
G02*
X145483600Y-110152500I0J-237500D01*
G01*
X145483600Y-110727500D01*
G75*
G02*
X145246100Y-110965000I-237500J0D01*
G01*
G37*
G36*
G01*
X145246100Y-112715000D02*
X144771100Y-112715000D01*
G75*
G02*
X144533600Y-112477500I0J237500D01*
G01*
X144533600Y-111902500D01*
G75*
G02*
X144771100Y-111665000I237500J0D01*
G01*
X145246100Y-111665000D01*
G75*
G02*
X145483600Y-111902500I0J-237500D01*
G01*
X145483600Y-112477500D01*
G75*
G02*
X145246100Y-112715000I-237500J0D01*
G01*
G37*
G36*
G01*
X138286500Y-113149400D02*
X137811500Y-113149400D01*
G75*
G02*
X137574000Y-112911900I0J237500D01*
G01*
X137574000Y-112336900D01*
G75*
G02*
X137811500Y-112099400I237500J0D01*
G01*
X138286500Y-112099400D01*
G75*
G02*
X138524000Y-112336900I0J-237500D01*
G01*
X138524000Y-112911900D01*
G75*
G02*
X138286500Y-113149400I-237500J0D01*
G01*
G37*
G36*
G01*
X138286500Y-114899400D02*
X137811500Y-114899400D01*
G75*
G02*
X137574000Y-114661900I0J237500D01*
G01*
X137574000Y-114086900D01*
G75*
G02*
X137811500Y-113849400I237500J0D01*
G01*
X138286500Y-113849400D01*
G75*
G02*
X138524000Y-114086900I0J-237500D01*
G01*
X138524000Y-114661900D01*
G75*
G02*
X138286500Y-114899400I-237500J0D01*
G01*
G37*
G36*
G01*
X142208800Y-104055700D02*
X142208800Y-104530700D01*
G75*
G02*
X141971300Y-104768200I-237500J0D01*
G01*
X141396300Y-104768200D01*
G75*
G02*
X141158800Y-104530700I0J237500D01*
G01*
X141158800Y-104055700D01*
G75*
G02*
X141396300Y-103818200I237500J0D01*
G01*
X141971300Y-103818200D01*
G75*
G02*
X142208800Y-104055700I0J-237500D01*
G01*
G37*
G36*
G01*
X143958800Y-104055700D02*
X143958800Y-104530700D01*
G75*
G02*
X143721300Y-104768200I-237500J0D01*
G01*
X143146300Y-104768200D01*
G75*
G02*
X142908800Y-104530700I0J237500D01*
G01*
X142908800Y-104055700D01*
G75*
G02*
X143146300Y-103818200I237500J0D01*
G01*
X143721300Y-103818200D01*
G75*
G02*
X143958800Y-104055700I0J-237500D01*
G01*
G37*
G36*
G01*
X155761700Y-115068400D02*
X155286700Y-115068400D01*
G75*
G02*
X155049200Y-114830900I0J237500D01*
G01*
X155049200Y-114255900D01*
G75*
G02*
X155286700Y-114018400I237500J0D01*
G01*
X155761700Y-114018400D01*
G75*
G02*
X155999200Y-114255900I0J-237500D01*
G01*
X155999200Y-114830900D01*
G75*
G02*
X155761700Y-115068400I-237500J0D01*
G01*
G37*
G36*
G01*
X155761700Y-116818400D02*
X155286700Y-116818400D01*
G75*
G02*
X155049200Y-116580900I0J237500D01*
G01*
X155049200Y-116005900D01*
G75*
G02*
X155286700Y-115768400I237500J0D01*
G01*
X155761700Y-115768400D01*
G75*
G02*
X155999200Y-116005900I0J-237500D01*
G01*
X155999200Y-116580900D01*
G75*
G02*
X155761700Y-116818400I-237500J0D01*
G01*
G37*
G36*
G01*
X156810700Y-115779800D02*
X157285700Y-115779800D01*
G75*
G02*
X157523200Y-116017300I0J-237500D01*
G01*
X157523200Y-116592300D01*
G75*
G02*
X157285700Y-116829800I-237500J0D01*
G01*
X156810700Y-116829800D01*
G75*
G02*
X156573200Y-116592300I0J237500D01*
G01*
X156573200Y-116017300D01*
G75*
G02*
X156810700Y-115779800I237500J0D01*
G01*
G37*
G36*
G01*
X156810700Y-114029800D02*
X157285700Y-114029800D01*
G75*
G02*
X157523200Y-114267300I0J-237500D01*
G01*
X157523200Y-114842300D01*
G75*
G02*
X157285700Y-115079800I-237500J0D01*
G01*
X156810700Y-115079800D01*
G75*
G02*
X156573200Y-114842300I0J237500D01*
G01*
X156573200Y-114267300D01*
G75*
G02*
X156810700Y-114029800I237500J0D01*
G01*
G37*
D11*
X149989800Y-113147600D03*
X146989800Y-114097600D03*
X146989800Y-112197600D03*
D12*
X128107400Y-104820000D03*
X127157400Y-102820000D03*
X129057400Y-102820000D03*
D11*
X123777000Y-107559600D03*
X120777000Y-108509600D03*
X120777000Y-106609600D03*
X123777000Y-104039200D03*
X120777000Y-104989200D03*
X120777000Y-103089200D03*
G36*
G01*
X136835400Y-104563700D02*
X136835400Y-105038700D01*
G75*
G02*
X136597900Y-105276200I-237500J0D01*
G01*
X136022900Y-105276200D01*
G75*
G02*
X135785400Y-105038700I0J237500D01*
G01*
X135785400Y-104563700D01*
G75*
G02*
X136022900Y-104326200I237500J0D01*
G01*
X136597900Y-104326200D01*
G75*
G02*
X136835400Y-104563700I0J-237500D01*
G01*
G37*
G36*
G01*
X138585400Y-104563700D02*
X138585400Y-105038700D01*
G75*
G02*
X138347900Y-105276200I-237500J0D01*
G01*
X137772900Y-105276200D01*
G75*
G02*
X137535400Y-105038700I0J237500D01*
G01*
X137535400Y-104563700D01*
G75*
G02*
X137772900Y-104326200I237500J0D01*
G01*
X138347900Y-104326200D01*
G75*
G02*
X138585400Y-104563700I0J-237500D01*
G01*
G37*
G36*
G01*
X157144000Y-101007700D02*
X157144000Y-101482700D01*
G75*
G02*
X156906500Y-101720200I-237500J0D01*
G01*
X156331500Y-101720200D01*
G75*
G02*
X156094000Y-101482700I0J237500D01*
G01*
X156094000Y-101007700D01*
G75*
G02*
X156331500Y-100770200I237500J0D01*
G01*
X156906500Y-100770200D01*
G75*
G02*
X157144000Y-101007700I0J-237500D01*
G01*
G37*
G36*
G01*
X158894000Y-101007700D02*
X158894000Y-101482700D01*
G75*
G02*
X158656500Y-101720200I-237500J0D01*
G01*
X158081500Y-101720200D01*
G75*
G02*
X157844000Y-101482700I0J237500D01*
G01*
X157844000Y-101007700D01*
G75*
G02*
X158081500Y-100770200I237500J0D01*
G01*
X158656500Y-100770200D01*
G75*
G02*
X158894000Y-101007700I0J-237500D01*
G01*
G37*
G36*
G01*
X136824000Y-103039700D02*
X136824000Y-103514700D01*
G75*
G02*
X136586500Y-103752200I-237500J0D01*
G01*
X136011500Y-103752200D01*
G75*
G02*
X135774000Y-103514700I0J237500D01*
G01*
X135774000Y-103039700D01*
G75*
G02*
X136011500Y-102802200I237500J0D01*
G01*
X136586500Y-102802200D01*
G75*
G02*
X136824000Y-103039700I0J-237500D01*
G01*
G37*
G36*
G01*
X138574000Y-103039700D02*
X138574000Y-103514700D01*
G75*
G02*
X138336500Y-103752200I-237500J0D01*
G01*
X137761500Y-103752200D01*
G75*
G02*
X137524000Y-103514700I0J237500D01*
G01*
X137524000Y-103039700D01*
G75*
G02*
X137761500Y-102802200I237500J0D01*
G01*
X138336500Y-102802200D01*
G75*
G02*
X138574000Y-103039700I0J-237500D01*
G01*
G37*
D13*
X122331000Y-112846000D03*
X119431000Y-110553000D03*
X119431000Y-112839000D03*
X122331000Y-110546000D03*
D10*
X146024600Y-101042000D03*
X149324600Y-101042000D03*
D14*
X103537500Y-108585000D03*
D15*
X106237500Y-109585000D03*
X106237500Y-110235000D03*
X106237500Y-110885000D03*
X106237500Y-108285000D03*
X106237500Y-108935000D03*
D14*
X103537500Y-110585000D03*
D16*
X146227800Y-105766400D03*
X151677800Y-105766400D03*
D17*
X129095500Y-113942500D03*
X129095500Y-111442500D03*
D18*
X177927000Y-117729000D03*
X176657000Y-117729000D03*
X175387000Y-117729000D03*
X174117000Y-117729000D03*
X172847000Y-117729000D03*
X171577000Y-117729000D03*
X170307000Y-117729000D03*
X169037000Y-117729000D03*
X167767000Y-117729000D03*
X166497000Y-117729000D03*
X165227000Y-117729000D03*
X163957000Y-117729000D03*
X162687000Y-117729000D03*
X161417000Y-117729000D03*
D19*
X160417000Y-114944000D03*
X160417000Y-113674000D03*
X160417000Y-112404000D03*
X160417000Y-111134000D03*
X160417000Y-109864000D03*
X160417000Y-108594000D03*
X160417000Y-107324000D03*
X160417000Y-106054000D03*
X160417000Y-104784000D03*
X160417000Y-103514000D03*
D18*
X161417000Y-100729000D03*
X162687000Y-100729000D03*
X163957000Y-100729000D03*
X165227000Y-100729000D03*
X166497000Y-100729000D03*
X167767000Y-100729000D03*
X169037000Y-100729000D03*
X170307000Y-100729000D03*
X171577000Y-100729000D03*
X172847000Y-100729000D03*
X174117000Y-100729000D03*
X175387000Y-100729000D03*
X176657000Y-100729000D03*
X177927000Y-100729000D03*
D20*
X170427000Y-108229000D03*
D21*
G36*
X157203500Y-102237000D02*
G01*
X157203500Y-106362000D01*
X156787000Y-106362000D01*
X156787000Y-108837000D01*
X155887000Y-108837000D01*
X155887000Y-106362000D01*
X155470500Y-106362000D01*
X155470500Y-102237000D01*
X157203500Y-102237000D01*
G37*
D22*
X157837000Y-107687000D03*
X154837000Y-107687000D03*
D21*
G36*
X154049000Y-118341500D02*
G01*
X149924000Y-118341500D01*
X149924000Y-117925000D01*
X147449000Y-117925000D01*
X147449000Y-117025000D01*
X149924000Y-117025000D01*
X149924000Y-116608500D01*
X154049000Y-116608500D01*
X154049000Y-118341500D01*
G37*
D23*
X148599000Y-118975000D03*
X148599000Y-115975000D03*
D24*
X141554200Y-101729500D03*
X141554200Y-102679500D03*
X141554200Y-100779500D03*
X144254200Y-100779500D03*
X144254200Y-101729500D03*
X144254200Y-102679500D03*
G36*
G01*
X134890000Y-104428500D02*
X135090000Y-104428500D01*
G75*
G02*
X135190000Y-104528500I0J-100000D01*
G01*
X135190000Y-105803500D01*
G75*
G02*
X135090000Y-105903500I-100000J0D01*
G01*
X134890000Y-105903500D01*
G75*
G02*
X134790000Y-105803500I0J100000D01*
G01*
X134790000Y-104528500D01*
G75*
G02*
X134890000Y-104428500I100000J0D01*
G01*
G37*
G36*
G01*
X134240000Y-104428500D02*
X134440000Y-104428500D01*
G75*
G02*
X134540000Y-104528500I0J-100000D01*
G01*
X134540000Y-105803500D01*
G75*
G02*
X134440000Y-105903500I-100000J0D01*
G01*
X134240000Y-105903500D01*
G75*
G02*
X134140000Y-105803500I0J100000D01*
G01*
X134140000Y-104528500D01*
G75*
G02*
X134240000Y-104428500I100000J0D01*
G01*
G37*
G36*
G01*
X133590000Y-104428500D02*
X133790000Y-104428500D01*
G75*
G02*
X133890000Y-104528500I0J-100000D01*
G01*
X133890000Y-105803500D01*
G75*
G02*
X133790000Y-105903500I-100000J0D01*
G01*
X133590000Y-105903500D01*
G75*
G02*
X133490000Y-105803500I0J100000D01*
G01*
X133490000Y-104528500D01*
G75*
G02*
X133590000Y-104428500I100000J0D01*
G01*
G37*
G36*
G01*
X132940000Y-104428500D02*
X133140000Y-104428500D01*
G75*
G02*
X133240000Y-104528500I0J-100000D01*
G01*
X133240000Y-105803500D01*
G75*
G02*
X133140000Y-105903500I-100000J0D01*
G01*
X132940000Y-105903500D01*
G75*
G02*
X132840000Y-105803500I0J100000D01*
G01*
X132840000Y-104528500D01*
G75*
G02*
X132940000Y-104428500I100000J0D01*
G01*
G37*
G36*
G01*
X132290000Y-104428500D02*
X132490000Y-104428500D01*
G75*
G02*
X132590000Y-104528500I0J-100000D01*
G01*
X132590000Y-105803500D01*
G75*
G02*
X132490000Y-105903500I-100000J0D01*
G01*
X132290000Y-105903500D01*
G75*
G02*
X132190000Y-105803500I0J100000D01*
G01*
X132190000Y-104528500D01*
G75*
G02*
X132290000Y-104428500I100000J0D01*
G01*
G37*
G36*
G01*
X131640000Y-104428500D02*
X131840000Y-104428500D01*
G75*
G02*
X131940000Y-104528500I0J-100000D01*
G01*
X131940000Y-105803500D01*
G75*
G02*
X131840000Y-105903500I-100000J0D01*
G01*
X131640000Y-105903500D01*
G75*
G02*
X131540000Y-105803500I0J100000D01*
G01*
X131540000Y-104528500D01*
G75*
G02*
X131640000Y-104428500I100000J0D01*
G01*
G37*
G36*
G01*
X130990000Y-104428500D02*
X131190000Y-104428500D01*
G75*
G02*
X131290000Y-104528500I0J-100000D01*
G01*
X131290000Y-105803500D01*
G75*
G02*
X131190000Y-105903500I-100000J0D01*
G01*
X130990000Y-105903500D01*
G75*
G02*
X130890000Y-105803500I0J100000D01*
G01*
X130890000Y-104528500D01*
G75*
G02*
X130990000Y-104428500I100000J0D01*
G01*
G37*
G36*
G01*
X130340000Y-104428500D02*
X130540000Y-104428500D01*
G75*
G02*
X130640000Y-104528500I0J-100000D01*
G01*
X130640000Y-105803500D01*
G75*
G02*
X130540000Y-105903500I-100000J0D01*
G01*
X130340000Y-105903500D01*
G75*
G02*
X130240000Y-105803500I0J100000D01*
G01*
X130240000Y-104528500D01*
G75*
G02*
X130340000Y-104428500I100000J0D01*
G01*
G37*
G36*
G01*
X130340000Y-98703500D02*
X130540000Y-98703500D01*
G75*
G02*
X130640000Y-98803500I0J-100000D01*
G01*
X130640000Y-100078500D01*
G75*
G02*
X130540000Y-100178500I-100000J0D01*
G01*
X130340000Y-100178500D01*
G75*
G02*
X130240000Y-100078500I0J100000D01*
G01*
X130240000Y-98803500D01*
G75*
G02*
X130340000Y-98703500I100000J0D01*
G01*
G37*
G36*
G01*
X130990000Y-98703500D02*
X131190000Y-98703500D01*
G75*
G02*
X131290000Y-98803500I0J-100000D01*
G01*
X131290000Y-100078500D01*
G75*
G02*
X131190000Y-100178500I-100000J0D01*
G01*
X130990000Y-100178500D01*
G75*
G02*
X130890000Y-100078500I0J100000D01*
G01*
X130890000Y-98803500D01*
G75*
G02*
X130990000Y-98703500I100000J0D01*
G01*
G37*
G36*
G01*
X131640000Y-98703500D02*
X131840000Y-98703500D01*
G75*
G02*
X131940000Y-98803500I0J-100000D01*
G01*
X131940000Y-100078500D01*
G75*
G02*
X131840000Y-100178500I-100000J0D01*
G01*
X131640000Y-100178500D01*
G75*
G02*
X131540000Y-100078500I0J100000D01*
G01*
X131540000Y-98803500D01*
G75*
G02*
X131640000Y-98703500I100000J0D01*
G01*
G37*
G36*
G01*
X132290000Y-98703500D02*
X132490000Y-98703500D01*
G75*
G02*
X132590000Y-98803500I0J-100000D01*
G01*
X132590000Y-100078500D01*
G75*
G02*
X132490000Y-100178500I-100000J0D01*
G01*
X132290000Y-100178500D01*
G75*
G02*
X132190000Y-100078500I0J100000D01*
G01*
X132190000Y-98803500D01*
G75*
G02*
X132290000Y-98703500I100000J0D01*
G01*
G37*
G36*
G01*
X132940000Y-98703500D02*
X133140000Y-98703500D01*
G75*
G02*
X133240000Y-98803500I0J-100000D01*
G01*
X133240000Y-100078500D01*
G75*
G02*
X133140000Y-100178500I-100000J0D01*
G01*
X132940000Y-100178500D01*
G75*
G02*
X132840000Y-100078500I0J100000D01*
G01*
X132840000Y-98803500D01*
G75*
G02*
X132940000Y-98703500I100000J0D01*
G01*
G37*
G36*
G01*
X133590000Y-98703500D02*
X133790000Y-98703500D01*
G75*
G02*
X133890000Y-98803500I0J-100000D01*
G01*
X133890000Y-100078500D01*
G75*
G02*
X133790000Y-100178500I-100000J0D01*
G01*
X133590000Y-100178500D01*
G75*
G02*
X133490000Y-100078500I0J100000D01*
G01*
X133490000Y-98803500D01*
G75*
G02*
X133590000Y-98703500I100000J0D01*
G01*
G37*
G36*
G01*
X134240000Y-98703500D02*
X134440000Y-98703500D01*
G75*
G02*
X134540000Y-98803500I0J-100000D01*
G01*
X134540000Y-100078500D01*
G75*
G02*
X134440000Y-100178500I-100000J0D01*
G01*
X134240000Y-100178500D01*
G75*
G02*
X134140000Y-100078500I0J100000D01*
G01*
X134140000Y-98803500D01*
G75*
G02*
X134240000Y-98703500I100000J0D01*
G01*
G37*
G36*
G01*
X134890000Y-98703500D02*
X135090000Y-98703500D01*
G75*
G02*
X135190000Y-98803500I0J-100000D01*
G01*
X135190000Y-100078500D01*
G75*
G02*
X135090000Y-100178500I-100000J0D01*
G01*
X134890000Y-100178500D01*
G75*
G02*
X134790000Y-100078500I0J100000D01*
G01*
X134790000Y-98803500D01*
G75*
G02*
X134890000Y-98703500I100000J0D01*
G01*
G37*
D25*
X141798000Y-111077000D03*
X140848000Y-108077000D03*
X142748000Y-108077000D03*
G36*
G01*
X131214000Y-109306000D02*
X130914000Y-109306000D01*
G75*
G02*
X130764000Y-109156000I0J150000D01*
G01*
X130764000Y-107506000D01*
G75*
G02*
X130914000Y-107356000I150000J0D01*
G01*
X131214000Y-107356000D01*
G75*
G02*
X131364000Y-107506000I0J-150000D01*
G01*
X131364000Y-109156000D01*
G75*
G02*
X131214000Y-109306000I-150000J0D01*
G01*
G37*
G36*
G01*
X132484000Y-109306000D02*
X132184000Y-109306000D01*
G75*
G02*
X132034000Y-109156000I0J150000D01*
G01*
X132034000Y-107506000D01*
G75*
G02*
X132184000Y-107356000I150000J0D01*
G01*
X132484000Y-107356000D01*
G75*
G02*
X132634000Y-107506000I0J-150000D01*
G01*
X132634000Y-109156000D01*
G75*
G02*
X132484000Y-109306000I-150000J0D01*
G01*
G37*
G36*
G01*
X133754000Y-109306000D02*
X133454000Y-109306000D01*
G75*
G02*
X133304000Y-109156000I0J150000D01*
G01*
X133304000Y-107506000D01*
G75*
G02*
X133454000Y-107356000I150000J0D01*
G01*
X133754000Y-107356000D01*
G75*
G02*
X133904000Y-107506000I0J-150000D01*
G01*
X133904000Y-109156000D01*
G75*
G02*
X133754000Y-109306000I-150000J0D01*
G01*
G37*
G36*
G01*
X135024000Y-109306000D02*
X134724000Y-109306000D01*
G75*
G02*
X134574000Y-109156000I0J150000D01*
G01*
X134574000Y-107506000D01*
G75*
G02*
X134724000Y-107356000I150000J0D01*
G01*
X135024000Y-107356000D01*
G75*
G02*
X135174000Y-107506000I0J-150000D01*
G01*
X135174000Y-109156000D01*
G75*
G02*
X135024000Y-109306000I-150000J0D01*
G01*
G37*
G36*
G01*
X135024000Y-114256000D02*
X134724000Y-114256000D01*
G75*
G02*
X134574000Y-114106000I0J150000D01*
G01*
X134574000Y-112456000D01*
G75*
G02*
X134724000Y-112306000I150000J0D01*
G01*
X135024000Y-112306000D01*
G75*
G02*
X135174000Y-112456000I0J-150000D01*
G01*
X135174000Y-114106000D01*
G75*
G02*
X135024000Y-114256000I-150000J0D01*
G01*
G37*
G36*
G01*
X133754000Y-114256000D02*
X133454000Y-114256000D01*
G75*
G02*
X133304000Y-114106000I0J150000D01*
G01*
X133304000Y-112456000D01*
G75*
G02*
X133454000Y-112306000I150000J0D01*
G01*
X133754000Y-112306000D01*
G75*
G02*
X133904000Y-112456000I0J-150000D01*
G01*
X133904000Y-114106000D01*
G75*
G02*
X133754000Y-114256000I-150000J0D01*
G01*
G37*
G36*
G01*
X132484000Y-114256000D02*
X132184000Y-114256000D01*
G75*
G02*
X132034000Y-114106000I0J150000D01*
G01*
X132034000Y-112456000D01*
G75*
G02*
X132184000Y-112306000I150000J0D01*
G01*
X132484000Y-112306000D01*
G75*
G02*
X132634000Y-112456000I0J-150000D01*
G01*
X132634000Y-114106000D01*
G75*
G02*
X132484000Y-114256000I-150000J0D01*
G01*
G37*
G36*
G01*
X131214000Y-114256000D02*
X130914000Y-114256000D01*
G75*
G02*
X130764000Y-114106000I0J150000D01*
G01*
X130764000Y-112456000D01*
G75*
G02*
X130914000Y-112306000I150000J0D01*
G01*
X131214000Y-112306000D01*
G75*
G02*
X131364000Y-112456000I0J-150000D01*
G01*
X131364000Y-114106000D01*
G75*
G02*
X131214000Y-114256000I-150000J0D01*
G01*
G37*
D26*
X114223000Y-96379000D03*
X114223000Y-100979000D03*
X114223000Y-98679000D03*
D27*
X120523000Y-98679000D03*
G36*
G01*
X108354000Y-105627000D02*
X108054000Y-105627000D01*
G75*
G02*
X107904000Y-105477000I0J150000D01*
G01*
X107904000Y-104177000D01*
G75*
G02*
X108054000Y-104027000I150000J0D01*
G01*
X108354000Y-104027000D01*
G75*
G02*
X108504000Y-104177000I0J-150000D01*
G01*
X108504000Y-105477000D01*
G75*
G02*
X108354000Y-105627000I-150000J0D01*
G01*
G37*
G36*
G01*
X109624000Y-105627000D02*
X109324000Y-105627000D01*
G75*
G02*
X109174000Y-105477000I0J150000D01*
G01*
X109174000Y-104177000D01*
G75*
G02*
X109324000Y-104027000I150000J0D01*
G01*
X109624000Y-104027000D01*
G75*
G02*
X109774000Y-104177000I0J-150000D01*
G01*
X109774000Y-105477000D01*
G75*
G02*
X109624000Y-105627000I-150000J0D01*
G01*
G37*
G36*
G01*
X110894000Y-105627000D02*
X110594000Y-105627000D01*
G75*
G02*
X110444000Y-105477000I0J150000D01*
G01*
X110444000Y-104177000D01*
G75*
G02*
X110594000Y-104027000I150000J0D01*
G01*
X110894000Y-104027000D01*
G75*
G02*
X111044000Y-104177000I0J-150000D01*
G01*
X111044000Y-105477000D01*
G75*
G02*
X110894000Y-105627000I-150000J0D01*
G01*
G37*
G36*
G01*
X112164000Y-105627000D02*
X111864000Y-105627000D01*
G75*
G02*
X111714000Y-105477000I0J150000D01*
G01*
X111714000Y-104177000D01*
G75*
G02*
X111864000Y-104027000I150000J0D01*
G01*
X112164000Y-104027000D01*
G75*
G02*
X112314000Y-104177000I0J-150000D01*
G01*
X112314000Y-105477000D01*
G75*
G02*
X112164000Y-105627000I-150000J0D01*
G01*
G37*
G36*
G01*
X113434000Y-105627000D02*
X113134000Y-105627000D01*
G75*
G02*
X112984000Y-105477000I0J150000D01*
G01*
X112984000Y-104177000D01*
G75*
G02*
X113134000Y-104027000I150000J0D01*
G01*
X113434000Y-104027000D01*
G75*
G02*
X113584000Y-104177000I0J-150000D01*
G01*
X113584000Y-105477000D01*
G75*
G02*
X113434000Y-105627000I-150000J0D01*
G01*
G37*
G36*
G01*
X114704000Y-105627000D02*
X114404000Y-105627000D01*
G75*
G02*
X114254000Y-105477000I0J150000D01*
G01*
X114254000Y-104177000D01*
G75*
G02*
X114404000Y-104027000I150000J0D01*
G01*
X114704000Y-104027000D01*
G75*
G02*
X114854000Y-104177000I0J-150000D01*
G01*
X114854000Y-105477000D01*
G75*
G02*
X114704000Y-105627000I-150000J0D01*
G01*
G37*
G36*
G01*
X115974000Y-105627000D02*
X115674000Y-105627000D01*
G75*
G02*
X115524000Y-105477000I0J150000D01*
G01*
X115524000Y-104177000D01*
G75*
G02*
X115674000Y-104027000I150000J0D01*
G01*
X115974000Y-104027000D01*
G75*
G02*
X116124000Y-104177000I0J-150000D01*
G01*
X116124000Y-105477000D01*
G75*
G02*
X115974000Y-105627000I-150000J0D01*
G01*
G37*
G36*
G01*
X117244000Y-105627000D02*
X116944000Y-105627000D01*
G75*
G02*
X116794000Y-105477000I0J150000D01*
G01*
X116794000Y-104177000D01*
G75*
G02*
X116944000Y-104027000I150000J0D01*
G01*
X117244000Y-104027000D01*
G75*
G02*
X117394000Y-104177000I0J-150000D01*
G01*
X117394000Y-105477000D01*
G75*
G02*
X117244000Y-105627000I-150000J0D01*
G01*
G37*
G36*
G01*
X117244000Y-112127000D02*
X116944000Y-112127000D01*
G75*
G02*
X116794000Y-111977000I0J150000D01*
G01*
X116794000Y-110677000D01*
G75*
G02*
X116944000Y-110527000I150000J0D01*
G01*
X117244000Y-110527000D01*
G75*
G02*
X117394000Y-110677000I0J-150000D01*
G01*
X117394000Y-111977000D01*
G75*
G02*
X117244000Y-112127000I-150000J0D01*
G01*
G37*
G36*
G01*
X115974000Y-112127000D02*
X115674000Y-112127000D01*
G75*
G02*
X115524000Y-111977000I0J150000D01*
G01*
X115524000Y-110677000D01*
G75*
G02*
X115674000Y-110527000I150000J0D01*
G01*
X115974000Y-110527000D01*
G75*
G02*
X116124000Y-110677000I0J-150000D01*
G01*
X116124000Y-111977000D01*
G75*
G02*
X115974000Y-112127000I-150000J0D01*
G01*
G37*
G36*
G01*
X114704000Y-112127000D02*
X114404000Y-112127000D01*
G75*
G02*
X114254000Y-111977000I0J150000D01*
G01*
X114254000Y-110677000D01*
G75*
G02*
X114404000Y-110527000I150000J0D01*
G01*
X114704000Y-110527000D01*
G75*
G02*
X114854000Y-110677000I0J-150000D01*
G01*
X114854000Y-111977000D01*
G75*
G02*
X114704000Y-112127000I-150000J0D01*
G01*
G37*
G36*
G01*
X113434000Y-112127000D02*
X113134000Y-112127000D01*
G75*
G02*
X112984000Y-111977000I0J150000D01*
G01*
X112984000Y-110677000D01*
G75*
G02*
X113134000Y-110527000I150000J0D01*
G01*
X113434000Y-110527000D01*
G75*
G02*
X113584000Y-110677000I0J-150000D01*
G01*
X113584000Y-111977000D01*
G75*
G02*
X113434000Y-112127000I-150000J0D01*
G01*
G37*
G36*
G01*
X112164000Y-112127000D02*
X111864000Y-112127000D01*
G75*
G02*
X111714000Y-111977000I0J150000D01*
G01*
X111714000Y-110677000D01*
G75*
G02*
X111864000Y-110527000I150000J0D01*
G01*
X112164000Y-110527000D01*
G75*
G02*
X112314000Y-110677000I0J-150000D01*
G01*
X112314000Y-111977000D01*
G75*
G02*
X112164000Y-112127000I-150000J0D01*
G01*
G37*
G36*
G01*
X110894000Y-112127000D02*
X110594000Y-112127000D01*
G75*
G02*
X110444000Y-111977000I0J150000D01*
G01*
X110444000Y-110677000D01*
G75*
G02*
X110594000Y-110527000I150000J0D01*
G01*
X110894000Y-110527000D01*
G75*
G02*
X111044000Y-110677000I0J-150000D01*
G01*
X111044000Y-111977000D01*
G75*
G02*
X110894000Y-112127000I-150000J0D01*
G01*
G37*
G36*
G01*
X109624000Y-112127000D02*
X109324000Y-112127000D01*
G75*
G02*
X109174000Y-111977000I0J150000D01*
G01*
X109174000Y-110677000D01*
G75*
G02*
X109324000Y-110527000I150000J0D01*
G01*
X109624000Y-110527000D01*
G75*
G02*
X109774000Y-110677000I0J-150000D01*
G01*
X109774000Y-111977000D01*
G75*
G02*
X109624000Y-112127000I-150000J0D01*
G01*
G37*
G36*
G01*
X108354000Y-112127000D02*
X108054000Y-112127000D01*
G75*
G02*
X107904000Y-111977000I0J150000D01*
G01*
X107904000Y-110677000D01*
G75*
G02*
X108054000Y-110527000I150000J0D01*
G01*
X108354000Y-110527000D01*
G75*
G02*
X108504000Y-110677000I0J-150000D01*
G01*
X108504000Y-111977000D01*
G75*
G02*
X108354000Y-112127000I-150000J0D01*
G01*
G37*
G36*
G01*
X125326000Y-121201500D02*
X125626000Y-121201500D01*
G75*
G02*
X125776000Y-121351500I0J-150000D01*
G01*
X125776000Y-122701500D01*
G75*
G02*
X125626000Y-122851500I-150000J0D01*
G01*
X125326000Y-122851500D01*
G75*
G02*
X125176000Y-122701500I0J150000D01*
G01*
X125176000Y-121351500D01*
G75*
G02*
X125326000Y-121201500I150000J0D01*
G01*
G37*
G36*
G01*
X124056000Y-121201500D02*
X124356000Y-121201500D01*
G75*
G02*
X124506000Y-121351500I0J-150000D01*
G01*
X124506000Y-122701500D01*
G75*
G02*
X124356000Y-122851500I-150000J0D01*
G01*
X124056000Y-122851500D01*
G75*
G02*
X123906000Y-122701500I0J150000D01*
G01*
X123906000Y-121351500D01*
G75*
G02*
X124056000Y-121201500I150000J0D01*
G01*
G37*
G36*
G01*
X122786000Y-121201500D02*
X123086000Y-121201500D01*
G75*
G02*
X123236000Y-121351500I0J-150000D01*
G01*
X123236000Y-122701500D01*
G75*
G02*
X123086000Y-122851500I-150000J0D01*
G01*
X122786000Y-122851500D01*
G75*
G02*
X122636000Y-122701500I0J150000D01*
G01*
X122636000Y-121351500D01*
G75*
G02*
X122786000Y-121201500I150000J0D01*
G01*
G37*
G36*
G01*
X121516000Y-121201500D02*
X121816000Y-121201500D01*
G75*
G02*
X121966000Y-121351500I0J-150000D01*
G01*
X121966000Y-122701500D01*
G75*
G02*
X121816000Y-122851500I-150000J0D01*
G01*
X121516000Y-122851500D01*
G75*
G02*
X121366000Y-122701500I0J150000D01*
G01*
X121366000Y-121351500D01*
G75*
G02*
X121516000Y-121201500I150000J0D01*
G01*
G37*
G36*
G01*
X121516000Y-115951500D02*
X121816000Y-115951500D01*
G75*
G02*
X121966000Y-116101500I0J-150000D01*
G01*
X121966000Y-117451500D01*
G75*
G02*
X121816000Y-117601500I-150000J0D01*
G01*
X121516000Y-117601500D01*
G75*
G02*
X121366000Y-117451500I0J150000D01*
G01*
X121366000Y-116101500D01*
G75*
G02*
X121516000Y-115951500I150000J0D01*
G01*
G37*
G36*
G01*
X122786000Y-115951500D02*
X123086000Y-115951500D01*
G75*
G02*
X123236000Y-116101500I0J-150000D01*
G01*
X123236000Y-117451500D01*
G75*
G02*
X123086000Y-117601500I-150000J0D01*
G01*
X122786000Y-117601500D01*
G75*
G02*
X122636000Y-117451500I0J150000D01*
G01*
X122636000Y-116101500D01*
G75*
G02*
X122786000Y-115951500I150000J0D01*
G01*
G37*
G36*
G01*
X124056000Y-115951500D02*
X124356000Y-115951500D01*
G75*
G02*
X124506000Y-116101500I0J-150000D01*
G01*
X124506000Y-117451500D01*
G75*
G02*
X124356000Y-117601500I-150000J0D01*
G01*
X124056000Y-117601500D01*
G75*
G02*
X123906000Y-117451500I0J150000D01*
G01*
X123906000Y-116101500D01*
G75*
G02*
X124056000Y-115951500I150000J0D01*
G01*
G37*
G36*
G01*
X125326000Y-115951500D02*
X125626000Y-115951500D01*
G75*
G02*
X125776000Y-116101500I0J-150000D01*
G01*
X125776000Y-117451500D01*
G75*
G02*
X125626000Y-117601500I-150000J0D01*
G01*
X125326000Y-117601500D01*
G75*
G02*
X125176000Y-117451500I0J150000D01*
G01*
X125176000Y-116101500D01*
G75*
G02*
X125326000Y-115951500I150000J0D01*
G01*
G37*
G36*
G01*
X126353000Y-100899000D02*
X126353000Y-100534000D01*
G75*
G02*
X126535500Y-100351500I182500J0D01*
G01*
X127140500Y-100351500D01*
G75*
G02*
X127323000Y-100534000I0J-182500D01*
G01*
X127323000Y-100899000D01*
G75*
G02*
X127140500Y-101081500I-182500J0D01*
G01*
X126535500Y-101081500D01*
G75*
G02*
X126353000Y-100899000I0J182500D01*
G01*
G37*
G36*
G01*
X126353000Y-99999000D02*
X126353000Y-99634000D01*
G75*
G02*
X126535500Y-99451500I182500J0D01*
G01*
X127140500Y-99451500D01*
G75*
G02*
X127323000Y-99634000I0J-182500D01*
G01*
X127323000Y-99999000D01*
G75*
G02*
X127140500Y-100181500I-182500J0D01*
G01*
X126535500Y-100181500D01*
G75*
G02*
X126353000Y-99999000I0J182500D01*
G01*
G37*
G36*
G01*
X125153000Y-100899000D02*
X125153000Y-100534000D01*
G75*
G02*
X125335500Y-100351500I182500J0D01*
G01*
X125940500Y-100351500D01*
G75*
G02*
X126123000Y-100534000I0J-182500D01*
G01*
X126123000Y-100899000D01*
G75*
G02*
X125940500Y-101081500I-182500J0D01*
G01*
X125335500Y-101081500D01*
G75*
G02*
X125153000Y-100899000I0J182500D01*
G01*
G37*
G36*
G01*
X125153000Y-99999000D02*
X125153000Y-99634000D01*
G75*
G02*
X125335500Y-99451500I182500J0D01*
G01*
X125940500Y-99451500D01*
G75*
G02*
X126123000Y-99634000I0J-182500D01*
G01*
X126123000Y-99999000D01*
G75*
G02*
X125940500Y-100181500I-182500J0D01*
G01*
X125335500Y-100181500D01*
G75*
G02*
X125153000Y-99999000I0J182500D01*
G01*
G37*
G36*
G01*
X127688000Y-99354000D02*
X127688000Y-99229000D01*
G75*
G02*
X127750500Y-99166500I62500J0D01*
G01*
X128525500Y-99166500D01*
G75*
G02*
X128588000Y-99229000I0J-62500D01*
G01*
X128588000Y-99354000D01*
G75*
G02*
X128525500Y-99416500I-62500J0D01*
G01*
X127750500Y-99416500D01*
G75*
G02*
X127688000Y-99354000I0J62500D01*
G01*
G37*
G36*
G01*
X127688000Y-100004000D02*
X127688000Y-99879000D01*
G75*
G02*
X127750500Y-99816500I62500J0D01*
G01*
X128525500Y-99816500D01*
G75*
G02*
X128588000Y-99879000I0J-62500D01*
G01*
X128588000Y-100004000D01*
G75*
G02*
X128525500Y-100066500I-62500J0D01*
G01*
X127750500Y-100066500D01*
G75*
G02*
X127688000Y-100004000I0J62500D01*
G01*
G37*
G36*
G01*
X127688000Y-100654000D02*
X127688000Y-100529000D01*
G75*
G02*
X127750500Y-100466500I62500J0D01*
G01*
X128525500Y-100466500D01*
G75*
G02*
X128588000Y-100529000I0J-62500D01*
G01*
X128588000Y-100654000D01*
G75*
G02*
X128525500Y-100716500I-62500J0D01*
G01*
X127750500Y-100716500D01*
G75*
G02*
X127688000Y-100654000I0J62500D01*
G01*
G37*
G36*
G01*
X127688000Y-101304000D02*
X127688000Y-101179000D01*
G75*
G02*
X127750500Y-101116500I62500J0D01*
G01*
X128525500Y-101116500D01*
G75*
G02*
X128588000Y-101179000I0J-62500D01*
G01*
X128588000Y-101304000D01*
G75*
G02*
X128525500Y-101366500I-62500J0D01*
G01*
X127750500Y-101366500D01*
G75*
G02*
X127688000Y-101304000I0J62500D01*
G01*
G37*
G36*
G01*
X123888000Y-101304000D02*
X123888000Y-101179000D01*
G75*
G02*
X123950500Y-101116500I62500J0D01*
G01*
X124725500Y-101116500D01*
G75*
G02*
X124788000Y-101179000I0J-62500D01*
G01*
X124788000Y-101304000D01*
G75*
G02*
X124725500Y-101366500I-62500J0D01*
G01*
X123950500Y-101366500D01*
G75*
G02*
X123888000Y-101304000I0J62500D01*
G01*
G37*
G36*
G01*
X123888000Y-100654000D02*
X123888000Y-100529000D01*
G75*
G02*
X123950500Y-100466500I62500J0D01*
G01*
X124725500Y-100466500D01*
G75*
G02*
X124788000Y-100529000I0J-62500D01*
G01*
X124788000Y-100654000D01*
G75*
G02*
X124725500Y-100716500I-62500J0D01*
G01*
X123950500Y-100716500D01*
G75*
G02*
X123888000Y-100654000I0J62500D01*
G01*
G37*
G36*
G01*
X123888000Y-100004000D02*
X123888000Y-99879000D01*
G75*
G02*
X123950500Y-99816500I62500J0D01*
G01*
X124725500Y-99816500D01*
G75*
G02*
X124788000Y-99879000I0J-62500D01*
G01*
X124788000Y-100004000D01*
G75*
G02*
X124725500Y-100066500I-62500J0D01*
G01*
X123950500Y-100066500D01*
G75*
G02*
X123888000Y-100004000I0J62500D01*
G01*
G37*
G36*
G01*
X123888000Y-99354000D02*
X123888000Y-99229000D01*
G75*
G02*
X123950500Y-99166500I62500J0D01*
G01*
X124725500Y-99166500D01*
G75*
G02*
X124788000Y-99229000I0J-62500D01*
G01*
X124788000Y-99354000D01*
G75*
G02*
X124725500Y-99416500I-62500J0D01*
G01*
X123950500Y-99416500D01*
G75*
G02*
X123888000Y-99354000I0J62500D01*
G01*
G37*
G36*
G01*
X113249500Y-122414000D02*
X113249500Y-122614000D01*
G75*
G02*
X113149500Y-122714000I-100000J0D01*
G01*
X111874500Y-122714000D01*
G75*
G02*
X111774500Y-122614000I0J100000D01*
G01*
X111774500Y-122414000D01*
G75*
G02*
X111874500Y-122314000I100000J0D01*
G01*
X113149500Y-122314000D01*
G75*
G02*
X113249500Y-122414000I0J-100000D01*
G01*
G37*
G36*
G01*
X113249500Y-121764000D02*
X113249500Y-121964000D01*
G75*
G02*
X113149500Y-122064000I-100000J0D01*
G01*
X111874500Y-122064000D01*
G75*
G02*
X111774500Y-121964000I0J100000D01*
G01*
X111774500Y-121764000D01*
G75*
G02*
X111874500Y-121664000I100000J0D01*
G01*
X113149500Y-121664000D01*
G75*
G02*
X113249500Y-121764000I0J-100000D01*
G01*
G37*
G36*
G01*
X113249500Y-121114000D02*
X113249500Y-121314000D01*
G75*
G02*
X113149500Y-121414000I-100000J0D01*
G01*
X111874500Y-121414000D01*
G75*
G02*
X111774500Y-121314000I0J100000D01*
G01*
X111774500Y-121114000D01*
G75*
G02*
X111874500Y-121014000I100000J0D01*
G01*
X113149500Y-121014000D01*
G75*
G02*
X113249500Y-121114000I0J-100000D01*
G01*
G37*
G36*
G01*
X113249500Y-120464000D02*
X113249500Y-120664000D01*
G75*
G02*
X113149500Y-120764000I-100000J0D01*
G01*
X111874500Y-120764000D01*
G75*
G02*
X111774500Y-120664000I0J100000D01*
G01*
X111774500Y-120464000D01*
G75*
G02*
X111874500Y-120364000I100000J0D01*
G01*
X113149500Y-120364000D01*
G75*
G02*
X113249500Y-120464000I0J-100000D01*
G01*
G37*
G36*
G01*
X118974500Y-120464000D02*
X118974500Y-120664000D01*
G75*
G02*
X118874500Y-120764000I-100000J0D01*
G01*
X117599500Y-120764000D01*
G75*
G02*
X117499500Y-120664000I0J100000D01*
G01*
X117499500Y-120464000D01*
G75*
G02*
X117599500Y-120364000I100000J0D01*
G01*
X118874500Y-120364000D01*
G75*
G02*
X118974500Y-120464000I0J-100000D01*
G01*
G37*
G36*
G01*
X118974500Y-121114000D02*
X118974500Y-121314000D01*
G75*
G02*
X118874500Y-121414000I-100000J0D01*
G01*
X117599500Y-121414000D01*
G75*
G02*
X117499500Y-121314000I0J100000D01*
G01*
X117499500Y-121114000D01*
G75*
G02*
X117599500Y-121014000I100000J0D01*
G01*
X118874500Y-121014000D01*
G75*
G02*
X118974500Y-121114000I0J-100000D01*
G01*
G37*
G36*
G01*
X118974500Y-121764000D02*
X118974500Y-121964000D01*
G75*
G02*
X118874500Y-122064000I-100000J0D01*
G01*
X117599500Y-122064000D01*
G75*
G02*
X117499500Y-121964000I0J100000D01*
G01*
X117499500Y-121764000D01*
G75*
G02*
X117599500Y-121664000I100000J0D01*
G01*
X118874500Y-121664000D01*
G75*
G02*
X118974500Y-121764000I0J-100000D01*
G01*
G37*
G36*
G01*
X118974500Y-122414000D02*
X118974500Y-122614000D01*
G75*
G02*
X118874500Y-122714000I-100000J0D01*
G01*
X117599500Y-122714000D01*
G75*
G02*
X117499500Y-122614000I0J100000D01*
G01*
X117499500Y-122414000D01*
G75*
G02*
X117599500Y-122314000I100000J0D01*
G01*
X118874500Y-122314000D01*
G75*
G02*
X118974500Y-122414000I0J-100000D01*
G01*
G37*
D28*
X116715500Y-115981500D03*
X115765500Y-115981500D03*
X117665500Y-115981500D03*
X117665500Y-118681500D03*
X116715500Y-118681500D03*
X115765500Y-118681500D03*
G36*
G01*
X113366000Y-119173000D02*
X113366000Y-118698000D01*
G75*
G02*
X113603500Y-118460500I237500J0D01*
G01*
X114178500Y-118460500D01*
G75*
G02*
X114416000Y-118698000I0J-237500D01*
G01*
X114416000Y-119173000D01*
G75*
G02*
X114178500Y-119410500I-237500J0D01*
G01*
X113603500Y-119410500D01*
G75*
G02*
X113366000Y-119173000I0J237500D01*
G01*
G37*
G36*
G01*
X111616000Y-119173000D02*
X111616000Y-118698000D01*
G75*
G02*
X111853500Y-118460500I237500J0D01*
G01*
X112428500Y-118460500D01*
G75*
G02*
X112666000Y-118698000I0J-237500D01*
G01*
X112666000Y-119173000D01*
G75*
G02*
X112428500Y-119410500I-237500J0D01*
G01*
X111853500Y-119410500D01*
G75*
G02*
X111616000Y-119173000I0J237500D01*
G01*
G37*
G36*
G01*
X139962900Y-101211400D02*
X139487900Y-101211400D01*
G75*
G02*
X139250400Y-100973900I0J237500D01*
G01*
X139250400Y-100398900D01*
G75*
G02*
X139487900Y-100161400I237500J0D01*
G01*
X139962900Y-100161400D01*
G75*
G02*
X140200400Y-100398900I0J-237500D01*
G01*
X140200400Y-100973900D01*
G75*
G02*
X139962900Y-101211400I-237500J0D01*
G01*
G37*
G36*
G01*
X139962900Y-102961400D02*
X139487900Y-102961400D01*
G75*
G02*
X139250400Y-102723900I0J237500D01*
G01*
X139250400Y-102148900D01*
G75*
G02*
X139487900Y-101911400I237500J0D01*
G01*
X139962900Y-101911400D01*
G75*
G02*
X140200400Y-102148900I0J-237500D01*
G01*
X140200400Y-102723900D01*
G75*
G02*
X139962900Y-102961400I-237500J0D01*
G01*
G37*
G36*
G01*
X146956000Y-98874100D02*
X146956000Y-99349100D01*
G75*
G02*
X146718500Y-99586600I-237500J0D01*
G01*
X146143500Y-99586600D01*
G75*
G02*
X145906000Y-99349100I0J237500D01*
G01*
X145906000Y-98874100D01*
G75*
G02*
X146143500Y-98636600I237500J0D01*
G01*
X146718500Y-98636600D01*
G75*
G02*
X146956000Y-98874100I0J-237500D01*
G01*
G37*
G36*
G01*
X148706000Y-98874100D02*
X148706000Y-99349100D01*
G75*
G02*
X148468500Y-99586600I-237500J0D01*
G01*
X147893500Y-99586600D01*
G75*
G02*
X147656000Y-99349100I0J237500D01*
G01*
X147656000Y-98874100D01*
G75*
G02*
X147893500Y-98636600I237500J0D01*
G01*
X148468500Y-98636600D01*
G75*
G02*
X148706000Y-98874100I0J-237500D01*
G01*
G37*
G36*
G01*
X143580400Y-98874100D02*
X143580400Y-99349100D01*
G75*
G02*
X143342900Y-99586600I-237500J0D01*
G01*
X142767900Y-99586600D01*
G75*
G02*
X142530400Y-99349100I0J237500D01*
G01*
X142530400Y-98874100D01*
G75*
G02*
X142767900Y-98636600I237500J0D01*
G01*
X143342900Y-98636600D01*
G75*
G02*
X143580400Y-98874100I0J-237500D01*
G01*
G37*
G36*
G01*
X145330400Y-98874100D02*
X145330400Y-99349100D01*
G75*
G02*
X145092900Y-99586600I-237500J0D01*
G01*
X144517900Y-99586600D01*
G75*
G02*
X144280400Y-99349100I0J237500D01*
G01*
X144280400Y-98874100D01*
G75*
G02*
X144517900Y-98636600I237500J0D01*
G01*
X145092900Y-98636600D01*
G75*
G02*
X145330400Y-98874100I0J-237500D01*
G01*
G37*
G36*
G01*
X138653000Y-108822500D02*
X138653000Y-108347500D01*
G75*
G02*
X138890500Y-108110000I237500J0D01*
G01*
X139465500Y-108110000D01*
G75*
G02*
X139703000Y-108347500I0J-237500D01*
G01*
X139703000Y-108822500D01*
G75*
G02*
X139465500Y-109060000I-237500J0D01*
G01*
X138890500Y-109060000D01*
G75*
G02*
X138653000Y-108822500I0J237500D01*
G01*
G37*
G36*
G01*
X136903000Y-108822500D02*
X136903000Y-108347500D01*
G75*
G02*
X137140500Y-108110000I237500J0D01*
G01*
X137715500Y-108110000D01*
G75*
G02*
X137953000Y-108347500I0J-237500D01*
G01*
X137953000Y-108822500D01*
G75*
G02*
X137715500Y-109060000I-237500J0D01*
G01*
X137140500Y-109060000D01*
G75*
G02*
X136903000Y-108822500I0J237500D01*
G01*
G37*
G36*
G01*
X138653000Y-107298500D02*
X138653000Y-106823500D01*
G75*
G02*
X138890500Y-106586000I237500J0D01*
G01*
X139465500Y-106586000D01*
G75*
G02*
X139703000Y-106823500I0J-237500D01*
G01*
X139703000Y-107298500D01*
G75*
G02*
X139465500Y-107536000I-237500J0D01*
G01*
X138890500Y-107536000D01*
G75*
G02*
X138653000Y-107298500I0J237500D01*
G01*
G37*
G36*
G01*
X136903000Y-107298500D02*
X136903000Y-106823500D01*
G75*
G02*
X137140500Y-106586000I237500J0D01*
G01*
X137715500Y-106586000D01*
G75*
G02*
X137953000Y-106823500I0J-237500D01*
G01*
X137953000Y-107298500D01*
G75*
G02*
X137715500Y-107536000I-237500J0D01*
G01*
X137140500Y-107536000D01*
G75*
G02*
X136903000Y-107298500I0J237500D01*
G01*
G37*
G36*
G01*
X126787900Y-118144600D02*
X127262900Y-118144600D01*
G75*
G02*
X127500400Y-118382100I0J-237500D01*
G01*
X127500400Y-118957100D01*
G75*
G02*
X127262900Y-119194600I-237500J0D01*
G01*
X126787900Y-119194600D01*
G75*
G02*
X126550400Y-118957100I0J237500D01*
G01*
X126550400Y-118382100D01*
G75*
G02*
X126787900Y-118144600I237500J0D01*
G01*
G37*
G36*
G01*
X126787900Y-116394600D02*
X127262900Y-116394600D01*
G75*
G02*
X127500400Y-116632100I0J-237500D01*
G01*
X127500400Y-117207100D01*
G75*
G02*
X127262900Y-117444600I-237500J0D01*
G01*
X126787900Y-117444600D01*
G75*
G02*
X126550400Y-117207100I0J237500D01*
G01*
X126550400Y-116632100D01*
G75*
G02*
X126787900Y-116394600I237500J0D01*
G01*
G37*
G36*
G01*
X118558300Y-104428600D02*
X119033300Y-104428600D01*
G75*
G02*
X119270800Y-104666100I0J-237500D01*
G01*
X119270800Y-105241100D01*
G75*
G02*
X119033300Y-105478600I-237500J0D01*
G01*
X118558300Y-105478600D01*
G75*
G02*
X118320800Y-105241100I0J237500D01*
G01*
X118320800Y-104666100D01*
G75*
G02*
X118558300Y-104428600I237500J0D01*
G01*
G37*
G36*
G01*
X118558300Y-102678600D02*
X119033300Y-102678600D01*
G75*
G02*
X119270800Y-102916100I0J-237500D01*
G01*
X119270800Y-103491100D01*
G75*
G02*
X119033300Y-103728600I-237500J0D01*
G01*
X118558300Y-103728600D01*
G75*
G02*
X118320800Y-103491100I0J237500D01*
G01*
X118320800Y-102916100D01*
G75*
G02*
X118558300Y-102678600I237500J0D01*
G01*
G37*
G36*
G01*
X119033300Y-107104200D02*
X118558300Y-107104200D01*
G75*
G02*
X118320800Y-106866700I0J237500D01*
G01*
X118320800Y-106291700D01*
G75*
G02*
X118558300Y-106054200I237500J0D01*
G01*
X119033300Y-106054200D01*
G75*
G02*
X119270800Y-106291700I0J-237500D01*
G01*
X119270800Y-106866700D01*
G75*
G02*
X119033300Y-107104200I-237500J0D01*
G01*
G37*
G36*
G01*
X119033300Y-108854200D02*
X118558300Y-108854200D01*
G75*
G02*
X118320800Y-108616700I0J237500D01*
G01*
X118320800Y-108041700D01*
G75*
G02*
X118558300Y-107804200I237500J0D01*
G01*
X119033300Y-107804200D01*
G75*
G02*
X119270800Y-108041700I0J-237500D01*
G01*
X119270800Y-108616700D01*
G75*
G02*
X119033300Y-108854200I-237500J0D01*
G01*
G37*
G36*
G01*
X132579600Y-116603300D02*
X132579600Y-117078300D01*
G75*
G02*
X132342100Y-117315800I-237500J0D01*
G01*
X131767100Y-117315800D01*
G75*
G02*
X131529600Y-117078300I0J237500D01*
G01*
X131529600Y-116603300D01*
G75*
G02*
X131767100Y-116365800I237500J0D01*
G01*
X132342100Y-116365800D01*
G75*
G02*
X132579600Y-116603300I0J-237500D01*
G01*
G37*
G36*
G01*
X134329600Y-116603300D02*
X134329600Y-117078300D01*
G75*
G02*
X134092100Y-117315800I-237500J0D01*
G01*
X133517100Y-117315800D01*
G75*
G02*
X133279600Y-117078300I0J237500D01*
G01*
X133279600Y-116603300D01*
G75*
G02*
X133517100Y-116365800I237500J0D01*
G01*
X134092100Y-116365800D01*
G75*
G02*
X134329600Y-116603300I0J-237500D01*
G01*
G37*
G36*
G01*
X126826000Y-121811500D02*
X127301000Y-121811500D01*
G75*
G02*
X127538500Y-122049000I0J-237500D01*
G01*
X127538500Y-122624000D01*
G75*
G02*
X127301000Y-122861500I-237500J0D01*
G01*
X126826000Y-122861500D01*
G75*
G02*
X126588500Y-122624000I0J237500D01*
G01*
X126588500Y-122049000D01*
G75*
G02*
X126826000Y-121811500I237500J0D01*
G01*
G37*
G36*
G01*
X126826000Y-120061500D02*
X127301000Y-120061500D01*
G75*
G02*
X127538500Y-120299000I0J-237500D01*
G01*
X127538500Y-120874000D01*
G75*
G02*
X127301000Y-121111500I-237500J0D01*
G01*
X126826000Y-121111500D01*
G75*
G02*
X126588500Y-120874000I0J237500D01*
G01*
X126588500Y-120299000D01*
G75*
G02*
X126826000Y-120061500I237500J0D01*
G01*
G37*
G36*
G01*
X126636000Y-96028500D02*
X126636000Y-96503500D01*
G75*
G02*
X126398500Y-96741000I-237500J0D01*
G01*
X125823500Y-96741000D01*
G75*
G02*
X125586000Y-96503500I0J237500D01*
G01*
X125586000Y-96028500D01*
G75*
G02*
X125823500Y-95791000I237500J0D01*
G01*
X126398500Y-95791000D01*
G75*
G02*
X126636000Y-96028500I0J-237500D01*
G01*
G37*
G36*
G01*
X128386000Y-96028500D02*
X128386000Y-96503500D01*
G75*
G02*
X128148500Y-96741000I-237500J0D01*
G01*
X127573500Y-96741000D01*
G75*
G02*
X127336000Y-96503500I0J237500D01*
G01*
X127336000Y-96028500D01*
G75*
G02*
X127573500Y-95791000I237500J0D01*
G01*
X128148500Y-95791000D01*
G75*
G02*
X128386000Y-96028500I0J-237500D01*
G01*
G37*
G36*
G01*
X126636000Y-97502500D02*
X126636000Y-97977500D01*
G75*
G02*
X126398500Y-98215000I-237500J0D01*
G01*
X125823500Y-98215000D01*
G75*
G02*
X125586000Y-97977500I0J237500D01*
G01*
X125586000Y-97502500D01*
G75*
G02*
X125823500Y-97265000I237500J0D01*
G01*
X126398500Y-97265000D01*
G75*
G02*
X126636000Y-97502500I0J-237500D01*
G01*
G37*
G36*
G01*
X128386000Y-97502500D02*
X128386000Y-97977500D01*
G75*
G02*
X128148500Y-98215000I-237500J0D01*
G01*
X127573500Y-98215000D01*
G75*
G02*
X127336000Y-97977500I0J237500D01*
G01*
X127336000Y-97502500D01*
G75*
G02*
X127573500Y-97265000I237500J0D01*
G01*
X128148500Y-97265000D01*
G75*
G02*
X128386000Y-97502500I0J-237500D01*
G01*
G37*
G36*
G01*
X119777500Y-121522000D02*
X120252500Y-121522000D01*
G75*
G02*
X120490000Y-121759500I0J-237500D01*
G01*
X120490000Y-122334500D01*
G75*
G02*
X120252500Y-122572000I-237500J0D01*
G01*
X119777500Y-122572000D01*
G75*
G02*
X119540000Y-122334500I0J237500D01*
G01*
X119540000Y-121759500D01*
G75*
G02*
X119777500Y-121522000I237500J0D01*
G01*
G37*
G36*
G01*
X119777500Y-119772000D02*
X120252500Y-119772000D01*
G75*
G02*
X120490000Y-120009500I0J-237500D01*
G01*
X120490000Y-120584500D01*
G75*
G02*
X120252500Y-120822000I-237500J0D01*
G01*
X119777500Y-120822000D01*
G75*
G02*
X119540000Y-120584500I0J237500D01*
G01*
X119540000Y-120009500D01*
G75*
G02*
X119777500Y-119772000I237500J0D01*
G01*
G37*
D29*
X139827000Y-118237000D03*
X141827000Y-117287000D03*
X141827000Y-119187000D03*
D11*
X144478000Y-114722400D03*
X141478000Y-115672400D03*
X141478000Y-113772400D03*
D25*
X153032500Y-110728500D03*
X153982500Y-113728500D03*
X152082500Y-113728500D03*
D29*
X128549400Y-116688400D03*
X130549400Y-115738400D03*
X130549400Y-117638400D03*
X138220200Y-100772800D03*
X136220200Y-101722800D03*
X136220200Y-99822800D03*
G36*
G01*
X123235000Y-97502500D02*
X123235000Y-97977500D01*
G75*
G02*
X122997500Y-98215000I-237500J0D01*
G01*
X122422500Y-98215000D01*
G75*
G02*
X122185000Y-97977500I0J237500D01*
G01*
X122185000Y-97502500D01*
G75*
G02*
X122422500Y-97265000I237500J0D01*
G01*
X122997500Y-97265000D01*
G75*
G02*
X123235000Y-97502500I0J-237500D01*
G01*
G37*
G36*
G01*
X124985000Y-97502500D02*
X124985000Y-97977500D01*
G75*
G02*
X124747500Y-98215000I-237500J0D01*
G01*
X124172500Y-98215000D01*
G75*
G02*
X123935000Y-97977500I0J237500D01*
G01*
X123935000Y-97502500D01*
G75*
G02*
X124172500Y-97265000I237500J0D01*
G01*
X124747500Y-97265000D01*
G75*
G02*
X124985000Y-97502500I0J-237500D01*
G01*
G37*
G36*
G01*
X127262900Y-114091800D02*
X126787900Y-114091800D01*
G75*
G02*
X126550400Y-113854300I0J237500D01*
G01*
X126550400Y-113279300D01*
G75*
G02*
X126787900Y-113041800I237500J0D01*
G01*
X127262900Y-113041800D01*
G75*
G02*
X127500400Y-113279300I0J-237500D01*
G01*
X127500400Y-113854300D01*
G75*
G02*
X127262900Y-114091800I-237500J0D01*
G01*
G37*
G36*
G01*
X127262900Y-115841800D02*
X126787900Y-115841800D01*
G75*
G02*
X126550400Y-115604300I0J237500D01*
G01*
X126550400Y-115029300D01*
G75*
G02*
X126787900Y-114791800I237500J0D01*
G01*
X127262900Y-114791800D01*
G75*
G02*
X127500400Y-115029300I0J-237500D01*
G01*
X127500400Y-115604300D01*
G75*
G02*
X127262900Y-115841800I-237500J0D01*
G01*
G37*
G36*
G01*
X112378500Y-99966000D02*
X111903500Y-99966000D01*
G75*
G02*
X111666000Y-99728500I0J237500D01*
G01*
X111666000Y-99153500D01*
G75*
G02*
X111903500Y-98916000I237500J0D01*
G01*
X112378500Y-98916000D01*
G75*
G02*
X112616000Y-99153500I0J-237500D01*
G01*
X112616000Y-99728500D01*
G75*
G02*
X112378500Y-99966000I-237500J0D01*
G01*
G37*
G36*
G01*
X112378500Y-101716000D02*
X111903500Y-101716000D01*
G75*
G02*
X111666000Y-101478500I0J237500D01*
G01*
X111666000Y-100903500D01*
G75*
G02*
X111903500Y-100666000I237500J0D01*
G01*
X112378500Y-100666000D01*
G75*
G02*
X112616000Y-100903500I0J-237500D01*
G01*
X112616000Y-101478500D01*
G75*
G02*
X112378500Y-101716000I-237500J0D01*
G01*
G37*
G36*
G01*
X177362400Y-98467700D02*
X177362400Y-98942700D01*
G75*
G02*
X177124900Y-99180200I-237500J0D01*
G01*
X176549900Y-99180200D01*
G75*
G02*
X176312400Y-98942700I0J237500D01*
G01*
X176312400Y-98467700D01*
G75*
G02*
X176549900Y-98230200I237500J0D01*
G01*
X177124900Y-98230200D01*
G75*
G02*
X177362400Y-98467700I0J-237500D01*
G01*
G37*
G36*
G01*
X179112400Y-98467700D02*
X179112400Y-98942700D01*
G75*
G02*
X178874900Y-99180200I-237500J0D01*
G01*
X178299900Y-99180200D01*
G75*
G02*
X178062400Y-98942700I0J237500D01*
G01*
X178062400Y-98467700D01*
G75*
G02*
X178299900Y-98230200I237500J0D01*
G01*
X178874900Y-98230200D01*
G75*
G02*
X179112400Y-98467700I0J-237500D01*
G01*
G37*
G36*
G01*
X174009600Y-98467700D02*
X174009600Y-98942700D01*
G75*
G02*
X173772100Y-99180200I-237500J0D01*
G01*
X173197100Y-99180200D01*
G75*
G02*
X172959600Y-98942700I0J237500D01*
G01*
X172959600Y-98467700D01*
G75*
G02*
X173197100Y-98230200I237500J0D01*
G01*
X173772100Y-98230200D01*
G75*
G02*
X174009600Y-98467700I0J-237500D01*
G01*
G37*
G36*
G01*
X175759600Y-98467700D02*
X175759600Y-98942700D01*
G75*
G02*
X175522100Y-99180200I-237500J0D01*
G01*
X174947100Y-99180200D01*
G75*
G02*
X174709600Y-98942700I0J237500D01*
G01*
X174709600Y-98467700D01*
G75*
G02*
X174947100Y-98230200I237500J0D01*
G01*
X175522100Y-98230200D01*
G75*
G02*
X175759600Y-98467700I0J-237500D01*
G01*
G37*
G36*
G01*
X156636000Y-112665500D02*
X156636000Y-113140500D01*
G75*
G02*
X156398500Y-113378000I-237500J0D01*
G01*
X155823500Y-113378000D01*
G75*
G02*
X155586000Y-113140500I0J237500D01*
G01*
X155586000Y-112665500D01*
G75*
G02*
X155823500Y-112428000I237500J0D01*
G01*
X156398500Y-112428000D01*
G75*
G02*
X156636000Y-112665500I0J-237500D01*
G01*
G37*
G36*
G01*
X158386000Y-112665500D02*
X158386000Y-113140500D01*
G75*
G02*
X158148500Y-113378000I-237500J0D01*
G01*
X157573500Y-113378000D01*
G75*
G02*
X157336000Y-113140500I0J237500D01*
G01*
X157336000Y-112665500D01*
G75*
G02*
X157573500Y-112428000I237500J0D01*
G01*
X158148500Y-112428000D01*
G75*
G02*
X158386000Y-112665500I0J-237500D01*
G01*
G37*
G36*
G01*
X151011400Y-99349100D02*
X151011400Y-98874100D01*
G75*
G02*
X151248900Y-98636600I237500J0D01*
G01*
X151823900Y-98636600D01*
G75*
G02*
X152061400Y-98874100I0J-237500D01*
G01*
X152061400Y-99349100D01*
G75*
G02*
X151823900Y-99586600I-237500J0D01*
G01*
X151248900Y-99586600D01*
G75*
G02*
X151011400Y-99349100I0J237500D01*
G01*
G37*
G36*
G01*
X149261400Y-99349100D02*
X149261400Y-98874100D01*
G75*
G02*
X149498900Y-98636600I237500J0D01*
G01*
X150073900Y-98636600D01*
G75*
G02*
X150311400Y-98874100I0J-237500D01*
G01*
X150311400Y-99349100D01*
G75*
G02*
X150073900Y-99586600I-237500J0D01*
G01*
X149498900Y-99586600D01*
G75*
G02*
X149261400Y-99349100I0J237500D01*
G01*
G37*
G36*
G01*
X143557000Y-117964500D02*
X143082000Y-117964500D01*
G75*
G02*
X142844500Y-117727000I0J237500D01*
G01*
X142844500Y-117152000D01*
G75*
G02*
X143082000Y-116914500I237500J0D01*
G01*
X143557000Y-116914500D01*
G75*
G02*
X143794500Y-117152000I0J-237500D01*
G01*
X143794500Y-117727000D01*
G75*
G02*
X143557000Y-117964500I-237500J0D01*
G01*
G37*
G36*
G01*
X143557000Y-119714500D02*
X143082000Y-119714500D01*
G75*
G02*
X142844500Y-119477000I0J237500D01*
G01*
X142844500Y-118902000D01*
G75*
G02*
X143082000Y-118664500I237500J0D01*
G01*
X143557000Y-118664500D01*
G75*
G02*
X143794500Y-118902000I0J-237500D01*
G01*
X143794500Y-119477000D01*
G75*
G02*
X143557000Y-119714500I-237500J0D01*
G01*
G37*
G36*
G01*
X157322000Y-110169500D02*
X157322000Y-109694500D01*
G75*
G02*
X157559500Y-109457000I237500J0D01*
G01*
X158134500Y-109457000D01*
G75*
G02*
X158372000Y-109694500I0J-237500D01*
G01*
X158372000Y-110169500D01*
G75*
G02*
X158134500Y-110407000I-237500J0D01*
G01*
X157559500Y-110407000D01*
G75*
G02*
X157322000Y-110169500I0J237500D01*
G01*
G37*
G36*
G01*
X155572000Y-110169500D02*
X155572000Y-109694500D01*
G75*
G02*
X155809500Y-109457000I237500J0D01*
G01*
X156384500Y-109457000D01*
G75*
G02*
X156622000Y-109694500I0J-237500D01*
G01*
X156622000Y-110169500D01*
G75*
G02*
X156384500Y-110407000I-237500J0D01*
G01*
X155809500Y-110407000D01*
G75*
G02*
X155572000Y-110169500I0J237500D01*
G01*
G37*
G36*
G01*
X146193500Y-117077000D02*
X146668500Y-117077000D01*
G75*
G02*
X146906000Y-117314500I0J-237500D01*
G01*
X146906000Y-117889500D01*
G75*
G02*
X146668500Y-118127000I-237500J0D01*
G01*
X146193500Y-118127000D01*
G75*
G02*
X145956000Y-117889500I0J237500D01*
G01*
X145956000Y-117314500D01*
G75*
G02*
X146193500Y-117077000I237500J0D01*
G01*
G37*
G36*
G01*
X146193500Y-115327000D02*
X146668500Y-115327000D01*
G75*
G02*
X146906000Y-115564500I0J-237500D01*
G01*
X146906000Y-116139500D01*
G75*
G02*
X146668500Y-116377000I-237500J0D01*
G01*
X146193500Y-116377000D01*
G75*
G02*
X145956000Y-116139500I0J237500D01*
G01*
X145956000Y-115564500D01*
G75*
G02*
X146193500Y-115327000I237500J0D01*
G01*
G37*
G36*
G01*
X140950400Y-99349100D02*
X140950400Y-98874100D01*
G75*
G02*
X141187900Y-98636600I237500J0D01*
G01*
X141762900Y-98636600D01*
G75*
G02*
X142000400Y-98874100I0J-237500D01*
G01*
X142000400Y-99349100D01*
G75*
G02*
X141762900Y-99586600I-237500J0D01*
G01*
X141187900Y-99586600D01*
G75*
G02*
X140950400Y-99349100I0J237500D01*
G01*
G37*
G36*
G01*
X139200400Y-99349100D02*
X139200400Y-98874100D01*
G75*
G02*
X139437900Y-98636600I237500J0D01*
G01*
X140012900Y-98636600D01*
G75*
G02*
X140250400Y-98874100I0J-237500D01*
G01*
X140250400Y-99349100D01*
G75*
G02*
X140012900Y-99586600I-237500J0D01*
G01*
X139437900Y-99586600D01*
G75*
G02*
X139200400Y-99349100I0J237500D01*
G01*
G37*
G36*
G01*
X152075600Y-101685900D02*
X152075600Y-101210900D01*
G75*
G02*
X152313100Y-100973400I237500J0D01*
G01*
X152888100Y-100973400D01*
G75*
G02*
X153125600Y-101210900I0J-237500D01*
G01*
X153125600Y-101685900D01*
G75*
G02*
X152888100Y-101923400I-237500J0D01*
G01*
X152313100Y-101923400D01*
G75*
G02*
X152075600Y-101685900I0J237500D01*
G01*
G37*
G36*
G01*
X150325600Y-101685900D02*
X150325600Y-101210900D01*
G75*
G02*
X150563100Y-100973400I237500J0D01*
G01*
X151138100Y-100973400D01*
G75*
G02*
X151375600Y-101210900I0J-237500D01*
G01*
X151375600Y-101685900D01*
G75*
G02*
X151138100Y-101923400I-237500J0D01*
G01*
X150563100Y-101923400D01*
G75*
G02*
X150325600Y-101685900I0J237500D01*
G01*
G37*
G36*
G01*
X156636000Y-111205000D02*
X156636000Y-111680000D01*
G75*
G02*
X156398500Y-111917500I-237500J0D01*
G01*
X155823500Y-111917500D01*
G75*
G02*
X155586000Y-111680000I0J237500D01*
G01*
X155586000Y-111205000D01*
G75*
G02*
X155823500Y-110967500I237500J0D01*
G01*
X156398500Y-110967500D01*
G75*
G02*
X156636000Y-111205000I0J-237500D01*
G01*
G37*
G36*
G01*
X158386000Y-111205000D02*
X158386000Y-111680000D01*
G75*
G02*
X158148500Y-111917500I-237500J0D01*
G01*
X157573500Y-111917500D01*
G75*
G02*
X157336000Y-111680000I0J237500D01*
G01*
X157336000Y-111205000D01*
G75*
G02*
X157573500Y-110967500I237500J0D01*
G01*
X158148500Y-110967500D01*
G75*
G02*
X158386000Y-111205000I0J-237500D01*
G01*
G37*
G36*
G01*
X145144500Y-117964500D02*
X144669500Y-117964500D01*
G75*
G02*
X144432000Y-117727000I0J237500D01*
G01*
X144432000Y-117152000D01*
G75*
G02*
X144669500Y-116914500I237500J0D01*
G01*
X145144500Y-116914500D01*
G75*
G02*
X145382000Y-117152000I0J-237500D01*
G01*
X145382000Y-117727000D01*
G75*
G02*
X145144500Y-117964500I-237500J0D01*
G01*
G37*
G36*
G01*
X145144500Y-119714500D02*
X144669500Y-119714500D01*
G75*
G02*
X144432000Y-119477000I0J237500D01*
G01*
X144432000Y-118902000D01*
G75*
G02*
X144669500Y-118664500I237500J0D01*
G01*
X145144500Y-118664500D01*
G75*
G02*
X145382000Y-118902000I0J-237500D01*
G01*
X145382000Y-119477000D01*
G75*
G02*
X145144500Y-119714500I-237500J0D01*
G01*
G37*
G36*
G01*
X141495000Y-105807500D02*
X141495000Y-106282500D01*
G75*
G02*
X141257500Y-106520000I-237500J0D01*
G01*
X140682500Y-106520000D01*
G75*
G02*
X140445000Y-106282500I0J237500D01*
G01*
X140445000Y-105807500D01*
G75*
G02*
X140682500Y-105570000I237500J0D01*
G01*
X141257500Y-105570000D01*
G75*
G02*
X141495000Y-105807500I0J-237500D01*
G01*
G37*
G36*
G01*
X143245000Y-105807500D02*
X143245000Y-106282500D01*
G75*
G02*
X143007500Y-106520000I-237500J0D01*
G01*
X142432500Y-106520000D01*
G75*
G02*
X142195000Y-106282500I0J237500D01*
G01*
X142195000Y-105807500D01*
G75*
G02*
X142432500Y-105570000I237500J0D01*
G01*
X143007500Y-105570000D01*
G75*
G02*
X143245000Y-105807500I0J-237500D01*
G01*
G37*
G36*
G01*
X129650500Y-108602000D02*
X129175500Y-108602000D01*
G75*
G02*
X128938000Y-108364500I0J237500D01*
G01*
X128938000Y-107789500D01*
G75*
G02*
X129175500Y-107552000I237500J0D01*
G01*
X129650500Y-107552000D01*
G75*
G02*
X129888000Y-107789500I0J-237500D01*
G01*
X129888000Y-108364500D01*
G75*
G02*
X129650500Y-108602000I-237500J0D01*
G01*
G37*
G36*
G01*
X129650500Y-110352000D02*
X129175500Y-110352000D01*
G75*
G02*
X128938000Y-110114500I0J237500D01*
G01*
X128938000Y-109539500D01*
G75*
G02*
X129175500Y-109302000I237500J0D01*
G01*
X129650500Y-109302000D01*
G75*
G02*
X129888000Y-109539500I0J-237500D01*
G01*
X129888000Y-110114500D01*
G75*
G02*
X129650500Y-110352000I-237500J0D01*
G01*
G37*
G36*
G01*
X112793000Y-114380000D02*
X112793000Y-114855000D01*
G75*
G02*
X112555500Y-115092500I-237500J0D01*
G01*
X111980500Y-115092500D01*
G75*
G02*
X111743000Y-114855000I0J237500D01*
G01*
X111743000Y-114380000D01*
G75*
G02*
X111980500Y-114142500I237500J0D01*
G01*
X112555500Y-114142500D01*
G75*
G02*
X112793000Y-114380000I0J-237500D01*
G01*
G37*
G36*
G01*
X114543000Y-114380000D02*
X114543000Y-114855000D01*
G75*
G02*
X114305500Y-115092500I-237500J0D01*
G01*
X113730500Y-115092500D01*
G75*
G02*
X113493000Y-114855000I0J237500D01*
G01*
X113493000Y-114380000D01*
G75*
G02*
X113730500Y-114142500I237500J0D01*
G01*
X114305500Y-114142500D01*
G75*
G02*
X114543000Y-114380000I0J-237500D01*
G01*
G37*
G36*
G01*
X112793000Y-112919500D02*
X112793000Y-113394500D01*
G75*
G02*
X112555500Y-113632000I-237500J0D01*
G01*
X111980500Y-113632000D01*
G75*
G02*
X111743000Y-113394500I0J237500D01*
G01*
X111743000Y-112919500D01*
G75*
G02*
X111980500Y-112682000I237500J0D01*
G01*
X112555500Y-112682000D01*
G75*
G02*
X112793000Y-112919500I0J-237500D01*
G01*
G37*
G36*
G01*
X114543000Y-112919500D02*
X114543000Y-113394500D01*
G75*
G02*
X114305500Y-113632000I-237500J0D01*
G01*
X113730500Y-113632000D01*
G75*
G02*
X113493000Y-113394500I0J237500D01*
G01*
X113493000Y-112919500D01*
G75*
G02*
X113730500Y-112682000I237500J0D01*
G01*
X114305500Y-112682000D01*
G75*
G02*
X114543000Y-112919500I0J-237500D01*
G01*
G37*
G36*
G01*
X111903500Y-97364000D02*
X112378500Y-97364000D01*
G75*
G02*
X112616000Y-97601500I0J-237500D01*
G01*
X112616000Y-98176500D01*
G75*
G02*
X112378500Y-98414000I-237500J0D01*
G01*
X111903500Y-98414000D01*
G75*
G02*
X111666000Y-98176500I0J237500D01*
G01*
X111666000Y-97601500D01*
G75*
G02*
X111903500Y-97364000I237500J0D01*
G01*
G37*
G36*
G01*
X111903500Y-95614000D02*
X112378500Y-95614000D01*
G75*
G02*
X112616000Y-95851500I0J-237500D01*
G01*
X112616000Y-96426500D01*
G75*
G02*
X112378500Y-96664000I-237500J0D01*
G01*
X111903500Y-96664000D01*
G75*
G02*
X111666000Y-96426500I0J237500D01*
G01*
X111666000Y-95851500D01*
G75*
G02*
X111903500Y-95614000I237500J0D01*
G01*
G37*
G36*
G01*
X129825200Y-119427000D02*
X129825200Y-118952000D01*
G75*
G02*
X130062700Y-118714500I237500J0D01*
G01*
X130637700Y-118714500D01*
G75*
G02*
X130875200Y-118952000I0J-237500D01*
G01*
X130875200Y-119427000D01*
G75*
G02*
X130637700Y-119664500I-237500J0D01*
G01*
X130062700Y-119664500D01*
G75*
G02*
X129825200Y-119427000I0J237500D01*
G01*
G37*
G36*
G01*
X128075200Y-119427000D02*
X128075200Y-118952000D01*
G75*
G02*
X128312700Y-118714500I237500J0D01*
G01*
X128887700Y-118714500D01*
G75*
G02*
X129125200Y-118952000I0J-237500D01*
G01*
X129125200Y-119427000D01*
G75*
G02*
X128887700Y-119664500I-237500J0D01*
G01*
X128312700Y-119664500D01*
G75*
G02*
X128075200Y-119427000I0J237500D01*
G01*
G37*
G36*
G01*
X119841000Y-118142500D02*
X120316000Y-118142500D01*
G75*
G02*
X120553500Y-118380000I0J-237500D01*
G01*
X120553500Y-118955000D01*
G75*
G02*
X120316000Y-119192500I-237500J0D01*
G01*
X119841000Y-119192500D01*
G75*
G02*
X119603500Y-118955000I0J237500D01*
G01*
X119603500Y-118380000D01*
G75*
G02*
X119841000Y-118142500I237500J0D01*
G01*
G37*
G36*
G01*
X119841000Y-116392500D02*
X120316000Y-116392500D01*
G75*
G02*
X120553500Y-116630000I0J-237500D01*
G01*
X120553500Y-117205000D01*
G75*
G02*
X120316000Y-117442500I-237500J0D01*
G01*
X119841000Y-117442500D01*
G75*
G02*
X119603500Y-117205000I0J237500D01*
G01*
X119603500Y-116630000D01*
G75*
G02*
X119841000Y-116392500I237500J0D01*
G01*
G37*
G36*
G01*
X122571500Y-100539000D02*
X123046500Y-100539000D01*
G75*
G02*
X123284000Y-100776500I0J-237500D01*
G01*
X123284000Y-101351500D01*
G75*
G02*
X123046500Y-101589000I-237500J0D01*
G01*
X122571500Y-101589000D01*
G75*
G02*
X122334000Y-101351500I0J237500D01*
G01*
X122334000Y-100776500D01*
G75*
G02*
X122571500Y-100539000I237500J0D01*
G01*
G37*
G36*
G01*
X122571500Y-98789000D02*
X123046500Y-98789000D01*
G75*
G02*
X123284000Y-99026500I0J-237500D01*
G01*
X123284000Y-99601500D01*
G75*
G02*
X123046500Y-99839000I-237500J0D01*
G01*
X122571500Y-99839000D01*
G75*
G02*
X122334000Y-99601500I0J237500D01*
G01*
X122334000Y-99026500D01*
G75*
G02*
X122571500Y-98789000I237500J0D01*
G01*
G37*
G36*
G01*
X113394000Y-117585500D02*
X113394000Y-117110500D01*
G75*
G02*
X113631500Y-116873000I237500J0D01*
G01*
X114206500Y-116873000D01*
G75*
G02*
X114444000Y-117110500I0J-237500D01*
G01*
X114444000Y-117585500D01*
G75*
G02*
X114206500Y-117823000I-237500J0D01*
G01*
X113631500Y-117823000D01*
G75*
G02*
X113394000Y-117585500I0J237500D01*
G01*
G37*
G36*
G01*
X111644000Y-117585500D02*
X111644000Y-117110500D01*
G75*
G02*
X111881500Y-116873000I237500J0D01*
G01*
X112456500Y-116873000D01*
G75*
G02*
X112694000Y-117110500I0J-237500D01*
G01*
X112694000Y-117585500D01*
G75*
G02*
X112456500Y-117823000I-237500J0D01*
G01*
X111881500Y-117823000D01*
G75*
G02*
X111644000Y-117585500I0J237500D01*
G01*
G37*
M02*
