G04 #@! TF.GenerationSoftware,KiCad,Pcbnew,(5.1.8)-1*
G04 #@! TF.CreationDate,2020-12-07T15:13:13+01:00*
G04 #@! TF.ProjectId,SuperPower-uC-KiCad,53757065-7250-46f7-9765-722d75432d4b,rev?*
G04 #@! TF.SameCoordinates,Original*
G04 #@! TF.FileFunction,Legend,Bot*
G04 #@! TF.FilePolarity,Positive*
%FSLAX46Y46*%
G04 Gerber Fmt 4.6, Leading zero omitted, Abs format (unit mm)*
G04 Created by KiCad (PCBNEW (5.1.8)-1) date 2020-12-07 15:13:13*
%MOMM*%
%LPD*%
G01*
G04 APERTURE LIST*
%ADD10C,0.150000*%
%ADD11C,0.120000*%
G04 APERTURE END LIST*
D10*
X138231571Y-117078333D02*
X138231571Y-117411666D01*
X138755380Y-117554523D02*
X138755380Y-117078333D01*
X137755380Y-117078333D01*
X137755380Y-117554523D01*
X137755380Y-117887857D02*
X138755380Y-118554523D01*
X137755380Y-118554523D02*
X138755380Y-117887857D01*
X138755380Y-118935476D02*
X137755380Y-118935476D01*
X137755380Y-119316428D01*
X137803000Y-119411666D01*
X137850619Y-119459285D01*
X137945857Y-119506904D01*
X138088714Y-119506904D01*
X138183952Y-119459285D01*
X138231571Y-119411666D01*
X138279190Y-119316428D01*
X138279190Y-118935476D01*
X137755380Y-119840238D02*
X137755380Y-120506904D01*
X138755380Y-120078333D01*
X135691571Y-117078333D02*
X135691571Y-117411666D01*
X136215380Y-117554523D02*
X136215380Y-117078333D01*
X135215380Y-117078333D01*
X135215380Y-117554523D01*
X135215380Y-117887857D02*
X136215380Y-118554523D01*
X135215380Y-118554523D02*
X136215380Y-117887857D01*
X136215380Y-118935476D02*
X135215380Y-118935476D01*
X135215380Y-119316428D01*
X135263000Y-119411666D01*
X135310619Y-119459285D01*
X135405857Y-119506904D01*
X135548714Y-119506904D01*
X135643952Y-119459285D01*
X135691571Y-119411666D01*
X135739190Y-119316428D01*
X135739190Y-118935476D01*
X135215380Y-120364047D02*
X135215380Y-120173571D01*
X135263000Y-120078333D01*
X135310619Y-120030714D01*
X135453476Y-119935476D01*
X135643952Y-119887857D01*
X136024904Y-119887857D01*
X136120142Y-119935476D01*
X136167761Y-119983095D01*
X136215380Y-120078333D01*
X136215380Y-120268809D01*
X136167761Y-120364047D01*
X136120142Y-120411666D01*
X136024904Y-120459285D01*
X135786809Y-120459285D01*
X135691571Y-120411666D01*
X135643952Y-120364047D01*
X135596333Y-120268809D01*
X135596333Y-120078333D01*
X135643952Y-119983095D01*
X135691571Y-119935476D01*
X135786809Y-119887857D01*
X133151571Y-117078333D02*
X133151571Y-117411666D01*
X133675380Y-117554523D02*
X133675380Y-117078333D01*
X132675380Y-117078333D01*
X132675380Y-117554523D01*
X132675380Y-117887857D02*
X133675380Y-118554523D01*
X132675380Y-118554523D02*
X133675380Y-117887857D01*
X133675380Y-118935476D02*
X132675380Y-118935476D01*
X132675380Y-119316428D01*
X132723000Y-119411666D01*
X132770619Y-119459285D01*
X132865857Y-119506904D01*
X133008714Y-119506904D01*
X133103952Y-119459285D01*
X133151571Y-119411666D01*
X133199190Y-119316428D01*
X133199190Y-118935476D01*
X132675380Y-120411666D02*
X132675380Y-119935476D01*
X133151571Y-119887857D01*
X133103952Y-119935476D01*
X133056333Y-120030714D01*
X133056333Y-120268809D01*
X133103952Y-120364047D01*
X133151571Y-120411666D01*
X133246809Y-120459285D01*
X133484904Y-120459285D01*
X133580142Y-120411666D01*
X133627761Y-120364047D01*
X133675380Y-120268809D01*
X133675380Y-120030714D01*
X133627761Y-119935476D01*
X133580142Y-119887857D01*
X130738571Y-117205333D02*
X130738571Y-117538666D01*
X131262380Y-117681523D02*
X131262380Y-117205333D01*
X130262380Y-117205333D01*
X130262380Y-117681523D01*
X130262380Y-118014857D02*
X131262380Y-118681523D01*
X130262380Y-118681523D02*
X131262380Y-118014857D01*
X131262380Y-119062476D02*
X130262380Y-119062476D01*
X130262380Y-119443428D01*
X130310000Y-119538666D01*
X130357619Y-119586285D01*
X130452857Y-119633904D01*
X130595714Y-119633904D01*
X130690952Y-119586285D01*
X130738571Y-119538666D01*
X130786190Y-119443428D01*
X130786190Y-119062476D01*
X130595714Y-120491047D02*
X131262380Y-120491047D01*
X130214761Y-120252952D02*
X130929047Y-120014857D01*
X130929047Y-120633904D01*
X140295380Y-118316523D02*
X140295380Y-118935571D01*
X140676333Y-118602238D01*
X140676333Y-118745095D01*
X140723952Y-118840333D01*
X140771571Y-118887952D01*
X140866809Y-118935571D01*
X141104904Y-118935571D01*
X141200142Y-118887952D01*
X141247761Y-118840333D01*
X141295380Y-118745095D01*
X141295380Y-118459380D01*
X141247761Y-118364142D01*
X141200142Y-118316523D01*
X140628714Y-119268904D02*
X141295380Y-119507000D01*
X140628714Y-119745095D01*
X140295380Y-120030809D02*
X140295380Y-120649857D01*
X140676333Y-120316523D01*
X140676333Y-120459380D01*
X140723952Y-120554619D01*
X140771571Y-120602238D01*
X140866809Y-120649857D01*
X141104904Y-120649857D01*
X141200142Y-120602238D01*
X141247761Y-120554619D01*
X141295380Y-120459380D01*
X141295380Y-120173666D01*
X141247761Y-120078428D01*
X141200142Y-120030809D01*
X143089380Y-114308333D02*
X143089380Y-114927380D01*
X143470333Y-114594047D01*
X143470333Y-114736904D01*
X143517952Y-114832142D01*
X143565571Y-114879761D01*
X143660809Y-114927380D01*
X143898904Y-114927380D01*
X143994142Y-114879761D01*
X144041761Y-114832142D01*
X144089380Y-114736904D01*
X144089380Y-114451190D01*
X144041761Y-114355952D01*
X143994142Y-114308333D01*
X143422714Y-115260714D02*
X144089380Y-115498809D01*
X143422714Y-115736904D01*
X143089380Y-116022619D02*
X143089380Y-116641666D01*
X143470333Y-116308333D01*
X143470333Y-116451190D01*
X143517952Y-116546428D01*
X143565571Y-116594047D01*
X143660809Y-116641666D01*
X143898904Y-116641666D01*
X143994142Y-116594047D01*
X144041761Y-116546428D01*
X144089380Y-116451190D01*
X144089380Y-116165476D01*
X144041761Y-116070238D01*
X143994142Y-116022619D01*
X144184619Y-116832142D02*
X144184619Y-117594047D01*
X144089380Y-117832142D02*
X143089380Y-117832142D01*
X143803666Y-118165476D01*
X143089380Y-118498809D01*
X144089380Y-118498809D01*
X143994142Y-119546428D02*
X144041761Y-119498809D01*
X144089380Y-119355952D01*
X144089380Y-119260714D01*
X144041761Y-119117857D01*
X143946523Y-119022619D01*
X143851285Y-118975000D01*
X143660809Y-118927380D01*
X143517952Y-118927380D01*
X143327476Y-118975000D01*
X143232238Y-119022619D01*
X143137000Y-119117857D01*
X143089380Y-119260714D01*
X143089380Y-119355952D01*
X143137000Y-119498809D01*
X143184619Y-119546428D01*
X143089380Y-119975000D02*
X143898904Y-119975000D01*
X143994142Y-120022619D01*
X144041761Y-120070238D01*
X144089380Y-120165476D01*
X144089380Y-120355952D01*
X144041761Y-120451190D01*
X143994142Y-120498809D01*
X143898904Y-120546428D01*
X143089380Y-120546428D01*
X145423000Y-118491095D02*
X145375380Y-118395857D01*
X145375380Y-118253000D01*
X145423000Y-118110142D01*
X145518238Y-118014904D01*
X145613476Y-117967285D01*
X145803952Y-117919666D01*
X145946809Y-117919666D01*
X146137285Y-117967285D01*
X146232523Y-118014904D01*
X146327761Y-118110142D01*
X146375380Y-118253000D01*
X146375380Y-118348238D01*
X146327761Y-118491095D01*
X146280142Y-118538714D01*
X145946809Y-118538714D01*
X145946809Y-118348238D01*
X146375380Y-118967285D02*
X145375380Y-118967285D01*
X146375380Y-119538714D01*
X145375380Y-119538714D01*
X146375380Y-120014904D02*
X145375380Y-120014904D01*
X145375380Y-120253000D01*
X145423000Y-120395857D01*
X145518238Y-120491095D01*
X145613476Y-120538714D01*
X145803952Y-120586333D01*
X145946809Y-120586333D01*
X146137285Y-120538714D01*
X146232523Y-120491095D01*
X146327761Y-120395857D01*
X146375380Y-120253000D01*
X146375380Y-120014904D01*
X148915380Y-117522809D02*
X147915380Y-117522809D01*
X147915380Y-118189476D02*
X147915380Y-118379952D01*
X147963000Y-118475190D01*
X148058238Y-118570428D01*
X148248714Y-118618047D01*
X148582047Y-118618047D01*
X148772523Y-118570428D01*
X148867761Y-118475190D01*
X148915380Y-118379952D01*
X148915380Y-118189476D01*
X148867761Y-118094238D01*
X148772523Y-117999000D01*
X148582047Y-117951380D01*
X148248714Y-117951380D01*
X148058238Y-117999000D01*
X147963000Y-118094238D01*
X147915380Y-118189476D01*
X148915380Y-119570428D02*
X148915380Y-118999000D01*
X148915380Y-119284714D02*
X147915380Y-119284714D01*
X148058238Y-119189476D01*
X148153476Y-119094238D01*
X148201095Y-118999000D01*
X147915380Y-120475190D02*
X147915380Y-119999000D01*
X148391571Y-119951380D01*
X148343952Y-119999000D01*
X148296333Y-120094238D01*
X148296333Y-120332333D01*
X148343952Y-120427571D01*
X148391571Y-120475190D01*
X148486809Y-120522809D01*
X148724904Y-120522809D01*
X148820142Y-120475190D01*
X148867761Y-120427571D01*
X148915380Y-120332333D01*
X148915380Y-120094238D01*
X148867761Y-119999000D01*
X148820142Y-119951380D01*
X151455380Y-118253000D02*
X150455380Y-118253000D01*
X150455380Y-118919666D02*
X150455380Y-119110142D01*
X150503000Y-119205380D01*
X150598238Y-119300619D01*
X150788714Y-119348238D01*
X151122047Y-119348238D01*
X151312523Y-119300619D01*
X151407761Y-119205380D01*
X151455380Y-119110142D01*
X151455380Y-118919666D01*
X151407761Y-118824428D01*
X151312523Y-118729190D01*
X151122047Y-118681571D01*
X150788714Y-118681571D01*
X150598238Y-118729190D01*
X150503000Y-118824428D01*
X150455380Y-118919666D01*
X150550619Y-119729190D02*
X150503000Y-119776809D01*
X150455380Y-119872047D01*
X150455380Y-120110142D01*
X150503000Y-120205380D01*
X150550619Y-120253000D01*
X150645857Y-120300619D01*
X150741095Y-120300619D01*
X150883952Y-120253000D01*
X151455380Y-119681571D01*
X151455380Y-120300619D01*
X153995380Y-118253000D02*
X152995380Y-118253000D01*
X152995380Y-118919666D02*
X152995380Y-119110142D01*
X153043000Y-119205380D01*
X153138238Y-119300619D01*
X153328714Y-119348238D01*
X153662047Y-119348238D01*
X153852523Y-119300619D01*
X153947761Y-119205380D01*
X153995380Y-119110142D01*
X153995380Y-118919666D01*
X153947761Y-118824428D01*
X153852523Y-118729190D01*
X153662047Y-118681571D01*
X153328714Y-118681571D01*
X153138238Y-118729190D01*
X153043000Y-118824428D01*
X152995380Y-118919666D01*
X153328714Y-120205380D02*
X153995380Y-120205380D01*
X152947761Y-119967285D02*
X153662047Y-119729190D01*
X153662047Y-120348238D01*
X156535380Y-117522809D02*
X155535380Y-117522809D01*
X155535380Y-118189476D02*
X155535380Y-118379952D01*
X155583000Y-118475190D01*
X155678238Y-118570428D01*
X155868714Y-118618047D01*
X156202047Y-118618047D01*
X156392523Y-118570428D01*
X156487761Y-118475190D01*
X156535380Y-118379952D01*
X156535380Y-118189476D01*
X156487761Y-118094238D01*
X156392523Y-117999000D01*
X156202047Y-117951380D01*
X155868714Y-117951380D01*
X155678238Y-117999000D01*
X155583000Y-118094238D01*
X155535380Y-118189476D01*
X156535380Y-119570428D02*
X156535380Y-118999000D01*
X156535380Y-119284714D02*
X155535380Y-119284714D01*
X155678238Y-119189476D01*
X155773476Y-119094238D01*
X155821095Y-118999000D01*
X155535380Y-120427571D02*
X155535380Y-120237095D01*
X155583000Y-120141857D01*
X155630619Y-120094238D01*
X155773476Y-119999000D01*
X155963952Y-119951380D01*
X156344904Y-119951380D01*
X156440142Y-119999000D01*
X156487761Y-120046619D01*
X156535380Y-120141857D01*
X156535380Y-120332333D01*
X156487761Y-120427571D01*
X156440142Y-120475190D01*
X156344904Y-120522809D01*
X156106809Y-120522809D01*
X156011571Y-120475190D01*
X155963952Y-120427571D01*
X155916333Y-120332333D01*
X155916333Y-120141857D01*
X155963952Y-120046619D01*
X156011571Y-119999000D01*
X156106809Y-119951380D01*
X159075380Y-117522809D02*
X158075380Y-117522809D01*
X158075380Y-118189476D02*
X158075380Y-118379952D01*
X158123000Y-118475190D01*
X158218238Y-118570428D01*
X158408714Y-118618047D01*
X158742047Y-118618047D01*
X158932523Y-118570428D01*
X159027761Y-118475190D01*
X159075380Y-118379952D01*
X159075380Y-118189476D01*
X159027761Y-118094238D01*
X158932523Y-117999000D01*
X158742047Y-117951380D01*
X158408714Y-117951380D01*
X158218238Y-117999000D01*
X158123000Y-118094238D01*
X158075380Y-118189476D01*
X159075380Y-119570428D02*
X159075380Y-118999000D01*
X159075380Y-119284714D02*
X158075380Y-119284714D01*
X158218238Y-119189476D01*
X158313476Y-119094238D01*
X158361095Y-118999000D01*
X158075380Y-119903761D02*
X158075380Y-120570428D01*
X159075380Y-120141857D01*
X161615380Y-118507000D02*
X160615380Y-118507000D01*
X160615380Y-119173666D02*
X160615380Y-119364142D01*
X160663000Y-119459380D01*
X160758238Y-119554619D01*
X160948714Y-119602238D01*
X161282047Y-119602238D01*
X161472523Y-119554619D01*
X161567761Y-119459380D01*
X161615380Y-119364142D01*
X161615380Y-119173666D01*
X161567761Y-119078428D01*
X161472523Y-118983190D01*
X161282047Y-118935571D01*
X160948714Y-118935571D01*
X160758238Y-118983190D01*
X160663000Y-119078428D01*
X160615380Y-119173666D01*
X160615380Y-120507000D02*
X160615380Y-120030809D01*
X161091571Y-119983190D01*
X161043952Y-120030809D01*
X160996333Y-120126047D01*
X160996333Y-120364142D01*
X161043952Y-120459380D01*
X161091571Y-120507000D01*
X161186809Y-120554619D01*
X161424904Y-120554619D01*
X161520142Y-120507000D01*
X161567761Y-120459380D01*
X161615380Y-120364142D01*
X161615380Y-120126047D01*
X161567761Y-120030809D01*
X161520142Y-119983190D01*
X164155380Y-117522809D02*
X163155380Y-117522809D01*
X163155380Y-118189476D02*
X163155380Y-118379952D01*
X163203000Y-118475190D01*
X163298238Y-118570428D01*
X163488714Y-118618047D01*
X163822047Y-118618047D01*
X164012523Y-118570428D01*
X164107761Y-118475190D01*
X164155380Y-118379952D01*
X164155380Y-118189476D01*
X164107761Y-118094238D01*
X164012523Y-117999000D01*
X163822047Y-117951380D01*
X163488714Y-117951380D01*
X163298238Y-117999000D01*
X163203000Y-118094238D01*
X163155380Y-118189476D01*
X164155380Y-119570428D02*
X164155380Y-118999000D01*
X164155380Y-119284714D02*
X163155380Y-119284714D01*
X163298238Y-119189476D01*
X163393476Y-119094238D01*
X163441095Y-118999000D01*
X163583952Y-120141857D02*
X163536333Y-120046619D01*
X163488714Y-119999000D01*
X163393476Y-119951380D01*
X163345857Y-119951380D01*
X163250619Y-119999000D01*
X163203000Y-120046619D01*
X163155380Y-120141857D01*
X163155380Y-120332333D01*
X163203000Y-120427571D01*
X163250619Y-120475190D01*
X163345857Y-120522809D01*
X163393476Y-120522809D01*
X163488714Y-120475190D01*
X163536333Y-120427571D01*
X163583952Y-120332333D01*
X163583952Y-120141857D01*
X163631571Y-120046619D01*
X163679190Y-119999000D01*
X163774428Y-119951380D01*
X163964904Y-119951380D01*
X164060142Y-119999000D01*
X164107761Y-120046619D01*
X164155380Y-120141857D01*
X164155380Y-120332333D01*
X164107761Y-120427571D01*
X164060142Y-120475190D01*
X163964904Y-120522809D01*
X163774428Y-120522809D01*
X163679190Y-120475190D01*
X163631571Y-120427571D01*
X163583952Y-120332333D01*
X166695380Y-117522809D02*
X165695380Y-117522809D01*
X165695380Y-118189476D02*
X165695380Y-118379952D01*
X165743000Y-118475190D01*
X165838238Y-118570428D01*
X166028714Y-118618047D01*
X166362047Y-118618047D01*
X166552523Y-118570428D01*
X166647761Y-118475190D01*
X166695380Y-118379952D01*
X166695380Y-118189476D01*
X166647761Y-118094238D01*
X166552523Y-117999000D01*
X166362047Y-117951380D01*
X166028714Y-117951380D01*
X165838238Y-117999000D01*
X165743000Y-118094238D01*
X165695380Y-118189476D01*
X166695380Y-119570428D02*
X166695380Y-118999000D01*
X166695380Y-119284714D02*
X165695380Y-119284714D01*
X165838238Y-119189476D01*
X165933476Y-119094238D01*
X165981095Y-118999000D01*
X166695380Y-120046619D02*
X166695380Y-120237095D01*
X166647761Y-120332333D01*
X166600142Y-120379952D01*
X166457285Y-120475190D01*
X166266809Y-120522809D01*
X165885857Y-120522809D01*
X165790619Y-120475190D01*
X165743000Y-120427571D01*
X165695380Y-120332333D01*
X165695380Y-120141857D01*
X165743000Y-120046619D01*
X165790619Y-119999000D01*
X165885857Y-119951380D01*
X166123952Y-119951380D01*
X166219190Y-119999000D01*
X166266809Y-120046619D01*
X166314428Y-120141857D01*
X166314428Y-120332333D01*
X166266809Y-120427571D01*
X166219190Y-120475190D01*
X166123952Y-120522809D01*
X169187761Y-118038714D02*
X169235380Y-118181571D01*
X169235380Y-118419666D01*
X169187761Y-118514904D01*
X169140142Y-118562523D01*
X169044904Y-118610142D01*
X168949666Y-118610142D01*
X168854428Y-118562523D01*
X168806809Y-118514904D01*
X168759190Y-118419666D01*
X168711571Y-118229190D01*
X168663952Y-118133952D01*
X168616333Y-118086333D01*
X168521095Y-118038714D01*
X168425857Y-118038714D01*
X168330619Y-118086333D01*
X168283000Y-118133952D01*
X168235380Y-118229190D01*
X168235380Y-118467285D01*
X168283000Y-118610142D01*
X169235380Y-119038714D02*
X168235380Y-119038714D01*
X168235380Y-119276809D01*
X168283000Y-119419666D01*
X168378238Y-119514904D01*
X168473476Y-119562523D01*
X168663952Y-119610142D01*
X168806809Y-119610142D01*
X168997285Y-119562523D01*
X169092523Y-119514904D01*
X169187761Y-119419666D01*
X169235380Y-119276809D01*
X169235380Y-119038714D01*
X168949666Y-119991095D02*
X168949666Y-120467285D01*
X169235380Y-119895857D02*
X168235380Y-120229190D01*
X169235380Y-120562523D01*
X173315380Y-118745095D02*
X173315380Y-119316523D01*
X174315380Y-119030809D02*
X173315380Y-119030809D01*
X173315380Y-119554619D02*
X174315380Y-120221285D01*
X173315380Y-120221285D02*
X174315380Y-119554619D01*
X171775380Y-119340333D02*
X171299190Y-119007000D01*
X171775380Y-118768904D02*
X170775380Y-118768904D01*
X170775380Y-119149857D01*
X170823000Y-119245095D01*
X170870619Y-119292714D01*
X170965857Y-119340333D01*
X171108714Y-119340333D01*
X171203952Y-119292714D01*
X171251571Y-119245095D01*
X171299190Y-119149857D01*
X171299190Y-118768904D01*
X170775380Y-119673666D02*
X171775380Y-120340333D01*
X170775380Y-120340333D02*
X171775380Y-119673666D01*
X176807761Y-117808523D02*
X176855380Y-117951380D01*
X176855380Y-118189476D01*
X176807761Y-118284714D01*
X176760142Y-118332333D01*
X176664904Y-118379952D01*
X176569666Y-118379952D01*
X176474428Y-118332333D01*
X176426809Y-118284714D01*
X176379190Y-118189476D01*
X176331571Y-117999000D01*
X176283952Y-117903761D01*
X176236333Y-117856142D01*
X176141095Y-117808523D01*
X176045857Y-117808523D01*
X175950619Y-117856142D01*
X175903000Y-117903761D01*
X175855380Y-117999000D01*
X175855380Y-118237095D01*
X175903000Y-118379952D01*
X176760142Y-119379952D02*
X176807761Y-119332333D01*
X176855380Y-119189476D01*
X176855380Y-119094238D01*
X176807761Y-118951380D01*
X176712523Y-118856142D01*
X176617285Y-118808523D01*
X176426809Y-118760904D01*
X176283952Y-118760904D01*
X176093476Y-118808523D01*
X175998238Y-118856142D01*
X175903000Y-118951380D01*
X175855380Y-119094238D01*
X175855380Y-119189476D01*
X175903000Y-119332333D01*
X175950619Y-119379952D01*
X176855380Y-120284714D02*
X176855380Y-119808523D01*
X175855380Y-119808523D01*
X179395380Y-117345809D02*
X178395380Y-117345809D01*
X178395380Y-118012476D02*
X178395380Y-118202952D01*
X178443000Y-118298190D01*
X178538238Y-118393428D01*
X178728714Y-118441047D01*
X179062047Y-118441047D01*
X179252523Y-118393428D01*
X179347761Y-118298190D01*
X179395380Y-118202952D01*
X179395380Y-118012476D01*
X179347761Y-117917238D01*
X179252523Y-117822000D01*
X179062047Y-117774380D01*
X178728714Y-117774380D01*
X178538238Y-117822000D01*
X178443000Y-117917238D01*
X178395380Y-118012476D01*
X178490619Y-118822000D02*
X178443000Y-118869619D01*
X178395380Y-118964857D01*
X178395380Y-119202952D01*
X178443000Y-119298190D01*
X178490619Y-119345809D01*
X178585857Y-119393428D01*
X178681095Y-119393428D01*
X178823952Y-119345809D01*
X179395380Y-118774380D01*
X179395380Y-119393428D01*
X178395380Y-119726761D02*
X178395380Y-120345809D01*
X178776333Y-120012476D01*
X178776333Y-120155333D01*
X178823952Y-120250571D01*
X178871571Y-120298190D01*
X178966809Y-120345809D01*
X179204904Y-120345809D01*
X179300142Y-120298190D01*
X179347761Y-120250571D01*
X179395380Y-120155333D01*
X179395380Y-119869619D01*
X179347761Y-119774380D01*
X179300142Y-119726761D01*
X181808380Y-118330000D02*
X180808380Y-118330000D01*
X180808380Y-118996666D02*
X180808380Y-119187142D01*
X180856000Y-119282380D01*
X180951238Y-119377619D01*
X181141714Y-119425238D01*
X181475047Y-119425238D01*
X181665523Y-119377619D01*
X181760761Y-119282380D01*
X181808380Y-119187142D01*
X181808380Y-118996666D01*
X181760761Y-118901428D01*
X181665523Y-118806190D01*
X181475047Y-118758571D01*
X181141714Y-118758571D01*
X180951238Y-118806190D01*
X180856000Y-118901428D01*
X180808380Y-118996666D01*
X180808380Y-120044285D02*
X180808380Y-120139523D01*
X180856000Y-120234761D01*
X180903619Y-120282380D01*
X180998857Y-120330000D01*
X181189333Y-120377619D01*
X181427428Y-120377619D01*
X181617904Y-120330000D01*
X181713142Y-120282380D01*
X181760761Y-120234761D01*
X181808380Y-120139523D01*
X181808380Y-120044285D01*
X181760761Y-119949047D01*
X181713142Y-119901428D01*
X181617904Y-119853809D01*
X181427428Y-119806190D01*
X181189333Y-119806190D01*
X180998857Y-119853809D01*
X180903619Y-119901428D01*
X180856000Y-119949047D01*
X180808380Y-120044285D01*
X180983000Y-98502095D02*
X180935380Y-98406857D01*
X180935380Y-98264000D01*
X180983000Y-98121142D01*
X181078238Y-98025904D01*
X181173476Y-97978285D01*
X181363952Y-97930666D01*
X181506809Y-97930666D01*
X181697285Y-97978285D01*
X181792523Y-98025904D01*
X181887761Y-98121142D01*
X181935380Y-98264000D01*
X181935380Y-98359238D01*
X181887761Y-98502095D01*
X181840142Y-98549714D01*
X181506809Y-98549714D01*
X181506809Y-98359238D01*
X181935380Y-98978285D02*
X180935380Y-98978285D01*
X181935380Y-99549714D01*
X180935380Y-99549714D01*
X181935380Y-100025904D02*
X180935380Y-100025904D01*
X180935380Y-100264000D01*
X180983000Y-100406857D01*
X181078238Y-100502095D01*
X181173476Y-100549714D01*
X181363952Y-100597333D01*
X181506809Y-100597333D01*
X181697285Y-100549714D01*
X181792523Y-100502095D01*
X181887761Y-100406857D01*
X181935380Y-100264000D01*
X181935380Y-100025904D01*
X179395380Y-98639380D02*
X178919190Y-98306047D01*
X179395380Y-98067952D02*
X178395380Y-98067952D01*
X178395380Y-98448904D01*
X178443000Y-98544142D01*
X178490619Y-98591761D01*
X178585857Y-98639380D01*
X178728714Y-98639380D01*
X178823952Y-98591761D01*
X178871571Y-98544142D01*
X178919190Y-98448904D01*
X178919190Y-98067952D01*
X179347761Y-99020333D02*
X179395380Y-99163190D01*
X179395380Y-99401285D01*
X179347761Y-99496523D01*
X179300142Y-99544142D01*
X179204904Y-99591761D01*
X179109666Y-99591761D01*
X179014428Y-99544142D01*
X178966809Y-99496523D01*
X178919190Y-99401285D01*
X178871571Y-99210809D01*
X178823952Y-99115571D01*
X178776333Y-99067952D01*
X178681095Y-99020333D01*
X178585857Y-99020333D01*
X178490619Y-99067952D01*
X178443000Y-99115571D01*
X178395380Y-99210809D01*
X178395380Y-99448904D01*
X178443000Y-99591761D01*
X178395380Y-99877476D02*
X178395380Y-100448904D01*
X179395380Y-100163190D02*
X178395380Y-100163190D01*
X176855380Y-97964809D02*
X175855380Y-97964809D01*
X175855380Y-98631476D02*
X175855380Y-98821952D01*
X175903000Y-98917190D01*
X175998238Y-99012428D01*
X176188714Y-99060047D01*
X176522047Y-99060047D01*
X176712523Y-99012428D01*
X176807761Y-98917190D01*
X176855380Y-98821952D01*
X176855380Y-98631476D01*
X176807761Y-98536238D01*
X176712523Y-98441000D01*
X176522047Y-98393380D01*
X176188714Y-98393380D01*
X175998238Y-98441000D01*
X175903000Y-98536238D01*
X175855380Y-98631476D01*
X175855380Y-99393380D02*
X175855380Y-100012428D01*
X176236333Y-99679095D01*
X176236333Y-99821952D01*
X176283952Y-99917190D01*
X176331571Y-99964809D01*
X176426809Y-100012428D01*
X176664904Y-100012428D01*
X176760142Y-99964809D01*
X176807761Y-99917190D01*
X176855380Y-99821952D01*
X176855380Y-99536238D01*
X176807761Y-99441000D01*
X176760142Y-99393380D01*
X175855380Y-100869571D02*
X175855380Y-100679095D01*
X175903000Y-100583857D01*
X175950619Y-100536238D01*
X176093476Y-100441000D01*
X176283952Y-100393380D01*
X176664904Y-100393380D01*
X176760142Y-100441000D01*
X176807761Y-100488619D01*
X176855380Y-100583857D01*
X176855380Y-100774333D01*
X176807761Y-100869571D01*
X176760142Y-100917190D01*
X176664904Y-100964809D01*
X176426809Y-100964809D01*
X176331571Y-100917190D01*
X176283952Y-100869571D01*
X176236333Y-100774333D01*
X176236333Y-100583857D01*
X176283952Y-100488619D01*
X176331571Y-100441000D01*
X176426809Y-100393380D01*
X174315380Y-97964809D02*
X173315380Y-97964809D01*
X173315380Y-98631476D02*
X173315380Y-98821952D01*
X173363000Y-98917190D01*
X173458238Y-99012428D01*
X173648714Y-99060047D01*
X173982047Y-99060047D01*
X174172523Y-99012428D01*
X174267761Y-98917190D01*
X174315380Y-98821952D01*
X174315380Y-98631476D01*
X174267761Y-98536238D01*
X174172523Y-98441000D01*
X173982047Y-98393380D01*
X173648714Y-98393380D01*
X173458238Y-98441000D01*
X173363000Y-98536238D01*
X173315380Y-98631476D01*
X173315380Y-99393380D02*
X173315380Y-100012428D01*
X173696333Y-99679095D01*
X173696333Y-99821952D01*
X173743952Y-99917190D01*
X173791571Y-99964809D01*
X173886809Y-100012428D01*
X174124904Y-100012428D01*
X174220142Y-99964809D01*
X174267761Y-99917190D01*
X174315380Y-99821952D01*
X174315380Y-99536238D01*
X174267761Y-99441000D01*
X174220142Y-99393380D01*
X174315380Y-100488619D02*
X174315380Y-100679095D01*
X174267761Y-100774333D01*
X174220142Y-100821952D01*
X174077285Y-100917190D01*
X173886809Y-100964809D01*
X173505857Y-100964809D01*
X173410619Y-100917190D01*
X173363000Y-100869571D01*
X173315380Y-100774333D01*
X173315380Y-100583857D01*
X173363000Y-100488619D01*
X173410619Y-100441000D01*
X173505857Y-100393380D01*
X173743952Y-100393380D01*
X173839190Y-100441000D01*
X173886809Y-100488619D01*
X173934428Y-100583857D01*
X173934428Y-100774333D01*
X173886809Y-100869571D01*
X173839190Y-100917190D01*
X173743952Y-100964809D01*
X166695380Y-97964809D02*
X165695380Y-97964809D01*
X165695380Y-98631476D02*
X165695380Y-98821952D01*
X165743000Y-98917190D01*
X165838238Y-99012428D01*
X166028714Y-99060047D01*
X166362047Y-99060047D01*
X166552523Y-99012428D01*
X166647761Y-98917190D01*
X166695380Y-98821952D01*
X166695380Y-98631476D01*
X166647761Y-98536238D01*
X166552523Y-98441000D01*
X166362047Y-98393380D01*
X166028714Y-98393380D01*
X165838238Y-98441000D01*
X165743000Y-98536238D01*
X165695380Y-98631476D01*
X165695380Y-99393380D02*
X165695380Y-100012428D01*
X166076333Y-99679095D01*
X166076333Y-99821952D01*
X166123952Y-99917190D01*
X166171571Y-99964809D01*
X166266809Y-100012428D01*
X166504904Y-100012428D01*
X166600142Y-99964809D01*
X166647761Y-99917190D01*
X166695380Y-99821952D01*
X166695380Y-99536238D01*
X166647761Y-99441000D01*
X166600142Y-99393380D01*
X165790619Y-100393380D02*
X165743000Y-100441000D01*
X165695380Y-100536238D01*
X165695380Y-100774333D01*
X165743000Y-100869571D01*
X165790619Y-100917190D01*
X165885857Y-100964809D01*
X165981095Y-100964809D01*
X166123952Y-100917190D01*
X166695380Y-100345761D01*
X166695380Y-100964809D01*
X169235380Y-97964809D02*
X168235380Y-97964809D01*
X168235380Y-98631476D02*
X168235380Y-98821952D01*
X168283000Y-98917190D01*
X168378238Y-99012428D01*
X168568714Y-99060047D01*
X168902047Y-99060047D01*
X169092523Y-99012428D01*
X169187761Y-98917190D01*
X169235380Y-98821952D01*
X169235380Y-98631476D01*
X169187761Y-98536238D01*
X169092523Y-98441000D01*
X168902047Y-98393380D01*
X168568714Y-98393380D01*
X168378238Y-98441000D01*
X168283000Y-98536238D01*
X168235380Y-98631476D01*
X168235380Y-99393380D02*
X168235380Y-100012428D01*
X168616333Y-99679095D01*
X168616333Y-99821952D01*
X168663952Y-99917190D01*
X168711571Y-99964809D01*
X168806809Y-100012428D01*
X169044904Y-100012428D01*
X169140142Y-99964809D01*
X169187761Y-99917190D01*
X169235380Y-99821952D01*
X169235380Y-99536238D01*
X169187761Y-99441000D01*
X169140142Y-99393380D01*
X168235380Y-100917190D02*
X168235380Y-100441000D01*
X168711571Y-100393380D01*
X168663952Y-100441000D01*
X168616333Y-100536238D01*
X168616333Y-100774333D01*
X168663952Y-100869571D01*
X168711571Y-100917190D01*
X168806809Y-100964809D01*
X169044904Y-100964809D01*
X169140142Y-100917190D01*
X169187761Y-100869571D01*
X169235380Y-100774333D01*
X169235380Y-100536238D01*
X169187761Y-100441000D01*
X169140142Y-100393380D01*
X171775380Y-97964809D02*
X170775380Y-97964809D01*
X170775380Y-98631476D02*
X170775380Y-98821952D01*
X170823000Y-98917190D01*
X170918238Y-99012428D01*
X171108714Y-99060047D01*
X171442047Y-99060047D01*
X171632523Y-99012428D01*
X171727761Y-98917190D01*
X171775380Y-98821952D01*
X171775380Y-98631476D01*
X171727761Y-98536238D01*
X171632523Y-98441000D01*
X171442047Y-98393380D01*
X171108714Y-98393380D01*
X170918238Y-98441000D01*
X170823000Y-98536238D01*
X170775380Y-98631476D01*
X170775380Y-99393380D02*
X170775380Y-100012428D01*
X171156333Y-99679095D01*
X171156333Y-99821952D01*
X171203952Y-99917190D01*
X171251571Y-99964809D01*
X171346809Y-100012428D01*
X171584904Y-100012428D01*
X171680142Y-99964809D01*
X171727761Y-99917190D01*
X171775380Y-99821952D01*
X171775380Y-99536238D01*
X171727761Y-99441000D01*
X171680142Y-99393380D01*
X171108714Y-100869571D02*
X171775380Y-100869571D01*
X170727761Y-100631476D02*
X171442047Y-100393380D01*
X171442047Y-101012428D01*
X164155380Y-97964809D02*
X163155380Y-97964809D01*
X163155380Y-98631476D02*
X163155380Y-98821952D01*
X163203000Y-98917190D01*
X163298238Y-99012428D01*
X163488714Y-99060047D01*
X163822047Y-99060047D01*
X164012523Y-99012428D01*
X164107761Y-98917190D01*
X164155380Y-98821952D01*
X164155380Y-98631476D01*
X164107761Y-98536238D01*
X164012523Y-98441000D01*
X163822047Y-98393380D01*
X163488714Y-98393380D01*
X163298238Y-98441000D01*
X163203000Y-98536238D01*
X163155380Y-98631476D01*
X163155380Y-99393380D02*
X163155380Y-100012428D01*
X163536333Y-99679095D01*
X163536333Y-99821952D01*
X163583952Y-99917190D01*
X163631571Y-99964809D01*
X163726809Y-100012428D01*
X163964904Y-100012428D01*
X164060142Y-99964809D01*
X164107761Y-99917190D01*
X164155380Y-99821952D01*
X164155380Y-99536238D01*
X164107761Y-99441000D01*
X164060142Y-99393380D01*
X163155380Y-100345761D02*
X163155380Y-100964809D01*
X163536333Y-100631476D01*
X163536333Y-100774333D01*
X163583952Y-100869571D01*
X163631571Y-100917190D01*
X163726809Y-100964809D01*
X163964904Y-100964809D01*
X164060142Y-100917190D01*
X164107761Y-100869571D01*
X164155380Y-100774333D01*
X164155380Y-100488619D01*
X164107761Y-100393380D01*
X164060142Y-100345761D01*
X161615380Y-97964809D02*
X160615380Y-97964809D01*
X160615380Y-98631476D02*
X160615380Y-98821952D01*
X160663000Y-98917190D01*
X160758238Y-99012428D01*
X160948714Y-99060047D01*
X161282047Y-99060047D01*
X161472523Y-99012428D01*
X161567761Y-98917190D01*
X161615380Y-98821952D01*
X161615380Y-98631476D01*
X161567761Y-98536238D01*
X161472523Y-98441000D01*
X161282047Y-98393380D01*
X160948714Y-98393380D01*
X160758238Y-98441000D01*
X160663000Y-98536238D01*
X160615380Y-98631476D01*
X160710619Y-99441000D02*
X160663000Y-99488619D01*
X160615380Y-99583857D01*
X160615380Y-99821952D01*
X160663000Y-99917190D01*
X160710619Y-99964809D01*
X160805857Y-100012428D01*
X160901095Y-100012428D01*
X161043952Y-99964809D01*
X161615380Y-99393380D01*
X161615380Y-100012428D01*
X160615380Y-100917190D02*
X160615380Y-100441000D01*
X161091571Y-100393380D01*
X161043952Y-100441000D01*
X160996333Y-100536238D01*
X160996333Y-100774333D01*
X161043952Y-100869571D01*
X161091571Y-100917190D01*
X161186809Y-100964809D01*
X161424904Y-100964809D01*
X161520142Y-100917190D01*
X161567761Y-100869571D01*
X161615380Y-100774333D01*
X161615380Y-100536238D01*
X161567761Y-100441000D01*
X161520142Y-100393380D01*
X159075380Y-97964809D02*
X158075380Y-97964809D01*
X158075380Y-98631476D02*
X158075380Y-98821952D01*
X158123000Y-98917190D01*
X158218238Y-99012428D01*
X158408714Y-99060047D01*
X158742047Y-99060047D01*
X158932523Y-99012428D01*
X159027761Y-98917190D01*
X159075380Y-98821952D01*
X159075380Y-98631476D01*
X159027761Y-98536238D01*
X158932523Y-98441000D01*
X158742047Y-98393380D01*
X158408714Y-98393380D01*
X158218238Y-98441000D01*
X158123000Y-98536238D01*
X158075380Y-98631476D01*
X158170619Y-99441000D02*
X158123000Y-99488619D01*
X158075380Y-99583857D01*
X158075380Y-99821952D01*
X158123000Y-99917190D01*
X158170619Y-99964809D01*
X158265857Y-100012428D01*
X158361095Y-100012428D01*
X158503952Y-99964809D01*
X159075380Y-99393380D01*
X159075380Y-100012428D01*
X158075380Y-100869571D02*
X158075380Y-100679095D01*
X158123000Y-100583857D01*
X158170619Y-100536238D01*
X158313476Y-100441000D01*
X158503952Y-100393380D01*
X158884904Y-100393380D01*
X158980142Y-100441000D01*
X159027761Y-100488619D01*
X159075380Y-100583857D01*
X159075380Y-100774333D01*
X159027761Y-100869571D01*
X158980142Y-100917190D01*
X158884904Y-100964809D01*
X158646809Y-100964809D01*
X158551571Y-100917190D01*
X158503952Y-100869571D01*
X158456333Y-100774333D01*
X158456333Y-100583857D01*
X158503952Y-100488619D01*
X158551571Y-100441000D01*
X158646809Y-100393380D01*
X156535380Y-97964809D02*
X155535380Y-97964809D01*
X155535380Y-98631476D02*
X155535380Y-98821952D01*
X155583000Y-98917190D01*
X155678238Y-99012428D01*
X155868714Y-99060047D01*
X156202047Y-99060047D01*
X156392523Y-99012428D01*
X156487761Y-98917190D01*
X156535380Y-98821952D01*
X156535380Y-98631476D01*
X156487761Y-98536238D01*
X156392523Y-98441000D01*
X156202047Y-98393380D01*
X155868714Y-98393380D01*
X155678238Y-98441000D01*
X155583000Y-98536238D01*
X155535380Y-98631476D01*
X155630619Y-99441000D02*
X155583000Y-99488619D01*
X155535380Y-99583857D01*
X155535380Y-99821952D01*
X155583000Y-99917190D01*
X155630619Y-99964809D01*
X155725857Y-100012428D01*
X155821095Y-100012428D01*
X155963952Y-99964809D01*
X156535380Y-99393380D01*
X156535380Y-100012428D01*
X155535380Y-100345761D02*
X155535380Y-101012428D01*
X156535380Y-100583857D01*
X153995380Y-97964809D02*
X152995380Y-97964809D01*
X152995380Y-98631476D02*
X152995380Y-98821952D01*
X153043000Y-98917190D01*
X153138238Y-99012428D01*
X153328714Y-99060047D01*
X153662047Y-99060047D01*
X153852523Y-99012428D01*
X153947761Y-98917190D01*
X153995380Y-98821952D01*
X153995380Y-98631476D01*
X153947761Y-98536238D01*
X153852523Y-98441000D01*
X153662047Y-98393380D01*
X153328714Y-98393380D01*
X153138238Y-98441000D01*
X153043000Y-98536238D01*
X152995380Y-98631476D01*
X153995380Y-100012428D02*
X153995380Y-99441000D01*
X153995380Y-99726714D02*
X152995380Y-99726714D01*
X153138238Y-99631476D01*
X153233476Y-99536238D01*
X153281095Y-99441000D01*
X153328714Y-100869571D02*
X153995380Y-100869571D01*
X152947761Y-100631476D02*
X153662047Y-100393380D01*
X153662047Y-101012428D01*
X151455380Y-97964809D02*
X150455380Y-97964809D01*
X150455380Y-98631476D02*
X150455380Y-98821952D01*
X150503000Y-98917190D01*
X150598238Y-99012428D01*
X150788714Y-99060047D01*
X151122047Y-99060047D01*
X151312523Y-99012428D01*
X151407761Y-98917190D01*
X151455380Y-98821952D01*
X151455380Y-98631476D01*
X151407761Y-98536238D01*
X151312523Y-98441000D01*
X151122047Y-98393380D01*
X150788714Y-98393380D01*
X150598238Y-98441000D01*
X150503000Y-98536238D01*
X150455380Y-98631476D01*
X151455380Y-100012428D02*
X151455380Y-99441000D01*
X151455380Y-99726714D02*
X150455380Y-99726714D01*
X150598238Y-99631476D01*
X150693476Y-99536238D01*
X150741095Y-99441000D01*
X150550619Y-100393380D02*
X150503000Y-100441000D01*
X150455380Y-100536238D01*
X150455380Y-100774333D01*
X150503000Y-100869571D01*
X150550619Y-100917190D01*
X150645857Y-100964809D01*
X150741095Y-100964809D01*
X150883952Y-100917190D01*
X151455380Y-100345761D01*
X151455380Y-100964809D01*
X148915380Y-97964809D02*
X147915380Y-97964809D01*
X147915380Y-98631476D02*
X147915380Y-98821952D01*
X147963000Y-98917190D01*
X148058238Y-99012428D01*
X148248714Y-99060047D01*
X148582047Y-99060047D01*
X148772523Y-99012428D01*
X148867761Y-98917190D01*
X148915380Y-98821952D01*
X148915380Y-98631476D01*
X148867761Y-98536238D01*
X148772523Y-98441000D01*
X148582047Y-98393380D01*
X148248714Y-98393380D01*
X148058238Y-98441000D01*
X147963000Y-98536238D01*
X147915380Y-98631476D01*
X148915380Y-100012428D02*
X148915380Y-99441000D01*
X148915380Y-99726714D02*
X147915380Y-99726714D01*
X148058238Y-99631476D01*
X148153476Y-99536238D01*
X148201095Y-99441000D01*
X147915380Y-100345761D02*
X147915380Y-100964809D01*
X148296333Y-100631476D01*
X148296333Y-100774333D01*
X148343952Y-100869571D01*
X148391571Y-100917190D01*
X148486809Y-100964809D01*
X148724904Y-100964809D01*
X148820142Y-100917190D01*
X148867761Y-100869571D01*
X148915380Y-100774333D01*
X148915380Y-100488619D01*
X148867761Y-100393380D01*
X148820142Y-100345761D01*
X145423000Y-98425095D02*
X145375380Y-98329857D01*
X145375380Y-98187000D01*
X145423000Y-98044142D01*
X145518238Y-97948904D01*
X145613476Y-97901285D01*
X145803952Y-97853666D01*
X145946809Y-97853666D01*
X146137285Y-97901285D01*
X146232523Y-97948904D01*
X146327761Y-98044142D01*
X146375380Y-98187000D01*
X146375380Y-98282238D01*
X146327761Y-98425095D01*
X146280142Y-98472714D01*
X145946809Y-98472714D01*
X145946809Y-98282238D01*
X146375380Y-98901285D02*
X145375380Y-98901285D01*
X146375380Y-99472714D01*
X145375380Y-99472714D01*
X146375380Y-99948904D02*
X145375380Y-99948904D01*
X145375380Y-100187000D01*
X145423000Y-100329857D01*
X145518238Y-100425095D01*
X145613476Y-100472714D01*
X145803952Y-100520333D01*
X145946809Y-100520333D01*
X146137285Y-100472714D01*
X146232523Y-100425095D01*
X146327761Y-100329857D01*
X146375380Y-100187000D01*
X146375380Y-99948904D01*
X142835380Y-97837761D02*
X143835380Y-98171095D01*
X142835380Y-98504428D01*
X143835380Y-98837761D02*
X142835380Y-98837761D01*
X143835380Y-99313952D02*
X142835380Y-99313952D01*
X143835380Y-99885380D01*
X142835380Y-99885380D01*
X140295380Y-98488523D02*
X140295380Y-98012333D01*
X140771571Y-97964714D01*
X140723952Y-98012333D01*
X140676333Y-98107571D01*
X140676333Y-98345666D01*
X140723952Y-98440904D01*
X140771571Y-98488523D01*
X140866809Y-98536142D01*
X141104904Y-98536142D01*
X141200142Y-98488523D01*
X141247761Y-98440904D01*
X141295380Y-98345666D01*
X141295380Y-98107571D01*
X141247761Y-98012333D01*
X141200142Y-97964714D01*
X140295380Y-98821857D02*
X141295380Y-99155190D01*
X140295380Y-99488523D01*
X138755380Y-98028238D02*
X137755380Y-98028238D01*
X138755380Y-98504428D02*
X137755380Y-98504428D01*
X138755380Y-99075857D01*
X137755380Y-99075857D01*
X137755380Y-99409190D02*
X137755380Y-99980619D01*
X138755380Y-99694904D02*
X137755380Y-99694904D01*
X135215380Y-97782380D02*
X135215380Y-98401428D01*
X135596333Y-98068095D01*
X135596333Y-98210952D01*
X135643952Y-98306190D01*
X135691571Y-98353809D01*
X135786809Y-98401428D01*
X136024904Y-98401428D01*
X136120142Y-98353809D01*
X136167761Y-98306190D01*
X136215380Y-98210952D01*
X136215380Y-97925238D01*
X136167761Y-97830000D01*
X136120142Y-97782380D01*
X135548714Y-98734761D02*
X136215380Y-98972857D01*
X135548714Y-99210952D01*
X135215380Y-99496666D02*
X135215380Y-100115714D01*
X135596333Y-99782380D01*
X135596333Y-99925238D01*
X135643952Y-100020476D01*
X135691571Y-100068095D01*
X135786809Y-100115714D01*
X136024904Y-100115714D01*
X136120142Y-100068095D01*
X136167761Y-100020476D01*
X136215380Y-99925238D01*
X136215380Y-99639523D01*
X136167761Y-99544285D01*
X136120142Y-99496666D01*
X136310619Y-100306190D02*
X136310619Y-101068095D01*
X135691571Y-101306190D02*
X135691571Y-101639523D01*
X136215380Y-101782380D02*
X136215380Y-101306190D01*
X135215380Y-101306190D01*
X135215380Y-101782380D01*
X136215380Y-102210952D02*
X135215380Y-102210952D01*
X136215380Y-102782380D01*
X135215380Y-102782380D01*
X132675380Y-98401380D02*
X132675380Y-97925190D01*
X133151571Y-97877571D01*
X133103952Y-97925190D01*
X133056333Y-98020428D01*
X133056333Y-98258523D01*
X133103952Y-98353761D01*
X133151571Y-98401380D01*
X133246809Y-98449000D01*
X133484904Y-98449000D01*
X133580142Y-98401380D01*
X133627761Y-98353761D01*
X133675380Y-98258523D01*
X133675380Y-98020428D01*
X133627761Y-97925190D01*
X133580142Y-97877571D01*
X132675380Y-98734714D02*
X133675380Y-99068047D01*
X132675380Y-99401380D01*
X133770619Y-99496619D02*
X133770619Y-100258523D01*
X133151571Y-100496619D02*
X133151571Y-100829952D01*
X133675380Y-100972809D02*
X133675380Y-100496619D01*
X132675380Y-100496619D01*
X132675380Y-100972809D01*
X133675380Y-101401380D02*
X132675380Y-101401380D01*
X133675380Y-101972809D01*
X132675380Y-101972809D01*
X131040142Y-98520476D02*
X131087761Y-98472857D01*
X131135380Y-98330000D01*
X131135380Y-98234761D01*
X131087761Y-98091904D01*
X130992523Y-97996666D01*
X130897285Y-97949047D01*
X130706809Y-97901428D01*
X130563952Y-97901428D01*
X130373476Y-97949047D01*
X130278238Y-97996666D01*
X130183000Y-98091904D01*
X130135380Y-98234761D01*
X130135380Y-98330000D01*
X130183000Y-98472857D01*
X130230619Y-98520476D01*
X131135380Y-98949047D02*
X130135380Y-98949047D01*
X130611571Y-98949047D02*
X130611571Y-99520476D01*
X131135380Y-99520476D02*
X130135380Y-99520476D01*
X131230619Y-99758571D02*
X131230619Y-100520476D01*
X131135380Y-100758571D02*
X130135380Y-100758571D01*
X130135380Y-100996666D01*
X130183000Y-101139523D01*
X130278238Y-101234761D01*
X130373476Y-101282380D01*
X130563952Y-101330000D01*
X130706809Y-101330000D01*
X130897285Y-101282380D01*
X130992523Y-101234761D01*
X131087761Y-101139523D01*
X131135380Y-100996666D01*
X131135380Y-100758571D01*
X131135380Y-101758571D02*
X130135380Y-101758571D01*
X131087761Y-102187142D02*
X131135380Y-102330000D01*
X131135380Y-102568095D01*
X131087761Y-102663333D01*
X131040142Y-102710952D01*
X130944904Y-102758571D01*
X130849666Y-102758571D01*
X130754428Y-102710952D01*
X130706809Y-102663333D01*
X130659190Y-102568095D01*
X130611571Y-102377619D01*
X130563952Y-102282380D01*
X130516333Y-102234761D01*
X130421095Y-102187142D01*
X130325857Y-102187142D01*
X130230619Y-102234761D01*
X130183000Y-102282380D01*
X130135380Y-102377619D01*
X130135380Y-102615714D01*
X130183000Y-102758571D01*
D11*
X131656000Y-114496000D02*
X133556000Y-114496000D01*
X133556000Y-114496000D02*
X133556000Y-112596000D01*
X133556000Y-112596000D02*
X131656000Y-112596000D01*
X131656000Y-112596000D02*
X131656000Y-114496000D01*
X123383000Y-122997000D02*
X125283000Y-122997000D01*
X125283000Y-122997000D02*
X125283000Y-121097000D01*
X125283000Y-121097000D02*
X123383000Y-121097000D01*
X123383000Y-121097000D02*
X123383000Y-122997000D01*
X152085000Y-116017000D02*
X152085000Y-117917000D01*
X153985000Y-116017000D02*
X152085000Y-116017000D01*
X153985000Y-117917000D02*
X153985000Y-116017000D01*
X152085000Y-117917000D02*
X153985000Y-117917000D01*
X146700200Y-100193600D02*
X146700200Y-102093600D01*
X148600200Y-100193600D02*
X146700200Y-100193600D01*
X148600200Y-102093600D02*
X148600200Y-100193600D01*
X146700200Y-102093600D02*
X148600200Y-102093600D01*
X111953000Y-103888500D02*
X111953000Y-105788500D01*
X113853000Y-103888500D02*
X111953000Y-103888500D01*
X113853000Y-105788500D02*
X113853000Y-103888500D01*
X111953000Y-105788500D02*
X113853000Y-105788500D01*
X109413000Y-103888500D02*
X109413000Y-105788500D01*
X111313000Y-103888500D02*
X109413000Y-103888500D01*
X111313000Y-105788500D02*
X111313000Y-103888500D01*
X109413000Y-105788500D02*
X111313000Y-105788500D01*
X127066000Y-119954000D02*
X127066000Y-121854000D01*
X128966000Y-119954000D02*
X127066000Y-119954000D01*
X128966000Y-121854000D02*
X128966000Y-119954000D01*
X127066000Y-121854000D02*
X128966000Y-121854000D01*
X116525000Y-97729000D02*
X116525000Y-99629000D01*
X118425000Y-97729000D02*
X116525000Y-97729000D01*
X118425000Y-99629000D02*
X118425000Y-97729000D01*
X116525000Y-99629000D02*
X118425000Y-99629000D01*
X138573000Y-112667000D02*
X140573000Y-112667000D01*
X138573000Y-109867000D02*
X138573000Y-112667000D01*
X140573000Y-109867000D02*
X138573000Y-109867000D01*
X140573000Y-112667000D02*
X140573000Y-109867000D01*
X151594600Y-111370400D02*
X151594600Y-113370400D01*
X154394600Y-111370400D02*
X151594600Y-111370400D01*
X154394600Y-113370400D02*
X154394600Y-111370400D01*
X151594600Y-113370400D02*
X154394600Y-113370400D01*
X105507000Y-103638500D02*
X105807000Y-103338500D01*
X105207000Y-103338500D02*
X105807000Y-103338500D01*
X105507000Y-103638500D02*
X105207000Y-103338500D01*
X104757000Y-103838500D02*
X104757000Y-105838500D01*
X108857000Y-103838500D02*
X104757000Y-103838500D01*
X108857000Y-105838500D02*
X108857000Y-103838500D01*
X104757000Y-105838500D02*
X108857000Y-105838500D01*
D10*
X132185380Y-109871095D02*
X132185380Y-110442523D01*
X133185380Y-110156809D02*
X132185380Y-110156809D01*
X133185380Y-110775857D02*
X132185380Y-110775857D01*
X132185380Y-111156809D01*
X132233000Y-111252047D01*
X132280619Y-111299666D01*
X132375857Y-111347285D01*
X132518714Y-111347285D01*
X132613952Y-111299666D01*
X132661571Y-111252047D01*
X132709190Y-111156809D01*
X132709190Y-110775857D01*
X132280619Y-111728238D02*
X132233000Y-111775857D01*
X132185380Y-111871095D01*
X132185380Y-112109190D01*
X132233000Y-112204428D01*
X132280619Y-112252047D01*
X132375857Y-112299666D01*
X132471095Y-112299666D01*
X132613952Y-112252047D01*
X133185380Y-111680619D01*
X133185380Y-112299666D01*
X123912380Y-118245095D02*
X123912380Y-118816523D01*
X124912380Y-118530809D02*
X123912380Y-118530809D01*
X124912380Y-119149857D02*
X123912380Y-119149857D01*
X123912380Y-119530809D01*
X123960000Y-119626047D01*
X124007619Y-119673666D01*
X124102857Y-119721285D01*
X124245714Y-119721285D01*
X124340952Y-119673666D01*
X124388571Y-119626047D01*
X124436190Y-119530809D01*
X124436190Y-119149857D01*
X124245714Y-120578428D02*
X124912380Y-120578428D01*
X123864761Y-120340333D02*
X124579047Y-120102238D01*
X124579047Y-120721285D01*
X152614380Y-113165095D02*
X152614380Y-113736523D01*
X153614380Y-113450809D02*
X152614380Y-113450809D01*
X153614380Y-114069857D02*
X152614380Y-114069857D01*
X152614380Y-114450809D01*
X152662000Y-114546047D01*
X152709619Y-114593666D01*
X152804857Y-114641285D01*
X152947714Y-114641285D01*
X153042952Y-114593666D01*
X153090571Y-114546047D01*
X153138190Y-114450809D01*
X153138190Y-114069857D01*
X153042952Y-115212714D02*
X152995333Y-115117476D01*
X152947714Y-115069857D01*
X152852476Y-115022238D01*
X152804857Y-115022238D01*
X152709619Y-115069857D01*
X152662000Y-115117476D01*
X152614380Y-115212714D01*
X152614380Y-115403190D01*
X152662000Y-115498428D01*
X152709619Y-115546047D01*
X152804857Y-115593666D01*
X152852476Y-115593666D01*
X152947714Y-115546047D01*
X152995333Y-115498428D01*
X153042952Y-115403190D01*
X153042952Y-115212714D01*
X153090571Y-115117476D01*
X153138190Y-115069857D01*
X153233428Y-115022238D01*
X153423904Y-115022238D01*
X153519142Y-115069857D01*
X153566761Y-115117476D01*
X153614380Y-115212714D01*
X153614380Y-115403190D01*
X153566761Y-115498428D01*
X153519142Y-115546047D01*
X153423904Y-115593666D01*
X153233428Y-115593666D01*
X153138190Y-115546047D01*
X153090571Y-115498428D01*
X153042952Y-115403190D01*
X147229580Y-97341695D02*
X147229580Y-97913123D01*
X148229580Y-97627409D02*
X147229580Y-97627409D01*
X148229580Y-98246457D02*
X147229580Y-98246457D01*
X147229580Y-98627409D01*
X147277200Y-98722647D01*
X147324819Y-98770266D01*
X147420057Y-98817885D01*
X147562914Y-98817885D01*
X147658152Y-98770266D01*
X147705771Y-98722647D01*
X147753390Y-98627409D01*
X147753390Y-98246457D01*
X147229580Y-99722647D02*
X147229580Y-99246457D01*
X147705771Y-99198838D01*
X147658152Y-99246457D01*
X147610533Y-99341695D01*
X147610533Y-99579790D01*
X147658152Y-99675028D01*
X147705771Y-99722647D01*
X147801009Y-99770266D01*
X148039104Y-99770266D01*
X148134342Y-99722647D01*
X148181961Y-99675028D01*
X148229580Y-99579790D01*
X148229580Y-99341695D01*
X148181961Y-99246457D01*
X148134342Y-99198838D01*
X112482380Y-106053095D02*
X112482380Y-106624523D01*
X113482380Y-106338809D02*
X112482380Y-106338809D01*
X113482380Y-106957857D02*
X112482380Y-106957857D01*
X112482380Y-107338809D01*
X112530000Y-107434047D01*
X112577619Y-107481666D01*
X112672857Y-107529285D01*
X112815714Y-107529285D01*
X112910952Y-107481666D01*
X112958571Y-107434047D01*
X113006190Y-107338809D01*
X113006190Y-106957857D01*
X112482380Y-107862619D02*
X112482380Y-108529285D01*
X113482380Y-108100714D01*
X109815380Y-106053095D02*
X109815380Y-106624523D01*
X110815380Y-106338809D02*
X109815380Y-106338809D01*
X110815380Y-106957857D02*
X109815380Y-106957857D01*
X109815380Y-107338809D01*
X109863000Y-107434047D01*
X109910619Y-107481666D01*
X110005857Y-107529285D01*
X110148714Y-107529285D01*
X110243952Y-107481666D01*
X110291571Y-107434047D01*
X110339190Y-107338809D01*
X110339190Y-106957857D01*
X109815380Y-108386428D02*
X109815380Y-108195952D01*
X109863000Y-108100714D01*
X109910619Y-108053095D01*
X110053476Y-107957857D01*
X110243952Y-107910238D01*
X110624904Y-107910238D01*
X110720142Y-107957857D01*
X110767761Y-108005476D01*
X110815380Y-108100714D01*
X110815380Y-108291190D01*
X110767761Y-108386428D01*
X110720142Y-108434047D01*
X110624904Y-108481666D01*
X110386809Y-108481666D01*
X110291571Y-108434047D01*
X110243952Y-108386428D01*
X110196333Y-108291190D01*
X110196333Y-108100714D01*
X110243952Y-108005476D01*
X110291571Y-107957857D01*
X110386809Y-107910238D01*
X127404880Y-117102095D02*
X127404880Y-117673523D01*
X128404880Y-117387809D02*
X127404880Y-117387809D01*
X128404880Y-118006857D02*
X127404880Y-118006857D01*
X127404880Y-118387809D01*
X127452500Y-118483047D01*
X127500119Y-118530666D01*
X127595357Y-118578285D01*
X127738214Y-118578285D01*
X127833452Y-118530666D01*
X127881071Y-118483047D01*
X127928690Y-118387809D01*
X127928690Y-118006857D01*
X127404880Y-118911619D02*
X127404880Y-119530666D01*
X127785833Y-119197333D01*
X127785833Y-119340190D01*
X127833452Y-119435428D01*
X127881071Y-119483047D01*
X127976309Y-119530666D01*
X128214404Y-119530666D01*
X128309642Y-119483047D01*
X128357261Y-119435428D01*
X128404880Y-119340190D01*
X128404880Y-119054476D01*
X128357261Y-118959238D01*
X128309642Y-118911619D01*
X116927380Y-95131095D02*
X116927380Y-95702523D01*
X117927380Y-95416809D02*
X116927380Y-95416809D01*
X117927380Y-96035857D02*
X116927380Y-96035857D01*
X116927380Y-96416809D01*
X116975000Y-96512047D01*
X117022619Y-96559666D01*
X117117857Y-96607285D01*
X117260714Y-96607285D01*
X117355952Y-96559666D01*
X117403571Y-96512047D01*
X117451190Y-96416809D01*
X117451190Y-96035857D01*
X117927380Y-97559666D02*
X117927380Y-96988238D01*
X117927380Y-97273952D02*
X116927380Y-97273952D01*
X117070238Y-97178714D01*
X117165476Y-97083476D01*
X117213095Y-96988238D01*
X138898380Y-104653666D02*
X139612666Y-104653666D01*
X139755523Y-104606047D01*
X139850761Y-104510809D01*
X139898380Y-104367952D01*
X139898380Y-104272714D01*
X139898380Y-105129857D02*
X138898380Y-105129857D01*
X138898380Y-105510809D01*
X138946000Y-105606047D01*
X138993619Y-105653666D01*
X139088857Y-105701285D01*
X139231714Y-105701285D01*
X139326952Y-105653666D01*
X139374571Y-105606047D01*
X139422190Y-105510809D01*
X139422190Y-105129857D01*
X139231714Y-106558428D02*
X139898380Y-106558428D01*
X138850761Y-106320333D02*
X139565047Y-106082238D01*
X139565047Y-106701285D01*
X152685980Y-107550066D02*
X153400266Y-107550066D01*
X153543123Y-107502447D01*
X153638361Y-107407209D01*
X153685980Y-107264352D01*
X153685980Y-107169114D01*
X153685980Y-108026257D02*
X152685980Y-108026257D01*
X152685980Y-108407209D01*
X152733600Y-108502447D01*
X152781219Y-108550066D01*
X152876457Y-108597685D01*
X153019314Y-108597685D01*
X153114552Y-108550066D01*
X153162171Y-108502447D01*
X153209790Y-108407209D01*
X153209790Y-108026257D01*
X152685980Y-108931019D02*
X152685980Y-109550066D01*
X153066933Y-109216733D01*
X153066933Y-109359590D01*
X153114552Y-109454828D01*
X153162171Y-109502447D01*
X153257409Y-109550066D01*
X153495504Y-109550066D01*
X153590742Y-109502447D01*
X153638361Y-109454828D01*
X153685980Y-109359590D01*
X153685980Y-109073876D01*
X153638361Y-108978638D01*
X153590742Y-108931019D01*
X107402380Y-106481666D02*
X108116666Y-106481666D01*
X108259523Y-106434047D01*
X108354761Y-106338809D01*
X108402380Y-106195952D01*
X108402380Y-106100714D01*
X108402380Y-106957857D02*
X107402380Y-106957857D01*
X107402380Y-107338809D01*
X107450000Y-107434047D01*
X107497619Y-107481666D01*
X107592857Y-107529285D01*
X107735714Y-107529285D01*
X107830952Y-107481666D01*
X107878571Y-107434047D01*
X107926190Y-107338809D01*
X107926190Y-106957857D01*
X108402380Y-108481666D02*
X108402380Y-107910238D01*
X108402380Y-108195952D02*
X107402380Y-108195952D01*
X107545238Y-108100714D01*
X107640476Y-108005476D01*
X107688095Y-107910238D01*
M02*
